<?xml version="1.0" encoding="UTF-8" standalone="no"?>
<!DOCTYPE svg PUBLIC "-//W3C//DTD SVG 1.1//EN"
 "http://www.w3.org/Graphics/SVG/1.1/DTD/svg11.dtd">
<!-- Generated by graphviz version 2.40.1 (20161225.0304)
 -->
<!-- Title: include/assimilation.h Pages: 1 -->
<svg width="291pt" height="196pt"
 viewBox="0.00 0.00 290.50 196.00" xmlns="http://www.w3.org/2000/svg" xmlns:xlink="http://www.w3.org/1999/xlink">
<g id="graph0" class="graph" transform="scale(1 1) rotate(0) translate(4 192)">
<title>include/assimilation.h</title>
<!-- Node14 -->
<g id="node1" class="node">
<title>Node14</title>
<polygon fill="#bfbfbf" stroke="#000000" points="52,-168.5 52,-187.5 162,-187.5 162,-168.5 52,-168.5"/>
<text text-anchor="middle" x="107" y="-175.5" font-family="Helvetica,sans-Serif" font-size="10.00" fill="#000000">include/assimilation.h</text>
</g>
<!-- Node15 -->
<g id="node2" class="node">
<title>Node15</title>
<g id="a_node2"><a xlink:href="assimilation_8cpp.html" target="_top" xlink:title="src/assimilation.cpp">
<polygon fill="none" stroke="#000000" points="0,-112.5 0,-131.5 104,-131.5 104,-112.5 0,-112.5"/>
<text text-anchor="middle" x="52" y="-119.5" font-family="Helvetica,sans-Serif" font-size="10.00" fill="#000000">src/assimilation.cpp</text>
</a>
</g>
</g>
<!-- Node14&#45;&gt;Node15 -->
<g id="edge1" class="edge">
<title>Node14&#45;&gt;Node15</title>
<path fill="none" stroke="#191970" d="M90.3774,-161.0751C80.9145,-151.4402 69.4031,-139.7196 61.4705,-131.6427"/>
<polygon fill="#191970" stroke="#191970" points="87.9155,-163.5635 97.4197,-168.2455 92.9097,-158.6585 87.9155,-163.5635"/>
</g>
<!-- Node16 -->
<g id="node3" class="node">
<title>Node16</title>
<g id="a_node3"><a xlink:href="plant_8h.html" target="_top" xlink:title="include/plant.h">
<polygon fill="none" stroke="#000000" points="122,-112.5 122,-131.5 202,-131.5 202,-112.5 122,-112.5"/>
<text text-anchor="middle" x="162" y="-119.5" font-family="Helvetica,sans-Serif" font-size="10.00" fill="#000000">include/plant.h</text>
</a>
</g>
</g>
<!-- Node14&#45;&gt;Node16 -->
<g id="edge2" class="edge">
<title>Node14&#45;&gt;Node16</title>
<path fill="none" stroke="#191970" d="M123.6226,-161.0751C133.0855,-151.4402 144.5969,-139.7196 152.5295,-131.6427"/>
<polygon fill="#191970" stroke="#191970" points="121.0903,-158.6585 116.5803,-168.2455 126.0845,-163.5635 121.0903,-158.6585"/>
</g>
<!-- Node17 -->
<g id="node4" class="node">
<title>Node17</title>
<g id="a_node4"><a xlink:href="plant_8cpp.html" target="_top" xlink:title="src/plant.cpp">
<polygon fill="none" stroke="#000000" points="66.5,-56.5 66.5,-75.5 139.5,-75.5 139.5,-56.5 66.5,-56.5"/>
<text text-anchor="middle" x="103" y="-63.5" font-family="Helvetica,sans-Serif" font-size="10.00" fill="#000000">src/plant.cpp</text>
</a>
</g>
</g>
<!-- Node16&#45;&gt;Node17 -->
<g id="edge3" class="edge">
<title>Node16&#45;&gt;Node17</title>
<path fill="none" stroke="#191970" d="M144.4693,-105.3607C134.2623,-95.6727 121.7531,-83.7995 113.1592,-75.6427"/>
<polygon fill="#191970" stroke="#191970" points="142.0604,-107.8998 151.723,-112.2455 146.8794,-102.8227 142.0604,-107.8998"/>
</g>
<!-- Node18 -->
<g id="node5" class="node">
<title>Node18</title>
<g id="a_node5"><a xlink:href="pspm__interface_8h.html" target="_top" xlink:title="include/pspm_interface.h">
<polygon fill="none" stroke="#000000" points="157.5,-56.5 157.5,-75.5 282.5,-75.5 282.5,-56.5 157.5,-56.5"/>
<text text-anchor="middle" x="220" y="-63.5" font-family="Helvetica,sans-Serif" font-size="10.00" fill="#000000">include/pspm_interface.h</text>
</a>
</g>
</g>
<!-- Node16&#45;&gt;Node18 -->
<g id="edge4" class="edge">
<title>Node16&#45;&gt;Node18</title>
<path fill="none" stroke="#191970" d="M179.5293,-105.0751C189.5083,-95.4402 201.6476,-83.7196 210.0129,-75.6427"/>
<polygon fill="#191970" stroke="#191970" points="176.8658,-102.7817 172.1028,-112.2455 181.728,-107.8175 176.8658,-102.7817"/>
</g>
<!-- Node19 -->
<g id="node6" class="node">
<title>Node19</title>
<g id="a_node6"><a xlink:href="pspm__interface_8cpp.html" target="_top" xlink:title="src/pspm_interface.cpp">
<polygon fill="none" stroke="#000000" points="160.5,-.5 160.5,-19.5 279.5,-19.5 279.5,-.5 160.5,-.5"/>
<text text-anchor="middle" x="220" y="-7.5" font-family="Helvetica,sans-Serif" font-size="10.00" fill="#000000">src/pspm_interface.cpp</text>
</a>
</g>
</g>
<!-- Node18&#45;&gt;Node19 -->
<g id="edge5" class="edge">
<title>Node18&#45;&gt;Node19</title>
<path fill="none" stroke="#191970" d="M220,-46.1575C220,-37.155 220,-26.9199 220,-19.6427"/>
<polygon fill="#191970" stroke="#191970" points="216.5001,-46.2455 220,-56.2455 223.5001,-46.2456 216.5001,-46.2455"/>
</g>
</g>
</svg>
