<?xml version="1.0" encoding="UTF-8" standalone="no"?>
<!DOCTYPE svg PUBLIC "-//W3C//DTD SVG 1.1//EN"
 "http://www.w3.org/Graphics/SVG/1.1/DTD/svg11.dtd">
<!-- Generated by graphviz version 2.40.1 (20161225.0304)
 -->
<!-- Title: src/assimilation.cpp Pages: 1 -->
<svg width="453pt" height="308pt"
 viewBox="0.00 0.00 453.00 308.00" xmlns="http://www.w3.org/2000/svg" xmlns:xlink="http://www.w3.org/1999/xlink">
<g id="graph0" class="graph" transform="scale(1 1) rotate(0) translate(4 304)">
<title>src/assimilation.cpp</title>
<!-- Node0 -->
<g id="node1" class="node">
<title>Node0</title>
<polygon fill="#bfbfbf" stroke="#000000" points="265.5,-280.5 265.5,-299.5 369.5,-299.5 369.5,-280.5 265.5,-280.5"/>
<text text-anchor="middle" x="317.5" y="-287.5" font-family="Helvetica,sans-Serif" font-size="10.00" fill="#000000">src/assimilation.cpp</text>
</g>
<!-- Node1 -->
<g id="node2" class="node">
<title>Node1</title>
<g id="a_node2"><a xlink:href="assimilation_8h.html" target="_top" xlink:title="assimilation.h">
<polygon fill="none" stroke="#000000" points="178,-224.5 178,-243.5 255,-243.5 255,-224.5 178,-224.5"/>
<text text-anchor="middle" x="216.5" y="-231.5" font-family="Helvetica,sans-Serif" font-size="10.00" fill="#000000">assimilation.h</text>
</a>
</g>
</g>
<!-- Node0&#45;&gt;Node1 -->
<g id="edge1" class="edge">
<title>Node0&#45;&gt;Node1</title>
<path fill="none" stroke="#191970" d="M299.9071,-280.2455C284.121,-271.4928 260.7361,-258.527 242.7413,-248.5496"/>
<polygon fill="#191970" stroke="#191970" points="244.3341,-245.4308 233.8913,-243.6427 240.9397,-251.5528 244.3341,-245.4308"/>
</g>
<!-- Node12 -->
<g id="node13" class="node">
<title>Node12</title>
<polygon fill="none" stroke="#bfbfbf" points="239.5,-56.5 239.5,-75.5 283.5,-75.5 283.5,-56.5 239.5,-56.5"/>
<text text-anchor="middle" x="261.5" y="-63.5" font-family="Helvetica,sans-Serif" font-size="10.00" fill="#000000">cmath</text>
</g>
<!-- Node0&#45;&gt;Node12 -->
<g id="edge18" class="edge">
<title>Node0&#45;&gt;Node12</title>
<path fill="none" stroke="#191970" d="M332.6139,-280.3962C361.9921,-260.4488 422.0258,-212.6605 399.5,-168 377.3366,-124.0579 326.3142,-94.3541 292.9062,-78.8102"/>
<polygon fill="#191970" stroke="#191970" points="294.1288,-75.5226 283.5724,-74.6209 291.2625,-81.9089 294.1288,-75.5226"/>
</g>
<!-- Node2 -->
<g id="node3" class="node">
<title>Node2</title>
<polygon fill="none" stroke="#bfbfbf" points="60.5,-168.5 60.5,-187.5 114.5,-187.5 114.5,-168.5 60.5,-168.5"/>
<text text-anchor="middle" x="87.5" y="-175.5" font-family="Helvetica,sans-Serif" font-size="10.00" fill="#000000">phydro.h</text>
</g>
<!-- Node1&#45;&gt;Node2 -->
<g id="edge2" class="edge">
<title>Node1&#45;&gt;Node2</title>
<path fill="none" stroke="#191970" d="M194.3241,-224.3733C173.5234,-215.3435 142.2083,-201.7494 118.8542,-191.6111"/>
<polygon fill="#191970" stroke="#191970" points="119.9532,-188.2727 109.3865,-187.5011 117.1657,-194.6938 119.9532,-188.2727"/>
</g>
<!-- Node3 -->
<g id="node4" class="node">
<title>Node3</title>
<g id="a_node4"><a xlink:href="plant__params_8h.html" target="_top" xlink:title="plant_params.h">
<polygon fill="none" stroke="#000000" points="138,-112.5 138,-131.5 221,-131.5 221,-112.5 138,-112.5"/>
<text text-anchor="middle" x="179.5" y="-119.5" font-family="Helvetica,sans-Serif" font-size="10.00" fill="#000000">plant_params.h</text>
</a>
</g>
</g>
<!-- Node1&#45;&gt;Node3 -->
<g id="edge3" class="edge">
<title>Node1&#45;&gt;Node3</title>
<path fill="none" stroke="#191970" d="M198.2167,-224.4509C185.3142,-216.5902 169.0359,-204.1269 161.5,-188 154.3791,-172.7611 160.6461,-154.1836 167.6674,-140.6254"/>
<polygon fill="#191970" stroke="#191970" points="170.8109,-142.1786 172.7326,-131.7595 164.7329,-138.7061 170.8109,-142.1786"/>
</g>
<!-- Node13 -->
<g id="node14" class="node">
<title>Node13</title>
<g id="a_node14"><a xlink:href="plant__geometry_8h.html" target="_top" xlink:title="plant_geometry.h">
<polygon fill="none" stroke="#000000" points="170.5,-168.5 170.5,-187.5 262.5,-187.5 262.5,-168.5 170.5,-168.5"/>
<text text-anchor="middle" x="216.5" y="-175.5" font-family="Helvetica,sans-Serif" font-size="10.00" fill="#000000">plant_geometry.h</text>
</a>
</g>
</g>
<!-- Node1&#45;&gt;Node13 -->
<g id="edge14" class="edge">
<title>Node1&#45;&gt;Node13</title>
<path fill="none" stroke="#191970" d="M216.5,-224.2455C216.5,-216.9382 216.5,-206.6944 216.5,-197.7046"/>
<polygon fill="#191970" stroke="#191970" points="220.0001,-197.6426 216.5,-187.6427 213.0001,-197.6427 220.0001,-197.6426"/>
</g>
<!-- Node14 -->
<g id="node15" class="node">
<title>Node14</title>
<g id="a_node15"><a xlink:href="assimilation_8tpp.html" target="_top" xlink:title="../src/assimilation.tpp">
<polygon fill="none" stroke="#000000" points="280.5,-168.5 280.5,-187.5 390.5,-187.5 390.5,-168.5 280.5,-168.5"/>
<text text-anchor="middle" x="335.5" y="-175.5" font-family="Helvetica,sans-Serif" font-size="10.00" fill="#000000">../src/assimilation.tpp</text>
</a>
</g>
</g>
<!-- Node1&#45;&gt;Node14 -->
<g id="edge17" class="edge">
<title>Node1&#45;&gt;Node14</title>
<path fill="none" stroke="#191970" d="M236.9568,-224.3733C255.9738,-215.4241 284.5175,-201.9917 305.9976,-191.8835"/>
<polygon fill="#191970" stroke="#191970" points="307.7522,-194.926 315.3101,-187.5011 304.7716,-188.5923 307.7522,-194.926"/>
</g>
<!-- Node4 -->
<g id="node5" class="node">
<title>Node4</title>
<g id="a_node5"><a xlink:href="initializer_8h.html" target="_top" xlink:title="utils/initializer.h">
<polygon fill="none" stroke="#000000" points="137.5,-56.5 137.5,-75.5 221.5,-75.5 221.5,-56.5 137.5,-56.5"/>
<text text-anchor="middle" x="179.5" y="-63.5" font-family="Helvetica,sans-Serif" font-size="10.00" fill="#000000">utils/initializer.h</text>
</a>
</g>
</g>
<!-- Node3&#45;&gt;Node4 -->
<g id="edge4" class="edge">
<title>Node3&#45;&gt;Node4</title>
<path fill="none" stroke="#191970" d="M179.5,-112.2455C179.5,-104.9382 179.5,-94.6944 179.5,-85.7046"/>
<polygon fill="#191970" stroke="#191970" points="183.0001,-85.6426 179.5,-75.6427 176.0001,-85.6427 183.0001,-85.6426"/>
</g>
<!-- Node6 -->
<g id="node7" class="node">
<title>Node6</title>
<polygon fill="none" stroke="#bfbfbf" points="0,-.5 0,-19.5 41,-19.5 41,-.5 0,-.5"/>
<text text-anchor="middle" x="20.5" y="-7.5" font-family="Helvetica,sans-Serif" font-size="10.00" fill="#000000">string</text>
</g>
<!-- Node3&#45;&gt;Node6 -->
<g id="edge13" class="edge">
<title>Node3&#45;&gt;Node6</title>
<path fill="none" stroke="#191970" d="M165.9437,-112.4509C138.3684,-93.0268 75.54,-48.7703 42.2056,-25.2895"/>
<polygon fill="#191970" stroke="#191970" points="44.2129,-22.4223 34.0219,-19.5249 40.1818,-28.1451 44.2129,-22.4223"/>
</g>
<!-- Node3&#45;&gt;Node12 -->
<g id="edge12" class="edge">
<title>Node3&#45;&gt;Node12</title>
<path fill="none" stroke="#191970" d="M193.7833,-112.2455C206.247,-103.7337 224.5451,-91.2375 238.9792,-81.3801"/>
<polygon fill="#191970" stroke="#191970" points="241.0962,-84.1726 247.3804,-75.6427 237.1485,-78.392 241.0962,-84.1726"/>
</g>
<!-- Node5 -->
<g id="node6" class="node">
<title>Node5</title>
<polygon fill="none" stroke="#bfbfbf" points="59.5,-.5 59.5,-19.5 113.5,-19.5 113.5,-.5 59.5,-.5"/>
<text text-anchor="middle" x="86.5" y="-7.5" font-family="Helvetica,sans-Serif" font-size="10.00" fill="#000000">iostream</text>
</g>
<!-- Node4&#45;&gt;Node5 -->
<g id="edge5" class="edge">
<title>Node4&#45;&gt;Node5</title>
<path fill="none" stroke="#191970" d="M163.3006,-56.2455C148.8982,-47.5731 127.6268,-34.7645 111.1201,-24.825"/>
<polygon fill="#191970" stroke="#191970" points="112.886,-21.8028 102.5137,-19.6427 109.275,-27.7996 112.886,-21.8028"/>
</g>
<!-- Node4&#45;&gt;Node6 -->
<g id="edge6" class="edge">
<title>Node4&#45;&gt;Node6</title>
<path fill="none" stroke="#191970" d="M152.1669,-56.3733C124.0503,-46.4706 80.3475,-31.0784 51.0933,-20.775"/>
<polygon fill="#191970" stroke="#191970" points="51.9924,-17.381 41.3975,-17.3601 49.6669,-23.9834 51.9924,-17.381"/>
</g>
<!-- Node7 -->
<g id="node8" class="node">
<title>Node7</title>
<polygon fill="none" stroke="#bfbfbf" points="132,-.5 132,-19.5 167,-19.5 167,-.5 132,-.5"/>
<text text-anchor="middle" x="149.5" y="-7.5" font-family="Helvetica,sans-Serif" font-size="10.00" fill="#000000">map</text>
</g>
<!-- Node4&#45;&gt;Node7 -->
<g id="edge7" class="edge">
<title>Node4&#45;&gt;Node7</title>
<path fill="none" stroke="#191970" d="M174.2744,-56.2455C170.1877,-48.617 164.3865,-37.7881 159.425,-28.5267"/>
<polygon fill="#191970" stroke="#191970" points="162.4732,-26.8047 154.6657,-19.6427 156.3028,-30.1103 162.4732,-26.8047"/>
</g>
<!-- Node8 -->
<g id="node9" class="node">
<title>Node8</title>
<polygon fill="none" stroke="#bfbfbf" points="185.5,-.5 185.5,-19.5 235.5,-19.5 235.5,-.5 185.5,-.5"/>
<text text-anchor="middle" x="210.5" y="-7.5" font-family="Helvetica,sans-Serif" font-size="10.00" fill="#000000">fstream</text>
</g>
<!-- Node4&#45;&gt;Node8 -->
<g id="edge8" class="edge">
<title>Node4&#45;&gt;Node8</title>
<path fill="none" stroke="#191970" d="M184.8998,-56.2455C189.1227,-48.617 195.1173,-37.7881 200.2441,-28.5267"/>
<polygon fill="#191970" stroke="#191970" points="203.381,-30.0867 205.1621,-19.6427 197.2568,-26.6965 203.381,-30.0867"/>
</g>
<!-- Node9 -->
<g id="node10" class="node">
<title>Node9</title>
<polygon fill="none" stroke="#bfbfbf" points="253.5,-.5 253.5,-19.5 297.5,-19.5 297.5,-.5 253.5,-.5"/>
<text text-anchor="middle" x="275.5" y="-7.5" font-family="Helvetica,sans-Serif" font-size="10.00" fill="#000000">vector</text>
</g>
<!-- Node4&#45;&gt;Node9 -->
<g id="edge9" class="edge">
<title>Node4&#45;&gt;Node9</title>
<path fill="none" stroke="#191970" d="M196.2219,-56.2455C211.0889,-47.5731 233.0466,-34.7645 250.0858,-24.825"/>
<polygon fill="#191970" stroke="#191970" points="252.0955,-27.7047 258.9697,-19.6427 248.5683,-21.6582 252.0955,-27.7047"/>
</g>
<!-- Node10 -->
<g id="node11" class="node">
<title>Node10</title>
<polygon fill="none" stroke="#bfbfbf" points="315.5,-.5 315.5,-19.5 367.5,-19.5 367.5,-.5 315.5,-.5"/>
<text text-anchor="middle" x="341.5" y="-7.5" font-family="Helvetica,sans-Serif" font-size="10.00" fill="#000000">sstream</text>
</g>
<!-- Node4&#45;&gt;Node10 -->
<g id="edge10" class="edge">
<title>Node4&#45;&gt;Node10</title>
<path fill="none" stroke="#191970" d="M207.3488,-56.3733C234.5767,-46.9611 276.1505,-32.5899 305.795,-22.3425"/>
<polygon fill="#191970" stroke="#191970" points="307.0453,-25.6135 315.3531,-19.0384 304.7583,-18.9977 307.0453,-25.6135"/>
</g>
<!-- Node11 -->
<g id="node12" class="node">
<title>Node11</title>
<polygon fill="none" stroke="#bfbfbf" points="386,-.5 386,-19.5 445,-19.5 445,-.5 386,-.5"/>
<text text-anchor="middle" x="415.5" y="-7.5" font-family="Helvetica,sans-Serif" font-size="10.00" fill="#000000">stdexcept</text>
</g>
<!-- Node4&#45;&gt;Node11 -->
<g id="edge11" class="edge">
<title>Node4&#45;&gt;Node11</title>
<path fill="none" stroke="#191970" d="M221.4513,-56.4807C259.2713,-47.8369 316.6624,-34.5676 375.8139,-20.1313"/>
<polygon fill="#191970" stroke="#191970" points="376.825,-23.4872 385.7061,-17.71 375.1607,-16.6879 376.825,-23.4872"/>
</g>
<!-- Node13&#45;&gt;Node3 -->
<g id="edge16" class="edge">
<title>Node13&#45;&gt;Node3</title>
<path fill="none" stroke="#191970" d="M210.0551,-168.2455C204.9618,-160.5367 197.7092,-149.5598 191.548,-140.2348"/>
<polygon fill="#191970" stroke="#191970" points="194.3038,-138.0566 185.8711,-131.6427 188.4635,-141.9155 194.3038,-138.0566"/>
</g>
<!-- Node13&#45;&gt;Node12 -->
<g id="edge15" class="edge">
<title>Node13&#45;&gt;Node12</title>
<path fill="none" stroke="#191970" d="M220.3367,-168.4509C227.7425,-150.0186 244.1327,-109.2254 253.8488,-85.043"/>
<polygon fill="#191970" stroke="#191970" points="257.1925,-86.1088 257.673,-75.5249 250.6971,-83.499 257.1925,-86.1088"/>
</g>
</g>
</svg>
