<?xml version="1.0" encoding="UTF-8" standalone="no"?>
<!DOCTYPE svg PUBLIC "-//W3C//DTD SVG 1.1//EN"
 "http://www.w3.org/Graphics/SVG/1.1/DTD/svg11.dtd">
<!-- Generated by graphviz version 2.40.1 (20161225.0304)
 -->
<!-- Title: include/assimilation.h Pages: 1 -->
<svg width="453pt" height="252pt"
 viewBox="0.00 0.00 453.00 252.00" xmlns="http://www.w3.org/2000/svg" xmlns:xlink="http://www.w3.org/1999/xlink">
<g id="graph0" class="graph" transform="scale(1 1) rotate(0) translate(4 248)">
<title>include/assimilation.h</title>
<!-- Node0 -->
<g id="node1" class="node">
<title>Node0</title>
<polygon fill="#bfbfbf" stroke="#000000" points="165.5,-224.5 165.5,-243.5 275.5,-243.5 275.5,-224.5 165.5,-224.5"/>
<text text-anchor="middle" x="220.5" y="-231.5" font-family="Helvetica,sans-Serif" font-size="10.00" fill="#000000">include/assimilation.h</text>
</g>
<!-- Node1 -->
<g id="node2" class="node">
<title>Node1</title>
<polygon fill="none" stroke="#bfbfbf" points="101.5,-168.5 101.5,-187.5 155.5,-187.5 155.5,-168.5 101.5,-168.5"/>
<text text-anchor="middle" x="128.5" y="-175.5" font-family="Helvetica,sans-Serif" font-size="10.00" fill="#000000">phydro.h</text>
</g>
<!-- Node0&#45;&gt;Node1 -->
<g id="edge1" class="edge">
<title>Node0&#45;&gt;Node1</title>
<path fill="none" stroke="#191970" d="M204.4748,-224.2455C190.3592,-215.6534 169.5737,-203.0014 153.3101,-193.1018"/>
<polygon fill="#191970" stroke="#191970" points="154.7034,-189.8525 144.3415,-187.6427 151.0637,-195.8319 154.7034,-189.8525"/>
</g>
<!-- Node2 -->
<g id="node3" class="node">
<title>Node2</title>
<g id="a_node3"><a xlink:href="plant__params_8h.html" target="_top" xlink:title="plant_params.h">
<polygon fill="none" stroke="#000000" points="142,-112.5 142,-131.5 225,-131.5 225,-112.5 142,-112.5"/>
<text text-anchor="middle" x="183.5" y="-119.5" font-family="Helvetica,sans-Serif" font-size="10.00" fill="#000000">plant_params.h</text>
</a>
</g>
</g>
<!-- Node0&#45;&gt;Node2 -->
<g id="edge2" class="edge">
<title>Node0&#45;&gt;Node2</title>
<path fill="none" stroke="#191970" d="M216.371,-224.2267C212.5377,-214.9806 206.7926,-200.6708 202.5,-188 197.2992,-172.6483 192.2643,-154.9904 188.6856,-141.8043"/>
<polygon fill="#191970" stroke="#191970" points="192.0103,-140.688 186.0503,-131.9284 185.2469,-142.4928 192.0103,-140.688"/>
</g>
<!-- Node12 -->
<g id="node13" class="node">
<title>Node12</title>
<g id="a_node13"><a xlink:href="plant__geometry_8h.html" target="_top" xlink:title="plant_geometry.h">
<polygon fill="none" stroke="#000000" points="211.5,-168.5 211.5,-187.5 303.5,-187.5 303.5,-168.5 211.5,-168.5"/>
<text text-anchor="middle" x="257.5" y="-175.5" font-family="Helvetica,sans-Serif" font-size="10.00" fill="#000000">plant_geometry.h</text>
</a>
</g>
</g>
<!-- Node0&#45;&gt;Node12 -->
<g id="edge13" class="edge">
<title>Node0&#45;&gt;Node12</title>
<path fill="none" stroke="#191970" d="M226.9449,-224.2455C232.0382,-216.5367 239.2908,-205.5598 245.452,-196.2348"/>
<polygon fill="#191970" stroke="#191970" points="248.5365,-197.9155 251.1289,-187.6427 242.6962,-194.0566 248.5365,-197.9155"/>
</g>
<!-- Node13 -->
<g id="node14" class="node">
<title>Node13</title>
<g id="a_node14"><a xlink:href="assimilation_8tpp.html" target="_top" xlink:title="../src/assimilation.tpp">
<polygon fill="none" stroke="#000000" points="321.5,-168.5 321.5,-187.5 431.5,-187.5 431.5,-168.5 321.5,-168.5"/>
<text text-anchor="middle" x="376.5" y="-175.5" font-family="Helvetica,sans-Serif" font-size="10.00" fill="#000000">../src/assimilation.tpp</text>
</a>
</g>
</g>
<!-- Node0&#45;&gt;Node13 -->
<g id="edge16" class="edge">
<title>Node0&#45;&gt;Node13</title>
<path fill="none" stroke="#191970" d="M247.3174,-224.3733C273.0332,-215.1419 312.038,-201.1402 340.4599,-190.9375"/>
<polygon fill="#191970" stroke="#191970" points="341.8032,-194.174 350.0326,-187.5011 339.4381,-187.5857 341.8032,-194.174"/>
</g>
<!-- Node3 -->
<g id="node4" class="node">
<title>Node3</title>
<g id="a_node4"><a xlink:href="initializer_8h.html" target="_top" xlink:title="utils/initializer.h">
<polygon fill="none" stroke="#000000" points="137.5,-56.5 137.5,-75.5 221.5,-75.5 221.5,-56.5 137.5,-56.5"/>
<text text-anchor="middle" x="179.5" y="-63.5" font-family="Helvetica,sans-Serif" font-size="10.00" fill="#000000">utils/initializer.h</text>
</a>
</g>
</g>
<!-- Node2&#45;&gt;Node3 -->
<g id="edge3" class="edge">
<title>Node2&#45;&gt;Node3</title>
<path fill="none" stroke="#191970" d="M182.8033,-112.2455C182.2813,-104.9382 181.5496,-94.6944 180.9075,-85.7046"/>
<polygon fill="#191970" stroke="#191970" points="184.3924,-85.3679 180.1888,-75.6427 177.4102,-85.8667 184.3924,-85.3679"/>
</g>
<!-- Node5 -->
<g id="node6" class="node">
<title>Node5</title>
<polygon fill="none" stroke="#bfbfbf" points="0,-.5 0,-19.5 41,-19.5 41,-.5 0,-.5"/>
<text text-anchor="middle" x="20.5" y="-7.5" font-family="Helvetica,sans-Serif" font-size="10.00" fill="#000000">string</text>
</g>
<!-- Node2&#45;&gt;Node5 -->
<g id="edge12" class="edge">
<title>Node2&#45;&gt;Node5</title>
<path fill="none" stroke="#191970" d="M169.6027,-112.4509C141.3336,-93.0268 76.9247,-48.7703 42.7517,-25.2895"/>
<polygon fill="#191970" stroke="#191970" points="44.5861,-22.3034 34.3621,-19.5249 40.6219,-28.0727 44.5861,-22.3034"/>
</g>
<!-- Node11 -->
<g id="node12" class="node">
<title>Node11</title>
<polygon fill="none" stroke="#bfbfbf" points="239.5,-56.5 239.5,-75.5 283.5,-75.5 283.5,-56.5 239.5,-56.5"/>
<text text-anchor="middle" x="261.5" y="-63.5" font-family="Helvetica,sans-Serif" font-size="10.00" fill="#000000">cmath</text>
</g>
<!-- Node2&#45;&gt;Node11 -->
<g id="edge11" class="edge">
<title>Node2&#45;&gt;Node11</title>
<path fill="none" stroke="#191970" d="M197.0866,-112.2455C208.8305,-103.814 226.0199,-91.4729 239.6882,-81.6598"/>
<polygon fill="#191970" stroke="#191970" points="241.9871,-84.3179 248.0691,-75.6427 237.9046,-78.6316 241.9871,-84.3179"/>
</g>
<!-- Node4 -->
<g id="node5" class="node">
<title>Node4</title>
<polygon fill="none" stroke="#bfbfbf" points="59.5,-.5 59.5,-19.5 113.5,-19.5 113.5,-.5 59.5,-.5"/>
<text text-anchor="middle" x="86.5" y="-7.5" font-family="Helvetica,sans-Serif" font-size="10.00" fill="#000000">iostream</text>
</g>
<!-- Node3&#45;&gt;Node4 -->
<g id="edge4" class="edge">
<title>Node3&#45;&gt;Node4</title>
<path fill="none" stroke="#191970" d="M163.3006,-56.2455C148.8982,-47.5731 127.6268,-34.7645 111.1201,-24.825"/>
<polygon fill="#191970" stroke="#191970" points="112.886,-21.8028 102.5137,-19.6427 109.275,-27.7996 112.886,-21.8028"/>
</g>
<!-- Node3&#45;&gt;Node5 -->
<g id="edge5" class="edge">
<title>Node3&#45;&gt;Node5</title>
<path fill="none" stroke="#191970" d="M152.1669,-56.3733C124.0503,-46.4706 80.3475,-31.0784 51.0933,-20.775"/>
<polygon fill="#191970" stroke="#191970" points="51.9924,-17.381 41.3975,-17.3601 49.6669,-23.9834 51.9924,-17.381"/>
</g>
<!-- Node6 -->
<g id="node7" class="node">
<title>Node6</title>
<polygon fill="none" stroke="#bfbfbf" points="132,-.5 132,-19.5 167,-19.5 167,-.5 132,-.5"/>
<text text-anchor="middle" x="149.5" y="-7.5" font-family="Helvetica,sans-Serif" font-size="10.00" fill="#000000">map</text>
</g>
<!-- Node3&#45;&gt;Node6 -->
<g id="edge6" class="edge">
<title>Node3&#45;&gt;Node6</title>
<path fill="none" stroke="#191970" d="M174.2744,-56.2455C170.1877,-48.617 164.3865,-37.7881 159.425,-28.5267"/>
<polygon fill="#191970" stroke="#191970" points="162.4732,-26.8047 154.6657,-19.6427 156.3028,-30.1103 162.4732,-26.8047"/>
</g>
<!-- Node7 -->
<g id="node8" class="node">
<title>Node7</title>
<polygon fill="none" stroke="#bfbfbf" points="185.5,-.5 185.5,-19.5 235.5,-19.5 235.5,-.5 185.5,-.5"/>
<text text-anchor="middle" x="210.5" y="-7.5" font-family="Helvetica,sans-Serif" font-size="10.00" fill="#000000">fstream</text>
</g>
<!-- Node3&#45;&gt;Node7 -->
<g id="edge7" class="edge">
<title>Node3&#45;&gt;Node7</title>
<path fill="none" stroke="#191970" d="M184.8998,-56.2455C189.1227,-48.617 195.1173,-37.7881 200.2441,-28.5267"/>
<polygon fill="#191970" stroke="#191970" points="203.381,-30.0867 205.1621,-19.6427 197.2568,-26.6965 203.381,-30.0867"/>
</g>
<!-- Node8 -->
<g id="node9" class="node">
<title>Node8</title>
<polygon fill="none" stroke="#bfbfbf" points="253.5,-.5 253.5,-19.5 297.5,-19.5 297.5,-.5 253.5,-.5"/>
<text text-anchor="middle" x="275.5" y="-7.5" font-family="Helvetica,sans-Serif" font-size="10.00" fill="#000000">vector</text>
</g>
<!-- Node3&#45;&gt;Node8 -->
<g id="edge8" class="edge">
<title>Node3&#45;&gt;Node8</title>
<path fill="none" stroke="#191970" d="M196.2219,-56.2455C211.0889,-47.5731 233.0466,-34.7645 250.0858,-24.825"/>
<polygon fill="#191970" stroke="#191970" points="252.0955,-27.7047 258.9697,-19.6427 248.5683,-21.6582 252.0955,-27.7047"/>
</g>
<!-- Node9 -->
<g id="node10" class="node">
<title>Node9</title>
<polygon fill="none" stroke="#bfbfbf" points="315.5,-.5 315.5,-19.5 367.5,-19.5 367.5,-.5 315.5,-.5"/>
<text text-anchor="middle" x="341.5" y="-7.5" font-family="Helvetica,sans-Serif" font-size="10.00" fill="#000000">sstream</text>
</g>
<!-- Node3&#45;&gt;Node9 -->
<g id="edge9" class="edge">
<title>Node3&#45;&gt;Node9</title>
<path fill="none" stroke="#191970" d="M207.3488,-56.3733C234.5767,-46.9611 276.1505,-32.5899 305.795,-22.3425"/>
<polygon fill="#191970" stroke="#191970" points="307.0453,-25.6135 315.3531,-19.0384 304.7583,-18.9977 307.0453,-25.6135"/>
</g>
<!-- Node10 -->
<g id="node11" class="node">
<title>Node10</title>
<polygon fill="none" stroke="#bfbfbf" points="386,-.5 386,-19.5 445,-19.5 445,-.5 386,-.5"/>
<text text-anchor="middle" x="415.5" y="-7.5" font-family="Helvetica,sans-Serif" font-size="10.00" fill="#000000">stdexcept</text>
</g>
<!-- Node3&#45;&gt;Node10 -->
<g id="edge10" class="edge">
<title>Node3&#45;&gt;Node10</title>
<path fill="none" stroke="#191970" d="M221.4513,-56.4807C259.2713,-47.8369 316.6624,-34.5676 375.8139,-20.1313"/>
<polygon fill="#191970" stroke="#191970" points="376.825,-23.4872 385.7061,-17.71 375.1607,-16.6879 376.825,-23.4872"/>
</g>
<!-- Node12&#45;&gt;Node2 -->
<g id="edge15" class="edge">
<title>Node12&#45;&gt;Node2</title>
<path fill="none" stroke="#191970" d="M244.6102,-168.2455C233.5746,-159.8943 217.4708,-147.7076 204.5647,-137.9408"/>
<polygon fill="#191970" stroke="#191970" points="206.3283,-134.8862 196.2421,-131.6427 202.1041,-140.4681 206.3283,-134.8862"/>
</g>
<!-- Node12&#45;&gt;Node11 -->
<g id="edge14" class="edge">
<title>Node12&#45;&gt;Node11</title>
<path fill="none" stroke="#191970" d="M257.841,-168.4509C258.4934,-150.184 259.9302,-109.9553 260.7965,-85.6976"/>
<polygon fill="#191970" stroke="#191970" points="264.3006,-85.6435 261.1598,-75.5249 257.305,-85.3936 264.3006,-85.6435"/>
</g>
</g>
</svg>
