<?xml version="1.0" encoding="UTF-8" standalone="no"?>
<!DOCTYPE svg PUBLIC "-//W3C//DTD SVG 1.1//EN"
 "http://www.w3.org/Graphics/SVG/1.1/DTD/svg11.dtd">
<!-- Generated by graphviz version 2.40.1 (20161225.0304)
 -->
<!-- Title: plant::Assimilator::root_turnover_rate Pages: 1 -->
<svg width="733pt" height="165pt"
 viewBox="0.00 0.00 733.00 164.50" xmlns="http://www.w3.org/2000/svg" xmlns:xlink="http://www.w3.org/1999/xlink">
<g id="graph0" class="graph" transform="scale(1 1) rotate(0) translate(4 160.5)">
<title>plant::Assimilator::root_turnover_rate</title>
<!-- Node82 -->
<g id="node1" class="node">
<title>Node82</title>
<polygon fill="#bfbfbf" stroke="#000000" points="0,-74 0,-104 101,-104 101,-74 0,-74"/>
<text text-anchor="start" x="8" y="-92" font-family="Helvetica,sans-Serif" font-size="10.00" fill="#000000">plant::Assimilator</text>
<text text-anchor="middle" x="50.5" y="-81" font-family="Helvetica,sans-Serif" font-size="10.00" fill="#000000">::root_turnover_rate</text>
</g>
<!-- Node83 -->
<g id="node2" class="node">
<title>Node83</title>
<g id="a_node2"><a xlink:href="classplant_1_1Assimilator.html#ab5cf98dde0fb1d49ce4d0f44387b628b" target="_top" xlink:title="plant::Assimilator\l::net_production">
<polygon fill="none" stroke="#000000" points="137,-74 137,-104 229,-104 229,-74 137,-74"/>
<text text-anchor="start" x="145" y="-92" font-family="Helvetica,sans-Serif" font-size="10.00" fill="#000000">plant::Assimilator</text>
<text text-anchor="middle" x="183" y="-81" font-family="Helvetica,sans-Serif" font-size="10.00" fill="#000000">::net_production</text>
</a>
</g>
</g>
<!-- Node82&#45;&gt;Node83 -->
<g id="edge1" class="edge">
<title>Node82&#45;&gt;Node83</title>
<path fill="none" stroke="#191970" d="M111.6066,-89C120.093,-89 128.6926,-89 136.8439,-89"/>
<polygon fill="#191970" stroke="#191970" points="111.3491,-85.5001 101.349,-89 111.349,-92.5001 111.3491,-85.5001"/>
</g>
<!-- Node84 -->
<g id="node3" class="node">
<title>Node84</title>
<g id="a_node3"><a xlink:href="classplant_1_1Plant.html#a48612779a5850cca9cc6f6caff1ccb8b" target="_top" xlink:title="plant::Plant::lai_model">
<polygon fill="none" stroke="#000000" points="266.5,-117.5 266.5,-136.5 379.5,-136.5 379.5,-117.5 266.5,-117.5"/>
<text text-anchor="middle" x="323" y="-124.5" font-family="Helvetica,sans-Serif" font-size="10.00" fill="#000000">plant::Plant::lai_model</text>
</a>
</g>
</g>
<!-- Node83&#45;&gt;Node84 -->
<g id="edge2" class="edge">
<title>Node83&#45;&gt;Node84</title>
<path fill="none" stroke="#191970" d="M239.2892,-104.2785C255.7185,-108.7379 273.1965,-113.4819 287.9092,-117.4754"/>
<polygon fill="#191970" stroke="#191970" points="239.7969,-100.7897 229.2292,-101.5479 237.9632,-107.5453 239.7969,-100.7897"/>
</g>
<!-- Node85 -->
<g id="node4" class="node">
<title>Node85</title>
<g id="a_node4"><a xlink:href="classplant_1_1Plant.html#ab39fa79cb8884c684af5db0c98a1785e" target="_top" xlink:title="plant::Plant::calc\l_demographic_rates">
<polygon fill="none" stroke="#000000" points="435,-104 435,-134 539,-134 539,-104 435,-104"/>
<text text-anchor="start" x="443" y="-122" font-family="Helvetica,sans-Serif" font-size="10.00" fill="#000000">plant::Plant::calc</text>
<text text-anchor="middle" x="487" y="-111" font-family="Helvetica,sans-Serif" font-size="10.00" fill="#000000">_demographic_rates</text>
</a>
</g>
</g>
<!-- Node83&#45;&gt;Node85 -->
<g id="edge9" class="edge">
<title>Node83&#45;&gt;Node85</title>
<path fill="none" stroke="#191970" d="M239.0252,-94.2597C278.6806,-98.011 333.1103,-103.2175 381,-108 398.5816,-109.7558 417.797,-111.7324 434.9806,-113.5207"/>
<polygon fill="#191970" stroke="#191970" points="239.3041,-90.7705 229.0192,-93.3144 238.6456,-97.7395 239.3041,-90.7705"/>
</g>
<!-- Node88 -->
<g id="node7" class="node">
<title>Node88</title>
<g id="a_node7"><a xlink:href="classplant_1_1Plant.html#a03c45eaaabce7ff0287598818dc4847f" target="_top" xlink:title="plant::Plant::p_survival\l_germination">
<polygon fill="none" stroke="#000000" points="265,-30 265,-60 381,-60 381,-30 265,-30"/>
<text text-anchor="start" x="273" y="-48" font-family="Helvetica,sans-Serif" font-size="10.00" fill="#000000">plant::Plant::p_survival</text>
<text text-anchor="middle" x="323" y="-37" font-family="Helvetica,sans-Serif" font-size="10.00" fill="#000000">_germination</text>
</a>
</g>
</g>
<!-- Node83&#45;&gt;Node88 -->
<g id="edge6" class="edge">
<title>Node83&#45;&gt;Node88</title>
<path fill="none" stroke="#191970" d="M239.0413,-71.387C250.9164,-67.6548 263.3502,-63.7471 274.8995,-60.1173"/>
<polygon fill="#191970" stroke="#191970" points="237.7198,-68.1335 229.2292,-74.4708 239.8186,-74.8115 237.7198,-68.1335"/>
</g>
<!-- Node84&#45;&gt;Node85 -->
<g id="edge3" class="edge">
<title>Node84&#45;&gt;Node85</title>
<path fill="none" stroke="#191970" d="M390.1024,-123.7267C405.0348,-122.9983 420.6493,-122.2366 434.8744,-121.5427"/>
<polygon fill="#191970" stroke="#191970" points="389.7165,-120.2413 379.899,-124.2244 390.0577,-127.233 389.7165,-120.2413"/>
</g>
<!-- Node86 -->
<g id="node5" class="node">
<title>Node86</title>
<g id="a_node5"><a xlink:href="classplant_1_1Plant.html#a274f7da212d5f05d4b281e49e11fc44e" target="_top" xlink:title="plant::Plant::grow\l_for_dt">
<polygon fill="none" stroke="#000000" points="612.5,-126 612.5,-156 705.5,-156 705.5,-126 612.5,-126"/>
<text text-anchor="start" x="620.5" y="-144" font-family="Helvetica,sans-Serif" font-size="10.00" fill="#000000">plant::Plant::grow</text>
<text text-anchor="middle" x="659" y="-133" font-family="Helvetica,sans-Serif" font-size="10.00" fill="#000000">_for_dt</text>
</a>
</g>
</g>
<!-- Node85&#45;&gt;Node86 -->
<g id="edge4" class="edge">
<title>Node85&#45;&gt;Node86</title>
<path fill="none" stroke="#191970" d="M549.1282,-126.9466C569.9941,-129.6155 592.8961,-132.5449 612.3657,-135.0352"/>
<polygon fill="#191970" stroke="#191970" points="549.4357,-123.4575 539.0724,-125.6604 548.5475,-130.401 549.4357,-123.4575"/>
</g>
<!-- Node87 -->
<g id="node6" class="node">
<title>Node87</title>
<g id="a_node6"><a xlink:href="classPSPM__Plant.html#a71f7312443767dffc44d8d0d80b295f0" target="_top" xlink:title="PSPM_Plant::preCompute">
<polygon fill="none" stroke="#000000" points="593,-87.5 593,-106.5 725,-106.5 725,-87.5 593,-87.5"/>
<text text-anchor="middle" x="659" y="-94.5" font-family="Helvetica,sans-Serif" font-size="10.00" fill="#000000">PSPM_Plant::preCompute</text>
</a>
</g>
</g>
<!-- Node85&#45;&gt;Node87 -->
<g id="edge5" class="edge">
<title>Node85&#45;&gt;Node87</title>
<path fill="none" stroke="#191970" d="M549.1933,-111.045C563.353,-109.2339 578.4473,-107.3032 592.7684,-105.4715"/>
<polygon fill="#191970" stroke="#191970" points="548.5475,-107.599 539.0724,-112.3396 549.4357,-114.5425 548.5475,-107.599"/>
</g>
<!-- Node89 -->
<g id="node8" class="node">
<title>Node89</title>
<g id="a_node8"><a xlink:href="classPSPM__Plant.html#a4ceca1be5d1089c49dcecdc5ce216727" target="_top" xlink:title="PSPM_Plant::establishment\lProbability">
<polygon fill="none" stroke="#000000" points="417,-39 417,-69 557,-69 557,-39 417,-39"/>
<text text-anchor="start" x="425" y="-57" font-family="Helvetica,sans-Serif" font-size="10.00" fill="#000000">PSPM_Plant::establishment</text>
<text text-anchor="middle" x="487" y="-46" font-family="Helvetica,sans-Serif" font-size="10.00" fill="#000000">Probability</text>
</a>
</g>
</g>
<!-- Node88&#45;&gt;Node89 -->
<g id="edge7" class="edge">
<title>Node88&#45;&gt;Node89</title>
<path fill="none" stroke="#191970" d="M391.4083,-48.7541C399.8098,-49.2152 408.4071,-49.687 416.8341,-50.1494"/>
<polygon fill="#191970" stroke="#191970" points="391.4588,-45.2517 381.282,-48.1984 391.0752,-52.2412 391.4588,-45.2517"/>
</g>
<!-- Node90 -->
<g id="node9" class="node">
<title>Node90</title>
<g id="a_node9"><a xlink:href="classPSPM__Plant.html#ad3109143960e0a0ceded078733bc4d4c" target="_top" xlink:title="PSPM_Plant::init_state">
<polygon fill="none" stroke="#000000" points="427.5,-.5 427.5,-19.5 546.5,-19.5 546.5,-.5 427.5,-.5"/>
<text text-anchor="middle" x="487" y="-7.5" font-family="Helvetica,sans-Serif" font-size="10.00" fill="#000000">PSPM_Plant::init_state</text>
</a>
</g>
</g>
<!-- Node88&#45;&gt;Node90 -->
<g id="edge8" class="edge">
<title>Node88&#45;&gt;Node90</title>
<path fill="none" stroke="#191970" d="M391.3042,-30.4229C408.5293,-26.7468 426.5841,-22.8936 442.3116,-19.5372"/>
<polygon fill="#191970" stroke="#191970" points="390.3313,-27.0516 381.282,-32.5618 391.7923,-33.8975 390.3313,-27.0516"/>
</g>
</g>
</svg>
