<?xml version="1.0" encoding="UTF-8" standalone="no"?>
<!DOCTYPE svg PUBLIC "-//W3C//DTD SVG 1.1//EN"
 "http://www.w3.org/Graphics/SVG/1.1/DTD/svg11.dtd">
<!-- Generated by graphviz version 2.40.1 (20161225.0304)
 -->
<!-- Title: plant::Assimilator::leaf_respiration_rate Pages: 1 -->
<svg width="742pt" height="165pt"
 viewBox="0.00 0.00 742.00 164.50" xmlns="http://www.w3.org/2000/svg" xmlns:xlink="http://www.w3.org/1999/xlink">
<g id="graph0" class="graph" transform="scale(1 1) rotate(0) translate(4 160.5)">
<title>plant::Assimilator::leaf_respiration_rate</title>
<!-- Node26 -->
<g id="node1" class="node">
<title>Node26</title>
<polygon fill="#bfbfbf" stroke="#000000" points="0,-74 0,-104 110,-104 110,-74 0,-74"/>
<text text-anchor="start" x="8" y="-92" font-family="Helvetica,sans-Serif" font-size="10.00" fill="#000000">plant::Assimilator</text>
<text text-anchor="middle" x="55" y="-81" font-family="Helvetica,sans-Serif" font-size="10.00" fill="#000000">::leaf_respiration_rate</text>
</g>
<!-- Node27 -->
<g id="node2" class="node">
<title>Node27</title>
<g id="a_node2"><a xlink:href="classplant_1_1Assimilator.html#ab5cf98dde0fb1d49ce4d0f44387b628b" target="_top" xlink:title="plant::Assimilator\l::net_production">
<polygon fill="none" stroke="#000000" points="146,-74 146,-104 238,-104 238,-74 146,-74"/>
<text text-anchor="start" x="154" y="-92" font-family="Helvetica,sans-Serif" font-size="10.00" fill="#000000">plant::Assimilator</text>
<text text-anchor="middle" x="192" y="-81" font-family="Helvetica,sans-Serif" font-size="10.00" fill="#000000">::net_production</text>
</a>
</g>
</g>
<!-- Node26&#45;&gt;Node27 -->
<g id="edge1" class="edge">
<title>Node26&#45;&gt;Node27</title>
<path fill="none" stroke="#191970" d="M120.6027,-89C129.0788,-89 137.614,-89 145.6882,-89"/>
<polygon fill="#191970" stroke="#191970" points="120.3283,-85.5001 110.3282,-89 120.3282,-92.5001 120.3283,-85.5001"/>
</g>
<!-- Node28 -->
<g id="node3" class="node">
<title>Node28</title>
<g id="a_node3"><a xlink:href="classplant_1_1Plant.html#a48612779a5850cca9cc6f6caff1ccb8b" target="_top" xlink:title="plant::Plant::lai_model">
<polygon fill="none" stroke="#000000" points="275.5,-117.5 275.5,-136.5 388.5,-136.5 388.5,-117.5 275.5,-117.5"/>
<text text-anchor="middle" x="332" y="-124.5" font-family="Helvetica,sans-Serif" font-size="10.00" fill="#000000">plant::Plant::lai_model</text>
</a>
</g>
</g>
<!-- Node27&#45;&gt;Node28 -->
<g id="edge2" class="edge">
<title>Node27&#45;&gt;Node28</title>
<path fill="none" stroke="#191970" d="M248.2892,-104.2785C264.7185,-108.7379 282.1965,-113.4819 296.9092,-117.4754"/>
<polygon fill="#191970" stroke="#191970" points="248.7969,-100.7897 238.2292,-101.5479 246.9632,-107.5453 248.7969,-100.7897"/>
</g>
<!-- Node29 -->
<g id="node4" class="node">
<title>Node29</title>
<g id="a_node4"><a xlink:href="classplant_1_1Plant.html#ab39fa79cb8884c684af5db0c98a1785e" target="_top" xlink:title="plant::Plant::calc\l_demographic_rates">
<polygon fill="none" stroke="#000000" points="444,-104 444,-134 548,-134 548,-104 444,-104"/>
<text text-anchor="start" x="452" y="-122" font-family="Helvetica,sans-Serif" font-size="10.00" fill="#000000">plant::Plant::calc</text>
<text text-anchor="middle" x="496" y="-111" font-family="Helvetica,sans-Serif" font-size="10.00" fill="#000000">_demographic_rates</text>
</a>
</g>
</g>
<!-- Node27&#45;&gt;Node29 -->
<g id="edge9" class="edge">
<title>Node27&#45;&gt;Node29</title>
<path fill="none" stroke="#191970" d="M248.0252,-94.2597C287.6806,-98.011 342.1103,-103.2175 390,-108 407.5816,-109.7558 426.797,-111.7324 443.9806,-113.5207"/>
<polygon fill="#191970" stroke="#191970" points="248.3041,-90.7705 238.0192,-93.3144 247.6456,-97.7395 248.3041,-90.7705"/>
</g>
<!-- Node32 -->
<g id="node7" class="node">
<title>Node32</title>
<g id="a_node7"><a xlink:href="classplant_1_1Plant.html#a03c45eaaabce7ff0287598818dc4847f" target="_top" xlink:title="plant::Plant::p_survival\l_germination">
<polygon fill="none" stroke="#000000" points="274,-30 274,-60 390,-60 390,-30 274,-30"/>
<text text-anchor="start" x="282" y="-48" font-family="Helvetica,sans-Serif" font-size="10.00" fill="#000000">plant::Plant::p_survival</text>
<text text-anchor="middle" x="332" y="-37" font-family="Helvetica,sans-Serif" font-size="10.00" fill="#000000">_germination</text>
</a>
</g>
</g>
<!-- Node27&#45;&gt;Node32 -->
<g id="edge6" class="edge">
<title>Node27&#45;&gt;Node32</title>
<path fill="none" stroke="#191970" d="M248.0413,-71.387C259.9164,-67.6548 272.3502,-63.7471 283.8995,-60.1173"/>
<polygon fill="#191970" stroke="#191970" points="246.7198,-68.1335 238.2292,-74.4708 248.8186,-74.8115 246.7198,-68.1335"/>
</g>
<!-- Node28&#45;&gt;Node29 -->
<g id="edge3" class="edge">
<title>Node28&#45;&gt;Node29</title>
<path fill="none" stroke="#191970" d="M399.1024,-123.7267C414.0348,-122.9983 429.6493,-122.2366 443.8744,-121.5427"/>
<polygon fill="#191970" stroke="#191970" points="398.7165,-120.2413 388.899,-124.2244 399.0577,-127.233 398.7165,-120.2413"/>
</g>
<!-- Node30 -->
<g id="node5" class="node">
<title>Node30</title>
<g id="a_node5"><a xlink:href="classplant_1_1Plant.html#a274f7da212d5f05d4b281e49e11fc44e" target="_top" xlink:title="plant::Plant::grow\l_for_dt">
<polygon fill="none" stroke="#000000" points="621.5,-126 621.5,-156 714.5,-156 714.5,-126 621.5,-126"/>
<text text-anchor="start" x="629.5" y="-144" font-family="Helvetica,sans-Serif" font-size="10.00" fill="#000000">plant::Plant::grow</text>
<text text-anchor="middle" x="668" y="-133" font-family="Helvetica,sans-Serif" font-size="10.00" fill="#000000">_for_dt</text>
</a>
</g>
</g>
<!-- Node29&#45;&gt;Node30 -->
<g id="edge4" class="edge">
<title>Node29&#45;&gt;Node30</title>
<path fill="none" stroke="#191970" d="M558.1282,-126.9466C578.9941,-129.6155 601.8961,-132.5449 621.3657,-135.0352"/>
<polygon fill="#191970" stroke="#191970" points="558.4357,-123.4575 548.0724,-125.6604 557.5475,-130.401 558.4357,-123.4575"/>
</g>
<!-- Node31 -->
<g id="node6" class="node">
<title>Node31</title>
<g id="a_node6"><a xlink:href="classPSPM__Plant.html#a71f7312443767dffc44d8d0d80b295f0" target="_top" xlink:title="PSPM_Plant::preCompute">
<polygon fill="none" stroke="#000000" points="602,-87.5 602,-106.5 734,-106.5 734,-87.5 602,-87.5"/>
<text text-anchor="middle" x="668" y="-94.5" font-family="Helvetica,sans-Serif" font-size="10.00" fill="#000000">PSPM_Plant::preCompute</text>
</a>
</g>
</g>
<!-- Node29&#45;&gt;Node31 -->
<g id="edge5" class="edge">
<title>Node29&#45;&gt;Node31</title>
<path fill="none" stroke="#191970" d="M558.1933,-111.045C572.353,-109.2339 587.4473,-107.3032 601.7684,-105.4715"/>
<polygon fill="#191970" stroke="#191970" points="557.5475,-107.599 548.0724,-112.3396 558.4357,-114.5425 557.5475,-107.599"/>
</g>
<!-- Node33 -->
<g id="node8" class="node">
<title>Node33</title>
<g id="a_node8"><a xlink:href="classPSPM__Plant.html#a4ceca1be5d1089c49dcecdc5ce216727" target="_top" xlink:title="PSPM_Plant::establishment\lProbability">
<polygon fill="none" stroke="#000000" points="426,-39 426,-69 566,-69 566,-39 426,-39"/>
<text text-anchor="start" x="434" y="-57" font-family="Helvetica,sans-Serif" font-size="10.00" fill="#000000">PSPM_Plant::establishment</text>
<text text-anchor="middle" x="496" y="-46" font-family="Helvetica,sans-Serif" font-size="10.00" fill="#000000">Probability</text>
</a>
</g>
</g>
<!-- Node32&#45;&gt;Node33 -->
<g id="edge7" class="edge">
<title>Node32&#45;&gt;Node33</title>
<path fill="none" stroke="#191970" d="M400.4083,-48.7541C408.8098,-49.2152 417.4071,-49.687 425.8341,-50.1494"/>
<polygon fill="#191970" stroke="#191970" points="400.4588,-45.2517 390.282,-48.1984 400.0752,-52.2412 400.4588,-45.2517"/>
</g>
<!-- Node34 -->
<g id="node9" class="node">
<title>Node34</title>
<g id="a_node9"><a xlink:href="classPSPM__Plant.html#ad3109143960e0a0ceded078733bc4d4c" target="_top" xlink:title="PSPM_Plant::init_state">
<polygon fill="none" stroke="#000000" points="436.5,-.5 436.5,-19.5 555.5,-19.5 555.5,-.5 436.5,-.5"/>
<text text-anchor="middle" x="496" y="-7.5" font-family="Helvetica,sans-Serif" font-size="10.00" fill="#000000">PSPM_Plant::init_state</text>
</a>
</g>
</g>
<!-- Node32&#45;&gt;Node34 -->
<g id="edge8" class="edge">
<title>Node32&#45;&gt;Node34</title>
<path fill="none" stroke="#191970" d="M400.3042,-30.4229C417.5293,-26.7468 435.5841,-22.8936 451.3116,-19.5372"/>
<polygon fill="#191970" stroke="#191970" points="399.3313,-27.0516 390.282,-32.5618 400.7923,-33.8975 399.3313,-27.0516"/>
</g>
</g>
</svg>
