<?xml version="1.0" encoding="UTF-8" standalone="no"?>
<!DOCTYPE svg PUBLIC "-//W3C//DTD SVG 1.1//EN"
 "http://www.w3.org/Graphics/SVG/1.1/DTD/svg11.dtd">
<!-- Generated by graphviz version 2.40.1 (20161225.0304)
 -->
<!-- Title: plant::Assimilator::root_respiration_rate Pages: 1 -->
<svg width="743pt" height="165pt"
 viewBox="0.00 0.00 743.00 164.50" xmlns="http://www.w3.org/2000/svg" xmlns:xlink="http://www.w3.org/1999/xlink">
<g id="graph0" class="graph" transform="scale(1 1) rotate(0) translate(4 160.5)">
<title>plant::Assimilator::root_respiration_rate</title>
<!-- Node71 -->
<g id="node1" class="node">
<title>Node71</title>
<polygon fill="#bfbfbf" stroke="#000000" points="0,-74 0,-104 111,-104 111,-74 0,-74"/>
<text text-anchor="start" x="8" y="-92" font-family="Helvetica,sans-Serif" font-size="10.00" fill="#000000">plant::Assimilator</text>
<text text-anchor="middle" x="55.5" y="-81" font-family="Helvetica,sans-Serif" font-size="10.00" fill="#000000">::root_respiration_rate</text>
</g>
<!-- Node72 -->
<g id="node2" class="node">
<title>Node72</title>
<g id="a_node2"><a xlink:href="classplant_1_1Assimilator.html#ab5cf98dde0fb1d49ce4d0f44387b628b" target="_top" xlink:title="plant::Assimilator\l::net_production">
<polygon fill="none" stroke="#000000" points="147,-74 147,-104 239,-104 239,-74 147,-74"/>
<text text-anchor="start" x="155" y="-92" font-family="Helvetica,sans-Serif" font-size="10.00" fill="#000000">plant::Assimilator</text>
<text text-anchor="middle" x="193" y="-81" font-family="Helvetica,sans-Serif" font-size="10.00" fill="#000000">::net_production</text>
</a>
</g>
</g>
<!-- Node71&#45;&gt;Node72 -->
<g id="edge1" class="edge">
<title>Node71&#45;&gt;Node72</title>
<path fill="none" stroke="#191970" d="M121.1895,-89C129.8981,-89 138.6722,-89 146.9516,-89"/>
<polygon fill="#191970" stroke="#191970" points="121.0302,-85.5001 111.0302,-89 121.0301,-92.5001 121.0302,-85.5001"/>
</g>
<!-- Node73 -->
<g id="node3" class="node">
<title>Node73</title>
<g id="a_node3"><a xlink:href="classplant_1_1Plant.html#a48612779a5850cca9cc6f6caff1ccb8b" target="_top" xlink:title="plant::Plant::lai_model">
<polygon fill="none" stroke="#000000" points="276.5,-117.5 276.5,-136.5 389.5,-136.5 389.5,-117.5 276.5,-117.5"/>
<text text-anchor="middle" x="333" y="-124.5" font-family="Helvetica,sans-Serif" font-size="10.00" fill="#000000">plant::Plant::lai_model</text>
</a>
</g>
</g>
<!-- Node72&#45;&gt;Node73 -->
<g id="edge2" class="edge">
<title>Node72&#45;&gt;Node73</title>
<path fill="none" stroke="#191970" d="M249.2892,-104.2785C265.7185,-108.7379 283.1965,-113.4819 297.9092,-117.4754"/>
<polygon fill="#191970" stroke="#191970" points="249.7969,-100.7897 239.2292,-101.5479 247.9632,-107.5453 249.7969,-100.7897"/>
</g>
<!-- Node74 -->
<g id="node4" class="node">
<title>Node74</title>
<g id="a_node4"><a xlink:href="classplant_1_1Plant.html#ab39fa79cb8884c684af5db0c98a1785e" target="_top" xlink:title="plant::Plant::calc\l_demographic_rates">
<polygon fill="none" stroke="#000000" points="445,-104 445,-134 549,-134 549,-104 445,-104"/>
<text text-anchor="start" x="453" y="-122" font-family="Helvetica,sans-Serif" font-size="10.00" fill="#000000">plant::Plant::calc</text>
<text text-anchor="middle" x="497" y="-111" font-family="Helvetica,sans-Serif" font-size="10.00" fill="#000000">_demographic_rates</text>
</a>
</g>
</g>
<!-- Node72&#45;&gt;Node74 -->
<g id="edge9" class="edge">
<title>Node72&#45;&gt;Node74</title>
<path fill="none" stroke="#191970" d="M249.0252,-94.2597C288.6806,-98.011 343.1103,-103.2175 391,-108 408.5816,-109.7558 427.797,-111.7324 444.9806,-113.5207"/>
<polygon fill="#191970" stroke="#191970" points="249.3041,-90.7705 239.0192,-93.3144 248.6456,-97.7395 249.3041,-90.7705"/>
</g>
<!-- Node77 -->
<g id="node7" class="node">
<title>Node77</title>
<g id="a_node7"><a xlink:href="classplant_1_1Plant.html#a03c45eaaabce7ff0287598818dc4847f" target="_top" xlink:title="plant::Plant::p_survival\l_germination">
<polygon fill="none" stroke="#000000" points="275,-30 275,-60 391,-60 391,-30 275,-30"/>
<text text-anchor="start" x="283" y="-48" font-family="Helvetica,sans-Serif" font-size="10.00" fill="#000000">plant::Plant::p_survival</text>
<text text-anchor="middle" x="333" y="-37" font-family="Helvetica,sans-Serif" font-size="10.00" fill="#000000">_germination</text>
</a>
</g>
</g>
<!-- Node72&#45;&gt;Node77 -->
<g id="edge6" class="edge">
<title>Node72&#45;&gt;Node77</title>
<path fill="none" stroke="#191970" d="M249.0413,-71.387C260.9164,-67.6548 273.3502,-63.7471 284.8995,-60.1173"/>
<polygon fill="#191970" stroke="#191970" points="247.7198,-68.1335 239.2292,-74.4708 249.8186,-74.8115 247.7198,-68.1335"/>
</g>
<!-- Node73&#45;&gt;Node74 -->
<g id="edge3" class="edge">
<title>Node73&#45;&gt;Node74</title>
<path fill="none" stroke="#191970" d="M400.1024,-123.7267C415.0348,-122.9983 430.6493,-122.2366 444.8744,-121.5427"/>
<polygon fill="#191970" stroke="#191970" points="399.7165,-120.2413 389.899,-124.2244 400.0577,-127.233 399.7165,-120.2413"/>
</g>
<!-- Node75 -->
<g id="node5" class="node">
<title>Node75</title>
<g id="a_node5"><a xlink:href="classplant_1_1Plant.html#a274f7da212d5f05d4b281e49e11fc44e" target="_top" xlink:title="plant::Plant::grow\l_for_dt">
<polygon fill="none" stroke="#000000" points="622.5,-126 622.5,-156 715.5,-156 715.5,-126 622.5,-126"/>
<text text-anchor="start" x="630.5" y="-144" font-family="Helvetica,sans-Serif" font-size="10.00" fill="#000000">plant::Plant::grow</text>
<text text-anchor="middle" x="669" y="-133" font-family="Helvetica,sans-Serif" font-size="10.00" fill="#000000">_for_dt</text>
</a>
</g>
</g>
<!-- Node74&#45;&gt;Node75 -->
<g id="edge4" class="edge">
<title>Node74&#45;&gt;Node75</title>
<path fill="none" stroke="#191970" d="M559.1282,-126.9466C579.9941,-129.6155 602.8961,-132.5449 622.3657,-135.0352"/>
<polygon fill="#191970" stroke="#191970" points="559.4357,-123.4575 549.0724,-125.6604 558.5475,-130.401 559.4357,-123.4575"/>
</g>
<!-- Node76 -->
<g id="node6" class="node">
<title>Node76</title>
<g id="a_node6"><a xlink:href="classPSPM__Plant.html#a71f7312443767dffc44d8d0d80b295f0" target="_top" xlink:title="PSPM_Plant::preCompute">
<polygon fill="none" stroke="#000000" points="603,-87.5 603,-106.5 735,-106.5 735,-87.5 603,-87.5"/>
<text text-anchor="middle" x="669" y="-94.5" font-family="Helvetica,sans-Serif" font-size="10.00" fill="#000000">PSPM_Plant::preCompute</text>
</a>
</g>
</g>
<!-- Node74&#45;&gt;Node76 -->
<g id="edge5" class="edge">
<title>Node74&#45;&gt;Node76</title>
<path fill="none" stroke="#191970" d="M559.1933,-111.045C573.353,-109.2339 588.4473,-107.3032 602.7684,-105.4715"/>
<polygon fill="#191970" stroke="#191970" points="558.5475,-107.599 549.0724,-112.3396 559.4357,-114.5425 558.5475,-107.599"/>
</g>
<!-- Node78 -->
<g id="node8" class="node">
<title>Node78</title>
<g id="a_node8"><a xlink:href="classPSPM__Plant.html#a4ceca1be5d1089c49dcecdc5ce216727" target="_top" xlink:title="PSPM_Plant::establishment\lProbability">
<polygon fill="none" stroke="#000000" points="427,-39 427,-69 567,-69 567,-39 427,-39"/>
<text text-anchor="start" x="435" y="-57" font-family="Helvetica,sans-Serif" font-size="10.00" fill="#000000">PSPM_Plant::establishment</text>
<text text-anchor="middle" x="497" y="-46" font-family="Helvetica,sans-Serif" font-size="10.00" fill="#000000">Probability</text>
</a>
</g>
</g>
<!-- Node77&#45;&gt;Node78 -->
<g id="edge7" class="edge">
<title>Node77&#45;&gt;Node78</title>
<path fill="none" stroke="#191970" d="M401.4083,-48.7541C409.8098,-49.2152 418.4071,-49.687 426.8341,-50.1494"/>
<polygon fill="#191970" stroke="#191970" points="401.4588,-45.2517 391.282,-48.1984 401.0752,-52.2412 401.4588,-45.2517"/>
</g>
<!-- Node79 -->
<g id="node9" class="node">
<title>Node79</title>
<g id="a_node9"><a xlink:href="classPSPM__Plant.html#ad3109143960e0a0ceded078733bc4d4c" target="_top" xlink:title="PSPM_Plant::init_state">
<polygon fill="none" stroke="#000000" points="437.5,-.5 437.5,-19.5 556.5,-19.5 556.5,-.5 437.5,-.5"/>
<text text-anchor="middle" x="497" y="-7.5" font-family="Helvetica,sans-Serif" font-size="10.00" fill="#000000">PSPM_Plant::init_state</text>
</a>
</g>
</g>
<!-- Node77&#45;&gt;Node79 -->
<g id="edge8" class="edge">
<title>Node77&#45;&gt;Node79</title>
<path fill="none" stroke="#191970" d="M401.3042,-30.4229C418.5293,-26.7468 436.5841,-22.8936 452.3116,-19.5372"/>
<polygon fill="#191970" stroke="#191970" points="400.3313,-27.0516 391.282,-32.5618 401.7923,-33.8975 400.3313,-27.0516"/>
</g>
</g>
</svg>
