<?xml version="1.0" encoding="UTF-8" standalone="no"?>
<!DOCTYPE svg PUBLIC "-//W3C//DTD SVG 1.1//EN"
 "http://www.w3.org/Graphics/SVG/1.1/DTD/svg11.dtd">
<!-- Generated by graphviz version 2.40.1 (20161225.0304)
 -->
<!-- Title: plant::PlantGeometry::crown_area_above Pages: 1 -->
<svg width="923pt" height="165pt"
 viewBox="0.00 0.00 923.00 164.50" xmlns="http://www.w3.org/2000/svg" xmlns:xlink="http://www.w3.org/1999/xlink">
<g id="graph0" class="graph" transform="scale(1 1) rotate(0) translate(4 160.5)">
<title>plant::PlantGeometry::crown_area_above</title>
<!-- Node6 -->
<g id="node1" class="node">
<title>Node6</title>
<polygon fill="#bfbfbf" stroke="#000000" points="0,-74 0,-104 109,-104 109,-74 0,-74"/>
<text text-anchor="start" x="8" y="-92" font-family="Helvetica,sans-Serif" font-size="10.00" fill="#000000">plant::PlantGeometry</text>
<text text-anchor="middle" x="54.5" y="-81" font-family="Helvetica,sans-Serif" font-size="10.00" fill="#000000">::crown_area_above</text>
</g>
<!-- Node7 -->
<g id="node2" class="node">
<title>Node7</title>
<g id="a_node2"><a xlink:href="classplant_1_1Assimilator.html#a95024a28af68fde0b11acef9903aaa9d" target="_top" xlink:title="plant::Assimilator\l::calc_plant_assimilation_rate">
<polygon fill="none" stroke="#000000" points="145,-74 145,-104 291,-104 291,-74 145,-74"/>
<text text-anchor="start" x="153" y="-92" font-family="Helvetica,sans-Serif" font-size="10.00" fill="#000000">plant::Assimilator</text>
<text text-anchor="middle" x="218" y="-81" font-family="Helvetica,sans-Serif" font-size="10.00" fill="#000000">::calc_plant_assimilation_rate</text>
</a>
</g>
</g>
<!-- Node6&#45;&gt;Node7 -->
<g id="edge1" class="edge">
<title>Node6&#45;&gt;Node7</title>
<path fill="none" stroke="#191970" d="M119.465,-89C127.8386,-89 136.4576,-89 144.95,-89"/>
<polygon fill="#191970" stroke="#191970" points="119.398,-85.5001 109.398,-89 119.3979,-92.5001 119.398,-85.5001"/>
</g>
<!-- Node8 -->
<g id="node3" class="node">
<title>Node8</title>
<g id="a_node3"><a xlink:href="classplant_1_1Assimilator.html#ab5cf98dde0fb1d49ce4d0f44387b628b" target="_top" xlink:title="plant::Assimilator\l::net_production">
<polygon fill="none" stroke="#000000" points="327,-74 327,-104 419,-104 419,-74 327,-74"/>
<text text-anchor="start" x="335" y="-92" font-family="Helvetica,sans-Serif" font-size="10.00" fill="#000000">plant::Assimilator</text>
<text text-anchor="middle" x="373" y="-81" font-family="Helvetica,sans-Serif" font-size="10.00" fill="#000000">::net_production</text>
</a>
</g>
</g>
<!-- Node7&#45;&gt;Node8 -->
<g id="edge2" class="edge">
<title>Node7&#45;&gt;Node8</title>
<path fill="none" stroke="#191970" d="M301.5874,-89C310.2353,-89 318.7815,-89 326.7917,-89"/>
<polygon fill="#191970" stroke="#191970" points="301.4148,-85.5001 291.4148,-89 301.4147,-92.5001 301.4148,-85.5001"/>
</g>
<!-- Node9 -->
<g id="node4" class="node">
<title>Node9</title>
<g id="a_node4"><a xlink:href="classplant_1_1Plant.html#a48612779a5850cca9cc6f6caff1ccb8b" target="_top" xlink:title="plant::Plant::lai_model">
<polygon fill="none" stroke="#000000" points="456.5,-117.5 456.5,-136.5 569.5,-136.5 569.5,-117.5 456.5,-117.5"/>
<text text-anchor="middle" x="513" y="-124.5" font-family="Helvetica,sans-Serif" font-size="10.00" fill="#000000">plant::Plant::lai_model</text>
</a>
</g>
</g>
<!-- Node8&#45;&gt;Node9 -->
<g id="edge3" class="edge">
<title>Node8&#45;&gt;Node9</title>
<path fill="none" stroke="#191970" d="M429.2892,-104.2785C445.7185,-108.7379 463.1965,-113.4819 477.9092,-117.4754"/>
<polygon fill="#191970" stroke="#191970" points="429.7969,-100.7897 419.2292,-101.5479 427.9632,-107.5453 429.7969,-100.7897"/>
</g>
<!-- Node10 -->
<g id="node5" class="node">
<title>Node10</title>
<g id="a_node5"><a xlink:href="classplant_1_1Plant.html#ab39fa79cb8884c684af5db0c98a1785e" target="_top" xlink:title="plant::Plant::calc\l_demographic_rates">
<polygon fill="none" stroke="#000000" points="625,-104 625,-134 729,-134 729,-104 625,-104"/>
<text text-anchor="start" x="633" y="-122" font-family="Helvetica,sans-Serif" font-size="10.00" fill="#000000">plant::Plant::calc</text>
<text text-anchor="middle" x="677" y="-111" font-family="Helvetica,sans-Serif" font-size="10.00" fill="#000000">_demographic_rates</text>
</a>
</g>
</g>
<!-- Node8&#45;&gt;Node10 -->
<g id="edge10" class="edge">
<title>Node8&#45;&gt;Node10</title>
<path fill="none" stroke="#191970" d="M429.0252,-94.2597C468.6806,-98.011 523.1103,-103.2175 571,-108 588.5816,-109.7558 607.797,-111.7324 624.9806,-113.5207"/>
<polygon fill="#191970" stroke="#191970" points="429.3041,-90.7705 419.0192,-93.3144 428.6456,-97.7395 429.3041,-90.7705"/>
</g>
<!-- Node13 -->
<g id="node8" class="node">
<title>Node13</title>
<g id="a_node8"><a xlink:href="classplant_1_1Plant.html#a03c45eaaabce7ff0287598818dc4847f" target="_top" xlink:title="plant::Plant::p_survival\l_germination">
<polygon fill="none" stroke="#000000" points="455,-30 455,-60 571,-60 571,-30 455,-30"/>
<text text-anchor="start" x="463" y="-48" font-family="Helvetica,sans-Serif" font-size="10.00" fill="#000000">plant::Plant::p_survival</text>
<text text-anchor="middle" x="513" y="-37" font-family="Helvetica,sans-Serif" font-size="10.00" fill="#000000">_germination</text>
</a>
</g>
</g>
<!-- Node8&#45;&gt;Node13 -->
<g id="edge7" class="edge">
<title>Node8&#45;&gt;Node13</title>
<path fill="none" stroke="#191970" d="M429.0413,-71.387C440.9164,-67.6548 453.3502,-63.7471 464.8995,-60.1173"/>
<polygon fill="#191970" stroke="#191970" points="427.7198,-68.1335 419.2292,-74.4708 429.8186,-74.8115 427.7198,-68.1335"/>
</g>
<!-- Node9&#45;&gt;Node10 -->
<g id="edge4" class="edge">
<title>Node9&#45;&gt;Node10</title>
<path fill="none" stroke="#191970" d="M580.1024,-123.7267C595.0348,-122.9983 610.6493,-122.2366 624.8744,-121.5427"/>
<polygon fill="#191970" stroke="#191970" points="579.7165,-120.2413 569.899,-124.2244 580.0577,-127.233 579.7165,-120.2413"/>
</g>
<!-- Node11 -->
<g id="node6" class="node">
<title>Node11</title>
<g id="a_node6"><a xlink:href="classplant_1_1Plant.html#a274f7da212d5f05d4b281e49e11fc44e" target="_top" xlink:title="plant::Plant::grow\l_for_dt">
<polygon fill="none" stroke="#000000" points="802.5,-126 802.5,-156 895.5,-156 895.5,-126 802.5,-126"/>
<text text-anchor="start" x="810.5" y="-144" font-family="Helvetica,sans-Serif" font-size="10.00" fill="#000000">plant::Plant::grow</text>
<text text-anchor="middle" x="849" y="-133" font-family="Helvetica,sans-Serif" font-size="10.00" fill="#000000">_for_dt</text>
</a>
</g>
</g>
<!-- Node10&#45;&gt;Node11 -->
<g id="edge5" class="edge">
<title>Node10&#45;&gt;Node11</title>
<path fill="none" stroke="#191970" d="M739.1282,-126.9466C759.9941,-129.6155 782.8961,-132.5449 802.3657,-135.0352"/>
<polygon fill="#191970" stroke="#191970" points="739.4357,-123.4575 729.0724,-125.6604 738.5475,-130.401 739.4357,-123.4575"/>
</g>
<!-- Node12 -->
<g id="node7" class="node">
<title>Node12</title>
<g id="a_node7"><a xlink:href="classPSPM__Plant.html#a71f7312443767dffc44d8d0d80b295f0" target="_top" xlink:title="PSPM_Plant::preCompute">
<polygon fill="none" stroke="#000000" points="783,-87.5 783,-106.5 915,-106.5 915,-87.5 783,-87.5"/>
<text text-anchor="middle" x="849" y="-94.5" font-family="Helvetica,sans-Serif" font-size="10.00" fill="#000000">PSPM_Plant::preCompute</text>
</a>
</g>
</g>
<!-- Node10&#45;&gt;Node12 -->
<g id="edge6" class="edge">
<title>Node10&#45;&gt;Node12</title>
<path fill="none" stroke="#191970" d="M739.1933,-111.045C753.353,-109.2339 768.4473,-107.3032 782.7684,-105.4715"/>
<polygon fill="#191970" stroke="#191970" points="738.5475,-107.599 729.0724,-112.3396 739.4357,-114.5425 738.5475,-107.599"/>
</g>
<!-- Node14 -->
<g id="node9" class="node">
<title>Node14</title>
<g id="a_node9"><a xlink:href="classPSPM__Plant.html#a4ceca1be5d1089c49dcecdc5ce216727" target="_top" xlink:title="PSPM_Plant::establishment\lProbability">
<polygon fill="none" stroke="#000000" points="607,-39 607,-69 747,-69 747,-39 607,-39"/>
<text text-anchor="start" x="615" y="-57" font-family="Helvetica,sans-Serif" font-size="10.00" fill="#000000">PSPM_Plant::establishment</text>
<text text-anchor="middle" x="677" y="-46" font-family="Helvetica,sans-Serif" font-size="10.00" fill="#000000">Probability</text>
</a>
</g>
</g>
<!-- Node13&#45;&gt;Node14 -->
<g id="edge8" class="edge">
<title>Node13&#45;&gt;Node14</title>
<path fill="none" stroke="#191970" d="M581.4083,-48.7541C589.8098,-49.2152 598.4071,-49.687 606.8341,-50.1494"/>
<polygon fill="#191970" stroke="#191970" points="581.4588,-45.2517 571.282,-48.1984 581.0752,-52.2412 581.4588,-45.2517"/>
</g>
<!-- Node15 -->
<g id="node10" class="node">
<title>Node15</title>
<g id="a_node10"><a xlink:href="classPSPM__Plant.html#ad3109143960e0a0ceded078733bc4d4c" target="_top" xlink:title="PSPM_Plant::init_state">
<polygon fill="none" stroke="#000000" points="617.5,-.5 617.5,-19.5 736.5,-19.5 736.5,-.5 617.5,-.5"/>
<text text-anchor="middle" x="677" y="-7.5" font-family="Helvetica,sans-Serif" font-size="10.00" fill="#000000">PSPM_Plant::init_state</text>
</a>
</g>
</g>
<!-- Node13&#45;&gt;Node15 -->
<g id="edge9" class="edge">
<title>Node13&#45;&gt;Node15</title>
<path fill="none" stroke="#191970" d="M581.3042,-30.4229C598.5293,-26.7468 616.5841,-22.8936 632.3116,-19.5372"/>
<polygon fill="#191970" stroke="#191970" points="580.3313,-27.0516 571.282,-32.5618 581.7923,-33.8975 580.3313,-27.0516"/>
</g>
</g>
</svg>
