<?xml version="1.0" encoding="UTF-8" standalone="no"?>
<!DOCTYPE svg PUBLIC "-//W3C//DTD SVG 1.1//EN"
 "http://www.w3.org/Graphics/SVG/1.1/DTD/svg11.dtd">
<!-- Generated by graphviz version 2.40.1 (20161225.0304)
 -->
<!-- Title: env::Climate Pages: 1 -->
<svg width="852pt" height="261pt"
 viewBox="0.00 0.00 852.00 260.50" xmlns="http://www.w3.org/2000/svg" xmlns:xlink="http://www.w3.org/1999/xlink">
<g id="graph0" class="graph" transform="scale(1 1) rotate(0) translate(4 256.5)">
<title>env::Climate</title>
<!-- Node2 -->
<g id="node1" class="node">
<title>Node2</title>
<polygon fill="#bfbfbf" stroke="#000000" points="772,-103.5 772,-122.5 844,-122.5 844,-103.5 772,-103.5"/>
<text text-anchor="middle" x="808" y="-110.5" font-family="Helvetica,sans-Serif" font-size="10.00" fill="#000000">env::Climate</text>
</g>
<!-- Node3 -->
<g id="node2" class="node">
<title>Node3</title>
<g id="a_node2"><a xlink:title="STL class. ">
<polygon fill="none" stroke="#bfbfbf" points="604,-227.5 604,-246.5 675,-246.5 675,-227.5 604,-227.5"/>
<text text-anchor="middle" x="639.5" y="-234.5" font-family="Helvetica,sans-Serif" font-size="10.00" fill="#000000">std::ifstream</text>
</a>
</g>
</g>
<!-- Node3&#45;&gt;Node2 -->
<g id="edge1" class="edge">
<title>Node3&#45;&gt;Node2</title>
<path fill="none" stroke="#9a32cd" stroke-dasharray="5,2" d="M684.8316,-225.221C707.3278,-217.7683 733.9124,-206.3881 754,-190 777.6584,-170.6988 795.5669,-138.5094 803.502,-122.5595"/>
<polygon fill="#9a32cd" stroke="#9a32cd" points="683.6316,-221.9294 675.1473,-228.2751 685.737,-228.6053 683.6316,-221.9294"/>
<text text-anchor="middle" x="736.5" y="-225" font-family="Helvetica,sans-Serif" font-size="10.00" fill="#000000"> fin_co2</text>
<text text-anchor="middle" x="736.5" y="-214" font-family="Helvetica,sans-Serif" font-size="10.00" fill="#000000">fin_met</text>
</g>
<!-- Node4 -->
<g id="node3" class="node">
<title>Node4</title>
<g id="a_node3"><a xlink:title="STL class. ">
<polygon fill="none" stroke="#bfbfbf" points="399,-222 399,-252 499,-252 499,-222 399,-222"/>
<text text-anchor="start" x="407" y="-240" font-family="Helvetica,sans-Serif" font-size="10.00" fill="#000000">std::basic_ifstream</text>
<text text-anchor="middle" x="449" y="-229" font-family="Helvetica,sans-Serif" font-size="10.00" fill="#000000">&lt; char &gt;</text>
</a>
</g>
</g>
<!-- Node4&#45;&gt;Node3 -->
<g id="edge2" class="edge">
<title>Node4&#45;&gt;Node3</title>
<path fill="none" stroke="#191970" d="M509.3621,-237C540.4853,-237 577.3749,-237 603.9163,-237"/>
<polygon fill="#191970" stroke="#191970" points="509.0517,-233.5001 499.0516,-237 509.0516,-240.5001 509.0517,-233.5001"/>
</g>
<!-- Node5 -->
<g id="node4" class="node">
<title>Node5</title>
<g id="a_node4"><a xlink:title="STL class. ">
<polygon fill="none" stroke="#bfbfbf" points="265,-222 265,-252 362,-252 362,-222 265,-222"/>
<text text-anchor="start" x="273" y="-240" font-family="Helvetica,sans-Serif" font-size="10.00" fill="#000000">std::basic_istream</text>
<text text-anchor="middle" x="313.5" y="-229" font-family="Helvetica,sans-Serif" font-size="10.00" fill="#000000">&lt; Char &gt;</text>
</a>
</g>
</g>
<!-- Node5&#45;&gt;Node4 -->
<g id="edge3" class="edge">
<title>Node5&#45;&gt;Node4</title>
<path fill="none" stroke="#191970" d="M372.0403,-237C381.0146,-237 390.2085,-237 398.9764,-237"/>
<polygon fill="#191970" stroke="#191970" points="372.0359,-233.5001 362.0359,-237 372.0359,-240.5001 372.0359,-233.5001"/>
</g>
<!-- Node6 -->
<g id="node5" class="node">
<title>Node6</title>
<g id="a_node5"><a xlink:title="STL class. ">
<polygon fill="none" stroke="#bfbfbf" points="112,-227.5 112,-246.5 228,-246.5 228,-227.5 112,-227.5"/>
<text text-anchor="middle" x="170" y="-234.5" font-family="Helvetica,sans-Serif" font-size="10.00" fill="#000000">std::basic_ios&lt; Char &gt;</text>
</a>
</g>
</g>
<!-- Node6&#45;&gt;Node5 -->
<g id="edge4" class="edge">
<title>Node6&#45;&gt;Node5</title>
<path fill="none" stroke="#191970" d="M238.3854,-237C247.3112,-237 256.3065,-237 264.8174,-237"/>
<polygon fill="#191970" stroke="#191970" points="238.367,-233.5001 228.3669,-237 238.3669,-240.5001 238.367,-233.5001"/>
</g>
<!-- Node7 -->
<g id="node6" class="node">
<title>Node7</title>
<g id="a_node6"><a xlink:title="STL class. ">
<polygon fill="none" stroke="#bfbfbf" points="0,-227.5 0,-246.5 75,-246.5 75,-227.5 0,-227.5"/>
<text text-anchor="middle" x="37.5" y="-234.5" font-family="Helvetica,sans-Serif" font-size="10.00" fill="#000000">std::ios_base</text>
</a>
</g>
</g>
<!-- Node7&#45;&gt;Node6 -->
<g id="edge5" class="edge">
<title>Node7&#45;&gt;Node6</title>
<path fill="none" stroke="#191970" d="M85.3789,-237C94.0135,-237 103.1001,-237 111.986,-237"/>
<polygon fill="#191970" stroke="#191970" points="85.1148,-233.5001 75.1148,-237 85.1147,-240.5001 85.1148,-233.5001"/>
</g>
<!-- Node8 -->
<g id="node7" class="node">
<title>Node8</title>
<polygon fill="none" stroke="#bfbfbf" points="578,-120.5 578,-139.5 701,-139.5 701,-120.5 578,-120.5"/>
<text text-anchor="middle" x="639.5" y="-127.5" font-family="Helvetica,sans-Serif" font-size="10.00" fill="#000000">std::vector&lt; env::Clim &gt;</text>
</g>
<!-- Node8&#45;&gt;Node2 -->
<g id="edge6" class="edge">
<title>Node8&#45;&gt;Node2</title>
<path fill="none" stroke="#9a32cd" stroke-dasharray="5,2" d="M711.4003,-122.746C732.2177,-120.6457 754.0633,-118.4417 771.7037,-116.6619"/>
<polygon fill="#9a32cd" stroke="#9a32cd" points="710.8845,-119.2801 701.2864,-123.7664 711.5872,-126.2448 710.8845,-119.2801"/>
<text text-anchor="middle" x="736.5" y="-124" font-family="Helvetica,sans-Serif" font-size="10.00" fill="#000000"> v_met</text>
</g>
<!-- Node9 -->
<g id="node8" class="node">
<title>Node9</title>
<g id="a_node8"><a xlink:href="classenv_1_1Clim.html" target="_top" xlink:title="env::Clim">
<polygon fill="none" stroke="#000000" points="419.5,-146.5 419.5,-165.5 478.5,-165.5 478.5,-146.5 419.5,-146.5"/>
<text text-anchor="middle" x="449" y="-153.5" font-family="Helvetica,sans-Serif" font-size="10.00" fill="#000000">env::Clim</text>
</a>
</g>
</g>
<!-- Node9&#45;&gt;Node2 -->
<g id="edge11" class="edge">
<title>Node9&#45;&gt;Node2</title>
<path fill="none" stroke="#9a32cd" stroke-dasharray="5,2" d="M488.8795,-159.4242C498.1062,-160.0797 507.8895,-160.6655 517,-161 622.8464,-164.8862 653.5124,-169.4784 754,-136 765.4077,-132.1994 777.7719,-127.0158 787.7872,-122.5317"/>
<polygon fill="#9a32cd" stroke="#9a32cd" points="488.9985,-155.9233 478.7643,-158.664 488.4739,-162.9036 488.9985,-155.9233"/>
<text text-anchor="middle" x="639.5" y="-188" font-family="Helvetica,sans-Serif" font-size="10.00" fill="#000000"> clim_prev</text>
<text text-anchor="middle" x="639.5" y="-177" font-family="Helvetica,sans-Serif" font-size="10.00" fill="#000000">clim</text>
<text text-anchor="middle" x="639.5" y="-166" font-family="Helvetica,sans-Serif" font-size="10.00" fill="#000000">clim_next</text>
</g>
<!-- Node9&#45;&gt;Node8 -->
<g id="edge7" class="edge">
<title>Node9&#45;&gt;Node8</title>
<path fill="none" stroke="#9a32cd" stroke-dasharray="5,2" d="M488.8825,-150.5567C514.5754,-147.0501 548.5018,-142.4197 577.6501,-138.4415"/>
<polygon fill="#9a32cd" stroke="#9a32cd" points="488.2004,-147.1173 478.7656,-151.9375 489.1471,-154.053 488.2004,-147.1173"/>
<text text-anchor="middle" x="538.5" y="-149" font-family="Helvetica,sans-Serif" font-size="10.00" fill="#000000"> elements</text>
</g>
<!-- Node10 -->
<g id="node9" class="node">
<title>Node10</title>
<g id="a_node9"><a xlink:title="STL class. ">
<polygon fill="none" stroke="#bfbfbf" points="609.5,-82.5 609.5,-101.5 669.5,-101.5 669.5,-82.5 609.5,-82.5"/>
<text text-anchor="middle" x="639.5" y="-89.5" font-family="Helvetica,sans-Serif" font-size="10.00" fill="#000000">std::string</text>
</a>
</g>
</g>
<!-- Node10&#45;&gt;Node2 -->
<g id="edge8" class="edge">
<title>Node10&#45;&gt;Node2</title>
<path fill="none" stroke="#9a32cd" stroke-dasharray="5,2" d="M679.9428,-88.383C702.0131,-87.3123 729.7123,-87.4436 754,-92 765.8638,-94.2257 778.4705,-98.979 788.5169,-103.4013"/>
<polygon fill="#9a32cd" stroke="#9a32cd" points="679.6949,-84.8914 669.9163,-88.9693 680.1036,-91.8794 679.6949,-84.8914"/>
<text text-anchor="middle" x="736.5" y="-106" font-family="Helvetica,sans-Serif" font-size="10.00" fill="#000000"> co2File</text>
<text text-anchor="middle" x="736.5" y="-95" font-family="Helvetica,sans-Serif" font-size="10.00" fill="#000000">metFile</text>
</g>
<!-- Node11 -->
<g id="node10" class="node">
<title>Node11</title>
<g id="a_node10"><a xlink:title="STL class. ">
<polygon fill="none" stroke="#bfbfbf" points="401.5,-77 401.5,-107 496.5,-107 496.5,-77 401.5,-77"/>
<text text-anchor="start" x="409.5" y="-95" font-family="Helvetica,sans-Serif" font-size="10.00" fill="#000000">std::basic_string&lt;</text>
<text text-anchor="middle" x="449" y="-84" font-family="Helvetica,sans-Serif" font-size="10.00" fill="#000000"> char &gt;</text>
</a>
</g>
</g>
<!-- Node11&#45;&gt;Node10 -->
<g id="edge9" class="edge">
<title>Node11&#45;&gt;Node10</title>
<path fill="none" stroke="#191970" d="M506.8172,-92C540.6561,-92 581.9907,-92 609.4403,-92"/>
<polygon fill="#191970" stroke="#191970" points="506.5798,-88.5001 496.5798,-92 506.5798,-95.5001 506.5798,-88.5001"/>
</g>
<!-- Node12 -->
<g id="node11" class="node">
<title>Node12</title>
<polygon fill="none" stroke="#bfbfbf" points="593.5,-44.5 593.5,-63.5 685.5,-63.5 685.5,-44.5 593.5,-44.5"/>
<text text-anchor="middle" x="639.5" y="-51.5" font-family="Helvetica,sans-Serif" font-size="10.00" fill="#000000">std::vector&lt; int &gt;</text>
</g>
<!-- Node12&#45;&gt;Node2 -->
<g id="edge10" class="edge">
<title>Node12&#45;&gt;Node2</title>
<path fill="none" stroke="#9a32cd" stroke-dasharray="5,2" d="M695.7879,-57.9782C714.8197,-60.71 735.837,-65.2995 754,-73 771.1862,-80.2864 787.9834,-94.0898 798.1645,-103.4177"/>
<polygon fill="#9a32cd" stroke="#9a32cd" points="696.1137,-54.4913 685.747,-56.6781 695.2147,-61.4333 696.1137,-54.4913"/>
<text text-anchor="middle" x="736.5" y="-76" font-family="Helvetica,sans-Serif" font-size="10.00" fill="#000000"> t_co2</text>
</g>
<!-- Node13 -->
<g id="node12" class="node">
<title>Node13</title>
<polygon fill="none" stroke="#bfbfbf" points="584.5,-.5 584.5,-19.5 694.5,-19.5 694.5,-.5 584.5,-.5"/>
<text text-anchor="middle" x="639.5" y="-7.5" font-family="Helvetica,sans-Serif" font-size="10.00" fill="#000000">std::vector&lt; double &gt;</text>
</g>
<!-- Node13&#45;&gt;Node2 -->
<g id="edge12" class="edge">
<title>Node13&#45;&gt;Node2</title>
<path fill="none" stroke="#9a32cd" stroke-dasharray="5,2" d="M704.6008,-16.2281C721.7058,-20.0735 739.428,-26.217 754,-36 779.621,-53.2009 796.8442,-86.9731 804.1045,-103.4726"/>
<polygon fill="#9a32cd" stroke="#9a32cd" points="705.1238,-12.7632 694.6295,-14.2194 703.7413,-19.6254 705.1238,-12.7632"/>
<text text-anchor="middle" x="736.5" y="-50" font-family="Helvetica,sans-Serif" font-size="10.00" fill="#000000"> t_met</text>
<text text-anchor="middle" x="736.5" y="-39" font-family="Helvetica,sans-Serif" font-size="10.00" fill="#000000">v_co2</text>
</g>
</g>
</svg>
