<?xml version="1.0" encoding="UTF-8" standalone="no"?>
<!DOCTYPE svg PUBLIC "-//W3C//DTD SVG 1.1//EN"
 "http://www.w3.org/Graphics/SVG/1.1/DTD/svg11.dtd">
<!-- Generated by graphviz version 2.40.1 (20161225.0304)
 -->
<!-- Title: plant::Plant::size_growth_rate Pages: 1 -->
<svg width="243pt" height="88pt"
 viewBox="0.00 0.00 243.00 88.00" xmlns="http://www.w3.org/2000/svg" xmlns:xlink="http://www.w3.org/1999/xlink">
<g id="graph0" class="graph" transform="scale(1 1) rotate(0) translate(4 84)">
<title>plant::Plant::size_growth_rate</title>
<!-- Node152 -->
<g id="node1" class="node">
<title>Node152</title>
<polygon fill="#bfbfbf" stroke="#000000" points="0,-24.5 0,-54.5 90,-54.5 90,-24.5 0,-24.5"/>
<text text-anchor="start" x="8" y="-42.5" font-family="Helvetica,sans-Serif" font-size="10.00" fill="#000000">plant::Plant::size</text>
<text text-anchor="middle" x="45" y="-31.5" font-family="Helvetica,sans-Serif" font-size="10.00" fill="#000000">_growth_rate</text>
</g>
<!-- Node153 -->
<g id="node2" class="node">
<title>Node153</title>
<g id="a_node2"><a xlink:href="classplant_1_1PlantGeometry.html#a2588428307028e5d6f1b6514aaa9dd59" target="_top" xlink:title="plant::PlantGeometry\l::dsize_dmass">
<polygon fill="none" stroke="#000000" points="126,-49.5 126,-79.5 235,-79.5 235,-49.5 126,-49.5"/>
<text text-anchor="start" x="134" y="-67.5" font-family="Helvetica,sans-Serif" font-size="10.00" fill="#000000">plant::PlantGeometry</text>
<text text-anchor="middle" x="180.5" y="-56.5" font-family="Helvetica,sans-Serif" font-size="10.00" fill="#000000">::dsize_dmass</text>
</a>
</g>
</g>
<!-- Node152&#45;&gt;Node153 -->
<g id="edge1" class="edge">
<title>Node152&#45;&gt;Node153</title>
<path fill="none" stroke="#191970" d="M90.1195,-47.8246C98.309,-49.3356 106.9968,-50.9385 115.6224,-52.53"/>
<polygon fill="#191970" stroke="#191970" points="115.2169,-56.0142 125.686,-54.3867 116.4871,-49.1303 115.2169,-56.0142"/>
</g>
<!-- Node154 -->
<g id="node3" class="node">
<title>Node154</title>
<g id="a_node3"><a xlink:href="classplant_1_1PlantGeometry.html#a3988e151a21d97e544460b200993ac71" target="_top" xlink:title="plant::PlantGeometry\l::get_size">
<polygon fill="none" stroke="#000000" points="126,-.5 126,-30.5 235,-30.5 235,-.5 126,-.5"/>
<text text-anchor="start" x="134" y="-18.5" font-family="Helvetica,sans-Serif" font-size="10.00" fill="#000000">plant::PlantGeometry</text>
<text text-anchor="middle" x="180.5" y="-7.5" font-family="Helvetica,sans-Serif" font-size="10.00" fill="#000000">::get_size</text>
</a>
</g>
</g>
<!-- Node152&#45;&gt;Node154 -->
<g id="edge2" class="edge">
<title>Node152&#45;&gt;Node154</title>
<path fill="none" stroke="#191970" d="M90.1195,-31.5083C98.309,-30.0578 106.9968,-28.519 115.6224,-26.9912"/>
<polygon fill="#191970" stroke="#191970" points="116.4497,-30.3993 125.686,-25.2087 115.2288,-23.5065 116.4497,-30.3993"/>
</g>
</g>
</svg>
