<?xml version="1.0" encoding="UTF-8" standalone="no"?>
<!DOCTYPE svg PUBLIC "-//W3C//DTD SVG 1.1//EN"
 "http://www.w3.org/Graphics/SVG/1.1/DTD/svg11.dtd">
<!-- Generated by graphviz version 2.40.1 (20161225.0304)
 -->
<!-- Title: plant::Plant::partition_biomass Pages: 1 -->
<svg width="423pt" height="78pt"
 viewBox="0.00 0.00 423.00 77.50" xmlns="http://www.w3.org/2000/svg" xmlns:xlink="http://www.w3.org/1999/xlink">
<g id="graph0" class="graph" transform="scale(1 1) rotate(0) translate(4 73.5)">
<title>plant::Plant::partition_biomass</title>
<!-- Node142 -->
<g id="node1" class="node">
<title>Node142</title>
<polygon fill="#bfbfbf" stroke="#000000" points="0,-17 0,-47 107,-47 107,-17 0,-17"/>
<text text-anchor="start" x="8" y="-35" font-family="Helvetica,sans-Serif" font-size="10.00" fill="#000000">plant::Plant::partition</text>
<text text-anchor="middle" x="53.5" y="-24" font-family="Helvetica,sans-Serif" font-size="10.00" fill="#000000">_biomass</text>
</g>
<!-- Node143 -->
<g id="node2" class="node">
<title>Node143</title>
<g id="a_node2"><a xlink:href="classplant_1_1Plant.html#ab39fa79cb8884c684af5db0c98a1785e" target="_top" xlink:title="plant::Plant::calc\l_demographic_rates">
<polygon fill="none" stroke="#000000" points="143,-17 143,-47 247,-47 247,-17 143,-17"/>
<text text-anchor="start" x="151" y="-35" font-family="Helvetica,sans-Serif" font-size="10.00" fill="#000000">plant::Plant::calc</text>
<text text-anchor="middle" x="195" y="-24" font-family="Helvetica,sans-Serif" font-size="10.00" fill="#000000">_demographic_rates</text>
</a>
</g>
</g>
<!-- Node142&#45;&gt;Node143 -->
<g id="edge1" class="edge">
<title>Node142&#45;&gt;Node143</title>
<path fill="none" stroke="#191970" d="M117.55,-32C125.9504,-32 134.4778,-32 142.653,-32"/>
<polygon fill="#191970" stroke="#191970" points="117.3988,-28.5001 107.3987,-32 117.3987,-35.5001 117.3988,-28.5001"/>
</g>
<!-- Node144 -->
<g id="node3" class="node">
<title>Node144</title>
<g id="a_node3"><a xlink:href="classplant_1_1Plant.html#a274f7da212d5f05d4b281e49e11fc44e" target="_top" xlink:title="plant::Plant::grow\l_for_dt">
<polygon fill="none" stroke="#000000" points="302.5,-39 302.5,-69 395.5,-69 395.5,-39 302.5,-39"/>
<text text-anchor="start" x="310.5" y="-57" font-family="Helvetica,sans-Serif" font-size="10.00" fill="#000000">plant::Plant::grow</text>
<text text-anchor="middle" x="349" y="-46" font-family="Helvetica,sans-Serif" font-size="10.00" fill="#000000">_for_dt</text>
</a>
</g>
</g>
<!-- Node143&#45;&gt;Node144 -->
<g id="edge2" class="edge">
<title>Node143&#45;&gt;Node144</title>
<path fill="none" stroke="#191970" d="M257.3814,-40.9116C272.3988,-43.057 288.1862,-45.3123 302.3443,-47.3349"/>
<polygon fill="#191970" stroke="#191970" points="257.5319,-37.3977 247.1374,-39.4482 256.5419,-44.3273 257.5319,-37.3977"/>
</g>
<!-- Node145 -->
<g id="node4" class="node">
<title>Node145</title>
<g id="a_node4"><a xlink:href="classPSPM__Plant.html#a71f7312443767dffc44d8d0d80b295f0" target="_top" xlink:title="PSPM_Plant::preCompute">
<polygon fill="none" stroke="#000000" points="283,-.5 283,-19.5 415,-19.5 415,-.5 283,-.5"/>
<text text-anchor="middle" x="349" y="-7.5" font-family="Helvetica,sans-Serif" font-size="10.00" fill="#000000">PSPM_Plant::preCompute</text>
</a>
</g>
</g>
<!-- Node143&#45;&gt;Node145 -->
<g id="edge3" class="edge">
<title>Node143&#45;&gt;Node145</title>
<path fill="none" stroke="#191970" d="M257.3054,-23.0992C265.7649,-21.8907 274.4701,-20.6471 282.992,-19.4297"/>
<polygon fill="#191970" stroke="#191970" points="256.5419,-19.6727 247.1374,-24.5518 257.5319,-26.6023 256.5419,-19.6727"/>
</g>
</g>
</svg>
