<?xml version="1.0" encoding="UTF-8" standalone="no"?>
<!DOCTYPE svg PUBLIC "-//W3C//DTD SVG 1.1//EN"
 "http://www.w3.org/Graphics/SVG/1.1/DTD/svg11.dtd">
<!-- Generated by graphviz version 2.40.1 (20161225.0304)
 -->
<!-- Title: plant::PlantGeometry::init Pages: 1 -->
<svg width="201pt" height="66pt"
 viewBox="0.00 0.00 201.00 66.00" xmlns="http://www.w3.org/2000/svg" xmlns:xlink="http://www.w3.org/1999/xlink">
<g id="graph0" class="graph" transform="scale(1 1) rotate(0) translate(4 62)">
<title>plant::PlantGeometry::init</title>
<!-- Node61 -->
<g id="node1" class="node">
<title>Node61</title>
<polygon fill="#bfbfbf" stroke="#000000" points="0,-14 0,-44 109,-44 109,-14 0,-14"/>
<text text-anchor="start" x="8" y="-32" font-family="Helvetica,sans-Serif" font-size="10.00" fill="#000000">plant::PlantGeometry</text>
<text text-anchor="middle" x="54.5" y="-21" font-family="Helvetica,sans-Serif" font-size="10.00" fill="#000000">::init</text>
</g>
<!-- Node62 -->
<g id="node2" class="node">
<title>Node62</title>
<g id="a_node2"><a xlink:href="incbeta_8h.html#a9eb0ac72975c73100e4f9ca13bbd4366" target="_top" xlink:title="beta">
<polygon fill="none" stroke="#000000" points="151.5,-38.5 151.5,-57.5 186.5,-57.5 186.5,-38.5 151.5,-38.5"/>
<text text-anchor="middle" x="169" y="-45.5" font-family="Helvetica,sans-Serif" font-size="10.00" fill="#000000">beta</text>
</a>
</g>
</g>
<!-- Node61&#45;&gt;Node62 -->
<g id="edge1" class="edge">
<title>Node61&#45;&gt;Node62</title>
<path fill="none" stroke="#191970" d="M109.0673,-38.0548C120.3189,-39.9219 131.709,-41.812 141.494,-43.4357"/>
<polygon fill="#191970" stroke="#191970" points="140.9613,-46.8951 151.3994,-45.0794 142.1073,-39.9895 140.9613,-46.8951"/>
</g>
<!-- Node63 -->
<g id="node3" class="node">
<title>Node63</title>
<g id="a_node3"><a xlink:href="incbeta_8h.html#adf3ab3ef5b85f1a8d61e12d64bb8af16" target="_top" xlink:title="incbeta">
<polygon fill="none" stroke="#000000" points="145,-.5 145,-19.5 193,-19.5 193,-.5 145,-.5"/>
<text text-anchor="middle" x="169" y="-7.5" font-family="Helvetica,sans-Serif" font-size="10.00" fill="#000000">incbeta</text>
</a>
</g>
</g>
<!-- Node61&#45;&gt;Node63 -->
<g id="edge2" class="edge">
<title>Node61&#45;&gt;Node63</title>
<path fill="none" stroke="#191970" d="M109.0673,-19.9452C117.798,-18.4964 126.6122,-17.0338 134.6951,-15.6925"/>
<polygon fill="#191970" stroke="#191970" points="135.5391,-19.1004 144.8312,-14.0105 134.3931,-12.1948 135.5391,-19.1004"/>
</g>
</g>
</svg>
