<?xml version="1.0" encoding="UTF-8" standalone="no"?>
<!DOCTYPE svg PUBLIC "-//W3C//DTD SVG 1.1//EN"
 "http://www.w3.org/Graphics/SVG/1.1/DTD/svg11.dtd">
<!-- Generated by graphviz version 2.40.1 (20161225.0304)
 -->
<!-- Title: plant::PlantGeometry::sapwood_mass Pages: 1 -->
<svg width="911pt" height="189pt"
 viewBox="0.00 0.00 911.00 189.00" xmlns="http://www.w3.org/2000/svg" xmlns:xlink="http://www.w3.org/1999/xlink">
<g id="graph0" class="graph" transform="scale(1 1) rotate(0) translate(4 185)">
<title>plant::PlantGeometry::sapwood_mass</title>
<!-- Node109 -->
<g id="node1" class="node">
<title>Node109</title>
<polygon fill="#bfbfbf" stroke="#000000" points="0,-49.5 0,-79.5 109,-79.5 109,-49.5 0,-49.5"/>
<text text-anchor="start" x="8" y="-67.5" font-family="Helvetica,sans-Serif" font-size="10.00" fill="#000000">plant::PlantGeometry</text>
<text text-anchor="middle" x="54.5" y="-56.5" font-family="Helvetica,sans-Serif" font-size="10.00" fill="#000000">::sapwood_mass</text>
</g>
<!-- Node110 -->
<g id="node2" class="node">
<title>Node110</title>
<g id="a_node2"><a xlink:href="classplant_1_1Assimilator.html#aa6121d1ac17dca9d28e2f0a5719ebf40" target="_top" xlink:title="plant::Assimilator\l::sapwood_respiration_rate">
<polygon fill="none" stroke="#000000" points="145,-98.5 145,-128.5 279,-128.5 279,-98.5 145,-98.5"/>
<text text-anchor="start" x="153" y="-116.5" font-family="Helvetica,sans-Serif" font-size="10.00" fill="#000000">plant::Assimilator</text>
<text text-anchor="middle" x="212" y="-105.5" font-family="Helvetica,sans-Serif" font-size="10.00" fill="#000000">::sapwood_respiration_rate</text>
</a>
</g>
</g>
<!-- Node109&#45;&gt;Node110 -->
<g id="edge1" class="edge">
<title>Node109&#45;&gt;Node110</title>
<path fill="none" stroke="#191970" d="M112.7201,-82.6129C129.4643,-87.8222 147.5396,-93.4457 163.6199,-98.4484"/>
<polygon fill="#191970" stroke="#191970" points="113.6287,-79.2302 103.0403,-79.6014 111.5492,-85.9142 113.6287,-79.2302"/>
</g>
<!-- Node119 -->
<g id="node11" class="node">
<title>Node119</title>
<g id="a_node11"><a xlink:href="classplant_1_1PlantGeometry.html#a9a9fcab821d01edca49610082ceeb497" target="_top" xlink:title="plant::PlantGeometry\l::sapwood_mass_real">
<polygon fill="none" stroke="#000000" points="156,-49.5 156,-79.5 268,-79.5 268,-49.5 156,-49.5"/>
<text text-anchor="start" x="164" y="-67.5" font-family="Helvetica,sans-Serif" font-size="10.00" fill="#000000">plant::PlantGeometry</text>
<text text-anchor="middle" x="212" y="-56.5" font-family="Helvetica,sans-Serif" font-size="10.00" fill="#000000">::sapwood_mass_real</text>
</a>
</g>
</g>
<!-- Node109&#45;&gt;Node119 -->
<g id="edge11" class="edge">
<title>Node109&#45;&gt;Node119</title>
<path fill="none" stroke="#191970" d="M119.2173,-64.5C131.3701,-64.5 143.9836,-64.5 155.8493,-64.5"/>
<polygon fill="#191970" stroke="#191970" points="119.1439,-61.0001 109.1438,-64.5 119.1438,-68.0001 119.1439,-61.0001"/>
</g>
<!-- Node120 -->
<g id="node12" class="node">
<title>Node120</title>
<g id="a_node12"><a xlink:href="classplant_1_1PlantGeometry.html#a9d9d45d824d5a21c867c5c64cd66d1a8" target="_top" xlink:title="plant::PlantGeometry\l::grow_for_dt">
<polygon fill="none" stroke="#000000" points="157.5,-.5 157.5,-30.5 266.5,-30.5 266.5,-.5 157.5,-.5"/>
<text text-anchor="start" x="165.5" y="-18.5" font-family="Helvetica,sans-Serif" font-size="10.00" fill="#000000">plant::PlantGeometry</text>
<text text-anchor="middle" x="212" y="-7.5" font-family="Helvetica,sans-Serif" font-size="10.00" fill="#000000">::grow_for_dt</text>
</a>
</g>
</g>
<!-- Node109&#45;&gt;Node120 -->
<g id="edge12" class="edge">
<title>Node109&#45;&gt;Node120</title>
<path fill="none" stroke="#191970" d="M112.7201,-46.3871C129.4643,-41.1778 147.5396,-35.5543 163.6199,-30.5516"/>
<polygon fill="#191970" stroke="#191970" points="111.5492,-43.0858 103.0403,-49.3986 113.6287,-49.7698 111.5492,-43.0858"/>
</g>
<!-- Node111 -->
<g id="node3" class="node">
<title>Node111</title>
<g id="a_node3"><a xlink:href="classplant_1_1Assimilator.html#ab5cf98dde0fb1d49ce4d0f44387b628b" target="_top" xlink:title="plant::Assimilator\l::net_production">
<polygon fill="none" stroke="#000000" points="315,-98.5 315,-128.5 407,-128.5 407,-98.5 315,-98.5"/>
<text text-anchor="start" x="323" y="-116.5" font-family="Helvetica,sans-Serif" font-size="10.00" fill="#000000">plant::Assimilator</text>
<text text-anchor="middle" x="361" y="-105.5" font-family="Helvetica,sans-Serif" font-size="10.00" fill="#000000">::net_production</text>
</a>
</g>
</g>
<!-- Node110&#45;&gt;Node111 -->
<g id="edge2" class="edge">
<title>Node110&#45;&gt;Node111</title>
<path fill="none" stroke="#191970" d="M289.2907,-113.5C297.9845,-113.5 306.6276,-113.5 314.7454,-113.5"/>
<polygon fill="#191970" stroke="#191970" points="289.09,-110.0001 279.09,-113.5 289.09,-117.0001 289.09,-110.0001"/>
</g>
<!-- Node112 -->
<g id="node4" class="node">
<title>Node112</title>
<g id="a_node4"><a xlink:href="classplant_1_1Plant.html#a48612779a5850cca9cc6f6caff1ccb8b" target="_top" xlink:title="plant::Plant::lai_model">
<polygon fill="none" stroke="#000000" points="444.5,-142 444.5,-161 557.5,-161 557.5,-142 444.5,-142"/>
<text text-anchor="middle" x="501" y="-149" font-family="Helvetica,sans-Serif" font-size="10.00" fill="#000000">plant::Plant::lai_model</text>
</a>
</g>
</g>
<!-- Node111&#45;&gt;Node112 -->
<g id="edge3" class="edge">
<title>Node111&#45;&gt;Node112</title>
<path fill="none" stroke="#191970" d="M417.2892,-128.7785C433.7185,-133.2379 451.1965,-137.9819 465.9092,-141.9754"/>
<polygon fill="#191970" stroke="#191970" points="417.7969,-125.2897 407.2292,-126.0479 415.9632,-132.0453 417.7969,-125.2897"/>
</g>
<!-- Node113 -->
<g id="node5" class="node">
<title>Node113</title>
<g id="a_node5"><a xlink:href="classplant_1_1Plant.html#ab39fa79cb8884c684af5db0c98a1785e" target="_top" xlink:title="plant::Plant::calc\l_demographic_rates">
<polygon fill="none" stroke="#000000" points="613,-128.5 613,-158.5 717,-158.5 717,-128.5 613,-128.5"/>
<text text-anchor="start" x="621" y="-146.5" font-family="Helvetica,sans-Serif" font-size="10.00" fill="#000000">plant::Plant::calc</text>
<text text-anchor="middle" x="665" y="-135.5" font-family="Helvetica,sans-Serif" font-size="10.00" fill="#000000">_demographic_rates</text>
</a>
</g>
</g>
<!-- Node111&#45;&gt;Node113 -->
<g id="edge10" class="edge">
<title>Node111&#45;&gt;Node113</title>
<path fill="none" stroke="#191970" d="M417.0252,-118.7597C456.6806,-122.511 511.1103,-127.7175 559,-132.5 576.5816,-134.2558 595.797,-136.2324 612.9806,-138.0207"/>
<polygon fill="#191970" stroke="#191970" points="417.3041,-115.2705 407.0192,-117.8144 416.6456,-122.2395 417.3041,-115.2705"/>
</g>
<!-- Node116 -->
<g id="node8" class="node">
<title>Node116</title>
<g id="a_node8"><a xlink:href="classplant_1_1Plant.html#a03c45eaaabce7ff0287598818dc4847f" target="_top" xlink:title="plant::Plant::p_survival\l_germination">
<polygon fill="none" stroke="#000000" points="443,-54.5 443,-84.5 559,-84.5 559,-54.5 443,-54.5"/>
<text text-anchor="start" x="451" y="-72.5" font-family="Helvetica,sans-Serif" font-size="10.00" fill="#000000">plant::Plant::p_survival</text>
<text text-anchor="middle" x="501" y="-61.5" font-family="Helvetica,sans-Serif" font-size="10.00" fill="#000000">_germination</text>
</a>
</g>
</g>
<!-- Node111&#45;&gt;Node116 -->
<g id="edge7" class="edge">
<title>Node111&#45;&gt;Node116</title>
<path fill="none" stroke="#191970" d="M417.0413,-95.887C428.9164,-92.1548 441.3502,-88.2471 452.8995,-84.6173"/>
<polygon fill="#191970" stroke="#191970" points="415.7198,-92.6335 407.2292,-98.9708 417.8186,-99.3115 415.7198,-92.6335"/>
</g>
<!-- Node112&#45;&gt;Node113 -->
<g id="edge4" class="edge">
<title>Node112&#45;&gt;Node113</title>
<path fill="none" stroke="#191970" d="M568.1024,-148.2267C583.0348,-147.4983 598.6493,-146.7366 612.8744,-146.0427"/>
<polygon fill="#191970" stroke="#191970" points="567.7165,-144.7413 557.899,-148.7244 568.0577,-151.733 567.7165,-144.7413"/>
</g>
<!-- Node114 -->
<g id="node6" class="node">
<title>Node114</title>
<g id="a_node6"><a xlink:href="classplant_1_1Plant.html#a274f7da212d5f05d4b281e49e11fc44e" target="_top" xlink:title="plant::Plant::grow\l_for_dt">
<polygon fill="none" stroke="#000000" points="790.5,-150.5 790.5,-180.5 883.5,-180.5 883.5,-150.5 790.5,-150.5"/>
<text text-anchor="start" x="798.5" y="-168.5" font-family="Helvetica,sans-Serif" font-size="10.00" fill="#000000">plant::Plant::grow</text>
<text text-anchor="middle" x="837" y="-157.5" font-family="Helvetica,sans-Serif" font-size="10.00" fill="#000000">_for_dt</text>
</a>
</g>
</g>
<!-- Node113&#45;&gt;Node114 -->
<g id="edge5" class="edge">
<title>Node113&#45;&gt;Node114</title>
<path fill="none" stroke="#191970" d="M727.1282,-151.4466C747.9941,-154.1155 770.8961,-157.0449 790.3657,-159.5352"/>
<polygon fill="#191970" stroke="#191970" points="727.4357,-147.9575 717.0724,-150.1604 726.5475,-154.901 727.4357,-147.9575"/>
</g>
<!-- Node115 -->
<g id="node7" class="node">
<title>Node115</title>
<g id="a_node7"><a xlink:href="classPSPM__Plant.html#a71f7312443767dffc44d8d0d80b295f0" target="_top" xlink:title="PSPM_Plant::preCompute">
<polygon fill="none" stroke="#000000" points="771,-112 771,-131 903,-131 903,-112 771,-112"/>
<text text-anchor="middle" x="837" y="-119" font-family="Helvetica,sans-Serif" font-size="10.00" fill="#000000">PSPM_Plant::preCompute</text>
</a>
</g>
</g>
<!-- Node113&#45;&gt;Node115 -->
<g id="edge6" class="edge">
<title>Node113&#45;&gt;Node115</title>
<path fill="none" stroke="#191970" d="M727.1933,-135.545C741.353,-133.7339 756.4473,-131.8032 770.7684,-129.9715"/>
<polygon fill="#191970" stroke="#191970" points="726.5475,-132.099 717.0724,-136.8396 727.4357,-139.0425 726.5475,-132.099"/>
</g>
<!-- Node117 -->
<g id="node9" class="node">
<title>Node117</title>
<g id="a_node9"><a xlink:href="classPSPM__Plant.html#a4ceca1be5d1089c49dcecdc5ce216727" target="_top" xlink:title="PSPM_Plant::establishment\lProbability">
<polygon fill="none" stroke="#000000" points="595,-63.5 595,-93.5 735,-93.5 735,-63.5 595,-63.5"/>
<text text-anchor="start" x="603" y="-81.5" font-family="Helvetica,sans-Serif" font-size="10.00" fill="#000000">PSPM_Plant::establishment</text>
<text text-anchor="middle" x="665" y="-70.5" font-family="Helvetica,sans-Serif" font-size="10.00" fill="#000000">Probability</text>
</a>
</g>
</g>
<!-- Node116&#45;&gt;Node117 -->
<g id="edge8" class="edge">
<title>Node116&#45;&gt;Node117</title>
<path fill="none" stroke="#191970" d="M569.4083,-73.2541C577.8098,-73.7152 586.4071,-74.187 594.8341,-74.6494"/>
<polygon fill="#191970" stroke="#191970" points="569.4588,-69.7517 559.282,-72.6984 569.0752,-76.7412 569.4588,-69.7517"/>
</g>
<!-- Node118 -->
<g id="node10" class="node">
<title>Node118</title>
<g id="a_node10"><a xlink:href="classPSPM__Plant.html#ad3109143960e0a0ceded078733bc4d4c" target="_top" xlink:title="PSPM_Plant::init_state">
<polygon fill="none" stroke="#000000" points="605.5,-25 605.5,-44 724.5,-44 724.5,-25 605.5,-25"/>
<text text-anchor="middle" x="665" y="-32" font-family="Helvetica,sans-Serif" font-size="10.00" fill="#000000">PSPM_Plant::init_state</text>
</a>
</g>
</g>
<!-- Node116&#45;&gt;Node118 -->
<g id="edge9" class="edge">
<title>Node116&#45;&gt;Node118</title>
<path fill="none" stroke="#191970" d="M569.3042,-54.9229C586.5293,-51.2468 604.5841,-47.3936 620.3116,-44.0372"/>
<polygon fill="#191970" stroke="#191970" points="568.3313,-51.5516 559.282,-57.0618 569.7923,-58.3975 568.3313,-51.5516"/>
</g>
</g>
</svg>
