<?xml version="1.0" encoding="UTF-8" standalone="no"?>
<!DOCTYPE svg PUBLIC "-//W3C//DTD SVG 1.1//EN"
 "http://www.w3.org/Graphics/SVG/1.1/DTD/svg11.dtd">
<!-- Generated by graphviz version 2.40.1 (20161225.0304)
 -->
<!-- Title: plant::Assimilator::net_production Pages: 1 -->
<svg width="596pt" height="165pt"
 viewBox="0.00 0.00 596.00 164.50" xmlns="http://www.w3.org/2000/svg" xmlns:xlink="http://www.w3.org/1999/xlink">
<g id="graph0" class="graph" transform="scale(1 1) rotate(0) translate(4 160.5)">
<title>plant::Assimilator::net_production</title>
<!-- Node61 -->
<g id="node1" class="node">
<title>Node61</title>
<polygon fill="#bfbfbf" stroke="#000000" points="0,-74 0,-104 92,-104 92,-74 0,-74"/>
<text text-anchor="start" x="8" y="-92" font-family="Helvetica,sans-Serif" font-size="10.00" fill="#000000">plant::Assimilator</text>
<text text-anchor="middle" x="46" y="-81" font-family="Helvetica,sans-Serif" font-size="10.00" fill="#000000">::net_production</text>
</g>
<!-- Node62 -->
<g id="node2" class="node">
<title>Node62</title>
<g id="a_node2"><a xlink:href="classplant_1_1Plant.html#a48612779a5850cca9cc6f6caff1ccb8b" target="_top" xlink:title="plant::Plant::lai_model">
<polygon fill="none" stroke="#000000" points="129.5,-117.5 129.5,-136.5 242.5,-136.5 242.5,-117.5 129.5,-117.5"/>
<text text-anchor="middle" x="186" y="-124.5" font-family="Helvetica,sans-Serif" font-size="10.00" fill="#000000">plant::Plant::lai_model</text>
</a>
</g>
</g>
<!-- Node61&#45;&gt;Node62 -->
<g id="edge1" class="edge">
<title>Node61&#45;&gt;Node62</title>
<path fill="none" stroke="#191970" d="M102.2892,-104.2785C118.7185,-108.7379 136.1965,-113.4819 150.9092,-117.4754"/>
<polygon fill="#191970" stroke="#191970" points="102.7969,-100.7897 92.2292,-101.5479 100.9632,-107.5453 102.7969,-100.7897"/>
</g>
<!-- Node63 -->
<g id="node3" class="node">
<title>Node63</title>
<g id="a_node3"><a xlink:href="classplant_1_1Plant.html#ab39fa79cb8884c684af5db0c98a1785e" target="_top" xlink:title="plant::Plant::calc\l_demographic_rates">
<polygon fill="none" stroke="#000000" points="298,-104 298,-134 402,-134 402,-104 298,-104"/>
<text text-anchor="start" x="306" y="-122" font-family="Helvetica,sans-Serif" font-size="10.00" fill="#000000">plant::Plant::calc</text>
<text text-anchor="middle" x="350" y="-111" font-family="Helvetica,sans-Serif" font-size="10.00" fill="#000000">_demographic_rates</text>
</a>
</g>
</g>
<!-- Node61&#45;&gt;Node63 -->
<g id="edge8" class="edge">
<title>Node61&#45;&gt;Node63</title>
<path fill="none" stroke="#191970" d="M102.0252,-94.2597C141.6806,-98.011 196.1103,-103.2175 244,-108 261.5816,-109.7558 280.797,-111.7324 297.9806,-113.5207"/>
<polygon fill="#191970" stroke="#191970" points="102.3041,-90.7705 92.0192,-93.3144 101.6456,-97.7395 102.3041,-90.7705"/>
</g>
<!-- Node66 -->
<g id="node6" class="node">
<title>Node66</title>
<g id="a_node6"><a xlink:href="classplant_1_1Plant.html#a03c45eaaabce7ff0287598818dc4847f" target="_top" xlink:title="plant::Plant::p_survival\l_germination">
<polygon fill="none" stroke="#000000" points="128,-30 128,-60 244,-60 244,-30 128,-30"/>
<text text-anchor="start" x="136" y="-48" font-family="Helvetica,sans-Serif" font-size="10.00" fill="#000000">plant::Plant::p_survival</text>
<text text-anchor="middle" x="186" y="-37" font-family="Helvetica,sans-Serif" font-size="10.00" fill="#000000">_germination</text>
</a>
</g>
</g>
<!-- Node61&#45;&gt;Node66 -->
<g id="edge5" class="edge">
<title>Node61&#45;&gt;Node66</title>
<path fill="none" stroke="#191970" d="M102.0413,-71.387C113.9164,-67.6548 126.3502,-63.7471 137.8995,-60.1173"/>
<polygon fill="#191970" stroke="#191970" points="100.7198,-68.1335 92.2292,-74.4708 102.8186,-74.8115 100.7198,-68.1335"/>
</g>
<!-- Node62&#45;&gt;Node63 -->
<g id="edge2" class="edge">
<title>Node62&#45;&gt;Node63</title>
<path fill="none" stroke="#191970" d="M253.1024,-123.7267C268.0348,-122.9983 283.6493,-122.2366 297.8744,-121.5427"/>
<polygon fill="#191970" stroke="#191970" points="252.7165,-120.2413 242.899,-124.2244 253.0577,-127.233 252.7165,-120.2413"/>
</g>
<!-- Node64 -->
<g id="node4" class="node">
<title>Node64</title>
<g id="a_node4"><a xlink:href="classplant_1_1Plant.html#a274f7da212d5f05d4b281e49e11fc44e" target="_top" xlink:title="plant::Plant::grow\l_for_dt">
<polygon fill="none" stroke="#000000" points="475.5,-126 475.5,-156 568.5,-156 568.5,-126 475.5,-126"/>
<text text-anchor="start" x="483.5" y="-144" font-family="Helvetica,sans-Serif" font-size="10.00" fill="#000000">plant::Plant::grow</text>
<text text-anchor="middle" x="522" y="-133" font-family="Helvetica,sans-Serif" font-size="10.00" fill="#000000">_for_dt</text>
</a>
</g>
</g>
<!-- Node63&#45;&gt;Node64 -->
<g id="edge3" class="edge">
<title>Node63&#45;&gt;Node64</title>
<path fill="none" stroke="#191970" d="M412.1282,-126.9466C432.9941,-129.6155 455.8961,-132.5449 475.3657,-135.0352"/>
<polygon fill="#191970" stroke="#191970" points="412.4357,-123.4575 402.0724,-125.6604 411.5475,-130.401 412.4357,-123.4575"/>
</g>
<!-- Node65 -->
<g id="node5" class="node">
<title>Node65</title>
<g id="a_node5"><a xlink:href="classPSPM__Plant.html#a71f7312443767dffc44d8d0d80b295f0" target="_top" xlink:title="PSPM_Plant::preCompute">
<polygon fill="none" stroke="#000000" points="456,-87.5 456,-106.5 588,-106.5 588,-87.5 456,-87.5"/>
<text text-anchor="middle" x="522" y="-94.5" font-family="Helvetica,sans-Serif" font-size="10.00" fill="#000000">PSPM_Plant::preCompute</text>
</a>
</g>
</g>
<!-- Node63&#45;&gt;Node65 -->
<g id="edge4" class="edge">
<title>Node63&#45;&gt;Node65</title>
<path fill="none" stroke="#191970" d="M412.1933,-111.045C426.353,-109.2339 441.4473,-107.3032 455.7684,-105.4715"/>
<polygon fill="#191970" stroke="#191970" points="411.5475,-107.599 402.0724,-112.3396 412.4357,-114.5425 411.5475,-107.599"/>
</g>
<!-- Node67 -->
<g id="node7" class="node">
<title>Node67</title>
<g id="a_node7"><a xlink:href="classPSPM__Plant.html#a4ceca1be5d1089c49dcecdc5ce216727" target="_top" xlink:title="PSPM_Plant::establishment\lProbability">
<polygon fill="none" stroke="#000000" points="280,-39 280,-69 420,-69 420,-39 280,-39"/>
<text text-anchor="start" x="288" y="-57" font-family="Helvetica,sans-Serif" font-size="10.00" fill="#000000">PSPM_Plant::establishment</text>
<text text-anchor="middle" x="350" y="-46" font-family="Helvetica,sans-Serif" font-size="10.00" fill="#000000">Probability</text>
</a>
</g>
</g>
<!-- Node66&#45;&gt;Node67 -->
<g id="edge6" class="edge">
<title>Node66&#45;&gt;Node67</title>
<path fill="none" stroke="#191970" d="M254.4083,-48.7541C262.8098,-49.2152 271.4071,-49.687 279.8341,-50.1494"/>
<polygon fill="#191970" stroke="#191970" points="254.4588,-45.2517 244.282,-48.1984 254.0752,-52.2412 254.4588,-45.2517"/>
</g>
<!-- Node68 -->
<g id="node8" class="node">
<title>Node68</title>
<g id="a_node8"><a xlink:href="classPSPM__Plant.html#ad3109143960e0a0ceded078733bc4d4c" target="_top" xlink:title="PSPM_Plant::init_state">
<polygon fill="none" stroke="#000000" points="290.5,-.5 290.5,-19.5 409.5,-19.5 409.5,-.5 290.5,-.5"/>
<text text-anchor="middle" x="350" y="-7.5" font-family="Helvetica,sans-Serif" font-size="10.00" fill="#000000">PSPM_Plant::init_state</text>
</a>
</g>
</g>
<!-- Node66&#45;&gt;Node68 -->
<g id="edge7" class="edge">
<title>Node66&#45;&gt;Node68</title>
<path fill="none" stroke="#191970" d="M254.3042,-30.4229C271.5293,-26.7468 289.5841,-22.8936 305.3116,-19.5372"/>
<polygon fill="#191970" stroke="#191970" points="253.3313,-27.0516 244.282,-32.5618 254.7923,-33.8975 253.3313,-27.0516"/>
</g>
</g>
</svg>
