<?xml version="1.0" encoding="UTF-8" standalone="no"?>
<!DOCTYPE svg PUBLIC "-//W3C//DTD SVG 1.1//EN"
 "http://www.w3.org/Graphics/SVG/1.1/DTD/svg11.dtd">
<!-- Generated by graphviz version 2.40.1 (20161225.0304)
 -->
<!-- Title: io::Initializer::getScalar Pages: 1 -->
<svg width="431pt" height="88pt"
 viewBox="0.00 0.00 431.00 88.00" xmlns="http://www.w3.org/2000/svg" xmlns:xlink="http://www.w3.org/1999/xlink">
<g id="graph0" class="graph" transform="scale(1 1) rotate(0) translate(4 84)">
<title>io::Initializer::getScalar</title>
<!-- Node9 -->
<g id="node1" class="node">
<title>Node9</title>
<polygon fill="#bfbfbf" stroke="#000000" points="0,-30 0,-49 116,-49 116,-30 0,-30"/>
<text text-anchor="middle" x="58" y="-37" font-family="Helvetica,sans-Serif" font-size="10.00" fill="#000000">io::Initializer::getScalar</text>
</g>
<!-- Node10 -->
<g id="node2" class="node">
<title>Node10</title>
<g id="a_node2"><a xlink:href="classplant_1_1PlantTraits.html#a9b4568e865eeba7ed29f0cfa06d81d43" target="_top" xlink:title="plant::PlantTraits\l::initFromFile">
<polygon fill="none" stroke="#000000" points="164.5,-49.5 164.5,-79.5 255.5,-79.5 255.5,-49.5 164.5,-49.5"/>
<text text-anchor="start" x="172.5" y="-67.5" font-family="Helvetica,sans-Serif" font-size="10.00" fill="#000000">plant::PlantTraits</text>
<text text-anchor="middle" x="210" y="-56.5" font-family="Helvetica,sans-Serif" font-size="10.00" fill="#000000">::initFromFile</text>
</a>
</g>
</g>
<!-- Node9&#45;&gt;Node10 -->
<g id="edge1" class="edge">
<title>Node9&#45;&gt;Node10</title>
<path fill="none" stroke="#191970" d="M126.1077,-50.7019C138.9547,-52.8149 152.1058,-54.9779 164.0712,-56.9459"/>
<polygon fill="#191970" stroke="#191970" points="126.3338,-47.1922 115.8983,-49.0227 125.1977,-54.0994 126.3338,-47.1922"/>
</g>
<!-- Node12 -->
<g id="node4" class="node">
<title>Node12</title>
<g id="a_node4"><a xlink:href="classplant_1_1PlantParameters.html#a80569bfa425831d8f3f89a134c958f0d" target="_top" xlink:title="plant::PlantParameters\l::initFromFile">
<polygon fill="none" stroke="#000000" points="152,-.5 152,-30.5 268,-30.5 268,-.5 152,-.5"/>
<text text-anchor="start" x="160" y="-18.5" font-family="Helvetica,sans-Serif" font-size="10.00" fill="#000000">plant::PlantParameters</text>
<text text-anchor="middle" x="210" y="-7.5" font-family="Helvetica,sans-Serif" font-size="10.00" fill="#000000">::initFromFile</text>
</a>
</g>
</g>
<!-- Node9&#45;&gt;Node12 -->
<g id="edge3" class="edge">
<title>Node9&#45;&gt;Node12</title>
<path fill="none" stroke="#191970" d="M126.264,-28.7215C134.7979,-27.374 143.4632,-26.0058 151.8236,-24.6857"/>
<polygon fill="#191970" stroke="#191970" points="125.6642,-25.2727 116.3325,-30.2896 126.756,-32.1871 125.6642,-25.2727"/>
</g>
<!-- Node11 -->
<g id="node3" class="node">
<title>Node11</title>
<g id="a_node3"><a xlink:href="classplant_1_1Plant.html#ad0ad8df9b05a798faaee3f1b3aec2230" target="_top" xlink:title="plant::Plant::initParams\lFromFile">
<polygon fill="none" stroke="#000000" points="304,-24.5 304,-54.5 423,-54.5 423,-24.5 304,-24.5"/>
<text text-anchor="start" x="312" y="-42.5" font-family="Helvetica,sans-Serif" font-size="10.00" fill="#000000">plant::Plant::initParams</text>
<text text-anchor="middle" x="363.5" y="-31.5" font-family="Helvetica,sans-Serif" font-size="10.00" fill="#000000">FromFile</text>
</a>
</g>
</g>
<!-- Node10&#45;&gt;Node11 -->
<g id="edge2" class="edge">
<title>Node10&#45;&gt;Node11</title>
<path fill="none" stroke="#191970" d="M265.8036,-55.4115C278.1605,-53.3989 291.3019,-51.2586 303.807,-49.222"/>
<polygon fill="#191970" stroke="#191970" points="264.9468,-52.0048 255.6395,-57.0669 266.0721,-58.9138 264.9468,-52.0048"/>
</g>
<!-- Node12&#45;&gt;Node11 -->
<g id="edge4" class="edge">
<title>Node12&#45;&gt;Node11</title>
<path fill="none" stroke="#191970" d="M278.038,-26.1379C286.6421,-27.4831 295.3942,-28.8515 303.8542,-30.1743"/>
<polygon fill="#191970" stroke="#191970" points="278.4524,-22.6602 268.0318,-24.5734 277.371,-29.5762 278.4524,-22.6602"/>
</g>
</g>
</svg>
