<?xml version="1.0" encoding="UTF-8" standalone="no"?>
<!DOCTYPE svg PUBLIC "-//W3C//DTD SVG 1.1//EN"
 "http://www.w3.org/Graphics/SVG/1.1/DTD/svg11.dtd">
<!-- Generated by graphviz version 2.40.1 (20161225.0304)
 -->
<!-- Title: plant::PlantGeometry::q Pages: 1 -->
<svg width="1120pt" height="165pt"
 viewBox="0.00 0.00 1120.00 164.50" xmlns="http://www.w3.org/2000/svg" xmlns:xlink="http://www.w3.org/1999/xlink">
<g id="graph0" class="graph" transform="scale(1 1) rotate(0) translate(4 160.5)">
<title>plant::PlantGeometry::q</title>
<!-- Node81 -->
<g id="node1" class="node">
<title>Node81</title>
<polygon fill="#bfbfbf" stroke="#000000" points="0,-103.5 0,-122.5 120,-122.5 120,-103.5 0,-103.5"/>
<text text-anchor="middle" x="60" y="-110.5" font-family="Helvetica,sans-Serif" font-size="10.00" fill="#000000">plant::PlantGeometry::q</text>
</g>
<!-- Node82 -->
<g id="node2" class="node">
<title>Node82</title>
<g id="a_node2"><a xlink:href="classplant_1_1PlantGeometry.html#a8b730aad4b7df12781a8eb510565605a" target="_top" xlink:title="plant::PlantGeometry\l::crown_area_extent_projected">
<polygon fill="none" stroke="#000000" points="156,-123 156,-153 306,-153 306,-123 156,-123"/>
<text text-anchor="start" x="164" y="-141" font-family="Helvetica,sans-Serif" font-size="10.00" fill="#000000">plant::PlantGeometry</text>
<text text-anchor="middle" x="231" y="-130" font-family="Helvetica,sans-Serif" font-size="10.00" fill="#000000">::crown_area_extent_projected</text>
</a>
</g>
</g>
<!-- Node81&#45;&gt;Node82 -->
<g id="edge1" class="edge">
<title>Node81&#45;&gt;Node82</title>
<path fill="none" stroke="#191970" d="M130.4402,-123.2983C138.8636,-124.5298 147.4885,-125.7907 155.9736,-127.0312"/>
<polygon fill="#191970" stroke="#191970" points="130.6894,-119.7976 120.2882,-121.8141 129.6767,-126.7239 130.6894,-119.7976"/>
</g>
<!-- Node83 -->
<g id="node3" class="node">
<title>Node83</title>
<g id="a_node3"><a xlink:href="classplant_1_1PlantGeometry.html#a73eed0a3db55748b6d2615945ec1f08b" target="_top" xlink:title="plant::PlantGeometry\l::crown_area_above">
<polygon fill="none" stroke="#000000" points="176.5,-74 176.5,-104 285.5,-104 285.5,-74 176.5,-74"/>
<text text-anchor="start" x="184.5" y="-92" font-family="Helvetica,sans-Serif" font-size="10.00" fill="#000000">plant::PlantGeometry</text>
<text text-anchor="middle" x="231" y="-81" font-family="Helvetica,sans-Serif" font-size="10.00" fill="#000000">::crown_area_above</text>
</a>
</g>
</g>
<!-- Node81&#45;&gt;Node83 -->
<g id="edge2" class="edge">
<title>Node81&#45;&gt;Node83</title>
<path fill="none" stroke="#191970" d="M130.2782,-103.1364C145.6625,-100.9772 161.7262,-98.7226 176.3894,-96.6646"/>
<polygon fill="#191970" stroke="#191970" points="129.7047,-99.6825 120.2882,-104.5385 130.6776,-106.6146 129.7047,-99.6825"/>
</g>
<!-- Node84 -->
<g id="node4" class="node">
<title>Node84</title>
<g id="a_node4"><a xlink:href="classplant_1_1Assimilator.html#a95024a28af68fde0b11acef9903aaa9d" target="_top" xlink:title="plant::Assimilator\l::calc_plant_assimilation_rate">
<polygon fill="none" stroke="#000000" points="342,-74 342,-104 488,-104 488,-74 342,-74"/>
<text text-anchor="start" x="350" y="-92" font-family="Helvetica,sans-Serif" font-size="10.00" fill="#000000">plant::Assimilator</text>
<text text-anchor="middle" x="415" y="-81" font-family="Helvetica,sans-Serif" font-size="10.00" fill="#000000">::calc_plant_assimilation_rate</text>
</a>
</g>
</g>
<!-- Node83&#45;&gt;Node84 -->
<g id="edge3" class="edge">
<title>Node83&#45;&gt;Node84</title>
<path fill="none" stroke="#191970" d="M295.8087,-89C310.6699,-89 326.5712,-89 341.76,-89"/>
<polygon fill="#191970" stroke="#191970" points="295.7079,-85.5001 285.7079,-89 295.7079,-92.5001 295.7079,-85.5001"/>
</g>
<!-- Node85 -->
<g id="node5" class="node">
<title>Node85</title>
<g id="a_node5"><a xlink:href="classplant_1_1Assimilator.html#ab5cf98dde0fb1d49ce4d0f44387b628b" target="_top" xlink:title="plant::Assimilator\l::net_production">
<polygon fill="none" stroke="#000000" points="524,-74 524,-104 616,-104 616,-74 524,-74"/>
<text text-anchor="start" x="532" y="-92" font-family="Helvetica,sans-Serif" font-size="10.00" fill="#000000">plant::Assimilator</text>
<text text-anchor="middle" x="570" y="-81" font-family="Helvetica,sans-Serif" font-size="10.00" fill="#000000">::net_production</text>
</a>
</g>
</g>
<!-- Node84&#45;&gt;Node85 -->
<g id="edge4" class="edge">
<title>Node84&#45;&gt;Node85</title>
<path fill="none" stroke="#191970" d="M498.5874,-89C507.2353,-89 515.7815,-89 523.7917,-89"/>
<polygon fill="#191970" stroke="#191970" points="498.4148,-85.5001 488.4148,-89 498.4147,-92.5001 498.4148,-85.5001"/>
</g>
<!-- Node86 -->
<g id="node6" class="node">
<title>Node86</title>
<g id="a_node6"><a xlink:href="classplant_1_1Plant.html#a48612779a5850cca9cc6f6caff1ccb8b" target="_top" xlink:title="plant::Plant::lai_model">
<polygon fill="none" stroke="#000000" points="653.5,-117.5 653.5,-136.5 766.5,-136.5 766.5,-117.5 653.5,-117.5"/>
<text text-anchor="middle" x="710" y="-124.5" font-family="Helvetica,sans-Serif" font-size="10.00" fill="#000000">plant::Plant::lai_model</text>
</a>
</g>
</g>
<!-- Node85&#45;&gt;Node86 -->
<g id="edge5" class="edge">
<title>Node85&#45;&gt;Node86</title>
<path fill="none" stroke="#191970" d="M626.2892,-104.2785C642.7185,-108.7379 660.1965,-113.4819 674.9092,-117.4754"/>
<polygon fill="#191970" stroke="#191970" points="626.7969,-100.7897 616.2292,-101.5479 624.9632,-107.5453 626.7969,-100.7897"/>
</g>
<!-- Node87 -->
<g id="node7" class="node">
<title>Node87</title>
<g id="a_node7"><a xlink:href="classplant_1_1Plant.html#ab39fa79cb8884c684af5db0c98a1785e" target="_top" xlink:title="plant::Plant::calc\l_demographic_rates">
<polygon fill="none" stroke="#000000" points="822,-104 822,-134 926,-134 926,-104 822,-104"/>
<text text-anchor="start" x="830" y="-122" font-family="Helvetica,sans-Serif" font-size="10.00" fill="#000000">plant::Plant::calc</text>
<text text-anchor="middle" x="874" y="-111" font-family="Helvetica,sans-Serif" font-size="10.00" fill="#000000">_demographic_rates</text>
</a>
</g>
</g>
<!-- Node85&#45;&gt;Node87 -->
<g id="edge12" class="edge">
<title>Node85&#45;&gt;Node87</title>
<path fill="none" stroke="#191970" d="M626.0252,-94.2597C665.6806,-98.011 720.1103,-103.2175 768,-108 785.5816,-109.7558 804.797,-111.7324 821.9806,-113.5207"/>
<polygon fill="#191970" stroke="#191970" points="626.3041,-90.7705 616.0192,-93.3144 625.6456,-97.7395 626.3041,-90.7705"/>
</g>
<!-- Node90 -->
<g id="node10" class="node">
<title>Node90</title>
<g id="a_node10"><a xlink:href="classplant_1_1Plant.html#a03c45eaaabce7ff0287598818dc4847f" target="_top" xlink:title="plant::Plant::p_survival\l_germination">
<polygon fill="none" stroke="#000000" points="652,-30 652,-60 768,-60 768,-30 652,-30"/>
<text text-anchor="start" x="660" y="-48" font-family="Helvetica,sans-Serif" font-size="10.00" fill="#000000">plant::Plant::p_survival</text>
<text text-anchor="middle" x="710" y="-37" font-family="Helvetica,sans-Serif" font-size="10.00" fill="#000000">_germination</text>
</a>
</g>
</g>
<!-- Node85&#45;&gt;Node90 -->
<g id="edge9" class="edge">
<title>Node85&#45;&gt;Node90</title>
<path fill="none" stroke="#191970" d="M626.0413,-71.387C637.9164,-67.6548 650.3502,-63.7471 661.8995,-60.1173"/>
<polygon fill="#191970" stroke="#191970" points="624.7198,-68.1335 616.2292,-74.4708 626.8186,-74.8115 624.7198,-68.1335"/>
</g>
<!-- Node86&#45;&gt;Node87 -->
<g id="edge6" class="edge">
<title>Node86&#45;&gt;Node87</title>
<path fill="none" stroke="#191970" d="M777.1024,-123.7267C792.0348,-122.9983 807.6493,-122.2366 821.8744,-121.5427"/>
<polygon fill="#191970" stroke="#191970" points="776.7165,-120.2413 766.899,-124.2244 777.0577,-127.233 776.7165,-120.2413"/>
</g>
<!-- Node88 -->
<g id="node8" class="node">
<title>Node88</title>
<g id="a_node8"><a xlink:href="classplant_1_1Plant.html#a274f7da212d5f05d4b281e49e11fc44e" target="_top" xlink:title="plant::Plant::grow\l_for_dt">
<polygon fill="none" stroke="#000000" points="999.5,-126 999.5,-156 1092.5,-156 1092.5,-126 999.5,-126"/>
<text text-anchor="start" x="1007.5" y="-144" font-family="Helvetica,sans-Serif" font-size="10.00" fill="#000000">plant::Plant::grow</text>
<text text-anchor="middle" x="1046" y="-133" font-family="Helvetica,sans-Serif" font-size="10.00" fill="#000000">_for_dt</text>
</a>
</g>
</g>
<!-- Node87&#45;&gt;Node88 -->
<g id="edge7" class="edge">
<title>Node87&#45;&gt;Node88</title>
<path fill="none" stroke="#191970" d="M936.1282,-126.9466C956.9941,-129.6155 979.8961,-132.5449 999.3657,-135.0352"/>
<polygon fill="#191970" stroke="#191970" points="936.4357,-123.4575 926.0724,-125.6604 935.5475,-130.401 936.4357,-123.4575"/>
</g>
<!-- Node89 -->
<g id="node9" class="node">
<title>Node89</title>
<g id="a_node9"><a xlink:href="classPSPM__Plant.html#a71f7312443767dffc44d8d0d80b295f0" target="_top" xlink:title="PSPM_Plant::preCompute">
<polygon fill="none" stroke="#000000" points="980,-87.5 980,-106.5 1112,-106.5 1112,-87.5 980,-87.5"/>
<text text-anchor="middle" x="1046" y="-94.5" font-family="Helvetica,sans-Serif" font-size="10.00" fill="#000000">PSPM_Plant::preCompute</text>
</a>
</g>
</g>
<!-- Node87&#45;&gt;Node89 -->
<g id="edge8" class="edge">
<title>Node87&#45;&gt;Node89</title>
<path fill="none" stroke="#191970" d="M936.1933,-111.045C950.353,-109.2339 965.4473,-107.3032 979.7684,-105.4715"/>
<polygon fill="#191970" stroke="#191970" points="935.5475,-107.599 926.0724,-112.3396 936.4357,-114.5425 935.5475,-107.599"/>
</g>
<!-- Node91 -->
<g id="node11" class="node">
<title>Node91</title>
<g id="a_node11"><a xlink:href="classPSPM__Plant.html#a4ceca1be5d1089c49dcecdc5ce216727" target="_top" xlink:title="PSPM_Plant::establishment\lProbability">
<polygon fill="none" stroke="#000000" points="804,-39 804,-69 944,-69 944,-39 804,-39"/>
<text text-anchor="start" x="812" y="-57" font-family="Helvetica,sans-Serif" font-size="10.00" fill="#000000">PSPM_Plant::establishment</text>
<text text-anchor="middle" x="874" y="-46" font-family="Helvetica,sans-Serif" font-size="10.00" fill="#000000">Probability</text>
</a>
</g>
</g>
<!-- Node90&#45;&gt;Node91 -->
<g id="edge10" class="edge">
<title>Node90&#45;&gt;Node91</title>
<path fill="none" stroke="#191970" d="M778.4083,-48.7541C786.8098,-49.2152 795.4071,-49.687 803.8341,-50.1494"/>
<polygon fill="#191970" stroke="#191970" points="778.4588,-45.2517 768.282,-48.1984 778.0752,-52.2412 778.4588,-45.2517"/>
</g>
<!-- Node92 -->
<g id="node12" class="node">
<title>Node92</title>
<g id="a_node12"><a xlink:href="classPSPM__Plant.html#ad3109143960e0a0ceded078733bc4d4c" target="_top" xlink:title="PSPM_Plant::init_state">
<polygon fill="none" stroke="#000000" points="814.5,-.5 814.5,-19.5 933.5,-19.5 933.5,-.5 814.5,-.5"/>
<text text-anchor="middle" x="874" y="-7.5" font-family="Helvetica,sans-Serif" font-size="10.00" fill="#000000">PSPM_Plant::init_state</text>
</a>
</g>
</g>
<!-- Node90&#45;&gt;Node92 -->
<g id="edge11" class="edge">
<title>Node90&#45;&gt;Node92</title>
<path fill="none" stroke="#191970" d="M778.3042,-30.4229C795.5293,-26.7468 813.5841,-22.8936 829.3116,-19.5372"/>
<polygon fill="#191970" stroke="#191970" points="777.3313,-27.0516 768.282,-32.5618 778.7923,-33.8975 777.3313,-27.0516"/>
</g>
</g>
</svg>
