<?xml version="1.0" encoding="UTF-8" standalone="no"?>
<!DOCTYPE svg PUBLIC "-//W3C//DTD SVG 1.1//EN"
 "http://www.w3.org/Graphics/SVG/1.1/DTD/svg11.dtd">
<!-- Generated by graphviz version 2.40.1 (20161225.0304)
 -->
<!-- Title: plant::Assimilator::sapwood_respiration_rate Pages: 1 -->
<svg width="766pt" height="165pt"
 viewBox="0.00 0.00 766.00 164.50" xmlns="http://www.w3.org/2000/svg" xmlns:xlink="http://www.w3.org/1999/xlink">
<g id="graph0" class="graph" transform="scale(1 1) rotate(0) translate(4 160.5)">
<title>plant::Assimilator::sapwood_respiration_rate</title>
<!-- Node94 -->
<g id="node1" class="node">
<title>Node94</title>
<polygon fill="#bfbfbf" stroke="#000000" points="0,-74 0,-104 134,-104 134,-74 0,-74"/>
<text text-anchor="start" x="8" y="-92" font-family="Helvetica,sans-Serif" font-size="10.00" fill="#000000">plant::Assimilator</text>
<text text-anchor="middle" x="67" y="-81" font-family="Helvetica,sans-Serif" font-size="10.00" fill="#000000">::sapwood_respiration_rate</text>
</g>
<!-- Node95 -->
<g id="node2" class="node">
<title>Node95</title>
<g id="a_node2"><a xlink:href="classplant_1_1Assimilator.html#ab5cf98dde0fb1d49ce4d0f44387b628b" target="_top" xlink:title="plant::Assimilator\l::net_production">
<polygon fill="none" stroke="#000000" points="170,-74 170,-104 262,-104 262,-74 170,-74"/>
<text text-anchor="start" x="178" y="-92" font-family="Helvetica,sans-Serif" font-size="10.00" fill="#000000">plant::Assimilator</text>
<text text-anchor="middle" x="216" y="-81" font-family="Helvetica,sans-Serif" font-size="10.00" fill="#000000">::net_production</text>
</a>
</g>
</g>
<!-- Node94&#45;&gt;Node95 -->
<g id="edge1" class="edge">
<title>Node94&#45;&gt;Node95</title>
<path fill="none" stroke="#191970" d="M144.2907,-89C152.9845,-89 161.6276,-89 169.7454,-89"/>
<polygon fill="#191970" stroke="#191970" points="144.09,-85.5001 134.09,-89 144.09,-92.5001 144.09,-85.5001"/>
</g>
<!-- Node96 -->
<g id="node3" class="node">
<title>Node96</title>
<g id="a_node3"><a xlink:href="classplant_1_1Plant.html#a48612779a5850cca9cc6f6caff1ccb8b" target="_top" xlink:title="plant::Plant::lai_model">
<polygon fill="none" stroke="#000000" points="299.5,-117.5 299.5,-136.5 412.5,-136.5 412.5,-117.5 299.5,-117.5"/>
<text text-anchor="middle" x="356" y="-124.5" font-family="Helvetica,sans-Serif" font-size="10.00" fill="#000000">plant::Plant::lai_model</text>
</a>
</g>
</g>
<!-- Node95&#45;&gt;Node96 -->
<g id="edge2" class="edge">
<title>Node95&#45;&gt;Node96</title>
<path fill="none" stroke="#191970" d="M272.2892,-104.2785C288.7185,-108.7379 306.1965,-113.4819 320.9092,-117.4754"/>
<polygon fill="#191970" stroke="#191970" points="272.7969,-100.7897 262.2292,-101.5479 270.9632,-107.5453 272.7969,-100.7897"/>
</g>
<!-- Node97 -->
<g id="node4" class="node">
<title>Node97</title>
<g id="a_node4"><a xlink:href="classplant_1_1Plant.html#ab39fa79cb8884c684af5db0c98a1785e" target="_top" xlink:title="plant::Plant::calc\l_demographic_rates">
<polygon fill="none" stroke="#000000" points="468,-104 468,-134 572,-134 572,-104 468,-104"/>
<text text-anchor="start" x="476" y="-122" font-family="Helvetica,sans-Serif" font-size="10.00" fill="#000000">plant::Plant::calc</text>
<text text-anchor="middle" x="520" y="-111" font-family="Helvetica,sans-Serif" font-size="10.00" fill="#000000">_demographic_rates</text>
</a>
</g>
</g>
<!-- Node95&#45;&gt;Node97 -->
<g id="edge9" class="edge">
<title>Node95&#45;&gt;Node97</title>
<path fill="none" stroke="#191970" d="M272.0252,-94.2597C311.6806,-98.011 366.1103,-103.2175 414,-108 431.5816,-109.7558 450.797,-111.7324 467.9806,-113.5207"/>
<polygon fill="#191970" stroke="#191970" points="272.3041,-90.7705 262.0192,-93.3144 271.6456,-97.7395 272.3041,-90.7705"/>
</g>
<!-- Node100 -->
<g id="node7" class="node">
<title>Node100</title>
<g id="a_node7"><a xlink:href="classplant_1_1Plant.html#a03c45eaaabce7ff0287598818dc4847f" target="_top" xlink:title="plant::Plant::p_survival\l_germination">
<polygon fill="none" stroke="#000000" points="298,-30 298,-60 414,-60 414,-30 298,-30"/>
<text text-anchor="start" x="306" y="-48" font-family="Helvetica,sans-Serif" font-size="10.00" fill="#000000">plant::Plant::p_survival</text>
<text text-anchor="middle" x="356" y="-37" font-family="Helvetica,sans-Serif" font-size="10.00" fill="#000000">_germination</text>
</a>
</g>
</g>
<!-- Node95&#45;&gt;Node100 -->
<g id="edge6" class="edge">
<title>Node95&#45;&gt;Node100</title>
<path fill="none" stroke="#191970" d="M272.0413,-71.387C283.9164,-67.6548 296.3502,-63.7471 307.8995,-60.1173"/>
<polygon fill="#191970" stroke="#191970" points="270.7198,-68.1335 262.2292,-74.4708 272.8186,-74.8115 270.7198,-68.1335"/>
</g>
<!-- Node96&#45;&gt;Node97 -->
<g id="edge3" class="edge">
<title>Node96&#45;&gt;Node97</title>
<path fill="none" stroke="#191970" d="M423.1024,-123.7267C438.0348,-122.9983 453.6493,-122.2366 467.8744,-121.5427"/>
<polygon fill="#191970" stroke="#191970" points="422.7165,-120.2413 412.899,-124.2244 423.0577,-127.233 422.7165,-120.2413"/>
</g>
<!-- Node98 -->
<g id="node5" class="node">
<title>Node98</title>
<g id="a_node5"><a xlink:href="classplant_1_1Plant.html#a274f7da212d5f05d4b281e49e11fc44e" target="_top" xlink:title="plant::Plant::grow\l_for_dt">
<polygon fill="none" stroke="#000000" points="645.5,-126 645.5,-156 738.5,-156 738.5,-126 645.5,-126"/>
<text text-anchor="start" x="653.5" y="-144" font-family="Helvetica,sans-Serif" font-size="10.00" fill="#000000">plant::Plant::grow</text>
<text text-anchor="middle" x="692" y="-133" font-family="Helvetica,sans-Serif" font-size="10.00" fill="#000000">_for_dt</text>
</a>
</g>
</g>
<!-- Node97&#45;&gt;Node98 -->
<g id="edge4" class="edge">
<title>Node97&#45;&gt;Node98</title>
<path fill="none" stroke="#191970" d="M582.1282,-126.9466C602.9941,-129.6155 625.8961,-132.5449 645.3657,-135.0352"/>
<polygon fill="#191970" stroke="#191970" points="582.4357,-123.4575 572.0724,-125.6604 581.5475,-130.401 582.4357,-123.4575"/>
</g>
<!-- Node99 -->
<g id="node6" class="node">
<title>Node99</title>
<g id="a_node6"><a xlink:href="classPSPM__Plant.html#a71f7312443767dffc44d8d0d80b295f0" target="_top" xlink:title="PSPM_Plant::preCompute">
<polygon fill="none" stroke="#000000" points="626,-87.5 626,-106.5 758,-106.5 758,-87.5 626,-87.5"/>
<text text-anchor="middle" x="692" y="-94.5" font-family="Helvetica,sans-Serif" font-size="10.00" fill="#000000">PSPM_Plant::preCompute</text>
</a>
</g>
</g>
<!-- Node97&#45;&gt;Node99 -->
<g id="edge5" class="edge">
<title>Node97&#45;&gt;Node99</title>
<path fill="none" stroke="#191970" d="M582.1933,-111.045C596.353,-109.2339 611.4473,-107.3032 625.7684,-105.4715"/>
<polygon fill="#191970" stroke="#191970" points="581.5475,-107.599 572.0724,-112.3396 582.4357,-114.5425 581.5475,-107.599"/>
</g>
<!-- Node101 -->
<g id="node8" class="node">
<title>Node101</title>
<g id="a_node8"><a xlink:href="classPSPM__Plant.html#a4ceca1be5d1089c49dcecdc5ce216727" target="_top" xlink:title="PSPM_Plant::establishment\lProbability">
<polygon fill="none" stroke="#000000" points="450,-39 450,-69 590,-69 590,-39 450,-39"/>
<text text-anchor="start" x="458" y="-57" font-family="Helvetica,sans-Serif" font-size="10.00" fill="#000000">PSPM_Plant::establishment</text>
<text text-anchor="middle" x="520" y="-46" font-family="Helvetica,sans-Serif" font-size="10.00" fill="#000000">Probability</text>
</a>
</g>
</g>
<!-- Node100&#45;&gt;Node101 -->
<g id="edge7" class="edge">
<title>Node100&#45;&gt;Node101</title>
<path fill="none" stroke="#191970" d="M424.4083,-48.7541C432.8098,-49.2152 441.4071,-49.687 449.8341,-50.1494"/>
<polygon fill="#191970" stroke="#191970" points="424.4588,-45.2517 414.282,-48.1984 424.0752,-52.2412 424.4588,-45.2517"/>
</g>
<!-- Node102 -->
<g id="node9" class="node">
<title>Node102</title>
<g id="a_node9"><a xlink:href="classPSPM__Plant.html#ad3109143960e0a0ceded078733bc4d4c" target="_top" xlink:title="PSPM_Plant::init_state">
<polygon fill="none" stroke="#000000" points="460.5,-.5 460.5,-19.5 579.5,-19.5 579.5,-.5 460.5,-.5"/>
<text text-anchor="middle" x="520" y="-7.5" font-family="Helvetica,sans-Serif" font-size="10.00" fill="#000000">PSPM_Plant::init_state</text>
</a>
</g>
</g>
<!-- Node100&#45;&gt;Node102 -->
<g id="edge8" class="edge">
<title>Node100&#45;&gt;Node102</title>
<path fill="none" stroke="#191970" d="M424.3042,-30.4229C441.5293,-26.7468 459.5841,-22.8936 475.3116,-19.5372"/>
<polygon fill="#191970" stroke="#191970" points="423.3313,-27.0516 414.282,-32.5618 424.7923,-33.8975 423.3313,-27.0516"/>
</g>
</g>
</svg>
