<?xml version="1.0" encoding="UTF-8" standalone="no"?>
<!DOCTYPE svg PUBLIC "-//W3C//DTD SVG 1.1//EN"
 "http://www.w3.org/Graphics/SVG/1.1/DTD/svg11.dtd">
<!-- Generated by graphviz version 2.40.1 (20161225.0304)
 -->
<!-- Title: plant::PlantGeometry::dreproduction_dmass Pages: 1 -->
<svg width="575pt" height="78pt"
 viewBox="0.00 0.00 575.00 77.50" xmlns="http://www.w3.org/2000/svg" xmlns:xlink="http://www.w3.org/1999/xlink">
<g id="graph0" class="graph" transform="scale(1 1) rotate(0) translate(4 73.5)">
<title>plant::PlantGeometry::dreproduction_dmass</title>
<!-- Node28 -->
<g id="node1" class="node">
<title>Node28</title>
<polygon fill="#bfbfbf" stroke="#000000" points="0,-17 0,-47 116,-47 116,-17 0,-17"/>
<text text-anchor="start" x="8" y="-35" font-family="Helvetica,sans-Serif" font-size="10.00" fill="#000000">plant::PlantGeometry</text>
<text text-anchor="middle" x="58" y="-24" font-family="Helvetica,sans-Serif" font-size="10.00" fill="#000000">::dreproduction_dmass</text>
</g>
<!-- Node29 -->
<g id="node2" class="node">
<title>Node29</title>
<g id="a_node2"><a xlink:href="classplant_1_1Plant.html#af19cb4918c06a6660da62386a2d2ea36" target="_top" xlink:title="plant::Plant::partition\l_biomass">
<polygon fill="none" stroke="#000000" points="152,-17 152,-47 259,-47 259,-17 152,-17"/>
<text text-anchor="start" x="160" y="-35" font-family="Helvetica,sans-Serif" font-size="10.00" fill="#000000">plant::Plant::partition</text>
<text text-anchor="middle" x="205.5" y="-24" font-family="Helvetica,sans-Serif" font-size="10.00" fill="#000000">_biomass</text>
</a>
</g>
</g>
<!-- Node28&#45;&gt;Node29 -->
<g id="edge1" class="edge">
<title>Node28&#45;&gt;Node29</title>
<path fill="none" stroke="#191970" d="M126.3175,-32C134.9173,-32 143.6161,-32 151.9428,-32"/>
<polygon fill="#191970" stroke="#191970" points="126.2959,-28.5001 116.2959,-32 126.2959,-35.5001 126.2959,-28.5001"/>
</g>
<!-- Node30 -->
<g id="node3" class="node">
<title>Node30</title>
<g id="a_node3"><a xlink:href="classplant_1_1Plant.html#ab39fa79cb8884c684af5db0c98a1785e" target="_top" xlink:title="plant::Plant::calc\l_demographic_rates">
<polygon fill="none" stroke="#000000" points="295,-17 295,-47 399,-47 399,-17 295,-17"/>
<text text-anchor="start" x="303" y="-35" font-family="Helvetica,sans-Serif" font-size="10.00" fill="#000000">plant::Plant::calc</text>
<text text-anchor="middle" x="347" y="-24" font-family="Helvetica,sans-Serif" font-size="10.00" fill="#000000">_demographic_rates</text>
</a>
</g>
</g>
<!-- Node29&#45;&gt;Node30 -->
<g id="edge2" class="edge">
<title>Node29&#45;&gt;Node30</title>
<path fill="none" stroke="#191970" d="M269.55,-32C277.9504,-32 286.4778,-32 294.653,-32"/>
<polygon fill="#191970" stroke="#191970" points="269.3988,-28.5001 259.3987,-32 269.3987,-35.5001 269.3988,-28.5001"/>
</g>
<!-- Node31 -->
<g id="node4" class="node">
<title>Node31</title>
<g id="a_node4"><a xlink:href="classplant_1_1Plant.html#a274f7da212d5f05d4b281e49e11fc44e" target="_top" xlink:title="plant::Plant::grow\l_for_dt">
<polygon fill="none" stroke="#000000" points="454.5,-39 454.5,-69 547.5,-69 547.5,-39 454.5,-39"/>
<text text-anchor="start" x="462.5" y="-57" font-family="Helvetica,sans-Serif" font-size="10.00" fill="#000000">plant::Plant::grow</text>
<text text-anchor="middle" x="501" y="-46" font-family="Helvetica,sans-Serif" font-size="10.00" fill="#000000">_for_dt</text>
</a>
</g>
</g>
<!-- Node30&#45;&gt;Node31 -->
<g id="edge3" class="edge">
<title>Node30&#45;&gt;Node31</title>
<path fill="none" stroke="#191970" d="M409.3814,-40.9116C424.3988,-43.057 440.1862,-45.3123 454.3443,-47.3349"/>
<polygon fill="#191970" stroke="#191970" points="409.5319,-37.3977 399.1374,-39.4482 408.5419,-44.3273 409.5319,-37.3977"/>
</g>
<!-- Node32 -->
<g id="node5" class="node">
<title>Node32</title>
<g id="a_node5"><a xlink:href="classPSPM__Plant.html#a71f7312443767dffc44d8d0d80b295f0" target="_top" xlink:title="PSPM_Plant::preCompute">
<polygon fill="none" stroke="#000000" points="435,-.5 435,-19.5 567,-19.5 567,-.5 435,-.5"/>
<text text-anchor="middle" x="501" y="-7.5" font-family="Helvetica,sans-Serif" font-size="10.00" fill="#000000">PSPM_Plant::preCompute</text>
</a>
</g>
</g>
<!-- Node30&#45;&gt;Node32 -->
<g id="edge4" class="edge">
<title>Node30&#45;&gt;Node32</title>
<path fill="none" stroke="#191970" d="M409.3054,-23.0992C417.7649,-21.8907 426.4701,-20.6471 434.992,-19.4297"/>
<polygon fill="#191970" stroke="#191970" points="408.5419,-19.6727 399.1374,-24.5518 409.5319,-26.6023 408.5419,-19.6727"/>
</g>
</g>
</svg>
