<?xml version="1.0" encoding="UTF-8" standalone="no"?>
<!DOCTYPE svg PUBLIC "-//W3C//DTD SVG 1.1//EN"
 "http://www.w3.org/Graphics/SVG/1.1/DTD/svg11.dtd">
<!-- Generated by graphviz version 2.40.1 (20161225.0304)
 -->
<!-- Title: PSPM_Dynamic_Environment Pages: 1 -->
<svg width="1124pt" height="282pt"
 viewBox="0.00 0.00 1124.00 282.00" xmlns="http://www.w3.org/2000/svg" xmlns:xlink="http://www.w3.org/1999/xlink">
<g id="graph0" class="graph" transform="scale(1 1) rotate(0) translate(4 278)">
<title>PSPM_Dynamic_Environment</title>
<!-- Node4 -->
<g id="node1" class="node">
<title>Node4</title>
<polygon fill="#bfbfbf" stroke="#000000" points="967,-202.5 967,-221.5 1116,-221.5 1116,-202.5 967,-202.5"/>
<text text-anchor="middle" x="1041.5" y="-209.5" font-family="Helvetica,sans-Serif" font-size="10.00" fill="#000000">PSPM_Dynamic_Environment</text>
</g>
<!-- Node5 -->
<g id="node2" class="node">
<title>Node5</title>
<polygon fill="none" stroke="#bfbfbf" points="826,-240.5 826,-259.5 920,-259.5 920,-240.5 826,-240.5"/>
<text text-anchor="middle" x="873" y="-247.5" font-family="Helvetica,sans-Serif" font-size="10.00" fill="#000000">EnvironmentBase</text>
</g>
<!-- Node5&#45;&gt;Node4 -->
<g id="edge1" class="edge">
<title>Node5&#45;&gt;Node4</title>
<path fill="none" stroke="#191970" d="M925.4313,-238.1757C949.1868,-232.8184 976.8986,-226.5689 999.2861,-221.5201"/>
<polygon fill="#191970" stroke="#191970" points="924.5047,-234.7967 915.5197,-240.411 926.0447,-241.6252 924.5047,-234.7967"/>
</g>
<!-- Node6 -->
<g id="node3" class="node">
<title>Node6</title>
<g id="a_node3"><a xlink:href="classenv_1_1LightEnvironment.html" target="_top" xlink:title="env::LightEnvironment">
<polygon fill="none" stroke="#000000" points="816,-202.5 816,-221.5 930,-221.5 930,-202.5 816,-202.5"/>
<text text-anchor="middle" x="873" y="-209.5" font-family="Helvetica,sans-Serif" font-size="10.00" fill="#000000">env::LightEnvironment</text>
</a>
</g>
</g>
<!-- Node6&#45;&gt;Node4 -->
<g id="edge2" class="edge">
<title>Node6&#45;&gt;Node4</title>
<path fill="none" stroke="#191970" d="M940.2019,-212C948.9741,-212 958.0036,-212 966.8883,-212"/>
<polygon fill="#191970" stroke="#191970" points="940.0464,-208.5001 930.0464,-212 940.0464,-215.5001 940.0464,-208.5001"/>
</g>
<!-- Node7 -->
<g id="node4" class="node">
<title>Node7</title>
<polygon fill="none" stroke="#bfbfbf" points="584.5,-233.5 584.5,-252.5 694.5,-252.5 694.5,-233.5 584.5,-233.5"/>
<text text-anchor="middle" x="639.5" y="-240.5" font-family="Helvetica,sans-Serif" font-size="10.00" fill="#000000">std::vector&lt; double &gt;</text>
</g>
<!-- Node7&#45;&gt;Node6 -->
<g id="edge3" class="edge">
<title>Node7&#45;&gt;Node6</title>
<path fill="none" stroke="#9a32cd" stroke-dasharray="5,2" d="M705.1506,-241.9464C733.82,-240.6926 767.7367,-238.1329 798,-233 813.5975,-230.3545 830.6038,-225.7408 844.4731,-221.5104"/>
<polygon fill="#9a32cd" stroke="#9a32cd" points="704.6969,-238.4615 694.8422,-242.3517 704.9719,-245.4561 704.6969,-238.4615"/>
<text text-anchor="middle" x="758.5" y="-266" font-family="Helvetica,sans-Serif" font-size="10.00" fill="#000000"> fapar_tot</text>
<text text-anchor="middle" x="758.5" y="-255" font-family="Helvetica,sans-Serif" font-size="10.00" fill="#000000">z_star</text>
<text text-anchor="middle" x="758.5" y="-244" font-family="Helvetica,sans-Serif" font-size="10.00" fill="#000000">canopy_openness</text>
</g>
<!-- Node8 -->
<g id="node5" class="node">
<title>Node8</title>
<g id="a_node5"><a xlink:href="classenv_1_1Climate.html" target="_top" xlink:title="env::Climate">
<polygon fill="none" stroke="#000000" points="837,-122.5 837,-141.5 909,-141.5 909,-122.5 837,-122.5"/>
<text text-anchor="middle" x="873" y="-129.5" font-family="Helvetica,sans-Serif" font-size="10.00" fill="#000000">env::Climate</text>
</a>
</g>
</g>
<!-- Node7&#45;&gt;Node8 -->
<g id="edge16" class="edge">
<title>Node7&#45;&gt;Node8</title>
<path fill="none" stroke="#9a32cd" stroke-dasharray="5,2" d="M667.2877,-228.8528C682.3176,-221.6031 701.3665,-213.052 719,-207 753.1566,-195.2771 765.3073,-203.339 798,-188 823.5976,-175.99 849.0466,-154.4355 862.7235,-141.8593"/>
<polygon fill="#9a32cd" stroke="#9a32cd" points="665.4807,-225.8408 658.0465,-233.3896 668.5656,-232.1245 665.4807,-225.8408"/>
<text text-anchor="middle" x="758.5" y="-221" font-family="Helvetica,sans-Serif" font-size="10.00" fill="#000000"> t_met</text>
<text text-anchor="middle" x="758.5" y="-210" font-family="Helvetica,sans-Serif" font-size="10.00" fill="#000000">v_co2</text>
</g>
<!-- Node8&#45;&gt;Node4 -->
<g id="edge4" class="edge">
<title>Node8&#45;&gt;Node4</title>
<path fill="none" stroke="#191970" d="M902.7775,-146.1377C936.9085,-162.3423 991.9184,-188.4598 1021.3652,-202.4404"/>
<polygon fill="#191970" stroke="#191970" points="903.8597,-142.7771 893.325,-141.6499 900.8575,-149.1006 903.8597,-142.7771"/>
</g>
<!-- Node9 -->
<g id="node6" class="node">
<title>Node9</title>
<g id="a_node6"><a xlink:title="STL class. ">
<polygon fill="none" stroke="#bfbfbf" points="604,-183.5 604,-202.5 675,-202.5 675,-183.5 604,-183.5"/>
<text text-anchor="middle" x="639.5" y="-190.5" font-family="Helvetica,sans-Serif" font-size="10.00" fill="#000000">std::ifstream</text>
</a>
</g>
</g>
<!-- Node9&#45;&gt;Node8 -->
<g id="edge5" class="edge">
<title>Node9&#45;&gt;Node8</title>
<path fill="none" stroke="#9a32cd" stroke-dasharray="5,2" d="M674.9339,-180.0335C688.6007,-175.2788 704.4268,-170.0701 719,-166 758.9518,-154.842 805.5513,-144.983 836.9383,-138.7932"/>
<polygon fill="#9a32cd" stroke="#9a32cd" points="673.6785,-176.7649 665.4128,-183.3927 676.0076,-183.3661 673.6785,-176.7649"/>
<text text-anchor="middle" x="758.5" y="-180" font-family="Helvetica,sans-Serif" font-size="10.00" fill="#000000"> fin_co2</text>
<text text-anchor="middle" x="758.5" y="-169" font-family="Helvetica,sans-Serif" font-size="10.00" fill="#000000">fin_met</text>
</g>
<!-- Node10 -->
<g id="node7" class="node">
<title>Node10</title>
<g id="a_node7"><a xlink:title="STL class. ">
<polygon fill="none" stroke="#bfbfbf" points="399,-178 399,-208 499,-208 499,-178 399,-178"/>
<text text-anchor="start" x="407" y="-196" font-family="Helvetica,sans-Serif" font-size="10.00" fill="#000000">std::basic_ifstream</text>
<text text-anchor="middle" x="449" y="-185" font-family="Helvetica,sans-Serif" font-size="10.00" fill="#000000">&lt; char &gt;</text>
</a>
</g>
</g>
<!-- Node10&#45;&gt;Node9 -->
<g id="edge6" class="edge">
<title>Node10&#45;&gt;Node9</title>
<path fill="none" stroke="#191970" d="M509.3621,-193C540.4853,-193 577.3749,-193 603.9163,-193"/>
<polygon fill="#191970" stroke="#191970" points="509.0517,-189.5001 499.0516,-193 509.0516,-196.5001 509.0517,-189.5001"/>
</g>
<!-- Node11 -->
<g id="node8" class="node">
<title>Node11</title>
<g id="a_node8"><a xlink:title="STL class. ">
<polygon fill="none" stroke="#bfbfbf" points="265,-178 265,-208 362,-208 362,-178 265,-178"/>
<text text-anchor="start" x="273" y="-196" font-family="Helvetica,sans-Serif" font-size="10.00" fill="#000000">std::basic_istream</text>
<text text-anchor="middle" x="313.5" y="-185" font-family="Helvetica,sans-Serif" font-size="10.00" fill="#000000">&lt; Char &gt;</text>
</a>
</g>
</g>
<!-- Node11&#45;&gt;Node10 -->
<g id="edge7" class="edge">
<title>Node11&#45;&gt;Node10</title>
<path fill="none" stroke="#191970" d="M372.0403,-193C381.0146,-193 390.2085,-193 398.9764,-193"/>
<polygon fill="#191970" stroke="#191970" points="372.0359,-189.5001 362.0359,-193 372.0359,-196.5001 372.0359,-189.5001"/>
</g>
<!-- Node12 -->
<g id="node9" class="node">
<title>Node12</title>
<g id="a_node9"><a xlink:title="STL class. ">
<polygon fill="none" stroke="#bfbfbf" points="112,-183.5 112,-202.5 228,-202.5 228,-183.5 112,-183.5"/>
<text text-anchor="middle" x="170" y="-190.5" font-family="Helvetica,sans-Serif" font-size="10.00" fill="#000000">std::basic_ios&lt; Char &gt;</text>
</a>
</g>
</g>
<!-- Node12&#45;&gt;Node11 -->
<g id="edge8" class="edge">
<title>Node12&#45;&gt;Node11</title>
<path fill="none" stroke="#191970" d="M238.3854,-193C247.3112,-193 256.3065,-193 264.8174,-193"/>
<polygon fill="#191970" stroke="#191970" points="238.367,-189.5001 228.3669,-193 238.3669,-196.5001 238.367,-189.5001"/>
</g>
<!-- Node13 -->
<g id="node10" class="node">
<title>Node13</title>
<g id="a_node10"><a xlink:title="STL class. ">
<polygon fill="none" stroke="#bfbfbf" points="0,-183.5 0,-202.5 75,-202.5 75,-183.5 0,-183.5"/>
<text text-anchor="middle" x="37.5" y="-190.5" font-family="Helvetica,sans-Serif" font-size="10.00" fill="#000000">std::ios_base</text>
</a>
</g>
</g>
<!-- Node13&#45;&gt;Node12 -->
<g id="edge9" class="edge">
<title>Node13&#45;&gt;Node12</title>
<path fill="none" stroke="#191970" d="M85.3789,-193C94.0135,-193 103.1001,-193 111.986,-193"/>
<polygon fill="#191970" stroke="#191970" points="85.1148,-189.5001 75.1148,-193 85.1147,-196.5001 85.1148,-189.5001"/>
</g>
<!-- Node14 -->
<g id="node11" class="node">
<title>Node14</title>
<polygon fill="none" stroke="#bfbfbf" points="578,-76.5 578,-95.5 701,-95.5 701,-76.5 578,-76.5"/>
<text text-anchor="middle" x="639.5" y="-83.5" font-family="Helvetica,sans-Serif" font-size="10.00" fill="#000000">std::vector&lt; env::Clim &gt;</text>
</g>
<!-- Node14&#45;&gt;Node8 -->
<g id="edge10" class="edge">
<title>Node14&#45;&gt;Node8</title>
<path fill="none" stroke="#9a32cd" stroke-dasharray="5,2" d="M711.5797,-92.6211C738.8591,-95.8907 770.0593,-100.554 798,-107 815.1185,-110.9493 833.8685,-117.1993 848.3389,-122.462"/>
<polygon fill="#9a32cd" stroke="#9a32cd" points="711.6676,-89.108 701.3316,-91.4354 710.863,-96.0616 711.6676,-89.108"/>
<text text-anchor="middle" x="758.5" y="-110" font-family="Helvetica,sans-Serif" font-size="10.00" fill="#000000"> v_met</text>
</g>
<!-- Node15 -->
<g id="node12" class="node">
<title>Node15</title>
<g id="a_node12"><a xlink:href="classenv_1_1Clim.html" target="_top" xlink:title="env::Clim">
<polygon fill="none" stroke="#000000" points="419.5,-102.5 419.5,-121.5 478.5,-121.5 478.5,-102.5 419.5,-102.5"/>
<text text-anchor="middle" x="449" y="-109.5" font-family="Helvetica,sans-Serif" font-size="10.00" fill="#000000">env::Clim</text>
</a>
</g>
</g>
<!-- Node15&#45;&gt;Node8 -->
<g id="edge15" class="edge">
<title>Node15&#45;&gt;Node8</title>
<path fill="none" stroke="#9a32cd" stroke-dasharray="5,2" d="M488.8928,-115.143C498.1189,-115.8116 507.8985,-116.4738 517,-117 633.8756,-123.7575 772.5036,-128.7215 836.8499,-130.8507"/>
<polygon fill="#9a32cd" stroke="#9a32cd" points="489.0088,-111.6421 478.7772,-114.3922 488.4906,-118.6229 489.0088,-111.6421"/>
<text text-anchor="middle" x="639.5" y="-150" font-family="Helvetica,sans-Serif" font-size="10.00" fill="#000000"> clim_prev</text>
<text text-anchor="middle" x="639.5" y="-139" font-family="Helvetica,sans-Serif" font-size="10.00" fill="#000000">clim</text>
<text text-anchor="middle" x="639.5" y="-128" font-family="Helvetica,sans-Serif" font-size="10.00" fill="#000000">clim_next</text>
</g>
<!-- Node15&#45;&gt;Node14 -->
<g id="edge11" class="edge">
<title>Node15&#45;&gt;Node14</title>
<path fill="none" stroke="#9a32cd" stroke-dasharray="5,2" d="M488.8825,-106.5567C514.5754,-103.0501 548.5018,-98.4197 577.6501,-94.4415"/>
<polygon fill="#9a32cd" stroke="#9a32cd" points="488.2004,-103.1173 478.7656,-107.9375 489.1471,-110.053 488.2004,-103.1173"/>
<text text-anchor="middle" x="538.5" y="-105" font-family="Helvetica,sans-Serif" font-size="10.00" fill="#000000"> elements</text>
</g>
<!-- Node16 -->
<g id="node13" class="node">
<title>Node16</title>
<g id="a_node13"><a xlink:title="STL class. ">
<polygon fill="none" stroke="#bfbfbf" points="609.5,-38.5 609.5,-57.5 669.5,-57.5 669.5,-38.5 609.5,-38.5"/>
<text text-anchor="middle" x="639.5" y="-45.5" font-family="Helvetica,sans-Serif" font-size="10.00" fill="#000000">std::string</text>
</a>
</g>
</g>
<!-- Node16&#45;&gt;Node8 -->
<g id="edge12" class="edge">
<title>Node16&#45;&gt;Node8</title>
<path fill="none" stroke="#9a32cd" stroke-dasharray="5,2" d="M680.0087,-46.4257C713.1005,-46.6202 760.3822,-50.3497 798,-67 826.6759,-79.6925 852.4857,-107.1909 865.0109,-122.0279"/>
<polygon fill="#9a32cd" stroke="#9a32cd" points="679.7765,-42.9266 669.7935,-46.4748 679.8102,-49.9266 679.7765,-42.9266"/>
<text text-anchor="middle" x="758.5" y="-81" font-family="Helvetica,sans-Serif" font-size="10.00" fill="#000000"> co2File</text>
<text text-anchor="middle" x="758.5" y="-70" font-family="Helvetica,sans-Serif" font-size="10.00" fill="#000000">metFile</text>
</g>
<!-- Node17 -->
<g id="node14" class="node">
<title>Node17</title>
<g id="a_node14"><a xlink:title="STL class. ">
<polygon fill="none" stroke="#bfbfbf" points="401.5,-33 401.5,-63 496.5,-63 496.5,-33 401.5,-33"/>
<text text-anchor="start" x="409.5" y="-51" font-family="Helvetica,sans-Serif" font-size="10.00" fill="#000000">std::basic_string&lt;</text>
<text text-anchor="middle" x="449" y="-40" font-family="Helvetica,sans-Serif" font-size="10.00" fill="#000000"> char &gt;</text>
</a>
</g>
</g>
<!-- Node17&#45;&gt;Node16 -->
<g id="edge13" class="edge">
<title>Node17&#45;&gt;Node16</title>
<path fill="none" stroke="#191970" d="M506.8172,-48C540.6561,-48 581.9907,-48 609.4403,-48"/>
<polygon fill="#191970" stroke="#191970" points="506.5798,-44.5001 496.5798,-48 506.5798,-51.5001 506.5798,-44.5001"/>
</g>
<!-- Node18 -->
<g id="node15" class="node">
<title>Node18</title>
<polygon fill="none" stroke="#bfbfbf" points="593.5,-.5 593.5,-19.5 685.5,-19.5 685.5,-.5 593.5,-.5"/>
<text text-anchor="middle" x="639.5" y="-7.5" font-family="Helvetica,sans-Serif" font-size="10.00" fill="#000000">std::vector&lt; int &gt;</text>
</g>
<!-- Node18&#45;&gt;Node8 -->
<g id="edge14" class="edge">
<title>Node18&#45;&gt;Node8</title>
<path fill="none" stroke="#9a32cd" stroke-dasharray="5,2" d="M695.6638,-7.9262C727.6437,-9.1448 767.3192,-14.888 798,-33 834.7658,-54.7042 859.5249,-102.0571 868.8567,-122.3998"/>
<polygon fill="#9a32cd" stroke="#9a32cd" points="695.6548,-4.4251 685.5722,-7.6796 695.4837,-11.423 695.6548,-4.4251"/>
<text text-anchor="middle" x="758.5" y="-36" font-family="Helvetica,sans-Serif" font-size="10.00" fill="#000000"> t_co2</text>
</g>
</g>
</svg>
