<?xml version="1.0" encoding="UTF-8" standalone="no"?>
<!DOCTYPE svg PUBLIC "-//W3C//DTD SVG 1.1//EN"
 "http://www.w3.org/Graphics/SVG/1.1/DTD/svg11.dtd">
<!-- Generated by graphviz version 2.40.1 (20161225.0304)
 -->
<!-- Title: plant::PlantGeometry::zm Pages: 1 -->
<svg width="1128pt" height="165pt"
 viewBox="0.00 0.00 1128.00 164.50" xmlns="http://www.w3.org/2000/svg" xmlns:xlink="http://www.w3.org/1999/xlink">
<g id="graph0" class="graph" transform="scale(1 1) rotate(0) translate(4 160.5)">
<title>plant::PlantGeometry::zm</title>
<!-- Node168 -->
<g id="node1" class="node">
<title>Node168</title>
<polygon fill="#bfbfbf" stroke="#000000" points="0,-103.5 0,-122.5 128,-122.5 128,-103.5 0,-103.5"/>
<text text-anchor="middle" x="64" y="-110.5" font-family="Helvetica,sans-Serif" font-size="10.00" fill="#000000">plant::PlantGeometry::zm</text>
</g>
<!-- Node169 -->
<g id="node2" class="node">
<title>Node169</title>
<g id="a_node2"><a xlink:href="classplant_1_1PlantGeometry.html#a8b730aad4b7df12781a8eb510565605a" target="_top" xlink:title="plant::PlantGeometry\l::crown_area_extent_projected">
<polygon fill="none" stroke="#000000" points="164,-123 164,-153 314,-153 314,-123 164,-123"/>
<text text-anchor="start" x="172" y="-141" font-family="Helvetica,sans-Serif" font-size="10.00" fill="#000000">plant::PlantGeometry</text>
<text text-anchor="middle" x="239" y="-130" font-family="Helvetica,sans-Serif" font-size="10.00" fill="#000000">::crown_area_extent_projected</text>
</a>
</g>
</g>
<!-- Node168&#45;&gt;Node169 -->
<g id="edge1" class="edge">
<title>Node168&#45;&gt;Node169</title>
<path fill="none" stroke="#191970" d="M138.0845,-123.5835C146.6156,-124.8022 155.3211,-126.0459 163.8659,-127.2666"/>
<polygon fill="#191970" stroke="#191970" points="138.5643,-120.1166 128.1698,-122.1671 137.5743,-127.0462 138.5643,-120.1166"/>
</g>
<!-- Node170 -->
<g id="node3" class="node">
<title>Node170</title>
<g id="a_node3"><a xlink:href="classplant_1_1PlantGeometry.html#a73eed0a3db55748b6d2615945ec1f08b" target="_top" xlink:title="plant::PlantGeometry\l::crown_area_above">
<polygon fill="none" stroke="#000000" points="184.5,-74 184.5,-104 293.5,-104 293.5,-74 184.5,-74"/>
<text text-anchor="start" x="192.5" y="-92" font-family="Helvetica,sans-Serif" font-size="10.00" fill="#000000">plant::PlantGeometry</text>
<text text-anchor="middle" x="239" y="-81" font-family="Helvetica,sans-Serif" font-size="10.00" fill="#000000">::crown_area_above</text>
</a>
</g>
</g>
<!-- Node168&#45;&gt;Node170 -->
<g id="edge2" class="edge">
<title>Node168&#45;&gt;Node170</title>
<path fill="none" stroke="#191970" d="M138.2318,-102.8196C153.6995,-100.6984 169.7334,-98.4994 184.3394,-96.4963"/>
<polygon fill="#191970" stroke="#191970" points="137.6015,-99.3732 128.1698,-104.1996 138.5527,-106.3083 137.6015,-99.3732"/>
</g>
<!-- Node171 -->
<g id="node4" class="node">
<title>Node171</title>
<g id="a_node4"><a xlink:href="classplant_1_1Assimilator.html#a95024a28af68fde0b11acef9903aaa9d" target="_top" xlink:title="plant::Assimilator\l::calc_plant_assimilation_rate">
<polygon fill="none" stroke="#000000" points="350,-74 350,-104 496,-104 496,-74 350,-74"/>
<text text-anchor="start" x="358" y="-92" font-family="Helvetica,sans-Serif" font-size="10.00" fill="#000000">plant::Assimilator</text>
<text text-anchor="middle" x="423" y="-81" font-family="Helvetica,sans-Serif" font-size="10.00" fill="#000000">::calc_plant_assimilation_rate</text>
</a>
</g>
</g>
<!-- Node170&#45;&gt;Node171 -->
<g id="edge3" class="edge">
<title>Node170&#45;&gt;Node171</title>
<path fill="none" stroke="#191970" d="M303.8087,-89C318.6699,-89 334.5712,-89 349.76,-89"/>
<polygon fill="#191970" stroke="#191970" points="303.7079,-85.5001 293.7079,-89 303.7079,-92.5001 303.7079,-85.5001"/>
</g>
<!-- Node172 -->
<g id="node5" class="node">
<title>Node172</title>
<g id="a_node5"><a xlink:href="classplant_1_1Assimilator.html#ab5cf98dde0fb1d49ce4d0f44387b628b" target="_top" xlink:title="plant::Assimilator\l::net_production">
<polygon fill="none" stroke="#000000" points="532,-74 532,-104 624,-104 624,-74 532,-74"/>
<text text-anchor="start" x="540" y="-92" font-family="Helvetica,sans-Serif" font-size="10.00" fill="#000000">plant::Assimilator</text>
<text text-anchor="middle" x="578" y="-81" font-family="Helvetica,sans-Serif" font-size="10.00" fill="#000000">::net_production</text>
</a>
</g>
</g>
<!-- Node171&#45;&gt;Node172 -->
<g id="edge4" class="edge">
<title>Node171&#45;&gt;Node172</title>
<path fill="none" stroke="#191970" d="M506.5874,-89C515.2353,-89 523.7815,-89 531.7917,-89"/>
<polygon fill="#191970" stroke="#191970" points="506.4148,-85.5001 496.4148,-89 506.4147,-92.5001 506.4148,-85.5001"/>
</g>
<!-- Node173 -->
<g id="node6" class="node">
<title>Node173</title>
<g id="a_node6"><a xlink:href="classplant_1_1Plant.html#a48612779a5850cca9cc6f6caff1ccb8b" target="_top" xlink:title="plant::Plant::lai_model">
<polygon fill="none" stroke="#000000" points="661.5,-117.5 661.5,-136.5 774.5,-136.5 774.5,-117.5 661.5,-117.5"/>
<text text-anchor="middle" x="718" y="-124.5" font-family="Helvetica,sans-Serif" font-size="10.00" fill="#000000">plant::Plant::lai_model</text>
</a>
</g>
</g>
<!-- Node172&#45;&gt;Node173 -->
<g id="edge5" class="edge">
<title>Node172&#45;&gt;Node173</title>
<path fill="none" stroke="#191970" d="M634.2892,-104.2785C650.7185,-108.7379 668.1965,-113.4819 682.9092,-117.4754"/>
<polygon fill="#191970" stroke="#191970" points="634.7969,-100.7897 624.2292,-101.5479 632.9632,-107.5453 634.7969,-100.7897"/>
</g>
<!-- Node174 -->
<g id="node7" class="node">
<title>Node174</title>
<g id="a_node7"><a xlink:href="classplant_1_1Plant.html#ab39fa79cb8884c684af5db0c98a1785e" target="_top" xlink:title="plant::Plant::calc\l_demographic_rates">
<polygon fill="none" stroke="#000000" points="830,-104 830,-134 934,-134 934,-104 830,-104"/>
<text text-anchor="start" x="838" y="-122" font-family="Helvetica,sans-Serif" font-size="10.00" fill="#000000">plant::Plant::calc</text>
<text text-anchor="middle" x="882" y="-111" font-family="Helvetica,sans-Serif" font-size="10.00" fill="#000000">_demographic_rates</text>
</a>
</g>
</g>
<!-- Node172&#45;&gt;Node174 -->
<g id="edge12" class="edge">
<title>Node172&#45;&gt;Node174</title>
<path fill="none" stroke="#191970" d="M634.0252,-94.2597C673.6806,-98.011 728.1103,-103.2175 776,-108 793.5816,-109.7558 812.797,-111.7324 829.9806,-113.5207"/>
<polygon fill="#191970" stroke="#191970" points="634.3041,-90.7705 624.0192,-93.3144 633.6456,-97.7395 634.3041,-90.7705"/>
</g>
<!-- Node177 -->
<g id="node10" class="node">
<title>Node177</title>
<g id="a_node10"><a xlink:href="classplant_1_1Plant.html#a03c45eaaabce7ff0287598818dc4847f" target="_top" xlink:title="plant::Plant::p_survival\l_germination">
<polygon fill="none" stroke="#000000" points="660,-30 660,-60 776,-60 776,-30 660,-30"/>
<text text-anchor="start" x="668" y="-48" font-family="Helvetica,sans-Serif" font-size="10.00" fill="#000000">plant::Plant::p_survival</text>
<text text-anchor="middle" x="718" y="-37" font-family="Helvetica,sans-Serif" font-size="10.00" fill="#000000">_germination</text>
</a>
</g>
</g>
<!-- Node172&#45;&gt;Node177 -->
<g id="edge9" class="edge">
<title>Node172&#45;&gt;Node177</title>
<path fill="none" stroke="#191970" d="M634.0413,-71.387C645.9164,-67.6548 658.3502,-63.7471 669.8995,-60.1173"/>
<polygon fill="#191970" stroke="#191970" points="632.7198,-68.1335 624.2292,-74.4708 634.8186,-74.8115 632.7198,-68.1335"/>
</g>
<!-- Node173&#45;&gt;Node174 -->
<g id="edge6" class="edge">
<title>Node173&#45;&gt;Node174</title>
<path fill="none" stroke="#191970" d="M785.1024,-123.7267C800.0348,-122.9983 815.6493,-122.2366 829.8744,-121.5427"/>
<polygon fill="#191970" stroke="#191970" points="784.7165,-120.2413 774.899,-124.2244 785.0577,-127.233 784.7165,-120.2413"/>
</g>
<!-- Node175 -->
<g id="node8" class="node">
<title>Node175</title>
<g id="a_node8"><a xlink:href="classplant_1_1Plant.html#a274f7da212d5f05d4b281e49e11fc44e" target="_top" xlink:title="plant::Plant::grow\l_for_dt">
<polygon fill="none" stroke="#000000" points="1007.5,-126 1007.5,-156 1100.5,-156 1100.5,-126 1007.5,-126"/>
<text text-anchor="start" x="1015.5" y="-144" font-family="Helvetica,sans-Serif" font-size="10.00" fill="#000000">plant::Plant::grow</text>
<text text-anchor="middle" x="1054" y="-133" font-family="Helvetica,sans-Serif" font-size="10.00" fill="#000000">_for_dt</text>
</a>
</g>
</g>
<!-- Node174&#45;&gt;Node175 -->
<g id="edge7" class="edge">
<title>Node174&#45;&gt;Node175</title>
<path fill="none" stroke="#191970" d="M944.1282,-126.9466C964.9941,-129.6155 987.8961,-132.5449 1007.3657,-135.0352"/>
<polygon fill="#191970" stroke="#191970" points="944.4357,-123.4575 934.0724,-125.6604 943.5475,-130.401 944.4357,-123.4575"/>
</g>
<!-- Node176 -->
<g id="node9" class="node">
<title>Node176</title>
<g id="a_node9"><a xlink:href="classPSPM__Plant.html#a71f7312443767dffc44d8d0d80b295f0" target="_top" xlink:title="PSPM_Plant::preCompute">
<polygon fill="none" stroke="#000000" points="988,-87.5 988,-106.5 1120,-106.5 1120,-87.5 988,-87.5"/>
<text text-anchor="middle" x="1054" y="-94.5" font-family="Helvetica,sans-Serif" font-size="10.00" fill="#000000">PSPM_Plant::preCompute</text>
</a>
</g>
</g>
<!-- Node174&#45;&gt;Node176 -->
<g id="edge8" class="edge">
<title>Node174&#45;&gt;Node176</title>
<path fill="none" stroke="#191970" d="M944.1933,-111.045C958.353,-109.2339 973.4473,-107.3032 987.7684,-105.4715"/>
<polygon fill="#191970" stroke="#191970" points="943.5475,-107.599 934.0724,-112.3396 944.4357,-114.5425 943.5475,-107.599"/>
</g>
<!-- Node178 -->
<g id="node11" class="node">
<title>Node178</title>
<g id="a_node11"><a xlink:href="classPSPM__Plant.html#a4ceca1be5d1089c49dcecdc5ce216727" target="_top" xlink:title="PSPM_Plant::establishment\lProbability">
<polygon fill="none" stroke="#000000" points="812,-39 812,-69 952,-69 952,-39 812,-39"/>
<text text-anchor="start" x="820" y="-57" font-family="Helvetica,sans-Serif" font-size="10.00" fill="#000000">PSPM_Plant::establishment</text>
<text text-anchor="middle" x="882" y="-46" font-family="Helvetica,sans-Serif" font-size="10.00" fill="#000000">Probability</text>
</a>
</g>
</g>
<!-- Node177&#45;&gt;Node178 -->
<g id="edge10" class="edge">
<title>Node177&#45;&gt;Node178</title>
<path fill="none" stroke="#191970" d="M786.4083,-48.7541C794.8098,-49.2152 803.4071,-49.687 811.8341,-50.1494"/>
<polygon fill="#191970" stroke="#191970" points="786.4588,-45.2517 776.282,-48.1984 786.0752,-52.2412 786.4588,-45.2517"/>
</g>
<!-- Node179 -->
<g id="node12" class="node">
<title>Node179</title>
<g id="a_node12"><a xlink:href="classPSPM__Plant.html#ad3109143960e0a0ceded078733bc4d4c" target="_top" xlink:title="PSPM_Plant::init_state">
<polygon fill="none" stroke="#000000" points="822.5,-.5 822.5,-19.5 941.5,-19.5 941.5,-.5 822.5,-.5"/>
<text text-anchor="middle" x="882" y="-7.5" font-family="Helvetica,sans-Serif" font-size="10.00" fill="#000000">PSPM_Plant::init_state</text>
</a>
</g>
</g>
<!-- Node177&#45;&gt;Node179 -->
<g id="edge11" class="edge">
<title>Node177&#45;&gt;Node179</title>
<path fill="none" stroke="#191970" d="M786.3042,-30.4229C803.5293,-26.7468 821.5841,-22.8936 837.3116,-19.5372"/>
<polygon fill="#191970" stroke="#191970" points="785.3313,-27.0516 776.282,-32.5618 786.7923,-33.8975 785.3313,-27.0516"/>
</g>
</g>
</svg>
