<?xml version="1.0" encoding="UTF-8" standalone="no"?>
<!DOCTYPE svg PUBLIC "-//W3C//DTD SVG 1.1//EN"
 "http://www.w3.org/Graphics/SVG/1.1/DTD/svg11.dtd">
<!-- Generated by graphviz version 2.40.1 (20161225.0304)
 -->
<!-- Title: plant::PlantGeometry::sapwood_mass_real Pages: 1 -->
<svg width="410pt" height="39pt"
 viewBox="0.00 0.00 410.00 39.00" xmlns="http://www.w3.org/2000/svg" xmlns:xlink="http://www.w3.org/1999/xlink">
<g id="graph0" class="graph" transform="scale(1 1) rotate(0) translate(4 35)">
<title>plant::PlantGeometry::sapwood_mass_real</title>
<!-- Node121 -->
<g id="node1" class="node">
<title>Node121</title>
<polygon fill="#bfbfbf" stroke="#000000" points="0,-.5 0,-30.5 112,-30.5 112,-.5 0,-.5"/>
<text text-anchor="start" x="8" y="-18.5" font-family="Helvetica,sans-Serif" font-size="10.00" fill="#000000">plant::PlantGeometry</text>
<text text-anchor="middle" x="56" y="-7.5" font-family="Helvetica,sans-Serif" font-size="10.00" fill="#000000">::sapwood_mass_real</text>
</g>
<!-- Node122 -->
<g id="node2" class="node">
<title>Node122</title>
<g id="a_node2"><a xlink:href="classplant_1_1PlantGeometry.html#aa34014d10ad2f1585b22958a27bee404" target="_top" xlink:title="plant::PlantGeometry\l::sapwood_mass">
<polygon fill="none" stroke="#000000" points="148,-.5 148,-30.5 257,-30.5 257,-.5 148,-.5"/>
<text text-anchor="start" x="156" y="-18.5" font-family="Helvetica,sans-Serif" font-size="10.00" fill="#000000">plant::PlantGeometry</text>
<text text-anchor="middle" x="202.5" y="-7.5" font-family="Helvetica,sans-Serif" font-size="10.00" fill="#000000">::sapwood_mass</text>
</a>
</g>
</g>
<!-- Node121&#45;&gt;Node122 -->
<g id="edge1" class="edge">
<title>Node121&#45;&gt;Node122</title>
<path fill="none" stroke="#191970" d="M112.2217,-15.5C120.4825,-15.5 129.0491,-15.5 137.469,-15.5"/>
<polygon fill="#191970" stroke="#191970" points="137.6363,-19.0001 147.6363,-15.5 137.6362,-12.0001 137.6363,-19.0001"/>
</g>
<!-- Node123 -->
<g id="node3" class="node">
<title>Node123</title>
<g id="a_node3"><a xlink:href="classplant_1_1PlantGeometry.html#adb7202ef29b176b65c43c5b5d950484d" target="_top" xlink:title="plant::PlantGeometry\l::stem_mass">
<polygon fill="none" stroke="#000000" points="293,-.5 293,-30.5 402,-30.5 402,-.5 293,-.5"/>
<text text-anchor="start" x="301" y="-18.5" font-family="Helvetica,sans-Serif" font-size="10.00" fill="#000000">plant::PlantGeometry</text>
<text text-anchor="middle" x="347.5" y="-7.5" font-family="Helvetica,sans-Serif" font-size="10.00" fill="#000000">::stem_mass</text>
</a>
</g>
</g>
<!-- Node122&#45;&gt;Node123 -->
<g id="edge2" class="edge">
<title>Node122&#45;&gt;Node123</title>
<path fill="none" stroke="#191970" d="M257.3183,-15.5C265.5286,-15.5 274.0611,-15.5 282.4586,-15.5"/>
<polygon fill="#191970" stroke="#191970" points="282.6042,-19.0001 292.6042,-15.5 282.6042,-12.0001 282.6042,-19.0001"/>
</g>
</g>
</svg>
