<?xml version="1.0" encoding="UTF-8" standalone="no"?>
<!DOCTYPE svg PUBLIC "-//W3C//DTD SVG 1.1//EN"
 "http://www.w3.org/Graphics/SVG/1.1/DTD/svg11.dtd">
<!-- Generated by graphviz version 2.40.1 (20161225.0304)
 -->
<!-- Title: plant::Plant::initParamsFromFile Pages: 1 -->
<svg width="516pt" height="151pt"
 viewBox="0.00 0.00 516.00 150.50" xmlns="http://www.w3.org/2000/svg" xmlns:xlink="http://www.w3.org/1999/xlink">
<g id="graph0" class="graph" transform="scale(1 1) rotate(0) translate(4 146.5)">
<title>plant::Plant::initParamsFromFile</title>
<!-- Node79 -->
<g id="node1" class="node">
<title>Node79</title>
<polygon fill="#bfbfbf" stroke="#000000" points="0,-63 0,-93 119,-93 119,-63 0,-63"/>
<text text-anchor="start" x="8" y="-81" font-family="Helvetica,sans-Serif" font-size="10.00" fill="#000000">plant::Plant::initParams</text>
<text text-anchor="middle" x="59.5" y="-70" font-family="Helvetica,sans-Serif" font-size="10.00" fill="#000000">FromFile</text>
</g>
<!-- Node80 -->
<g id="node2" class="node">
<title>Node80</title>
<g id="a_node2"><a xlink:href="classplant_1_1PlantParameters.html#a80569bfa425831d8f3f89a134c958f0d" target="_top" xlink:title="plant::PlantParameters\l::initFromFile">
<polygon fill="none" stroke="#000000" points="155.5,-63 155.5,-93 271.5,-93 271.5,-63 155.5,-63"/>
<text text-anchor="start" x="163.5" y="-81" font-family="Helvetica,sans-Serif" font-size="10.00" fill="#000000">plant::PlantParameters</text>
<text text-anchor="middle" x="213.5" y="-70" font-family="Helvetica,sans-Serif" font-size="10.00" fill="#000000">::initFromFile</text>
</a>
</g>
</g>
<!-- Node79&#45;&gt;Node80 -->
<g id="edge1" class="edge">
<title>Node79&#45;&gt;Node80</title>
<path fill="none" stroke="#191970" d="M119.0404,-78C127.6181,-78 136.501,-78 145.2321,-78"/>
<polygon fill="#191970" stroke="#191970" points="145.3847,-81.5001 155.3847,-78 145.3846,-74.5001 145.3847,-81.5001"/>
</g>
<!-- Node83 -->
<g id="node5" class="node">
<title>Node83</title>
<g id="a_node5"><a xlink:href="classplant_1_1PlantTraits.html#a9b4568e865eeba7ed29f0cfa06d81d43" target="_top" xlink:title="plant::PlantTraits\l::initFromFile">
<polygon fill="none" stroke="#000000" points="168,-112 168,-142 259,-142 259,-112 168,-112"/>
<text text-anchor="start" x="176" y="-130" font-family="Helvetica,sans-Serif" font-size="10.00" fill="#000000">plant::PlantTraits</text>
<text text-anchor="middle" x="213.5" y="-119" font-family="Helvetica,sans-Serif" font-size="10.00" fill="#000000">::initFromFile</text>
</a>
</g>
</g>
<!-- Node79&#45;&gt;Node83 -->
<g id="edge4" class="edge">
<title>Node79&#45;&gt;Node83</title>
<path fill="none" stroke="#191970" d="M106.9617,-93.1014C123.1408,-98.2494 141.3707,-104.0498 158.1164,-109.3779"/>
<polygon fill="#191970" stroke="#191970" points="157.1873,-112.7551 167.7778,-112.452 159.3097,-106.0847 157.1873,-112.7551"/>
</g>
<!-- Node84 -->
<g id="node6" class="node">
<title>Node84</title>
<g id="a_node6"><a xlink:href="classplant_1_1Plant.html#aef656755f62f6ba9ea17a9b304eca104" target="_top" xlink:title="plant::Plant::coordinate\lTraits">
<polygon fill="none" stroke="#000000" points="155,-14 155,-44 272,-44 272,-14 155,-14"/>
<text text-anchor="start" x="163" y="-32" font-family="Helvetica,sans-Serif" font-size="10.00" fill="#000000">plant::Plant::coordinate</text>
<text text-anchor="middle" x="213.5" y="-21" font-family="Helvetica,sans-Serif" font-size="10.00" fill="#000000">Traits</text>
</a>
</g>
</g>
<!-- Node79&#45;&gt;Node84 -->
<g id="edge7" class="edge">
<title>Node79&#45;&gt;Node84</title>
<path fill="none" stroke="#191970" d="M106.9617,-62.8986C122.5505,-57.9385 140.0432,-52.3726 156.2776,-47.2071"/>
<polygon fill="#191970" stroke="#191970" points="157.727,-50.4189 166.195,-44.0516 155.6045,-43.7484 157.727,-50.4189"/>
</g>
<!-- Node81 -->
<g id="node3" class="node">
<title>Node81</title>
<g id="a_node3"><a xlink:href="classio_1_1Initializer.html#ac5da46da32e3a9f0679a14fdf820012e" target="_top" xlink:title="io::Initializer::readFile">
<polygon fill="none" stroke="#000000" points="311,-71.5 311,-90.5 421,-90.5 421,-71.5 311,-71.5"/>
<text text-anchor="middle" x="366" y="-78.5" font-family="Helvetica,sans-Serif" font-size="10.00" fill="#000000">io::Initializer::readFile</text>
</a>
</g>
</g>
<!-- Node80&#45;&gt;Node81 -->
<g id="edge2" class="edge">
<title>Node80&#45;&gt;Node81</title>
<path fill="none" stroke="#191970" d="M271.5887,-79.1427C280.9845,-79.3276 290.7709,-79.5201 300.3311,-79.7082"/>
<polygon fill="#191970" stroke="#191970" points="300.5199,-83.2124 310.5868,-79.9099 300.6576,-76.2138 300.5199,-83.2124"/>
</g>
<!-- Node82 -->
<g id="node4" class="node">
<title>Node82</title>
<g id="a_node4"><a xlink:href="classio_1_1Initializer.html#a6fb13617609ca86d0990c3436324468e" target="_top" xlink:title="io::Initializer::getScalar">
<polygon fill="none" stroke="#000000" points="308,-114.5 308,-133.5 424,-133.5 424,-114.5 308,-114.5"/>
<text text-anchor="middle" x="366" y="-121.5" font-family="Helvetica,sans-Serif" font-size="10.00" fill="#000000">io::Initializer::getScalar</text>
</a>
</g>
</g>
<!-- Node80&#45;&gt;Node82 -->
<g id="edge3" class="edge">
<title>Node80&#45;&gt;Node82</title>
<path fill="none" stroke="#191970" d="M263.4342,-93.0621C283.1677,-99.0145 305.5816,-105.7754 324.4124,-111.4555"/>
<polygon fill="#191970" stroke="#191970" points="323.5971,-114.8653 334.1819,-114.4024 325.6187,-108.1636 323.5971,-114.8653"/>
</g>
<!-- Node83&#45;&gt;Node81 -->
<g id="edge5" class="edge">
<title>Node83&#45;&gt;Node81</title>
<path fill="none" stroke="#191970" d="M259.255,-113.1985C279.9699,-106.9501 304.2798,-99.6172 324.4638,-93.529"/>
<polygon fill="#191970" stroke="#191970" points="325.7404,-96.7997 334.3035,-90.5609 323.7188,-90.098 325.7404,-96.7997"/>
</g>
<!-- Node83&#45;&gt;Node82 -->
<g id="edge6" class="edge">
<title>Node83&#45;&gt;Node82</title>
<path fill="none" stroke="#191970" d="M259.255,-126.0999C271.3006,-125.8629 284.5619,-125.6021 297.5206,-125.3471"/>
<polygon fill="#191970" stroke="#191970" points="297.8902,-128.8406 307.8194,-125.1445 297.7525,-121.842 297.8902,-128.8406"/>
</g>
<!-- Node85 -->
<g id="node7" class="node">
<title>Node85</title>
<g id="a_node7"><a xlink:href="classplant_1_1PlantGeometry.html#a7cfa7c88359eaeca1e9f9d7f0d137414" target="_top" xlink:title="plant::PlantGeometry\l::init">
<polygon fill="none" stroke="#000000" points="311.5,-14 311.5,-44 420.5,-44 420.5,-14 311.5,-14"/>
<text text-anchor="start" x="319.5" y="-32" font-family="Helvetica,sans-Serif" font-size="10.00" fill="#000000">plant::PlantGeometry</text>
<text text-anchor="middle" x="366" y="-21" font-family="Helvetica,sans-Serif" font-size="10.00" fill="#000000">::init</text>
</a>
</g>
</g>
<!-- Node84&#45;&gt;Node85 -->
<g id="edge8" class="edge">
<title>Node84&#45;&gt;Node85</title>
<path fill="none" stroke="#191970" d="M272.0243,-29C281.6248,-29 291.6221,-29 301.3607,-29"/>
<polygon fill="#191970" stroke="#191970" points="301.3882,-32.5001 311.3882,-29 301.3882,-25.5001 301.3882,-32.5001"/>
</g>
<!-- Node86 -->
<g id="node8" class="node">
<title>Node86</title>
<g id="a_node8"><a xlink:href="incbeta_8h.html#a9eb0ac72975c73100e4f9ca13bbd4366" target="_top" xlink:title="beta">
<polygon fill="none" stroke="#000000" points="466.5,-38.5 466.5,-57.5 501.5,-57.5 501.5,-38.5 466.5,-38.5"/>
<text text-anchor="middle" x="484" y="-45.5" font-family="Helvetica,sans-Serif" font-size="10.00" fill="#000000">beta</text>
</a>
</g>
</g>
<!-- Node85&#45;&gt;Node86 -->
<g id="edge9" class="edge">
<title>Node85&#45;&gt;Node86</title>
<path fill="none" stroke="#191970" d="M420.5097,-37.777C432.9192,-39.7751 445.5952,-41.8162 456.3246,-43.5438"/>
<polygon fill="#191970" stroke="#191970" points="455.894,-47.0195 466.3232,-45.1537 457.0068,-40.1085 455.894,-47.0195"/>
</g>
<!-- Node87 -->
<g id="node9" class="node">
<title>Node87</title>
<g id="a_node9"><a xlink:href="incbeta_8h.html#adf3ab3ef5b85f1a8d61e12d64bb8af16" target="_top" xlink:title="incbeta">
<polygon fill="none" stroke="#000000" points="460,-.5 460,-19.5 508,-19.5 508,-.5 460,-.5"/>
<text text-anchor="middle" x="484" y="-7.5" font-family="Helvetica,sans-Serif" font-size="10.00" fill="#000000">incbeta</text>
</a>
</g>
</g>
<!-- Node85&#45;&gt;Node87 -->
<g id="edge10" class="edge">
<title>Node85&#45;&gt;Node87</title>
<path fill="none" stroke="#191970" d="M420.5097,-20.223C430.5132,-18.6123 440.6898,-16.9737 449.8804,-15.4938"/>
<polygon fill="#191970" stroke="#191970" points="450.4596,-18.9457 459.776,-13.9005 449.3467,-12.0348 450.4596,-18.9457"/>
</g>
</g>
</svg>
