<?xml version="1.0" encoding="UTF-8" standalone="no"?>
<!DOCTYPE svg PUBLIC "-//W3C//DTD SVG 1.1//EN"
 "http://www.w3.org/Graphics/SVG/1.1/DTD/svg11.dtd">
<!-- Generated by graphviz version 2.40.1 (20161225.0304)
 -->
<!-- Title: plant::Plant::lai_model Pages: 1 -->
<svg width="765pt" height="310pt"
 viewBox="0.00 0.00 765.00 309.50" xmlns="http://www.w3.org/2000/svg" xmlns:xlink="http://www.w3.org/1999/xlink">
<g id="graph0" class="graph" transform="scale(1 1) rotate(0) translate(4 305.5)">
<title>plant::Plant::lai_model</title>
<!-- Node89 -->
<g id="node1" class="node">
<title>Node89</title>
<polygon fill="#bfbfbf" stroke="#000000" points="0,-128 0,-147 113,-147 113,-128 0,-128"/>
<text text-anchor="middle" x="56.5" y="-135" font-family="Helvetica,sans-Serif" font-size="10.00" fill="#000000">plant::Plant::lai_model</text>
</g>
<!-- Node90 -->
<g id="node2" class="node">
<title>Node90</title>
<g id="a_node2"><a xlink:href="classplant_1_1PlantGeometry.html#a818143a8613e10cb44bcb448b36984ca" target="_top" xlink:title="plant::PlantGeometry\l::set_lai">
<polygon fill="none" stroke="#000000" points="149,-171.5 149,-201.5 258,-201.5 258,-171.5 149,-171.5"/>
<text text-anchor="start" x="157" y="-189.5" font-family="Helvetica,sans-Serif" font-size="10.00" fill="#000000">plant::PlantGeometry</text>
<text text-anchor="middle" x="203.5" y="-178.5" font-family="Helvetica,sans-Serif" font-size="10.00" fill="#000000">::set_lai</text>
</a>
</g>
</g>
<!-- Node89&#45;&gt;Node90 -->
<g id="edge1" class="edge">
<title>Node89&#45;&gt;Node90</title>
<path fill="none" stroke="#191970" d="M85.192,-147.064C103.2338,-153.0779 127.1004,-161.0335 148.6697,-168.2232"/>
<polygon fill="#191970" stroke="#191970" points="147.7954,-171.6211 158.3891,-171.463 150.0091,-164.9803 147.7954,-171.6211"/>
</g>
<!-- Node91 -->
<g id="node3" class="node">
<title>Node91</title>
<g id="a_node3"><a xlink:href="classplant_1_1Assimilator.html#ab5cf98dde0fb1d49ce4d0f44387b628b" target="_top" xlink:title="plant::Assimilator\l::net_production">
<polygon fill="none" stroke="#000000" points="157.5,-122.5 157.5,-152.5 249.5,-152.5 249.5,-122.5 157.5,-122.5"/>
<text text-anchor="start" x="165.5" y="-140.5" font-family="Helvetica,sans-Serif" font-size="10.00" fill="#000000">plant::Assimilator</text>
<text text-anchor="middle" x="203.5" y="-129.5" font-family="Helvetica,sans-Serif" font-size="10.00" fill="#000000">::net_production</text>
</a>
</g>
</g>
<!-- Node89&#45;&gt;Node91 -->
<g id="edge2" class="edge">
<title>Node89&#45;&gt;Node91</title>
<path fill="none" stroke="#191970" d="M113.334,-137.5C124.4683,-137.5 136.1411,-137.5 147.2559,-137.5"/>
<polygon fill="#191970" stroke="#191970" points="147.2751,-141.0001 157.2751,-137.5 147.2751,-134.0001 147.2751,-141.0001"/>
</g>
<!-- Node106 -->
<g id="node18" class="node">
<title>Node106</title>
<g id="a_node18"><a xlink:href="classplant_1_1PlantGeometry.html#a436490556ceb3fdab0db5b81132a6f3f" target="_top" xlink:title="plant::PlantGeometry\l::dmass_dt_lai">
<polygon fill="none" stroke="#000000" points="149,-73.5 149,-103.5 258,-103.5 258,-73.5 149,-73.5"/>
<text text-anchor="start" x="157" y="-91.5" font-family="Helvetica,sans-Serif" font-size="10.00" fill="#000000">plant::PlantGeometry</text>
<text text-anchor="middle" x="203.5" y="-80.5" font-family="Helvetica,sans-Serif" font-size="10.00" fill="#000000">::dmass_dt_lai</text>
</a>
</g>
</g>
<!-- Node89&#45;&gt;Node106 -->
<g id="edge18" class="edge">
<title>Node89&#45;&gt;Node106</title>
<path fill="none" stroke="#191970" d="M85.192,-127.936C103.2338,-121.9221 127.1004,-113.9665 148.6697,-106.7768"/>
<polygon fill="#191970" stroke="#191970" points="150.0091,-110.0197 158.3891,-103.537 147.7954,-103.3789 150.0091,-110.0197"/>
</g>
<!-- Node92 -->
<g id="node4" class="node">
<title>Node92</title>
<g id="a_node4"><a xlink:href="classplant_1_1Assimilator.html#a95024a28af68fde0b11acef9903aaa9d" target="_top" xlink:title="plant::Assimilator\l::calc_plant_assimilation_rate">
<polygon fill="none" stroke="#000000" points="294,-245.5 294,-275.5 440,-275.5 440,-245.5 294,-245.5"/>
<text text-anchor="start" x="302" y="-263.5" font-family="Helvetica,sans-Serif" font-size="10.00" fill="#000000">plant::Assimilator</text>
<text text-anchor="middle" x="367" y="-252.5" font-family="Helvetica,sans-Serif" font-size="10.00" fill="#000000">::calc_plant_assimilation_rate</text>
</a>
</g>
</g>
<!-- Node91&#45;&gt;Node92 -->
<g id="edge3" class="edge">
<title>Node91&#45;&gt;Node92</title>
<path fill="none" stroke="#191970" d="M244.7935,-152.616C249.5822,-155.4378 254.1292,-158.7161 258,-162.5 284.1538,-188.0667 266.4509,-212.4433 294,-236.5 295.3472,-237.6764 296.7535,-238.7954 298.209,-239.8598"/>
<polygon fill="#191970" stroke="#191970" points="296.6822,-243.0335 307.0143,-245.3782 300.3995,-237.102 296.6822,-243.0335"/>
</g>
<!-- Node97 -->
<g id="node9" class="node">
<title>Node97</title>
<g id="a_node9"><a xlink:href="classplant_1_1Assimilator.html#a680517258b2674fe94fdcba41fdf771e" target="_top" xlink:title="plant::Assimilator\l::leaf_respiration_rate">
<polygon fill="none" stroke="#000000" points="312,-196.5 312,-226.5 422,-226.5 422,-196.5 312,-196.5"/>
<text text-anchor="start" x="320" y="-214.5" font-family="Helvetica,sans-Serif" font-size="10.00" fill="#000000">plant::Assimilator</text>
<text text-anchor="middle" x="367" y="-203.5" font-family="Helvetica,sans-Serif" font-size="10.00" fill="#000000">::leaf_respiration_rate</text>
</a>
</g>
</g>
<!-- Node91&#45;&gt;Node97 -->
<g id="edge8" class="edge">
<title>Node91&#45;&gt;Node97</title>
<path fill="none" stroke="#191970" d="M238.8493,-152.6069C245.3223,-155.6836 251.9423,-159.0434 258,-162.5 274.919,-172.1542 276.5652,-178.8117 294,-187.5 297.5915,-189.2897 301.3467,-190.9902 305.1777,-192.5977"/>
<polygon fill="#191970" stroke="#191970" points="304.2197,-195.9824 314.8063,-196.3999 306.7907,-189.4716 304.2197,-195.9824"/>
</g>
<!-- Node98 -->
<g id="node10" class="node">
<title>Node98</title>
<g id="a_node10"><a xlink:href="classplant_1_1Assimilator.html#ab48c39e03fe75f132440554504c5a1f9" target="_top" xlink:title="plant::Assimilator\l::root_respiration_rate">
<polygon fill="none" stroke="#000000" points="311.5,-147.5 311.5,-177.5 422.5,-177.5 422.5,-147.5 311.5,-147.5"/>
<text text-anchor="start" x="319.5" y="-165.5" font-family="Helvetica,sans-Serif" font-size="10.00" fill="#000000">plant::Assimilator</text>
<text text-anchor="middle" x="367" y="-154.5" font-family="Helvetica,sans-Serif" font-size="10.00" fill="#000000">::root_respiration_rate</text>
</a>
</g>
</g>
<!-- Node91&#45;&gt;Node98 -->
<g id="edge9" class="edge">
<title>Node91&#45;&gt;Node98</title>
<path fill="none" stroke="#191970" d="M249.9152,-144.5971C265.9361,-147.0468 284.1989,-149.8393 301.4577,-152.4782"/>
<polygon fill="#191970" stroke="#191970" points="301.0647,-155.9587 311.4788,-154.0105 302.1228,-149.0392 301.0647,-155.9587"/>
</g>
<!-- Node100 -->
<g id="node12" class="node">
<title>Node100</title>
<g id="a_node12"><a xlink:href="classplant_1_1Assimilator.html#aa6121d1ac17dca9d28e2f0a5719ebf40" target="_top" xlink:title="plant::Assimilator\l::sapwood_respiration_rate">
<polygon fill="none" stroke="#000000" points="300,-49.5 300,-79.5 434,-79.5 434,-49.5 300,-49.5"/>
<text text-anchor="start" x="308" y="-67.5" font-family="Helvetica,sans-Serif" font-size="10.00" fill="#000000">plant::Assimilator</text>
<text text-anchor="middle" x="367" y="-56.5" font-family="Helvetica,sans-Serif" font-size="10.00" fill="#000000">::sapwood_respiration_rate</text>
</a>
</g>
</g>
<!-- Node91&#45;&gt;Node100 -->
<g id="edge11" class="edge">
<title>Node91&#45;&gt;Node100</title>
<path fill="none" stroke="#191970" d="M239.9837,-122.4833C246.0874,-119.674 252.2884,-116.6307 258,-113.5 274.8626,-104.2571 276.7605,-98.0193 294,-89.5 298.3498,-87.3504 302.93,-85.3087 307.5883,-83.3873"/>
<polygon fill="#191970" stroke="#191970" points="309.1774,-86.5238 317.2111,-79.6165 306.6234,-80.0064 309.1774,-86.5238"/>
</g>
<!-- Node103 -->
<g id="node15" class="node">
<title>Node103</title>
<g id="a_node15"><a xlink:href="classplant_1_1Assimilator.html#a620f829f503b9c30129ef26dab988eda" target="_top" xlink:title="plant::Assimilator\l::leaf_turnover_rate">
<polygon fill="none" stroke="#000000" points="316.5,-.5 316.5,-30.5 417.5,-30.5 417.5,-.5 316.5,-.5"/>
<text text-anchor="start" x="324.5" y="-18.5" font-family="Helvetica,sans-Serif" font-size="10.00" fill="#000000">plant::Assimilator</text>
<text text-anchor="middle" x="367" y="-7.5" font-family="Helvetica,sans-Serif" font-size="10.00" fill="#000000">::leaf_turnover_rate</text>
</a>
</g>
</g>
<!-- Node91&#45;&gt;Node103 -->
<g id="edge14" class="edge">
<title>Node91&#45;&gt;Node103</title>
<path fill="none" stroke="#191970" d="M246.164,-122.3685C250.4473,-119.8117 254.4995,-116.8701 258,-113.5 284.3482,-88.1336 266.4509,-63.5567 294,-39.5 297.9191,-36.0777 302.3383,-33.1412 307.0143,-30.6218"/>
<polygon fill="#191970" stroke="#191970" points="308.7001,-33.6968 316.2591,-26.273 305.7204,-27.3626 308.7001,-33.6968"/>
</g>
<!-- Node105 -->
<g id="node17" class="node">
<title>Node105</title>
<g id="a_node17"><a xlink:href="classplant_1_1Assimilator.html#acdbc33099ba37ba301616e1b3ad6d1c4" target="_top" xlink:title="plant::Assimilator\l::root_turnover_rate">
<polygon fill="none" stroke="#000000" points="316.5,-98.5 316.5,-128.5 417.5,-128.5 417.5,-98.5 316.5,-98.5"/>
<text text-anchor="start" x="324.5" y="-116.5" font-family="Helvetica,sans-Serif" font-size="10.00" fill="#000000">plant::Assimilator</text>
<text text-anchor="middle" x="367" y="-105.5" font-family="Helvetica,sans-Serif" font-size="10.00" fill="#000000">::root_turnover_rate</text>
</a>
</g>
</g>
<!-- Node91&#45;&gt;Node105 -->
<g id="edge16" class="edge">
<title>Node91&#45;&gt;Node105</title>
<path fill="none" stroke="#191970" d="M249.9152,-130.6868C267.5211,-128.1024 287.8346,-125.1206 306.5476,-122.3737"/>
<polygon fill="#191970" stroke="#191970" points="307.0714,-125.8345 316.4571,-120.9191 306.0547,-118.9087 307.0714,-125.8345"/>
</g>
<!-- Node93 -->
<g id="node5" class="node">
<title>Node93</title>
<g id="a_node5"><a xlink:href="classplant_1_1PlantGeometry.html#a73eed0a3db55748b6d2615945ec1f08b" target="_top" xlink:title="plant::PlantGeometry\l::crown_area_above">
<polygon fill="none" stroke="#000000" points="480,-257.5 480,-287.5 589,-287.5 589,-257.5 480,-257.5"/>
<text text-anchor="start" x="488" y="-275.5" font-family="Helvetica,sans-Serif" font-size="10.00" fill="#000000">plant::PlantGeometry</text>
<text text-anchor="middle" x="534.5" y="-264.5" font-family="Helvetica,sans-Serif" font-size="10.00" fill="#000000">::crown_area_above</text>
</a>
</g>
</g>
<!-- Node92&#45;&gt;Node93 -->
<g id="edge4" class="edge">
<title>Node92&#45;&gt;Node93</title>
<path fill="none" stroke="#191970" d="M440.4679,-265.7634C450.2153,-266.4617 460.1513,-267.1735 469.737,-267.8603"/>
<polygon fill="#191970" stroke="#191970" points="469.751,-271.3701 479.9756,-268.5938 470.2513,-264.388 469.751,-271.3701"/>
</g>
<!-- Node96 -->
<g id="node8" class="node">
<title>Node96</title>
<g id="a_node8"><a xlink:href="classplant_1_1Assimilator.html#a25e0068c52700ba3d4b0d8e44398aa02" target="_top" xlink:title="plant::Assimilator\l::leaf_assimilation_rate">
<polygon fill="none" stroke="#000000" points="476,-208.5 476,-238.5 593,-238.5 593,-208.5 476,-208.5"/>
<text text-anchor="start" x="484" y="-226.5" font-family="Helvetica,sans-Serif" font-size="10.00" fill="#000000">plant::Assimilator</text>
<text text-anchor="middle" x="534.5" y="-215.5" font-family="Helvetica,sans-Serif" font-size="10.00" fill="#000000">::leaf_assimilation_rate</text>
</a>
</g>
</g>
<!-- Node92&#45;&gt;Node96 -->
<g id="edge7" class="edge">
<title>Node92&#45;&gt;Node96</title>
<path fill="none" stroke="#191970" d="M435.1287,-245.4507C445.2502,-243.2149 455.6873,-240.9094 465.82,-238.6711"/>
<polygon fill="#191970" stroke="#191970" points="466.8188,-242.0349 475.8284,-236.4603 465.3088,-235.1997 466.8188,-242.0349"/>
</g>
<!-- Node94 -->
<g id="node6" class="node">
<title>Node94</title>
<g id="a_node6"><a xlink:href="classplant_1_1PlantGeometry.html#aed573b6d75e2a0adc4ebdeacec3c34e7" target="_top" xlink:title="plant::PlantGeometry::q">
<polygon fill="none" stroke="#000000" points="633,-282 633,-301 753,-301 753,-282 633,-282"/>
<text text-anchor="middle" x="693" y="-289" font-family="Helvetica,sans-Serif" font-size="10.00" fill="#000000">plant::PlantGeometry::q</text>
</a>
</g>
</g>
<!-- Node93&#45;&gt;Node94 -->
<g id="edge5" class="edge">
<title>Node93&#45;&gt;Node94</title>
<path fill="none" stroke="#191970" d="M589.0467,-279.0387C599.8792,-280.3373 611.3958,-281.7178 622.6687,-283.0691"/>
<polygon fill="#191970" stroke="#191970" points="622.5806,-286.5835 632.9261,-284.2987 623.4138,-279.6333 622.5806,-286.5835"/>
</g>
<!-- Node95 -->
<g id="node7" class="node">
<title>Node95</title>
<g id="a_node7"><a xlink:href="classplant_1_1PlantGeometry.html#a538c106c834b386d8dfce3702f42a93d" target="_top" xlink:title="plant::PlantGeometry::zm">
<polygon fill="none" stroke="#000000" points="629,-244 629,-263 757,-263 757,-244 629,-244"/>
<text text-anchor="middle" x="693" y="-251" font-family="Helvetica,sans-Serif" font-size="10.00" fill="#000000">plant::PlantGeometry::zm</text>
</a>
</g>
</g>
<!-- Node93&#45;&gt;Node95 -->
<g id="edge6" class="edge">
<title>Node93&#45;&gt;Node95</title>
<path fill="none" stroke="#191970" d="M589.0467,-265.9613C598.6507,-264.81 608.7925,-263.5943 618.8253,-262.3916"/>
<polygon fill="#191970" stroke="#191970" points="619.2856,-265.8616 628.798,-261.1961 618.4524,-258.9113 619.2856,-265.8616"/>
</g>
<!-- Node99 -->
<g id="node11" class="node">
<title>Node99</title>
<g id="a_node11"><a xlink:href="classplant_1_1PlantGeometry.html#a721712ac253434c4709a4300f3e6396a" target="_top" xlink:title="plant::PlantGeometry\l::root_mass">
<polygon fill="none" stroke="#000000" points="480,-135.5 480,-165.5 589,-165.5 589,-135.5 480,-135.5"/>
<text text-anchor="start" x="488" y="-153.5" font-family="Helvetica,sans-Serif" font-size="10.00" fill="#000000">plant::PlantGeometry</text>
<text text-anchor="middle" x="534.5" y="-142.5" font-family="Helvetica,sans-Serif" font-size="10.00" fill="#000000">::root_mass</text>
</a>
</g>
</g>
<!-- Node98&#45;&gt;Node99 -->
<g id="edge10" class="edge">
<title>Node98&#45;&gt;Node99</title>
<path fill="none" stroke="#191970" d="M422.7751,-158.5042C437.8421,-157.4247 454.2738,-156.2475 469.7856,-155.1363"/>
<polygon fill="#191970" stroke="#191970" points="470.0984,-158.6229 479.8227,-154.4172 469.5981,-151.6408 470.0984,-158.6229"/>
</g>
<!-- Node101 -->
<g id="node13" class="node">
<title>Node101</title>
<g id="a_node13"><a xlink:href="classplant_1_1PlantGeometry.html#aa34014d10ad2f1585b22958a27bee404" target="_top" xlink:title="plant::PlantGeometry\l::sapwood_mass">
<polygon fill="none" stroke="#000000" points="480,-49.5 480,-79.5 589,-79.5 589,-49.5 480,-49.5"/>
<text text-anchor="start" x="488" y="-67.5" font-family="Helvetica,sans-Serif" font-size="10.00" fill="#000000">plant::PlantGeometry</text>
<text text-anchor="middle" x="534.5" y="-56.5" font-family="Helvetica,sans-Serif" font-size="10.00" fill="#000000">::sapwood_mass</text>
</a>
</g>
</g>
<!-- Node100&#45;&gt;Node101 -->
<g id="edge12" class="edge">
<title>Node100&#45;&gt;Node101</title>
<path fill="none" stroke="#191970" d="M434.1635,-64.5C445.9194,-64.5 458.1295,-64.5 469.8165,-64.5"/>
<polygon fill="#191970" stroke="#191970" points="469.9277,-68.0001 479.9276,-64.5 469.9276,-61.0001 469.9277,-68.0001"/>
</g>
<!-- Node102 -->
<g id="node14" class="node">
<title>Node102</title>
<g id="a_node14"><a xlink:href="classplant_1_1PlantGeometry.html#adb7202ef29b176b65c43c5b5d950484d" target="_top" xlink:title="plant::PlantGeometry\l::stem_mass">
<polygon fill="none" stroke="#000000" points="638.5,-49.5 638.5,-79.5 747.5,-79.5 747.5,-49.5 638.5,-49.5"/>
<text text-anchor="start" x="646.5" y="-67.5" font-family="Helvetica,sans-Serif" font-size="10.00" fill="#000000">plant::PlantGeometry</text>
<text text-anchor="middle" x="693" y="-56.5" font-family="Helvetica,sans-Serif" font-size="10.00" fill="#000000">::stem_mass</text>
</a>
</g>
</g>
<!-- Node101&#45;&gt;Node102 -->
<g id="edge13" class="edge">
<title>Node101&#45;&gt;Node102</title>
<path fill="none" stroke="#191970" d="M589.0467,-64.5C601.624,-64.5 615.1235,-64.5 628.0929,-64.5"/>
<polygon fill="#191970" stroke="#191970" points="628.3528,-68.0001 638.3527,-64.5 628.3527,-61.0001 628.3528,-68.0001"/>
</g>
<!-- Node104 -->
<g id="node16" class="node">
<title>Node104</title>
<g id="a_node16"><a xlink:href="classplant_1_1PlantGeometry.html#a9bb344d187b1854c5a1364f6cd585d72" target="_top" xlink:title="plant::PlantGeometry\l::leaf_mass">
<polygon fill="none" stroke="#000000" points="480,-.5 480,-30.5 589,-30.5 589,-.5 480,-.5"/>
<text text-anchor="start" x="488" y="-18.5" font-family="Helvetica,sans-Serif" font-size="10.00" fill="#000000">plant::PlantGeometry</text>
<text text-anchor="middle" x="534.5" y="-7.5" font-family="Helvetica,sans-Serif" font-size="10.00" fill="#000000">::leaf_mass</text>
</a>
</g>
</g>
<!-- Node103&#45;&gt;Node104 -->
<g id="edge15" class="edge">
<title>Node103&#45;&gt;Node104</title>
<path fill="none" stroke="#191970" d="M417.7101,-15.5C434.1302,-15.5 452.5684,-15.5 469.8587,-15.5"/>
<polygon fill="#191970" stroke="#191970" points="469.8824,-19.0001 479.8824,-15.5 469.8824,-12.0001 469.8824,-19.0001"/>
</g>
<!-- Node105&#45;&gt;Node99 -->
<g id="edge17" class="edge">
<title>Node105&#45;&gt;Node99</title>
<path fill="none" stroke="#191970" d="M417.7101,-124.7016C434.1302,-128.3288 452.5684,-132.4017 469.8587,-136.221"/>
<polygon fill="#191970" stroke="#191970" points="469.3628,-139.6958 479.8824,-138.4352 470.8727,-132.8606 469.3628,-139.6958"/>
</g>
</g>
</svg>
