<?xml version="1.0" encoding="UTF-8" standalone="no"?>
<!DOCTYPE svg PUBLIC "-//W3C//DTD SVG 1.1//EN"
 "http://www.w3.org/Graphics/SVG/1.1/DTD/svg11.dtd">
<!-- Generated by graphviz version 2.40.1 (20161225.0304)
 -->
<!-- Title: plant::PlantGeometry::crown_area_extent_projected Pages: 1 -->
<svg width="322pt" height="66pt"
 viewBox="0.00 0.00 322.00 66.00" xmlns="http://www.w3.org/2000/svg" xmlns:xlink="http://www.w3.org/1999/xlink">
<g id="graph0" class="graph" transform="scale(1 1) rotate(0) translate(4 62)">
<title>plant::PlantGeometry::crown_area_extent_projected</title>
<!-- Node16 -->
<g id="node1" class="node">
<title>Node16</title>
<polygon fill="#bfbfbf" stroke="#000000" points="0,-14 0,-44 150,-44 150,-14 0,-14"/>
<text text-anchor="start" x="8" y="-32" font-family="Helvetica,sans-Serif" font-size="10.00" fill="#000000">plant::PlantGeometry</text>
<text text-anchor="middle" x="75" y="-21" font-family="Helvetica,sans-Serif" font-size="10.00" fill="#000000">::crown_area_extent_projected</text>
</g>
<!-- Node17 -->
<g id="node2" class="node">
<title>Node17</title>
<g id="a_node2"><a xlink:href="classplant_1_1PlantGeometry.html#a538c106c834b386d8dfce3702f42a93d" target="_top" xlink:title="plant::PlantGeometry::zm">
<polygon fill="none" stroke="#000000" points="186,-38.5 186,-57.5 314,-57.5 314,-38.5 186,-38.5"/>
<text text-anchor="middle" x="250" y="-45.5" font-family="Helvetica,sans-Serif" font-size="10.00" fill="#000000">plant::PlantGeometry::zm</text>
</a>
</g>
</g>
<!-- Node16&#45;&gt;Node17 -->
<g id="edge1" class="edge">
<title>Node16&#45;&gt;Node17</title>
<path fill="none" stroke="#191970" d="M150.2314,-37.168C158.6615,-38.0832 167.2466,-39.0153 175.6653,-39.9294"/>
<polygon fill="#191970" stroke="#191970" points="175.5108,-43.4331 185.8302,-41.033 176.2664,-36.474 175.5108,-43.4331"/>
</g>
<!-- Node18 -->
<g id="node3" class="node">
<title>Node18</title>
<g id="a_node3"><a xlink:href="classplant_1_1PlantGeometry.html#aed573b6d75e2a0adc4ebdeacec3c34e7" target="_top" xlink:title="plant::PlantGeometry::q">
<polygon fill="none" stroke="#000000" points="190,-.5 190,-19.5 310,-19.5 310,-.5 190,-.5"/>
<text text-anchor="middle" x="250" y="-7.5" font-family="Helvetica,sans-Serif" font-size="10.00" fill="#000000">plant::PlantGeometry::q</text>
</a>
</g>
</g>
<!-- Node16&#45;&gt;Node18 -->
<g id="edge2" class="edge">
<title>Node16&#45;&gt;Node18</title>
<path fill="none" stroke="#191970" d="M150.2314,-20.832C160.0634,-19.7645 170.1062,-18.6742 179.85,-17.6163"/>
<polygon fill="#191970" stroke="#191970" points="180.3107,-21.0869 189.8744,-16.5279 179.555,-14.1278 180.3107,-21.0869"/>
</g>
</g>
</svg>
