<?xml version="1.0" encoding="UTF-8" standalone="no"?>
<!DOCTYPE svg PUBLIC "-//W3C//DTD SVG 1.1//EN"
 "http://www.w3.org/Graphics/SVG/1.1/DTD/svg11.dtd">
<!-- Generated by graphviz version 2.40.1 (20161225.0304)
 -->
<!-- Title: plant::PlantGeometry::init Pages: 1 -->
<svg width="425pt" height="39pt"
 viewBox="0.00 0.00 425.00 39.00" xmlns="http://www.w3.org/2000/svg" xmlns:xlink="http://www.w3.org/1999/xlink">
<g id="graph0" class="graph" transform="scale(1 1) rotate(0) translate(4 35)">
<title>plant::PlantGeometry::init</title>
<!-- Node64 -->
<g id="node1" class="node">
<title>Node64</title>
<polygon fill="#bfbfbf" stroke="#000000" points="0,-.5 0,-30.5 109,-30.5 109,-.5 0,-.5"/>
<text text-anchor="start" x="8" y="-18.5" font-family="Helvetica,sans-Serif" font-size="10.00" fill="#000000">plant::PlantGeometry</text>
<text text-anchor="middle" x="54.5" y="-7.5" font-family="Helvetica,sans-Serif" font-size="10.00" fill="#000000">::init</text>
</g>
<!-- Node65 -->
<g id="node2" class="node">
<title>Node65</title>
<g id="a_node2"><a xlink:href="classplant_1_1Plant.html#aef656755f62f6ba9ea17a9b304eca104" target="_top" xlink:title="plant::Plant::coordinate\lTraits">
<polygon fill="none" stroke="#000000" points="145,-.5 145,-30.5 262,-30.5 262,-.5 145,-.5"/>
<text text-anchor="start" x="153" y="-18.5" font-family="Helvetica,sans-Serif" font-size="10.00" fill="#000000">plant::Plant::coordinate</text>
<text text-anchor="middle" x="203.5" y="-7.5" font-family="Helvetica,sans-Serif" font-size="10.00" fill="#000000">Traits</text>
</a>
</g>
</g>
<!-- Node64&#45;&gt;Node65 -->
<g id="edge1" class="edge">
<title>Node64&#45;&gt;Node65</title>
<path fill="none" stroke="#191970" d="M119.3639,-15.5C127.8425,-15.5 136.4905,-15.5 144.8585,-15.5"/>
<polygon fill="#191970" stroke="#191970" points="119.1361,-12.0001 109.136,-15.5 119.136,-19.0001 119.1361,-12.0001"/>
</g>
<!-- Node66 -->
<g id="node3" class="node">
<title>Node66</title>
<g id="a_node3"><a xlink:href="classplant_1_1Plant.html#ad0ad8df9b05a798faaee3f1b3aec2230" target="_top" xlink:title="plant::Plant::initParams\lFromFile">
<polygon fill="none" stroke="#000000" points="298,-.5 298,-30.5 417,-30.5 417,-.5 298,-.5"/>
<text text-anchor="start" x="306" y="-18.5" font-family="Helvetica,sans-Serif" font-size="10.00" fill="#000000">plant::Plant::initParams</text>
<text text-anchor="middle" x="357.5" y="-7.5" font-family="Helvetica,sans-Serif" font-size="10.00" fill="#000000">FromFile</text>
</a>
</g>
</g>
<!-- Node65&#45;&gt;Node66 -->
<g id="edge2" class="edge">
<title>Node65&#45;&gt;Node66</title>
<path fill="none" stroke="#191970" d="M272.1743,-15.5C280.7821,-15.5 289.5304,-15.5 297.982,-15.5"/>
<polygon fill="#191970" stroke="#191970" points="272.1601,-12.0001 262.1601,-15.5 272.1601,-19.0001 272.1601,-12.0001"/>
</g>
</g>
</svg>
