<?xml version="1.0" encoding="UTF-8" standalone="no"?>
<!DOCTYPE svg PUBLIC "-//W3C//DTD SVG 1.1//EN"
 "http://www.w3.org/Graphics/SVG/1.1/DTD/svg11.dtd">
<!-- Generated by graphviz version 2.40.1 (20161225.0304)
 -->
<!-- Title: plant::Assimilator::net_production Pages: 1 -->
<svg width="599pt" height="310pt"
 viewBox="0.00 0.00 599.00 309.50" xmlns="http://www.w3.org/2000/svg" xmlns:xlink="http://www.w3.org/1999/xlink">
<g id="graph0" class="graph" transform="scale(1 1) rotate(0) translate(4 305.5)">
<title>plant::Assimilator::net_production</title>
<!-- Node46 -->
<g id="node1" class="node">
<title>Node46</title>
<polygon fill="#bfbfbf" stroke="#000000" points="0,-122.5 0,-152.5 92,-152.5 92,-122.5 0,-122.5"/>
<text text-anchor="start" x="8" y="-140.5" font-family="Helvetica,sans-Serif" font-size="10.00" fill="#000000">plant::Assimilator</text>
<text text-anchor="middle" x="46" y="-129.5" font-family="Helvetica,sans-Serif" font-size="10.00" fill="#000000">::net_production</text>
</g>
<!-- Node47 -->
<g id="node2" class="node">
<title>Node47</title>
<g id="a_node2"><a xlink:href="classplant_1_1Assimilator.html#a95024a28af68fde0b11acef9903aaa9d" target="_top" xlink:title="plant::Assimilator\l::calc_plant_assimilation_rate">
<polygon fill="none" stroke="#000000" points="128,-245.5 128,-275.5 274,-275.5 274,-245.5 128,-245.5"/>
<text text-anchor="start" x="136" y="-263.5" font-family="Helvetica,sans-Serif" font-size="10.00" fill="#000000">plant::Assimilator</text>
<text text-anchor="middle" x="201" y="-252.5" font-family="Helvetica,sans-Serif" font-size="10.00" fill="#000000">::calc_plant_assimilation_rate</text>
</a>
</g>
</g>
<!-- Node46&#45;&gt;Node47 -->
<g id="edge1" class="edge">
<title>Node46&#45;&gt;Node47</title>
<path fill="none" stroke="#191970" d="M54.6138,-152.5125C67.7522,-174.1208 94.8072,-213.8724 128,-236.5 130.2477,-238.0323 132.6005,-239.4727 135.0273,-240.8262"/>
<polygon fill="#191970" stroke="#191970" points="133.574,-244.0127 144.0834,-245.3557 136.7053,-237.7521 133.574,-244.0127"/>
</g>
<!-- Node52 -->
<g id="node7" class="node">
<title>Node52</title>
<g id="a_node7"><a xlink:href="classplant_1_1Assimilator.html#a680517258b2674fe94fdcba41fdf771e" target="_top" xlink:title="plant::Assimilator\l::leaf_respiration_rate">
<polygon fill="none" stroke="#000000" points="146,-196.5 146,-226.5 256,-226.5 256,-196.5 146,-196.5"/>
<text text-anchor="start" x="154" y="-214.5" font-family="Helvetica,sans-Serif" font-size="10.00" fill="#000000">plant::Assimilator</text>
<text text-anchor="middle" x="201" y="-203.5" font-family="Helvetica,sans-Serif" font-size="10.00" fill="#000000">::leaf_respiration_rate</text>
</a>
</g>
</g>
<!-- Node46&#45;&gt;Node52 -->
<g id="edge6" class="edge">
<title>Node46&#45;&gt;Node52</title>
<path fill="none" stroke="#191970" d="M67.5122,-152.5096C83.6257,-163.2756 106.5042,-177.5739 128,-187.5 132.0613,-189.3754 136.3111,-191.1712 140.6303,-192.8762"/>
<polygon fill="#191970" stroke="#191970" points="139.5586,-196.2125 150.1506,-196.4592 142.0243,-189.6611 139.5586,-196.2125"/>
</g>
<!-- Node53 -->
<g id="node8" class="node">
<title>Node53</title>
<g id="a_node8"><a xlink:href="classplant_1_1Assimilator.html#ab48c39e03fe75f132440554504c5a1f9" target="_top" xlink:title="plant::Assimilator\l::root_respiration_rate">
<polygon fill="none" stroke="#000000" points="145.5,-147.5 145.5,-177.5 256.5,-177.5 256.5,-147.5 145.5,-147.5"/>
<text text-anchor="start" x="153.5" y="-165.5" font-family="Helvetica,sans-Serif" font-size="10.00" fill="#000000">plant::Assimilator</text>
<text text-anchor="middle" x="201" y="-154.5" font-family="Helvetica,sans-Serif" font-size="10.00" fill="#000000">::root_respiration_rate</text>
</a>
</g>
</g>
<!-- Node46&#45;&gt;Node53 -->
<g id="edge7" class="edge">
<title>Node46&#45;&gt;Node53</title>
<path fill="none" stroke="#191970" d="M92.0854,-144.9331C105.644,-147.12 120.7468,-149.5559 135.2832,-151.9005"/>
<polygon fill="#191970" stroke="#191970" points="134.8007,-155.3679 145.2305,-153.5049 135.9154,-148.4572 134.8007,-155.3679"/>
</g>
<!-- Node55 -->
<g id="node10" class="node">
<title>Node55</title>
<g id="a_node10"><a xlink:href="classplant_1_1Assimilator.html#aa6121d1ac17dca9d28e2f0a5719ebf40" target="_top" xlink:title="plant::Assimilator\l::sapwood_respiration_rate">
<polygon fill="none" stroke="#000000" points="134,-49.5 134,-79.5 268,-79.5 268,-49.5 134,-49.5"/>
<text text-anchor="start" x="142" y="-67.5" font-family="Helvetica,sans-Serif" font-size="10.00" fill="#000000">plant::Assimilator</text>
<text text-anchor="middle" x="201" y="-56.5" font-family="Helvetica,sans-Serif" font-size="10.00" fill="#000000">::sapwood_respiration_rate</text>
</a>
</g>
</g>
<!-- Node46&#45;&gt;Node55 -->
<g id="edge9" class="edge">
<title>Node46&#45;&gt;Node55</title>
<path fill="none" stroke="#191970" d="M69.0149,-122.3524C85.0944,-112.1922 107.3059,-98.9849 128,-89.5 132.8712,-87.2673 138.0024,-85.122 143.1934,-83.0913"/>
<polygon fill="#191970" stroke="#191970" points="144.4329,-86.3645 152.5585,-79.5655 141.9665,-79.8134 144.4329,-86.3645"/>
</g>
<!-- Node58 -->
<g id="node13" class="node">
<title>Node58</title>
<g id="a_node13"><a xlink:href="classplant_1_1Assimilator.html#a620f829f503b9c30129ef26dab988eda" target="_top" xlink:title="plant::Assimilator\l::leaf_turnover_rate">
<polygon fill="none" stroke="#000000" points="150.5,-.5 150.5,-30.5 251.5,-30.5 251.5,-.5 150.5,-.5"/>
<text text-anchor="start" x="158.5" y="-18.5" font-family="Helvetica,sans-Serif" font-size="10.00" fill="#000000">plant::Assimilator</text>
<text text-anchor="middle" x="201" y="-7.5" font-family="Helvetica,sans-Serif" font-size="10.00" fill="#000000">::leaf_turnover_rate</text>
</a>
</g>
</g>
<!-- Node46&#45;&gt;Node58 -->
<g id="edge12" class="edge">
<title>Node46&#45;&gt;Node58</title>
<path fill="none" stroke="#191970" d="M54.8725,-122.2839C68.1382,-100.8189 95.1333,-61.7854 128,-39.5 131.9993,-36.7883 136.3281,-34.3635 140.8132,-32.1987"/>
<polygon fill="#191970" stroke="#191970" points="142.4167,-35.3178 150.1834,-28.1117 139.6181,-28.9016 142.4167,-35.3178"/>
</g>
<!-- Node60 -->
<g id="node15" class="node">
<title>Node60</title>
<g id="a_node15"><a xlink:href="classplant_1_1Assimilator.html#acdbc33099ba37ba301616e1b3ad6d1c4" target="_top" xlink:title="plant::Assimilator\l::root_turnover_rate">
<polygon fill="none" stroke="#000000" points="150.5,-98.5 150.5,-128.5 251.5,-128.5 251.5,-98.5 150.5,-98.5"/>
<text text-anchor="start" x="158.5" y="-116.5" font-family="Helvetica,sans-Serif" font-size="10.00" fill="#000000">plant::Assimilator</text>
<text text-anchor="middle" x="201" y="-105.5" font-family="Helvetica,sans-Serif" font-size="10.00" fill="#000000">::root_turnover_rate</text>
</a>
</g>
</g>
<!-- Node46&#45;&gt;Node60 -->
<g id="edge14" class="edge">
<title>Node46&#45;&gt;Node60</title>
<path fill="none" stroke="#191970" d="M92.0854,-130.3642C107.1653,-128.0293 124.1552,-125.3986 140.1517,-122.9217"/>
<polygon fill="#191970" stroke="#191970" points="141.1435,-126.3099 150.4901,-121.3209 140.0723,-119.3923 141.1435,-126.3099"/>
</g>
<!-- Node48 -->
<g id="node3" class="node">
<title>Node48</title>
<g id="a_node3"><a xlink:href="classplant_1_1PlantGeometry.html#a73eed0a3db55748b6d2615945ec1f08b" target="_top" xlink:title="plant::PlantGeometry\l::crown_area_above">
<polygon fill="none" stroke="#000000" points="314,-257.5 314,-287.5 423,-287.5 423,-257.5 314,-257.5"/>
<text text-anchor="start" x="322" y="-275.5" font-family="Helvetica,sans-Serif" font-size="10.00" fill="#000000">plant::PlantGeometry</text>
<text text-anchor="middle" x="368.5" y="-264.5" font-family="Helvetica,sans-Serif" font-size="10.00" fill="#000000">::crown_area_above</text>
</a>
</g>
</g>
<!-- Node47&#45;&gt;Node48 -->
<g id="edge2" class="edge">
<title>Node47&#45;&gt;Node48</title>
<path fill="none" stroke="#191970" d="M274.4679,-265.7634C284.2153,-266.4617 294.1513,-267.1735 303.737,-267.8603"/>
<polygon fill="#191970" stroke="#191970" points="303.751,-271.3701 313.9756,-268.5938 304.2513,-264.388 303.751,-271.3701"/>
</g>
<!-- Node51 -->
<g id="node6" class="node">
<title>Node51</title>
<g id="a_node6"><a xlink:href="classplant_1_1Assimilator.html#a25e0068c52700ba3d4b0d8e44398aa02" target="_top" xlink:title="plant::Assimilator\l::leaf_assimilation_rate">
<polygon fill="none" stroke="#000000" points="310,-208.5 310,-238.5 427,-238.5 427,-208.5 310,-208.5"/>
<text text-anchor="start" x="318" y="-226.5" font-family="Helvetica,sans-Serif" font-size="10.00" fill="#000000">plant::Assimilator</text>
<text text-anchor="middle" x="368.5" y="-215.5" font-family="Helvetica,sans-Serif" font-size="10.00" fill="#000000">::leaf_assimilation_rate</text>
</a>
</g>
</g>
<!-- Node47&#45;&gt;Node51 -->
<g id="edge5" class="edge">
<title>Node47&#45;&gt;Node51</title>
<path fill="none" stroke="#191970" d="M269.1287,-245.4507C279.2502,-243.2149 289.6873,-240.9094 299.82,-238.6711"/>
<polygon fill="#191970" stroke="#191970" points="300.8188,-242.0349 309.8284,-236.4603 299.3088,-235.1997 300.8188,-242.0349"/>
</g>
<!-- Node49 -->
<g id="node4" class="node">
<title>Node49</title>
<g id="a_node4"><a xlink:href="classplant_1_1PlantGeometry.html#aed573b6d75e2a0adc4ebdeacec3c34e7" target="_top" xlink:title="plant::PlantGeometry::q">
<polygon fill="none" stroke="#000000" points="467,-282 467,-301 587,-301 587,-282 467,-282"/>
<text text-anchor="middle" x="527" y="-289" font-family="Helvetica,sans-Serif" font-size="10.00" fill="#000000">plant::PlantGeometry::q</text>
</a>
</g>
</g>
<!-- Node48&#45;&gt;Node49 -->
<g id="edge3" class="edge">
<title>Node48&#45;&gt;Node49</title>
<path fill="none" stroke="#191970" d="M423.0467,-279.0387C433.8792,-280.3373 445.3958,-281.7178 456.6687,-283.0691"/>
<polygon fill="#191970" stroke="#191970" points="456.5806,-286.5835 466.9261,-284.2987 457.4138,-279.6333 456.5806,-286.5835"/>
</g>
<!-- Node50 -->
<g id="node5" class="node">
<title>Node50</title>
<g id="a_node5"><a xlink:href="classplant_1_1PlantGeometry.html#a538c106c834b386d8dfce3702f42a93d" target="_top" xlink:title="plant::PlantGeometry::zm">
<polygon fill="none" stroke="#000000" points="463,-244 463,-263 591,-263 591,-244 463,-244"/>
<text text-anchor="middle" x="527" y="-251" font-family="Helvetica,sans-Serif" font-size="10.00" fill="#000000">plant::PlantGeometry::zm</text>
</a>
</g>
</g>
<!-- Node48&#45;&gt;Node50 -->
<g id="edge4" class="edge">
<title>Node48&#45;&gt;Node50</title>
<path fill="none" stroke="#191970" d="M423.0467,-265.9613C432.6507,-264.81 442.7925,-263.5943 452.8253,-262.3916"/>
<polygon fill="#191970" stroke="#191970" points="453.2856,-265.8616 462.798,-261.1961 452.4524,-258.9113 453.2856,-265.8616"/>
</g>
<!-- Node54 -->
<g id="node9" class="node">
<title>Node54</title>
<g id="a_node9"><a xlink:href="classplant_1_1PlantGeometry.html#a721712ac253434c4709a4300f3e6396a" target="_top" xlink:title="plant::PlantGeometry\l::root_mass">
<polygon fill="none" stroke="#000000" points="314,-135.5 314,-165.5 423,-165.5 423,-135.5 314,-135.5"/>
<text text-anchor="start" x="322" y="-153.5" font-family="Helvetica,sans-Serif" font-size="10.00" fill="#000000">plant::PlantGeometry</text>
<text text-anchor="middle" x="368.5" y="-142.5" font-family="Helvetica,sans-Serif" font-size="10.00" fill="#000000">::root_mass</text>
</a>
</g>
</g>
<!-- Node53&#45;&gt;Node54 -->
<g id="edge8" class="edge">
<title>Node53&#45;&gt;Node54</title>
<path fill="none" stroke="#191970" d="M256.7751,-158.5042C271.8421,-157.4247 288.2738,-156.2475 303.7856,-155.1363"/>
<polygon fill="#191970" stroke="#191970" points="304.0984,-158.6229 313.8227,-154.4172 303.5981,-151.6408 304.0984,-158.6229"/>
</g>
<!-- Node56 -->
<g id="node11" class="node">
<title>Node56</title>
<g id="a_node11"><a xlink:href="classplant_1_1PlantGeometry.html#aa34014d10ad2f1585b22958a27bee404" target="_top" xlink:title="plant::PlantGeometry\l::sapwood_mass">
<polygon fill="none" stroke="#000000" points="314,-49.5 314,-79.5 423,-79.5 423,-49.5 314,-49.5"/>
<text text-anchor="start" x="322" y="-67.5" font-family="Helvetica,sans-Serif" font-size="10.00" fill="#000000">plant::PlantGeometry</text>
<text text-anchor="middle" x="368.5" y="-56.5" font-family="Helvetica,sans-Serif" font-size="10.00" fill="#000000">::sapwood_mass</text>
</a>
</g>
</g>
<!-- Node55&#45;&gt;Node56 -->
<g id="edge10" class="edge">
<title>Node55&#45;&gt;Node56</title>
<path fill="none" stroke="#191970" d="M268.1635,-64.5C279.9194,-64.5 292.1295,-64.5 303.8165,-64.5"/>
<polygon fill="#191970" stroke="#191970" points="303.9277,-68.0001 313.9276,-64.5 303.9276,-61.0001 303.9277,-68.0001"/>
</g>
<!-- Node57 -->
<g id="node12" class="node">
<title>Node57</title>
<g id="a_node12"><a xlink:href="classplant_1_1PlantGeometry.html#adb7202ef29b176b65c43c5b5d950484d" target="_top" xlink:title="plant::PlantGeometry\l::stem_mass">
<polygon fill="none" stroke="#000000" points="472.5,-49.5 472.5,-79.5 581.5,-79.5 581.5,-49.5 472.5,-49.5"/>
<text text-anchor="start" x="480.5" y="-67.5" font-family="Helvetica,sans-Serif" font-size="10.00" fill="#000000">plant::PlantGeometry</text>
<text text-anchor="middle" x="527" y="-56.5" font-family="Helvetica,sans-Serif" font-size="10.00" fill="#000000">::stem_mass</text>
</a>
</g>
</g>
<!-- Node56&#45;&gt;Node57 -->
<g id="edge11" class="edge">
<title>Node56&#45;&gt;Node57</title>
<path fill="none" stroke="#191970" d="M423.0467,-64.5C435.624,-64.5 449.1235,-64.5 462.0929,-64.5"/>
<polygon fill="#191970" stroke="#191970" points="462.3528,-68.0001 472.3527,-64.5 462.3527,-61.0001 462.3528,-68.0001"/>
</g>
<!-- Node59 -->
<g id="node14" class="node">
<title>Node59</title>
<g id="a_node14"><a xlink:href="classplant_1_1PlantGeometry.html#a9bb344d187b1854c5a1364f6cd585d72" target="_top" xlink:title="plant::PlantGeometry\l::leaf_mass">
<polygon fill="none" stroke="#000000" points="314,-.5 314,-30.5 423,-30.5 423,-.5 314,-.5"/>
<text text-anchor="start" x="322" y="-18.5" font-family="Helvetica,sans-Serif" font-size="10.00" fill="#000000">plant::PlantGeometry</text>
<text text-anchor="middle" x="368.5" y="-7.5" font-family="Helvetica,sans-Serif" font-size="10.00" fill="#000000">::leaf_mass</text>
</a>
</g>
</g>
<!-- Node58&#45;&gt;Node59 -->
<g id="edge13" class="edge">
<title>Node58&#45;&gt;Node59</title>
<path fill="none" stroke="#191970" d="M251.7101,-15.5C268.1302,-15.5 286.5684,-15.5 303.8587,-15.5"/>
<polygon fill="#191970" stroke="#191970" points="303.8824,-19.0001 313.8824,-15.5 303.8824,-12.0001 303.8824,-19.0001"/>
</g>
<!-- Node60&#45;&gt;Node54 -->
<g id="edge15" class="edge">
<title>Node60&#45;&gt;Node54</title>
<path fill="none" stroke="#191970" d="M251.7101,-124.7016C268.1302,-128.3288 286.5684,-132.4017 303.8587,-136.221"/>
<polygon fill="#191970" stroke="#191970" points="303.3628,-139.6958 313.8824,-138.4352 304.8727,-132.8606 303.3628,-139.6958"/>
</g>
</g>
</svg>
