<?xml version="1.0" encoding="UTF-8" standalone="no"?>
<!DOCTYPE svg PUBLIC "-//W3C//DTD SVG 1.1//EN"
 "http://www.w3.org/Graphics/SVG/1.1/DTD/svg11.dtd">
<!-- Generated by graphviz version 2.40.1 (20161225.0304)
 -->
<!-- Title: io::Initializer::readFile Pages: 1 -->
<svg width="425pt" height="88pt"
 viewBox="0.00 0.00 425.00 88.00" xmlns="http://www.w3.org/2000/svg" xmlns:xlink="http://www.w3.org/1999/xlink">
<g id="graph0" class="graph" transform="scale(1 1) rotate(0) translate(4 84)">
<title>io::Initializer::readFile</title>
<!-- Node18 -->
<g id="node1" class="node">
<title>Node18</title>
<polygon fill="#bfbfbf" stroke="#000000" points="0,-30 0,-49 110,-49 110,-30 0,-30"/>
<text text-anchor="middle" x="55" y="-37" font-family="Helvetica,sans-Serif" font-size="10.00" fill="#000000">io::Initializer::readFile</text>
</g>
<!-- Node19 -->
<g id="node2" class="node">
<title>Node19</title>
<g id="a_node2"><a xlink:href="classplant_1_1PlantTraits.html#a9b4568e865eeba7ed29f0cfa06d81d43" target="_top" xlink:title="plant::PlantTraits\l::initFromFile">
<polygon fill="none" stroke="#000000" points="158.5,-49.5 158.5,-79.5 249.5,-79.5 249.5,-49.5 158.5,-49.5"/>
<text text-anchor="start" x="166.5" y="-67.5" font-family="Helvetica,sans-Serif" font-size="10.00" fill="#000000">plant::PlantTraits</text>
<text text-anchor="middle" x="204" y="-56.5" font-family="Helvetica,sans-Serif" font-size="10.00" fill="#000000">::initFromFile</text>
</a>
</g>
</g>
<!-- Node18&#45;&gt;Node19 -->
<g id="edge1" class="edge">
<title>Node18&#45;&gt;Node19</title>
<path fill="none" stroke="#191970" d="M120.271,-50.4515C133.1419,-52.6111 146.3861,-54.8332 158.4347,-56.8548"/>
<polygon fill="#191970" stroke="#191970" points="120.5001,-46.9411 110.0588,-48.738 119.3417,-53.8446 120.5001,-46.9411"/>
</g>
<!-- Node21 -->
<g id="node4" class="node">
<title>Node21</title>
<g id="a_node4"><a xlink:href="classplant_1_1PlantParameters.html#a80569bfa425831d8f3f89a134c958f0d" target="_top" xlink:title="plant::PlantParameters\l::initFromFile">
<polygon fill="none" stroke="#000000" points="146,-.5 146,-30.5 262,-30.5 262,-.5 146,-.5"/>
<text text-anchor="start" x="154" y="-18.5" font-family="Helvetica,sans-Serif" font-size="10.00" fill="#000000">plant::PlantParameters</text>
<text text-anchor="middle" x="204" y="-7.5" font-family="Helvetica,sans-Serif" font-size="10.00" fill="#000000">::initFromFile</text>
</a>
</g>
</g>
<!-- Node18&#45;&gt;Node21 -->
<g id="edge3" class="edge">
<title>Node18&#45;&gt;Node21</title>
<path fill="none" stroke="#191970" d="M120.056,-29.0212C128.663,-27.6348 137.4409,-26.2209 145.9202,-24.8551"/>
<polygon fill="#191970" stroke="#191970" points="119.3749,-25.5857 110.0588,-30.6315 120.4881,-32.4966 119.3749,-25.5857"/>
</g>
<!-- Node20 -->
<g id="node3" class="node">
<title>Node20</title>
<g id="a_node3"><a xlink:href="classplant_1_1Plant.html#ad0ad8df9b05a798faaee3f1b3aec2230" target="_top" xlink:title="plant::Plant::initParams\lFromFile">
<polygon fill="none" stroke="#000000" points="298,-24.5 298,-54.5 417,-54.5 417,-24.5 298,-24.5"/>
<text text-anchor="start" x="306" y="-42.5" font-family="Helvetica,sans-Serif" font-size="10.00" fill="#000000">plant::Plant::initParams</text>
<text text-anchor="middle" x="357.5" y="-31.5" font-family="Helvetica,sans-Serif" font-size="10.00" fill="#000000">FromFile</text>
</a>
</g>
</g>
<!-- Node19&#45;&gt;Node20 -->
<g id="edge2" class="edge">
<title>Node19&#45;&gt;Node20</title>
<path fill="none" stroke="#191970" d="M259.8036,-55.4115C272.1605,-53.3989 285.3019,-51.2586 297.807,-49.222"/>
<polygon fill="#191970" stroke="#191970" points="258.9468,-52.0048 249.6395,-57.0669 260.0721,-58.9138 258.9468,-52.0048"/>
</g>
<!-- Node21&#45;&gt;Node20 -->
<g id="edge4" class="edge">
<title>Node21&#45;&gt;Node20</title>
<path fill="none" stroke="#191970" d="M272.038,-26.1379C280.6421,-27.4831 289.3942,-28.8515 297.8542,-30.1743"/>
<polygon fill="#191970" stroke="#191970" points="272.4524,-22.6602 262.0318,-24.5734 271.371,-29.5762 272.4524,-22.6602"/>
</g>
</g>
</svg>
