<?xml version="1.0" encoding="UTF-8" standalone="no"?>
<!DOCTYPE svg PUBLIC "-//W3C//DTD SVG 1.1//EN"
 "http://www.w3.org/Graphics/SVG/1.1/DTD/svg11.dtd">
<!-- Generated by graphviz version 2.40.1 (20161225.0304)
 -->
<!-- Title: io::Initializer Pages: 1 -->
<svg width="858pt" height="251pt"
 viewBox="0.00 0.00 858.00 251.00" xmlns="http://www.w3.org/2000/svg" xmlns:xlink="http://www.w3.org/1999/xlink">
<g id="graph0" class="graph" transform="scale(1 1) rotate(0) translate(4 247)">
<title>io::Initializer</title>
<!-- Node1 -->
<g id="node1" class="node">
<title>Node1</title>
<polygon fill="#bfbfbf" stroke="#000000" points="781,-107 781,-126 850,-126 850,-107 781,-107"/>
<text text-anchor="middle" x="815.5" y="-114" font-family="Helvetica,sans-Serif" font-size="10.00" fill="#000000">io::Initializer</text>
</g>
<!-- Node2 -->
<g id="node2" class="node">
<title>Node2</title>
<g id="a_node2"><a xlink:title="STL class. ">
<polygon fill="none" stroke="#bfbfbf" points="613.5,-204 613.5,-223 684.5,-223 684.5,-204 613.5,-204"/>
<text text-anchor="middle" x="649" y="-211" font-family="Helvetica,sans-Serif" font-size="10.00" fill="#000000">std::ifstream</text>
</a>
</g>
</g>
<!-- Node2&#45;&gt;Node1 -->
<g id="edge1" class="edge">
<title>Node2&#45;&gt;Node1</title>
<path fill="none" stroke="#9a32cd" stroke-dasharray="5,2" d="M681.7852,-199.8988C691.023,-195.822 701.0032,-191.1832 710,-186.5 734.4073,-173.795 740.0573,-169.6911 763,-154.5 776.8846,-145.3065 792.2621,-134.0423 802.7658,-126.1744"/>
<polygon fill="#9a32cd" stroke="#9a32cd" points="680.2837,-196.7349 672.4994,-203.922 683.0667,-203.1579 680.2837,-196.7349"/>
<text text-anchor="middle" x="745.5" y="-178.5" font-family="Helvetica,sans-Serif" font-size="10.00" fill="#000000"> fin</text>
</g>
<!-- Node3 -->
<g id="node3" class="node">
<title>Node3</title>
<g id="a_node3"><a xlink:title="STL class. ">
<polygon fill="none" stroke="#bfbfbf" points="404,-212.5 404,-242.5 504,-242.5 504,-212.5 404,-212.5"/>
<text text-anchor="start" x="412" y="-230.5" font-family="Helvetica,sans-Serif" font-size="10.00" fill="#000000">std::basic_ifstream</text>
<text text-anchor="middle" x="454" y="-219.5" font-family="Helvetica,sans-Serif" font-size="10.00" fill="#000000">&lt; char &gt;</text>
</a>
</g>
</g>
<!-- Node3&#45;&gt;Node2 -->
<g id="edge2" class="edge">
<title>Node3&#45;&gt;Node2</title>
<path fill="none" stroke="#191970" d="M514.5051,-223.156C546.955,-220.8263 585.8243,-218.0357 613.413,-216.055"/>
<polygon fill="#191970" stroke="#191970" points="513.941,-219.6874 504.2173,-223.8947 514.4423,-226.6695 513.941,-219.6874"/>
</g>
<!-- Node4 -->
<g id="node4" class="node">
<title>Node4</title>
<g id="a_node4"><a xlink:title="STL class. ">
<polygon fill="none" stroke="#bfbfbf" points="265,-212.5 265,-242.5 362,-242.5 362,-212.5 265,-212.5"/>
<text text-anchor="start" x="273" y="-230.5" font-family="Helvetica,sans-Serif" font-size="10.00" fill="#000000">std::basic_istream</text>
<text text-anchor="middle" x="313.5" y="-219.5" font-family="Helvetica,sans-Serif" font-size="10.00" fill="#000000">&lt; Char &gt;</text>
</a>
</g>
</g>
<!-- Node4&#45;&gt;Node3 -->
<g id="edge3" class="edge">
<title>Node4&#45;&gt;Node3</title>
<path fill="none" stroke="#191970" d="M372.5348,-227.5C382.9721,-227.5 393.7485,-227.5 403.91,-227.5"/>
<polygon fill="#191970" stroke="#191970" points="372.2458,-224.0001 362.2458,-227.5 372.2457,-231.0001 372.2458,-224.0001"/>
</g>
<!-- Node5 -->
<g id="node5" class="node">
<title>Node5</title>
<g id="a_node5"><a xlink:title="STL class. ">
<polygon fill="none" stroke="#bfbfbf" points="112,-218 112,-237 228,-237 228,-218 112,-218"/>
<text text-anchor="middle" x="170" y="-225" font-family="Helvetica,sans-Serif" font-size="10.00" fill="#000000">std::basic_ios&lt; Char &gt;</text>
</a>
</g>
</g>
<!-- Node5&#45;&gt;Node4 -->
<g id="edge4" class="edge">
<title>Node5&#45;&gt;Node4</title>
<path fill="none" stroke="#191970" d="M238.3854,-227.5C247.3112,-227.5 256.3065,-227.5 264.8174,-227.5"/>
<polygon fill="#191970" stroke="#191970" points="238.367,-224.0001 228.3669,-227.5 238.3669,-231.0001 238.367,-224.0001"/>
</g>
<!-- Node6 -->
<g id="node6" class="node">
<title>Node6</title>
<g id="a_node6"><a xlink:title="STL class. ">
<polygon fill="none" stroke="#bfbfbf" points="0,-218 0,-237 75,-237 75,-218 0,-218"/>
<text text-anchor="middle" x="37.5" y="-225" font-family="Helvetica,sans-Serif" font-size="10.00" fill="#000000">std::ios_base</text>
</a>
</g>
</g>
<!-- Node6&#45;&gt;Node5 -->
<g id="edge5" class="edge">
<title>Node6&#45;&gt;Node5</title>
<path fill="none" stroke="#191970" d="M85.3789,-227.5C94.0135,-227.5 103.1001,-227.5 111.986,-227.5"/>
<polygon fill="#191970" stroke="#191970" points="85.1148,-224.0001 75.1148,-227.5 85.1147,-231.0001 85.1148,-224.0001"/>
</g>
<!-- Node7 -->
<g id="node7" class="node">
<title>Node7</title>
<polygon fill="none" stroke="#bfbfbf" points="594,-49.5 594,-79.5 704,-79.5 704,-49.5 594,-49.5"/>
<text text-anchor="start" x="602" y="-67.5" font-family="Helvetica,sans-Serif" font-size="10.00" fill="#000000">std::map&lt; std::string,</text>
<text text-anchor="middle" x="649" y="-56.5" font-family="Helvetica,sans-Serif" font-size="10.00" fill="#000000"> double &gt;</text>
</g>
<!-- Node7&#45;&gt;Node1 -->
<g id="edge6" class="edge">
<title>Node7&#45;&gt;Node1</title>
<path fill="none" stroke="#9a32cd" stroke-dasharray="5,2" d="M714.1047,-77.4096C730.2751,-81.2994 747.4301,-86.0188 763,-91.5 774.9982,-95.7238 787.9037,-101.846 797.9169,-106.9747"/>
<polygon fill="#9a32cd" stroke="#9a32cd" points="714.7204,-73.9593 704.1866,-75.0955 713.1298,-80.7762 714.7204,-73.9593"/>
<text text-anchor="middle" x="745.5" y="-94.5" font-family="Helvetica,sans-Serif" font-size="10.00" fill="#000000"> scalars</text>
</g>
<!-- Node8 -->
<g id="node8" class="node">
<title>Node8</title>
<g id="a_node8"><a xlink:title="STL class. ">
<polygon fill="none" stroke="#bfbfbf" points="424,-94 424,-113 484,-113 484,-94 424,-94"/>
<text text-anchor="middle" x="454" y="-101" font-family="Helvetica,sans-Serif" font-size="10.00" fill="#000000">std::string</text>
</a>
</g>
</g>
<!-- Node8&#45;&gt;Node1 -->
<g id="edge11" class="edge">
<title>Node8&#45;&gt;Node1</title>
<path fill="none" stroke="#9a32cd" stroke-dasharray="5,2" d="M494.6112,-104.9604C566.2534,-107.5368 713.8385,-112.8441 780.9364,-115.257"/>
<polygon fill="#9a32cd" stroke="#9a32cd" points="494.3189,-101.4477 484.1995,-104.586 494.0672,-108.4432 494.3189,-101.4477"/>
<text text-anchor="middle" x="649" y="-116.5" font-family="Helvetica,sans-Serif" font-size="10.00" fill="#000000"> init_fname</text>
</g>
<!-- Node8&#45;&gt;Node7 -->
<g id="edge7" class="edge">
<title>Node8&#45;&gt;Node7</title>
<path fill="none" stroke="#9a32cd" stroke-dasharray="5,2" d="M494.1454,-95.4709C522.9308,-89.7138 562.065,-81.887 593.7899,-75.542"/>
<polygon fill="#9a32cd" stroke="#9a32cd" points="493.1608,-92.0984 484.0414,-97.4917 494.5336,-98.9625 493.1608,-92.0984"/>
<text text-anchor="middle" x="548.5" y="-92.5" font-family="Helvetica,sans-Serif" font-size="10.00" fill="#000000"> keys</text>
</g>
<!-- Node10 -->
<g id="node10" class="node">
<title>Node10</title>
<polygon fill="none" stroke="#bfbfbf" points="594,-.5 594,-30.5 704,-30.5 704,-.5 594,-.5"/>
<text text-anchor="start" x="602" y="-18.5" font-family="Helvetica,sans-Serif" font-size="10.00" fill="#000000">std::map&lt; std::string,</text>
<text text-anchor="middle" x="649" y="-7.5" font-family="Helvetica,sans-Serif" font-size="10.00" fill="#000000"> std::string &gt;</text>
</g>
<!-- Node8&#45;&gt;Node10 -->
<g id="edge10" class="edge">
<title>Node8&#45;&gt;Node10</title>
<path fill="none" stroke="#9a32cd" stroke-dasharray="5,2" d="M474.3776,-87.982C488.5572,-77.7264 508.2178,-64.5552 527,-55.5 548.0822,-45.3359 572.3942,-36.7804 593.74,-30.2239"/>
<polygon fill="#9a32cd" stroke="#9a32cd" points="472.2853,-85.1762 466.314,-93.9279 476.4397,-90.8101 472.2853,-85.1762"/>
<text text-anchor="middle" x="548.5" y="-69.5" font-family="Helvetica,sans-Serif" font-size="10.00" fill="#000000"> keys</text>
<text text-anchor="middle" x="548.5" y="-58.5" font-family="Helvetica,sans-Serif" font-size="10.00" fill="#000000">elements</text>
</g>
<!-- Node11 -->
<g id="node11" class="node">
<title>Node11</title>
<polygon fill="none" stroke="#bfbfbf" points="588,-146.5 588,-176.5 710,-176.5 710,-146.5 588,-146.5"/>
<text text-anchor="start" x="596" y="-164.5" font-family="Helvetica,sans-Serif" font-size="10.00" fill="#000000">std::map&lt; std::string,</text>
<text text-anchor="middle" x="649" y="-153.5" font-family="Helvetica,sans-Serif" font-size="10.00" fill="#000000"> std::vector&lt; double &gt; &gt;</text>
</g>
<!-- Node8&#45;&gt;Node11 -->
<g id="edge13" class="edge">
<title>Node8&#45;&gt;Node11</title>
<path fill="none" stroke="#9a32cd" stroke-dasharray="5,2" d="M491.5986,-116.2264C502.9414,-119.9669 515.448,-123.9933 527,-127.5 548.4605,-134.0144 572.1875,-140.7352 592.9679,-146.4638"/>
<polygon fill="#9a32cd" stroke="#9a32cd" points="492.5769,-112.8634 481.9835,-113.0331 490.3706,-119.5066 492.5769,-112.8634"/>
<text text-anchor="middle" x="548.5" y="-142.5" font-family="Helvetica,sans-Serif" font-size="10.00" fill="#000000"> keys</text>
</g>
<!-- Node9 -->
<g id="node9" class="node">
<title>Node9</title>
<g id="a_node9"><a xlink:title="STL class. ">
<polygon fill="none" stroke="#bfbfbf" points="266,-88.5 266,-118.5 361,-118.5 361,-88.5 266,-88.5"/>
<text text-anchor="start" x="274" y="-106.5" font-family="Helvetica,sans-Serif" font-size="10.00" fill="#000000">std::basic_string&lt;</text>
<text text-anchor="middle" x="313.5" y="-95.5" font-family="Helvetica,sans-Serif" font-size="10.00" fill="#000000"> char &gt;</text>
</a>
</g>
</g>
<!-- Node9&#45;&gt;Node8 -->
<g id="edge8" class="edge">
<title>Node9&#45;&gt;Node8</title>
<path fill="none" stroke="#191970" d="M371.2041,-103.5C389.2,-103.5 408.3311,-103.5 423.665,-103.5"/>
<polygon fill="#191970" stroke="#191970" points="371.0669,-100.0001 361.0669,-103.5 371.0669,-107.0001 371.0669,-100.0001"/>
</g>
<!-- Node10&#45;&gt;Node1 -->
<g id="edge9" class="edge">
<title>Node10&#45;&gt;Node1</title>
<path fill="none" stroke="#9a32cd" stroke-dasharray="5,2" d="M702.365,-34.301C722.3206,-42.6046 744.5921,-53.4668 763,-66.5 780.0526,-78.5736 797.0648,-96.0128 806.9189,-106.7825"/>
<polygon fill="#9a32cd" stroke="#9a32cd" points="703.6656,-31.0516 693.0826,-30.5499 701.0428,-37.5417 703.6656,-31.0516"/>
<text text-anchor="middle" x="745.5" y="-69.5" font-family="Helvetica,sans-Serif" font-size="10.00" fill="#000000"> strings</text>
</g>
<!-- Node11&#45;&gt;Node1 -->
<g id="edge12" class="edge">
<title>Node11&#45;&gt;Node1</title>
<path fill="none" stroke="#9a32cd" stroke-dasharray="5,2" d="M714.787,-143.7197C737.3627,-137.6182 761.7325,-131.0317 780.8447,-125.8663"/>
<polygon fill="#9a32cd" stroke="#9a32cd" points="713.6457,-140.4025 704.9053,-146.3905 715.4721,-147.1601 713.6457,-140.4025"/>
<text text-anchor="middle" x="745.5" y="-142.5" font-family="Helvetica,sans-Serif" font-size="10.00" fill="#000000"> arrays</text>
</g>
<!-- Node12 -->
<g id="node12" class="node">
<title>Node12</title>
<polygon fill="none" stroke="#bfbfbf" points="399,-174 399,-193 509,-193 509,-174 399,-174"/>
<text text-anchor="middle" x="454" y="-181" font-family="Helvetica,sans-Serif" font-size="10.00" fill="#000000">std::vector&lt; double &gt;</text>
</g>
<!-- Node12&#45;&gt;Node11 -->
<g id="edge14" class="edge">
<title>Node12&#45;&gt;Node11</title>
<path fill="none" stroke="#9a32cd" stroke-dasharray="5,2" d="M519.0962,-176.1558C541.2876,-173.6522 566.006,-170.8634 587.8744,-168.3962"/>
<polygon fill="#9a32cd" stroke="#9a32cd" points="518.6418,-172.6848 509.0973,-177.2839 519.4266,-179.6407 518.6418,-172.6848"/>
<text text-anchor="middle" x="548.5" y="-177.5" font-family="Helvetica,sans-Serif" font-size="10.00" fill="#000000"> elements</text>
</g>
</g>
</svg>
