<?xml version="1.0" encoding="UTF-8" standalone="no"?>
<!DOCTYPE svg PUBLIC "-//W3C//DTD SVG 1.1//EN"
 "http://www.w3.org/Graphics/SVG/1.1/DTD/svg11.dtd">
<!-- Generated by graphviz version 2.40.1 (20161225.0304)
 -->
<!-- Title: plant::Plant::grow_for_dt Pages: 1 -->
<svg width="1067pt" height="437pt"
 viewBox="0.00 0.00 1067.00 437.01" xmlns="http://www.w3.org/2000/svg" xmlns:xlink="http://www.w3.org/1999/xlink">
<g id="graph0" class="graph" transform="scale(1 1) rotate(0) translate(4 433.0149)">
<title>plant::Plant::grow_for_dt</title>
<!-- Node47 -->
<g id="node1" class="node">
<title>Node47</title>
<polygon fill="#bfbfbf" stroke="#000000" points="0,-208 0,-238 93,-238 93,-208 0,-208"/>
<text text-anchor="start" x="8" y="-226" font-family="Helvetica,sans-Serif" font-size="10.00" fill="#000000">plant::Plant::grow</text>
<text text-anchor="middle" x="46.5" y="-215" font-family="Helvetica,sans-Serif" font-size="10.00" fill="#000000">_for_dt</text>
</g>
<!-- Node48 -->
<g id="node2" class="node">
<title>Node48</title>
<g id="a_node2"><a xlink:href="classplant_1_1PlantGeometry.html#a818143a8613e10cb44bcb448b36984ca" target="_top" xlink:title="plant::PlantGeometry\l::set_lai">
<polygon fill="none" stroke="#000000" points="447.5,-347 447.5,-377 556.5,-377 556.5,-347 447.5,-347"/>
<text text-anchor="start" x="455.5" y="-365" font-family="Helvetica,sans-Serif" font-size="10.00" fill="#000000">plant::PlantGeometry</text>
<text text-anchor="middle" x="502" y="-354" font-family="Helvetica,sans-Serif" font-size="10.00" fill="#000000">::set_lai</text>
</a>
</g>
</g>
<!-- Node47&#45;&gt;Node48 -->
<g id="edge1" class="edge">
<title>Node47&#45;&gt;Node48</title>
<path fill="none" stroke="#191970" d="M53.0316,-238.1054C64.8334,-263.8749 91.9669,-316.6753 129,-349 182.7676,-395.9316 204.3837,-402.2806 274,-418 332.093,-431.1174 350.5806,-433.8074 408,-418 432.7104,-411.1973 457.4845,-396.0101 475.3913,-383.1658"/>
<polygon fill="#191970" stroke="#191970" points="477.6405,-385.8556 483.5999,-377.0957 473.4785,-380.2273 477.6405,-385.8556"/>
</g>
<!-- Node49 -->
<g id="node3" class="node">
<title>Node49</title>
<g id="a_node3"><a xlink:href="classplant_1_1Plant.html#a1157bce8a29e6a26f2e5d4cc30909aea" target="_top" xlink:title="plant::Plant::set_size">
<polygon fill="none" stroke="#000000" points="129,-320.5 129,-339.5 238,-339.5 238,-320.5 129,-320.5"/>
<text text-anchor="middle" x="183.5" y="-327.5" font-family="Helvetica,sans-Serif" font-size="10.00" fill="#000000">plant::Plant::set_size</text>
</a>
</g>
</g>
<!-- Node47&#45;&gt;Node49 -->
<g id="edge2" class="edge">
<title>Node47&#45;&gt;Node49</title>
<path fill="none" stroke="#191970" d="M65.8382,-238.1035C91.5498,-258.1849 136.7925,-293.5204 163.0523,-314.0299"/>
<polygon fill="#191970" stroke="#191970" points="161.1389,-316.9764 171.1744,-320.3734 165.4476,-311.4597 161.1389,-316.9764"/>
</g>
<!-- Node51 -->
<g id="node5" class="node">
<title>Node51</title>
<g id="a_node5"><a xlink:href="classplant_1_1Plant.html#ab39fa79cb8884c684af5db0c98a1785e" target="_top" xlink:title="plant::Plant::calc\l_demographic_rates">
<polygon fill="none" stroke="#000000" points="131.5,-208 131.5,-238 235.5,-238 235.5,-208 131.5,-208"/>
<text text-anchor="start" x="139.5" y="-226" font-family="Helvetica,sans-Serif" font-size="10.00" fill="#000000">plant::Plant::calc</text>
<text text-anchor="middle" x="183.5" y="-215" font-family="Helvetica,sans-Serif" font-size="10.00" fill="#000000">_demographic_rates</text>
</a>
</g>
</g>
<!-- Node47&#45;&gt;Node51 -->
<g id="edge4" class="edge">
<title>Node47&#45;&gt;Node51</title>
<path fill="none" stroke="#191970" d="M93.2645,-223C102.2587,-223 111.8106,-223 121.2056,-223"/>
<polygon fill="#191970" stroke="#191970" points="121.3047,-226.5001 131.3047,-223 121.3046,-219.5001 121.3047,-226.5001"/>
</g>
<!-- Node73 -->
<g id="node27" class="node">
<title>Node73</title>
<g id="a_node27"><a xlink:href="classplant_1_1PlantGeometry.html#a3988e151a21d97e544460b200993ac71" target="_top" xlink:title="plant::PlantGeometry\l::get_size">
<polygon fill="none" stroke="#000000" points="447.5,-28 447.5,-58 556.5,-58 556.5,-28 447.5,-28"/>
<text text-anchor="start" x="455.5" y="-46" font-family="Helvetica,sans-Serif" font-size="10.00" fill="#000000">plant::PlantGeometry</text>
<text text-anchor="middle" x="502" y="-35" font-family="Helvetica,sans-Serif" font-size="10.00" fill="#000000">::get_size</text>
</a>
</g>
</g>
<!-- Node47&#45;&gt;Node73 -->
<g id="edge33" class="edge">
<title>Node47&#45;&gt;Node73</title>
<path fill="none" stroke="#191970" d="M62.2754,-207.8987C97.149,-175.5543 184.7985,-99.8622 274,-67 326.604,-47.6205 390.3407,-42.3007 437.0365,-41.436"/>
<polygon fill="#191970" stroke="#191970" points="437.3697,-44.9324 447.3268,-41.3121 437.2853,-37.9329 437.3697,-44.9324"/>
</g>
<!-- Node77 -->
<g id="node31" class="node">
<title>Node77</title>
<g id="a_node31"><a xlink:href="rk4_8h.html#a3d0ee2e6387dc2895fd9a41509912863" target="_top" xlink:title="RK4">
<polygon fill="none" stroke="#000000" points="165.5,-.5 165.5,-19.5 201.5,-19.5 201.5,-.5 165.5,-.5"/>
<text text-anchor="middle" x="183.5" y="-7.5" font-family="Helvetica,sans-Serif" font-size="10.00" fill="#000000">RK4</text>
</a>
</g>
</g>
<!-- Node47&#45;&gt;Node77 -->
<g id="edge34" class="edge">
<title>Node47&#45;&gt;Node77</title>
<path fill="none" stroke="#191970" d="M49.2006,-207.8966C56.2031,-172.8483 78.0708,-85.0944 129,-34 136.3671,-26.609 146.3974,-21.3153 155.8454,-17.614"/>
<polygon fill="#191970" stroke="#191970" points="157.048,-20.9014 165.3445,-14.3121 154.7497,-14.2895 157.048,-20.9014"/>
</g>
<!-- Node50 -->
<g id="node4" class="node">
<title>Node50</title>
<g id="a_node4"><a xlink:href="classplant_1_1PlantGeometry.html#a6ef545e73792c1947b68189aa613cb35" target="_top" xlink:title="plant::PlantGeometry\l::set_size">
<polygon fill="none" stroke="#000000" points="286.5,-378 286.5,-408 395.5,-408 395.5,-378 286.5,-378"/>
<text text-anchor="start" x="294.5" y="-396" font-family="Helvetica,sans-Serif" font-size="10.00" fill="#000000">plant::PlantGeometry</text>
<text text-anchor="middle" x="341" y="-385" font-family="Helvetica,sans-Serif" font-size="10.00" fill="#000000">::set_size</text>
</a>
</g>
</g>
<!-- Node49&#45;&gt;Node50 -->
<g id="edge3" class="edge">
<title>Node49&#45;&gt;Node50</title>
<path fill="none" stroke="#191970" d="M205.7122,-339.6217C223.9698,-347.459 250.5541,-358.7078 274,-368 279.1939,-370.0585 284.632,-372.1657 290.068,-374.241"/>
<polygon fill="#191970" stroke="#191970" points="289.206,-377.657 299.7974,-377.9246 291.6845,-371.1105 289.206,-377.657"/>
</g>
<!-- Node52 -->
<g id="node6" class="node">
<title>Node52</title>
<g id="a_node6"><a xlink:href="classplant_1_1Assimilator.html#ab5cf98dde0fb1d49ce4d0f44387b628b" target="_top" xlink:title="plant::Assimilator\l::net_production">
<polygon fill="none" stroke="#000000" points="456,-175 456,-205 548,-205 548,-175 456,-175"/>
<text text-anchor="start" x="464" y="-193" font-family="Helvetica,sans-Serif" font-size="10.00" fill="#000000">plant::Assimilator</text>
<text text-anchor="middle" x="502" y="-182" font-family="Helvetica,sans-Serif" font-size="10.00" fill="#000000">::net_production</text>
</a>
</g>
</g>
<!-- Node51&#45;&gt;Node52 -->
<g id="edge5" class="edge">
<title>Node51&#45;&gt;Node52</title>
<path fill="none" stroke="#191970" d="M235.9161,-210.6456C248.341,-208.0926 261.5901,-205.6746 274,-204 332.2785,-196.1357 399.5407,-192.6848 445.8257,-191.173"/>
<polygon fill="#191970" stroke="#191970" points="446.0665,-194.6674 455.9544,-190.8622 445.8517,-187.6707 446.0665,-194.6674"/>
</g>
<!-- Node67 -->
<g id="node21" class="node">
<title>Node67</title>
<g id="a_node21"><a xlink:href="classplant_1_1Plant.html#a48612779a5850cca9cc6f6caff1ccb8b" target="_top" xlink:title="plant::Plant::lai_model">
<polygon fill="none" stroke="#000000" points="284.5,-213.5 284.5,-232.5 397.5,-232.5 397.5,-213.5 284.5,-213.5"/>
<text text-anchor="middle" x="341" y="-220.5" font-family="Helvetica,sans-Serif" font-size="10.00" fill="#000000">plant::Plant::lai_model</text>
</a>
</g>
</g>
<!-- Node51&#45;&gt;Node67 -->
<g id="edge21" class="edge">
<title>Node51&#45;&gt;Node67</title>
<path fill="none" stroke="#191970" d="M235.5079,-223C247.8807,-223 261.2528,-223 274.1854,-223"/>
<polygon fill="#191970" stroke="#191970" points="274.4353,-226.5001 284.4352,-223 274.4352,-219.5001 274.4353,-226.5001"/>
</g>
<!-- Node69 -->
<g id="node23" class="node">
<title>Node69</title>
<g id="a_node23"><a xlink:href="classplant_1_1Plant.html#af19cb4918c06a6660da62386a2d2ea36" target="_top" xlink:title="plant::Plant::partition\l_biomass">
<polygon fill="none" stroke="#000000" points="287.5,-126 287.5,-156 394.5,-156 394.5,-126 287.5,-126"/>
<text text-anchor="start" x="295.5" y="-144" font-family="Helvetica,sans-Serif" font-size="10.00" fill="#000000">plant::Plant::partition</text>
<text text-anchor="middle" x="341" y="-133" font-family="Helvetica,sans-Serif" font-size="10.00" fill="#000000">_biomass</text>
</a>
</g>
</g>
<!-- Node51&#45;&gt;Node69 -->
<g id="edge25" class="edge">
<title>Node51&#45;&gt;Node69</title>
<path fill="none" stroke="#191970" d="M208.0982,-207.9699C226.0928,-197.1966 251.2348,-182.6 274,-171 281.1061,-167.3791 288.7416,-163.7358 296.223,-160.2975"/>
<polygon fill="#191970" stroke="#191970" points="297.8986,-163.381 305.5657,-156.0689 295.0122,-157.0037 297.8986,-163.381"/>
</g>
<!-- Node71 -->
<g id="node25" class="node">
<title>Node71</title>
<g id="a_node25"><a xlink:href="classplant_1_1Plant.html#ae3454b0d55be59a37e19915d47431da6" target="_top" xlink:title="plant::Plant::size\l_growth_rate">
<polygon fill="none" stroke="#000000" points="296,-77 296,-107 386,-107 386,-77 296,-77"/>
<text text-anchor="start" x="304" y="-95" font-family="Helvetica,sans-Serif" font-size="10.00" fill="#000000">plant::Plant::size</text>
<text text-anchor="middle" x="341" y="-84" font-family="Helvetica,sans-Serif" font-size="10.00" fill="#000000">_growth_rate</text>
</a>
</g>
</g>
<!-- Node51&#45;&gt;Node71 -->
<g id="edge27" class="edge">
<title>Node51&#45;&gt;Node71</title>
<path fill="none" stroke="#191970" d="M192.693,-207.6725C207.2225,-184.6699 237.6136,-141.2345 274,-116 277.9184,-113.2825 282.1782,-110.8389 286.5872,-108.6484"/>
<polygon fill="#191970" stroke="#191970" points="288.1081,-111.802 295.7856,-104.5008 285.2308,-105.4207 288.1081,-111.802"/>
</g>
<!-- Node74 -->
<g id="node28" class="node">
<title>Node74</title>
<g id="a_node28"><a xlink:href="classplant_1_1Plant.html#a273917d03f78d1f6840ae8e8fc105d2c" target="_top" xlink:title="plant::Plant::mortality_rate">
<polygon fill="none" stroke="#000000" points="275.5,-339.5 275.5,-358.5 406.5,-358.5 406.5,-339.5 275.5,-339.5"/>
<text text-anchor="middle" x="341" y="-346.5" font-family="Helvetica,sans-Serif" font-size="10.00" fill="#000000">plant::Plant::mortality_rate</text>
</a>
</g>
</g>
<!-- Node51&#45;&gt;Node74 -->
<g id="edge30" class="edge">
<title>Node51&#45;&gt;Node74</title>
<path fill="none" stroke="#191970" d="M192.2507,-238.2555C206.4113,-261.5661 236.5766,-305.8785 274,-330 277.1853,-332.0531 280.595,-333.8883 284.1264,-335.5281"/>
<polygon fill="#191970" stroke="#191970" points="283.1065,-338.8921 293.6878,-339.4282 285.7504,-332.4105 283.1065,-338.8921"/>
</g>
<!-- Node75 -->
<g id="node29" class="node">
<title>Node75</title>
<g id="a_node29"><a xlink:href="classplant_1_1Plant.html#a35a2b0d4d10c6dd2125bae36fb2f20a9" target="_top" xlink:title="plant::Plant::fecundity_rate">
<polygon fill="none" stroke="#000000" points="274,-301.5 274,-320.5 408,-320.5 408,-301.5 274,-301.5"/>
<text text-anchor="middle" x="341" y="-308.5" font-family="Helvetica,sans-Serif" font-size="10.00" fill="#000000">plant::Plant::fecundity_rate</text>
</a>
</g>
</g>
<!-- Node51&#45;&gt;Node75 -->
<g id="edge31" class="edge">
<title>Node51&#45;&gt;Node75</title>
<path fill="none" stroke="#191970" d="M199.5665,-238.2849C216.7376,-253.8523 245.375,-277.6796 274,-292 278.6124,-294.3075 283.5479,-296.3735 288.5708,-298.2145"/>
<polygon fill="#191970" stroke="#191970" points="287.6818,-301.6081 298.2758,-301.4817 289.9152,-294.974 287.6818,-301.6081"/>
</g>
<!-- Node76 -->
<g id="node30" class="node">
<title>Node76</title>
<g id="a_node30"><a xlink:href="classplant_1_1Plant.html#a7a9395b79102cb623073ac8540f0f5ea" target="_top" xlink:title="plant::Plant::p_survival\l_dispersal">
<polygon fill="none" stroke="#000000" points="283,-252 283,-282 399,-282 399,-252 283,-252"/>
<text text-anchor="start" x="291" y="-270" font-family="Helvetica,sans-Serif" font-size="10.00" fill="#000000">plant::Plant::p_survival</text>
<text text-anchor="middle" x="341" y="-259" font-family="Helvetica,sans-Serif" font-size="10.00" fill="#000000">_dispersal</text>
</a>
</g>
</g>
<!-- Node51&#45;&gt;Node76 -->
<g id="edge32" class="edge">
<title>Node51&#45;&gt;Node76</title>
<path fill="none" stroke="#191970" d="M235.5079,-237.5292C248.8467,-241.2556 263.347,-245.3065 277.2058,-249.1781"/>
<polygon fill="#191970" stroke="#191970" points="276.585,-252.6387 287.158,-251.9584 278.4685,-245.8968 276.585,-252.6387"/>
</g>
<!-- Node53 -->
<g id="node7" class="node">
<title>Node53</title>
<g id="a_node7"><a xlink:href="classplant_1_1Assimilator.html#a95024a28af68fde0b11acef9903aaa9d" target="_top" xlink:title="plant::Assimilator\l::calc_plant_assimilation_rate">
<polygon fill="none" stroke="#000000" points="596,-297 596,-327 742,-327 742,-297 596,-297"/>
<text text-anchor="start" x="604" y="-315" font-family="Helvetica,sans-Serif" font-size="10.00" fill="#000000">plant::Assimilator</text>
<text text-anchor="middle" x="669" y="-304" font-family="Helvetica,sans-Serif" font-size="10.00" fill="#000000">::calc_plant_assimilation_rate</text>
</a>
</g>
</g>
<!-- Node52&#45;&gt;Node53 -->
<g id="edge6" class="edge">
<title>Node52&#45;&gt;Node53</title>
<path fill="none" stroke="#191970" d="M547.6864,-205.0176C552.1389,-207.5881 556.3499,-210.5641 560,-214 586.6315,-239.0687 568.4509,-263.9433 596,-288 597.3472,-289.1764 598.7535,-290.2954 600.209,-291.3598"/>
<polygon fill="#191970" stroke="#191970" points="598.6822,-294.5335 609.0143,-296.8782 602.3995,-288.602 598.6822,-294.5335"/>
</g>
<!-- Node58 -->
<g id="node12" class="node">
<title>Node58</title>
<g id="a_node12"><a xlink:href="classplant_1_1Assimilator.html#a680517258b2674fe94fdcba41fdf771e" target="_top" xlink:title="plant::Assimilator\l::leaf_respiration_rate">
<polygon fill="none" stroke="#000000" points="614,-248 614,-278 724,-278 724,-248 614,-248"/>
<text text-anchor="start" x="622" y="-266" font-family="Helvetica,sans-Serif" font-size="10.00" fill="#000000">plant::Assimilator</text>
<text text-anchor="middle" x="669" y="-255" font-family="Helvetica,sans-Serif" font-size="10.00" fill="#000000">::leaf_respiration_rate</text>
</a>
</g>
</g>
<!-- Node52&#45;&gt;Node58 -->
<g id="edge11" class="edge">
<title>Node52&#45;&gt;Node58</title>
<path fill="none" stroke="#191970" d="M541.4816,-205.1141C547.7723,-207.8698 554.1353,-210.8705 560,-214 576.9654,-223.0529 578.7605,-229.4807 596,-238 600.3498,-240.1496 604.93,-242.1913 609.5883,-244.1127"/>
<polygon fill="#191970" stroke="#191970" points="608.6234,-247.4936 619.2111,-247.8835 611.1774,-240.9762 608.6234,-247.4936"/>
</g>
<!-- Node59 -->
<g id="node13" class="node">
<title>Node59</title>
<g id="a_node13"><a xlink:href="classplant_1_1Assimilator.html#ab48c39e03fe75f132440554504c5a1f9" target="_top" xlink:title="plant::Assimilator\l::root_respiration_rate">
<polygon fill="none" stroke="#000000" points="613.5,-199 613.5,-229 724.5,-229 724.5,-199 613.5,-199"/>
<text text-anchor="start" x="621.5" y="-217" font-family="Helvetica,sans-Serif" font-size="10.00" fill="#000000">plant::Assimilator</text>
<text text-anchor="middle" x="669" y="-206" font-family="Helvetica,sans-Serif" font-size="10.00" fill="#000000">::root_respiration_rate</text>
</a>
</g>
</g>
<!-- Node52&#45;&gt;Node59 -->
<g id="edge12" class="edge">
<title>Node52&#45;&gt;Node59</title>
<path fill="none" stroke="#191970" d="M548.0756,-196.6216C565.1007,-199.0684 584.7429,-201.8912 603.1799,-204.5408"/>
<polygon fill="#191970" stroke="#191970" points="602.8782,-208.0333 613.2744,-205.9915 603.874,-201.1045 602.8782,-208.0333"/>
</g>
<!-- Node61 -->
<g id="node15" class="node">
<title>Node61</title>
<g id="a_node15"><a xlink:href="classplant_1_1Assimilator.html#aa6121d1ac17dca9d28e2f0a5719ebf40" target="_top" xlink:title="plant::Assimilator\l::sapwood_respiration_rate">
<polygon fill="none" stroke="#000000" points="602,-101 602,-131 736,-131 736,-101 602,-101"/>
<text text-anchor="start" x="610" y="-119" font-family="Helvetica,sans-Serif" font-size="10.00" fill="#000000">plant::Assimilator</text>
<text text-anchor="middle" x="669" y="-108" font-family="Helvetica,sans-Serif" font-size="10.00" fill="#000000">::sapwood_respiration_rate</text>
</a>
</g>
</g>
<!-- Node52&#45;&gt;Node61 -->
<g id="edge14" class="edge">
<title>Node52&#45;&gt;Node61</title>
<path fill="none" stroke="#191970" d="M539.9676,-174.9349C546.7538,-171.8775 553.6734,-168.5138 560,-165 577.0294,-155.5419 578.5652,-148.6883 596,-140 599.5915,-138.2103 603.3467,-136.5098 607.1777,-134.9023"/>
<polygon fill="#191970" stroke="#191970" points="608.7907,-138.0284 616.8063,-131.1001 606.2197,-131.5176 608.7907,-138.0284"/>
</g>
<!-- Node64 -->
<g id="node18" class="node">
<title>Node64</title>
<g id="a_node18"><a xlink:href="classplant_1_1Assimilator.html#a620f829f503b9c30129ef26dab988eda" target="_top" xlink:title="plant::Assimilator\l::leaf_turnover_rate">
<polygon fill="none" stroke="#000000" points="618.5,-52 618.5,-82 719.5,-82 719.5,-52 618.5,-52"/>
<text text-anchor="start" x="626.5" y="-70" font-family="Helvetica,sans-Serif" font-size="10.00" fill="#000000">plant::Assimilator</text>
<text text-anchor="middle" x="669" y="-59" font-family="Helvetica,sans-Serif" font-size="10.00" fill="#000000">::leaf_turnover_rate</text>
</a>
</g>
</g>
<!-- Node52&#45;&gt;Node64 -->
<g id="edge17" class="edge">
<title>Node52&#45;&gt;Node64</title>
<path fill="none" stroke="#191970" d="M546.5254,-174.8448C551.4071,-172.0482 556.0355,-168.7869 560,-165 586.4474,-139.7371 568.4509,-115.0567 596,-91 599.9191,-87.5777 604.3383,-84.6412 609.0143,-82.1218"/>
<polygon fill="#191970" stroke="#191970" points="610.7001,-85.1968 618.2591,-77.773 607.7204,-78.8626 610.7001,-85.1968"/>
</g>
<!-- Node66 -->
<g id="node20" class="node">
<title>Node66</title>
<g id="a_node20"><a xlink:href="classplant_1_1Assimilator.html#acdbc33099ba37ba301616e1b3ad6d1c4" target="_top" xlink:title="plant::Assimilator\l::root_turnover_rate">
<polygon fill="none" stroke="#000000" points="618.5,-150 618.5,-180 719.5,-180 719.5,-150 618.5,-150"/>
<text text-anchor="start" x="626.5" y="-168" font-family="Helvetica,sans-Serif" font-size="10.00" fill="#000000">plant::Assimilator</text>
<text text-anchor="middle" x="669" y="-157" font-family="Helvetica,sans-Serif" font-size="10.00" fill="#000000">::root_turnover_rate</text>
</a>
</g>
</g>
<!-- Node52&#45;&gt;Node66 -->
<g id="edge19" class="edge">
<title>Node52&#45;&gt;Node66</title>
<path fill="none" stroke="#191970" d="M548.0756,-183.1025C566.7412,-180.3082 588.5526,-177.043 608.4726,-174.061"/>
<polygon fill="#191970" stroke="#191970" points="609.0112,-177.5194 618.3828,-172.5774 607.9748,-170.5966 609.0112,-177.5194"/>
</g>
<!-- Node54 -->
<g id="node8" class="node">
<title>Node54</title>
<g id="a_node8"><a xlink:href="classplant_1_1PlantGeometry.html#a73eed0a3db55748b6d2615945ec1f08b" target="_top" xlink:title="plant::PlantGeometry\l::crown_area_above">
<polygon fill="none" stroke="#000000" points="782,-260 782,-290 891,-290 891,-260 782,-260"/>
<text text-anchor="start" x="790" y="-278" font-family="Helvetica,sans-Serif" font-size="10.00" fill="#000000">plant::PlantGeometry</text>
<text text-anchor="middle" x="836.5" y="-267" font-family="Helvetica,sans-Serif" font-size="10.00" fill="#000000">::crown_area_above</text>
</a>
</g>
</g>
<!-- Node53&#45;&gt;Node54 -->
<g id="edge7" class="edge">
<title>Node53&#45;&gt;Node54</title>
<path fill="none" stroke="#191970" d="M737.1287,-296.9507C748.6173,-294.4129 760.5125,-291.7853 771.9077,-289.2682"/>
<polygon fill="#191970" stroke="#191970" points="772.7605,-292.6642 781.7701,-287.0896 771.2506,-285.829 772.7605,-292.6642"/>
</g>
<!-- Node57 -->
<g id="node11" class="node">
<title>Node57</title>
<g id="a_node11"><a xlink:href="classplant_1_1Assimilator.html#a25e0068c52700ba3d4b0d8e44398aa02" target="_top" xlink:title="plant::Assimilator\l::leaf_assimilation_rate">
<polygon fill="none" stroke="#000000" points="778,-309 778,-339 895,-339 895,-309 778,-309"/>
<text text-anchor="start" x="786" y="-327" font-family="Helvetica,sans-Serif" font-size="10.00" fill="#000000">plant::Assimilator</text>
<text text-anchor="middle" x="836.5" y="-316" font-family="Helvetica,sans-Serif" font-size="10.00" fill="#000000">::leaf_assimilation_rate</text>
</a>
</g>
</g>
<!-- Node53&#45;&gt;Node57 -->
<g id="edge10" class="edge">
<title>Node53&#45;&gt;Node57</title>
<path fill="none" stroke="#191970" d="M742.4679,-317.2634C750.9043,-317.8678 759.4821,-318.4823 767.8517,-319.0819"/>
<polygon fill="#191970" stroke="#191970" points="767.7095,-322.5806 777.9341,-319.8042 768.2098,-315.5985 767.7095,-322.5806"/>
</g>
<!-- Node55 -->
<g id="node9" class="node">
<title>Node55</title>
<g id="a_node9"><a xlink:href="classplant_1_1PlantGeometry.html#aed573b6d75e2a0adc4ebdeacec3c34e7" target="_top" xlink:title="plant::PlantGeometry::q">
<polygon fill="none" stroke="#000000" points="935,-246.5 935,-265.5 1055,-265.5 1055,-246.5 935,-246.5"/>
<text text-anchor="middle" x="995" y="-253.5" font-family="Helvetica,sans-Serif" font-size="10.00" fill="#000000">plant::PlantGeometry::q</text>
</a>
</g>
</g>
<!-- Node54&#45;&gt;Node55 -->
<g id="edge8" class="edge">
<title>Node54&#45;&gt;Node55</title>
<path fill="none" stroke="#191970" d="M891.0467,-268.4613C901.8792,-267.1627 913.3958,-265.7822 924.6687,-264.4309"/>
<polygon fill="#191970" stroke="#191970" points="925.4138,-267.8667 934.9261,-263.2013 924.5806,-260.9165 925.4138,-267.8667"/>
</g>
<!-- Node56 -->
<g id="node10" class="node">
<title>Node56</title>
<g id="a_node10"><a xlink:href="classplant_1_1PlantGeometry.html#a538c106c834b386d8dfce3702f42a93d" target="_top" xlink:title="plant::PlantGeometry::zm">
<polygon fill="none" stroke="#000000" points="931,-284.5 931,-303.5 1059,-303.5 1059,-284.5 931,-284.5"/>
<text text-anchor="middle" x="995" y="-291.5" font-family="Helvetica,sans-Serif" font-size="10.00" fill="#000000">plant::PlantGeometry::zm</text>
</a>
</g>
</g>
<!-- Node54&#45;&gt;Node56 -->
<g id="edge9" class="edge">
<title>Node54&#45;&gt;Node56</title>
<path fill="none" stroke="#191970" d="M891.0467,-281.5387C900.6507,-282.69 910.7925,-283.9057 920.8253,-285.1084"/>
<polygon fill="#191970" stroke="#191970" points="920.4524,-288.5887 930.798,-286.3039 921.2856,-281.6384 920.4524,-288.5887"/>
</g>
<!-- Node60 -->
<g id="node14" class="node">
<title>Node60</title>
<g id="a_node14"><a xlink:href="classplant_1_1PlantGeometry.html#a721712ac253434c4709a4300f3e6396a" target="_top" xlink:title="plant::PlantGeometry\l::root_mass">
<polygon fill="none" stroke="#000000" points="782,-187 782,-217 891,-217 891,-187 782,-187"/>
<text text-anchor="start" x="790" y="-205" font-family="Helvetica,sans-Serif" font-size="10.00" fill="#000000">plant::PlantGeometry</text>
<text text-anchor="middle" x="836.5" y="-194" font-family="Helvetica,sans-Serif" font-size="10.00" fill="#000000">::root_mass</text>
</a>
</g>
</g>
<!-- Node59&#45;&gt;Node60 -->
<g id="edge13" class="edge">
<title>Node59&#45;&gt;Node60</title>
<path fill="none" stroke="#191970" d="M724.7751,-210.0042C739.8421,-208.9247 756.2738,-207.7475 771.7856,-206.6363"/>
<polygon fill="#191970" stroke="#191970" points="772.0984,-210.1229 781.8227,-205.9172 771.5981,-203.1408 772.0984,-210.1229"/>
</g>
<!-- Node62 -->
<g id="node16" class="node">
<title>Node62</title>
<g id="a_node16"><a xlink:href="classplant_1_1PlantGeometry.html#aa34014d10ad2f1585b22958a27bee404" target="_top" xlink:title="plant::PlantGeometry\l::sapwood_mass">
<polygon fill="none" stroke="#000000" points="782,-101 782,-131 891,-131 891,-101 782,-101"/>
<text text-anchor="start" x="790" y="-119" font-family="Helvetica,sans-Serif" font-size="10.00" fill="#000000">plant::PlantGeometry</text>
<text text-anchor="middle" x="836.5" y="-108" font-family="Helvetica,sans-Serif" font-size="10.00" fill="#000000">::sapwood_mass</text>
</a>
</g>
</g>
<!-- Node61&#45;&gt;Node62 -->
<g id="edge15" class="edge">
<title>Node61&#45;&gt;Node62</title>
<path fill="none" stroke="#191970" d="M736.1635,-116C747.9194,-116 760.1295,-116 771.8165,-116"/>
<polygon fill="#191970" stroke="#191970" points="771.9277,-119.5001 781.9276,-116 771.9276,-112.5001 771.9277,-119.5001"/>
</g>
<!-- Node63 -->
<g id="node17" class="node">
<title>Node63</title>
<g id="a_node17"><a xlink:href="classplant_1_1PlantGeometry.html#adb7202ef29b176b65c43c5b5d950484d" target="_top" xlink:title="plant::PlantGeometry\l::stem_mass">
<polygon fill="none" stroke="#000000" points="940.5,-101 940.5,-131 1049.5,-131 1049.5,-101 940.5,-101"/>
<text text-anchor="start" x="948.5" y="-119" font-family="Helvetica,sans-Serif" font-size="10.00" fill="#000000">plant::PlantGeometry</text>
<text text-anchor="middle" x="995" y="-108" font-family="Helvetica,sans-Serif" font-size="10.00" fill="#000000">::stem_mass</text>
</a>
</g>
</g>
<!-- Node62&#45;&gt;Node63 -->
<g id="edge16" class="edge">
<title>Node62&#45;&gt;Node63</title>
<path fill="none" stroke="#191970" d="M891.0467,-116C903.624,-116 917.1235,-116 930.0929,-116"/>
<polygon fill="#191970" stroke="#191970" points="930.3528,-119.5001 940.3527,-116 930.3527,-112.5001 930.3528,-119.5001"/>
</g>
<!-- Node65 -->
<g id="node19" class="node">
<title>Node65</title>
<g id="a_node19"><a xlink:href="classplant_1_1PlantGeometry.html#a9bb344d187b1854c5a1364f6cd585d72" target="_top" xlink:title="plant::PlantGeometry\l::leaf_mass">
<polygon fill="none" stroke="#000000" points="782,-52 782,-82 891,-82 891,-52 782,-52"/>
<text text-anchor="start" x="790" y="-70" font-family="Helvetica,sans-Serif" font-size="10.00" fill="#000000">plant::PlantGeometry</text>
<text text-anchor="middle" x="836.5" y="-59" font-family="Helvetica,sans-Serif" font-size="10.00" fill="#000000">::leaf_mass</text>
</a>
</g>
</g>
<!-- Node64&#45;&gt;Node65 -->
<g id="edge18" class="edge">
<title>Node64&#45;&gt;Node65</title>
<path fill="none" stroke="#191970" d="M719.7101,-67C736.1302,-67 754.5684,-67 771.8587,-67"/>
<polygon fill="#191970" stroke="#191970" points="771.8824,-70.5001 781.8824,-67 771.8824,-63.5001 771.8824,-70.5001"/>
</g>
<!-- Node66&#45;&gt;Node60 -->
<g id="edge20" class="edge">
<title>Node66&#45;&gt;Node60</title>
<path fill="none" stroke="#191970" d="M719.7101,-176.2016C736.1302,-179.8288 754.5684,-183.9017 771.8587,-187.721"/>
<polygon fill="#191970" stroke="#191970" points="771.3628,-191.1958 781.8824,-189.9352 772.8727,-184.3606 771.3628,-191.1958"/>
</g>
<!-- Node67&#45;&gt;Node48 -->
<g id="edge22" class="edge">
<title>Node67&#45;&gt;Node48</title>
<path fill="none" stroke="#191970" d="M386.6825,-232.514C394.1692,-235.2069 401.5711,-238.6379 408,-243 444.4432,-267.7273 473.3954,-310.9487 489.0861,-337.9374"/>
<polygon fill="#191970" stroke="#191970" points="486.102,-339.7708 494.0736,-346.7497 492.194,-336.3229 486.102,-339.7708"/>
</g>
<!-- Node67&#45;&gt;Node52 -->
<g id="edge23" class="edge">
<title>Node67&#45;&gt;Node52</title>
<path fill="none" stroke="#191970" d="M387.5679,-213.455C405.7526,-209.7277 426.765,-205.4208 445.7826,-201.5228"/>
<polygon fill="#191970" stroke="#191970" points="446.7215,-204.9032 455.815,-199.4665 445.3159,-198.0458 446.7215,-204.9032"/>
</g>
<!-- Node68 -->
<g id="node22" class="node">
<title>Node68</title>
<g id="a_node22"><a xlink:href="classplant_1_1PlantGeometry.html#a436490556ceb3fdab0db5b81132a6f3f" target="_top" xlink:title="plant::PlantGeometry\l::dmass_dt_lai">
<polygon fill="none" stroke="#000000" points="447.5,-224 447.5,-254 556.5,-254 556.5,-224 447.5,-224"/>
<text text-anchor="start" x="455.5" y="-242" font-family="Helvetica,sans-Serif" font-size="10.00" fill="#000000">plant::PlantGeometry</text>
<text text-anchor="middle" x="502" y="-231" font-family="Helvetica,sans-Serif" font-size="10.00" fill="#000000">::dmass_dt_lai</text>
</a>
</g>
</g>
<!-- Node67&#45;&gt;Node68 -->
<g id="edge24" class="edge">
<title>Node67&#45;&gt;Node68</title>
<path fill="none" stroke="#191970" d="M397.7626,-228.641C410.4782,-229.9047 424.0616,-231.2546 437.0799,-232.5483"/>
<polygon fill="#191970" stroke="#191970" points="437.0745,-236.0649 447.3717,-233.5711 437.7668,-229.0992 437.0745,-236.0649"/>
</g>
<!-- Node70 -->
<g id="node24" class="node">
<title>Node70</title>
<g id="a_node24"><a xlink:href="classplant_1_1PlantGeometry.html#a41f8eb0dcc4e8c585ed6b8222719dd5d" target="_top" xlink:title="plant::PlantGeometry\l::dreproduction_dmass">
<polygon fill="none" stroke="#000000" points="444,-126 444,-156 560,-156 560,-126 444,-126"/>
<text text-anchor="start" x="452" y="-144" font-family="Helvetica,sans-Serif" font-size="10.00" fill="#000000">plant::PlantGeometry</text>
<text text-anchor="middle" x="502" y="-133" font-family="Helvetica,sans-Serif" font-size="10.00" fill="#000000">::dreproduction_dmass</text>
</a>
</g>
</g>
<!-- Node69&#45;&gt;Node70 -->
<g id="edge26" class="edge">
<title>Node69&#45;&gt;Node70</title>
<path fill="none" stroke="#191970" d="M394.6107,-141C407.0977,-141 420.5599,-141 433.5897,-141"/>
<polygon fill="#191970" stroke="#191970" points="433.9198,-144.5001 443.9197,-141 433.9197,-137.5001 433.9198,-144.5001"/>
</g>
<!-- Node72 -->
<g id="node26" class="node">
<title>Node72</title>
<g id="a_node26"><a xlink:href="classplant_1_1PlantGeometry.html#a2588428307028e5d6f1b6514aaa9dd59" target="_top" xlink:title="plant::PlantGeometry\l::dsize_dmass">
<polygon fill="none" stroke="#000000" points="447.5,-77 447.5,-107 556.5,-107 556.5,-77 447.5,-77"/>
<text text-anchor="start" x="455.5" y="-95" font-family="Helvetica,sans-Serif" font-size="10.00" fill="#000000">plant::PlantGeometry</text>
<text text-anchor="middle" x="502" y="-84" font-family="Helvetica,sans-Serif" font-size="10.00" fill="#000000">::dsize_dmass</text>
</a>
</g>
</g>
<!-- Node71&#45;&gt;Node72 -->
<g id="edge28" class="edge">
<title>Node71&#45;&gt;Node72</title>
<path fill="none" stroke="#191970" d="M386.2759,-92C401.9884,-92 419.931,-92 436.9214,-92"/>
<polygon fill="#191970" stroke="#191970" points="437.3489,-95.5001 447.3488,-92 437.3488,-88.5001 437.3489,-95.5001"/>
</g>
<!-- Node71&#45;&gt;Node73 -->
<g id="edge29" class="edge">
<title>Node71&#45;&gt;Node73</title>
<path fill="none" stroke="#191970" d="M386.2759,-78.2204C403.8587,-72.8691 424.2341,-66.6679 442.9429,-60.9739"/>
<polygon fill="#191970" stroke="#191970" points="444.0032,-64.3098 452.5508,-58.0497 441.965,-57.6131 444.0032,-64.3098"/>
</g>
</g>
</svg>
