<?xml version="1.0" encoding="UTF-8" standalone="no"?>
<!DOCTYPE svg PUBLIC "-//W3C//DTD SVG 1.1//EN"
 "http://www.w3.org/Graphics/SVG/1.1/DTD/svg11.dtd">
<!-- Generated by graphviz version 2.40.1 (20161225.0304)
 -->
<!-- Title: PSPM_Plant::preCompute Pages: 1 -->
<svg width="1101pt" height="509pt"
 viewBox="0.00 0.00 1101.00 508.50" xmlns="http://www.w3.org/2000/svg" xmlns:xlink="http://www.w3.org/1999/xlink">
<g id="graph0" class="graph" transform="scale(1 1) rotate(0) translate(4 504.5)">
<title>PSPM_Plant::preCompute</title>
<!-- Node52 -->
<g id="node1" class="node">
<title>Node52</title>
<polygon fill="#bfbfbf" stroke="#000000" points="0,-132 0,-151 132,-151 132,-132 0,-132"/>
<text text-anchor="middle" x="66" y="-139" font-family="Helvetica,sans-Serif" font-size="10.00" fill="#000000">PSPM_Plant::preCompute</text>
</g>
<!-- Node53 -->
<g id="node2" class="node">
<title>Node53</title>
<g id="a_node2"><a xlink:href="classplant_1_1Plant.html#ab39fa79cb8884c684af5db0c98a1785e" target="_top" xlink:title="plant::Plant::calc\l_demographic_rates">
<polygon fill="none" stroke="#000000" points="168,-126.5 168,-156.5 272,-156.5 272,-126.5 168,-126.5"/>
<text text-anchor="start" x="176" y="-144.5" font-family="Helvetica,sans-Serif" font-size="10.00" fill="#000000">plant::Plant::calc</text>
<text text-anchor="middle" x="220" y="-133.5" font-family="Helvetica,sans-Serif" font-size="10.00" fill="#000000">_demographic_rates</text>
</a>
</g>
</g>
<!-- Node52&#45;&gt;Node53 -->
<g id="edge1" class="edge">
<title>Node52&#45;&gt;Node53</title>
<path fill="none" stroke="#191970" d="M132.2036,-141.5C140.6653,-141.5 149.3045,-141.5 157.7014,-141.5"/>
<polygon fill="#191970" stroke="#191970" points="157.7955,-145.0001 167.7955,-141.5 157.7955,-138.0001 157.7955,-145.0001"/>
</g>
<!-- Node54 -->
<g id="node3" class="node">
<title>Node54</title>
<g id="a_node3"><a xlink:href="classplant_1_1Assimilator.html#ab5cf98dde0fb1d49ce4d0f44387b628b" target="_top" xlink:title="plant::Assimilator\l::net_production">
<polygon fill="none" stroke="#000000" points="490,-322.5 490,-352.5 582,-352.5 582,-322.5 490,-322.5"/>
<text text-anchor="start" x="498" y="-340.5" font-family="Helvetica,sans-Serif" font-size="10.00" fill="#000000">plant::Assimilator</text>
<text text-anchor="middle" x="536" y="-329.5" font-family="Helvetica,sans-Serif" font-size="10.00" fill="#000000">::net_production</text>
</a>
</g>
</g>
<!-- Node53&#45;&gt;Node54 -->
<g id="edge2" class="edge">
<title>Node53&#45;&gt;Node54</title>
<path fill="none" stroke="#191970" d="M225.907,-156.7286C237.4008,-184.3213 265.438,-242.5829 308,-273.5 358.9296,-310.4953 430.4953,-326.1311 479.7953,-332.7236"/>
<polygon fill="#191970" stroke="#191970" points="479.6044,-336.2269 489.962,-333.9975 480.4747,-329.2812 479.6044,-336.2269"/>
</g>
<!-- Node69 -->
<g id="node18" class="node">
<title>Node69</title>
<g id="a_node18"><a xlink:href="classplant_1_1Plant.html#a48612779a5850cca9cc6f6caff1ccb8b" target="_top" xlink:title="plant::Plant::lai_model">
<polygon fill="none" stroke="#000000" points="318.5,-245 318.5,-264 431.5,-264 431.5,-245 318.5,-245"/>
<text text-anchor="middle" x="375" y="-252" font-family="Helvetica,sans-Serif" font-size="10.00" fill="#000000">plant::Plant::lai_model</text>
</a>
</g>
</g>
<!-- Node53&#45;&gt;Node69 -->
<g id="edge18" class="edge">
<title>Node53&#45;&gt;Node69</title>
<path fill="none" stroke="#191970" d="M236.1839,-156.5775C253.3385,-172.2005 281.5534,-196.8909 308,-215.5 320.543,-224.3259 335.1949,-233.0219 347.593,-239.9549"/>
<polygon fill="#191970" stroke="#191970" points="346.113,-243.1353 356.5622,-244.8859 349.4854,-237.0012 346.113,-243.1353"/>
</g>
<!-- Node72 -->
<g id="node21" class="node">
<title>Node72</title>
<g id="a_node21"><a xlink:href="classplant_1_1Plant.html#af19cb4918c06a6660da62386a2d2ea36" target="_top" xlink:title="plant::Plant::partition\l_biomass">
<polygon fill="none" stroke="#000000" points="321.5,-175.5 321.5,-205.5 428.5,-205.5 428.5,-175.5 321.5,-175.5"/>
<text text-anchor="start" x="329.5" y="-193.5" font-family="Helvetica,sans-Serif" font-size="10.00" fill="#000000">plant::Plant::partition</text>
<text text-anchor="middle" x="375" y="-182.5" font-family="Helvetica,sans-Serif" font-size="10.00" fill="#000000">_biomass</text>
</a>
</g>
</g>
<!-- Node53&#45;&gt;Node72 -->
<g id="edge22" class="edge">
<title>Node53&#45;&gt;Node72</title>
<path fill="none" stroke="#191970" d="M267.7699,-156.6014C283.4599,-161.5615 301.0662,-167.1274 317.4061,-172.2929"/>
<polygon fill="#191970" stroke="#191970" points="316.798,-175.7713 327.3879,-175.4484 318.908,-169.0969 316.798,-175.7713"/>
</g>
<!-- Node74 -->
<g id="node23" class="node">
<title>Node74</title>
<g id="a_node23"><a xlink:href="classplant_1_1Plant.html#ae3454b0d55be59a37e19915d47431da6" target="_top" xlink:title="plant::Plant::size\l_growth_rate">
<polygon fill="none" stroke="#000000" points="330,-126.5 330,-156.5 420,-156.5 420,-126.5 330,-126.5"/>
<text text-anchor="start" x="338" y="-144.5" font-family="Helvetica,sans-Serif" font-size="10.00" fill="#000000">plant::Plant::size</text>
<text text-anchor="middle" x="375" y="-133.5" font-family="Helvetica,sans-Serif" font-size="10.00" fill="#000000">_growth_rate</text>
</a>
</g>
</g>
<!-- Node53&#45;&gt;Node74 -->
<g id="edge24" class="edge">
<title>Node53&#45;&gt;Node74</title>
<path fill="none" stroke="#191970" d="M272.0439,-141.5C287.4107,-141.5 304.2796,-141.5 319.8357,-141.5"/>
<polygon fill="#191970" stroke="#191970" points="319.8397,-145.0001 329.8397,-141.5 319.8397,-138.0001 319.8397,-145.0001"/>
</g>
<!-- Node77 -->
<g id="node26" class="node">
<title>Node77</title>
<g id="a_node26"><a xlink:href="classplant_1_1Plant.html#a273917d03f78d1f6840ae8e8fc105d2c" target="_top" xlink:title="plant::Plant::mortality_rate">
<polygon fill="none" stroke="#000000" points="309.5,-88 309.5,-107 440.5,-107 440.5,-88 309.5,-88"/>
<text text-anchor="middle" x="375" y="-95" font-family="Helvetica,sans-Serif" font-size="10.00" fill="#000000">plant::Plant::mortality_rate</text>
</a>
</g>
</g>
<!-- Node53&#45;&gt;Node77 -->
<g id="edge27" class="edge">
<title>Node53&#45;&gt;Node77</title>
<path fill="none" stroke="#191970" d="M272.1152,-126.6902C283.9149,-123.3382 296.3881,-119.7959 308,-116.5 315.6057,-114.3412 323.6974,-112.0456 331.5305,-109.824"/>
<polygon fill="#191970" stroke="#191970" points="332.5925,-113.1609 341.2582,-107.0652 330.6826,-106.4264 332.5925,-113.1609"/>
</g>
<!-- Node78 -->
<g id="node27" class="node">
<title>Node78</title>
<g id="a_node27"><a xlink:href="classplant_1_1Plant.html#a35a2b0d4d10c6dd2125bae36fb2f20a9" target="_top" xlink:title="plant::Plant::fecundity_rate">
<polygon fill="none" stroke="#000000" points="308,-50 308,-69 442,-69 442,-50 308,-50"/>
<text text-anchor="middle" x="375" y="-57" font-family="Helvetica,sans-Serif" font-size="10.00" fill="#000000">plant::Plant::fecundity_rate</text>
</a>
</g>
</g>
<!-- Node53&#45;&gt;Node78 -->
<g id="edge28" class="edge">
<title>Node53&#45;&gt;Node78</title>
<path fill="none" stroke="#191970" d="M237.3786,-126.2647C254.3459,-112.0951 281.4224,-91.3 308,-78.5 312.713,-76.2302 317.7466,-74.1849 322.858,-72.3531"/>
<polygon fill="#191970" stroke="#191970" points="324.3247,-75.5545 332.7192,-69.0906 322.1259,-68.9088 324.3247,-75.5545"/>
</g>
<!-- Node79 -->
<g id="node28" class="node">
<title>Node79</title>
<g id="a_node28"><a xlink:href="classplant_1_1Plant.html#a7a9395b79102cb623073ac8540f0f5ea" target="_top" xlink:title="plant::Plant::p_survival\l_dispersal">
<polygon fill="none" stroke="#000000" points="317,-.5 317,-30.5 433,-30.5 433,-.5 317,-.5"/>
<text text-anchor="start" x="325" y="-18.5" font-family="Helvetica,sans-Serif" font-size="10.00" fill="#000000">plant::Plant::p_survival</text>
<text text-anchor="middle" x="375" y="-7.5" font-family="Helvetica,sans-Serif" font-size="10.00" fill="#000000">_dispersal</text>
</a>
</g>
</g>
<!-- Node53&#45;&gt;Node79 -->
<g id="edge29" class="edge">
<title>Node53&#45;&gt;Node79</title>
<path fill="none" stroke="#191970" d="M229.5624,-126.3814C244.0588,-104.5822 273.5827,-64.3304 308,-40.5 310.8421,-38.5321 313.8586,-36.6966 316.9778,-34.9879"/>
<polygon fill="#191970" stroke="#191970" points="318.5905,-38.0948 325.9813,-30.5036 315.4697,-31.829 318.5905,-38.0948"/>
</g>
<!-- Node55 -->
<g id="node4" class="node">
<title>Node55</title>
<g id="a_node4"><a xlink:href="classplant_1_1Assimilator.html#a95024a28af68fde0b11acef9903aaa9d" target="_top" xlink:title="plant::Assimilator\l::calc_plant_assimilation_rate">
<polygon fill="none" stroke="#000000" points="630,-444.5 630,-474.5 776,-474.5 776,-444.5 630,-444.5"/>
<text text-anchor="start" x="638" y="-462.5" font-family="Helvetica,sans-Serif" font-size="10.00" fill="#000000">plant::Assimilator</text>
<text text-anchor="middle" x="703" y="-451.5" font-family="Helvetica,sans-Serif" font-size="10.00" fill="#000000">::calc_plant_assimilation_rate</text>
</a>
</g>
</g>
<!-- Node54&#45;&gt;Node55 -->
<g id="edge3" class="edge">
<title>Node54&#45;&gt;Node55</title>
<path fill="none" stroke="#191970" d="M546.7044,-352.6619C562.5606,-374.061 594.2893,-413.015 630,-435.5 632.6248,-437.1527 635.375,-438.7032 638.2061,-440.1563"/>
<polygon fill="#191970" stroke="#191970" points="636.9263,-443.4213 647.4689,-444.4722 639.8828,-437.0762 636.9263,-443.4213"/>
</g>
<!-- Node60 -->
<g id="node9" class="node">
<title>Node60</title>
<g id="a_node9"><a xlink:href="classplant_1_1Assimilator.html#a680517258b2674fe94fdcba41fdf771e" target="_top" xlink:title="plant::Assimilator\l::leaf_respiration_rate">
<polygon fill="none" stroke="#000000" points="648,-395.5 648,-425.5 758,-425.5 758,-395.5 648,-395.5"/>
<text text-anchor="start" x="656" y="-413.5" font-family="Helvetica,sans-Serif" font-size="10.00" fill="#000000">plant::Assimilator</text>
<text text-anchor="middle" x="703" y="-402.5" font-family="Helvetica,sans-Serif" font-size="10.00" fill="#000000">::leaf_respiration_rate</text>
</a>
</g>
</g>
<!-- Node54&#45;&gt;Node60 -->
<g id="edge8" class="edge">
<title>Node54&#45;&gt;Node60</title>
<path fill="none" stroke="#191970" d="M562.1861,-352.6208C580.7422,-362.9683 606.4292,-376.56 630,-386.5 634.4522,-388.3775 639.1059,-390.2042 643.8148,-391.9568"/>
<polygon fill="#191970" stroke="#191970" points="642.9169,-395.3533 653.5114,-395.4429 645.2851,-388.766 642.9169,-395.3533"/>
</g>
<!-- Node61 -->
<g id="node10" class="node">
<title>Node61</title>
<g id="a_node10"><a xlink:href="classplant_1_1Assimilator.html#ab48c39e03fe75f132440554504c5a1f9" target="_top" xlink:title="plant::Assimilator\l::root_respiration_rate">
<polygon fill="none" stroke="#000000" points="647.5,-346.5 647.5,-376.5 758.5,-376.5 758.5,-346.5 647.5,-346.5"/>
<text text-anchor="start" x="655.5" y="-364.5" font-family="Helvetica,sans-Serif" font-size="10.00" fill="#000000">plant::Assimilator</text>
<text text-anchor="middle" x="703" y="-353.5" font-family="Helvetica,sans-Serif" font-size="10.00" fill="#000000">::root_respiration_rate</text>
</a>
</g>
</g>
<!-- Node54&#45;&gt;Node61 -->
<g id="edge9" class="edge">
<title>Node54&#45;&gt;Node61</title>
<path fill="none" stroke="#191970" d="M582.0756,-344.1216C599.1007,-346.5684 618.7429,-349.3912 637.1799,-352.0408"/>
<polygon fill="#191970" stroke="#191970" points="636.8782,-355.5333 647.2744,-353.4915 637.874,-348.6045 636.8782,-355.5333"/>
</g>
<!-- Node63 -->
<g id="node12" class="node">
<title>Node63</title>
<g id="a_node12"><a xlink:href="classplant_1_1Assimilator.html#aa6121d1ac17dca9d28e2f0a5719ebf40" target="_top" xlink:title="plant::Assimilator\l::sapwood_respiration_rate">
<polygon fill="none" stroke="#000000" points="636,-248.5 636,-278.5 770,-278.5 770,-248.5 636,-248.5"/>
<text text-anchor="start" x="644" y="-266.5" font-family="Helvetica,sans-Serif" font-size="10.00" fill="#000000">plant::Assimilator</text>
<text text-anchor="middle" x="703" y="-255.5" font-family="Helvetica,sans-Serif" font-size="10.00" fill="#000000">::sapwood_respiration_rate</text>
</a>
</g>
</g>
<!-- Node54&#45;&gt;Node63 -->
<g id="edge11" class="edge">
<title>Node54&#45;&gt;Node63</title>
<path fill="none" stroke="#191970" d="M575.5338,-322.4826C581.818,-319.7148 588.1652,-316.685 594,-313.5 611.0981,-304.1667 612.6191,-297.2954 630,-288.5 634.2582,-286.3452 638.745,-284.3059 643.3142,-282.3918"/>
<polygon fill="#191970" stroke="#191970" points="644.7588,-285.5842 652.7622,-278.6418 642.1763,-279.0779 644.7588,-285.5842"/>
</g>
<!-- Node66 -->
<g id="node15" class="node">
<title>Node66</title>
<g id="a_node15"><a xlink:href="classplant_1_1Assimilator.html#a620f829f503b9c30129ef26dab988eda" target="_top" xlink:title="plant::Assimilator\l::leaf_turnover_rate">
<polygon fill="none" stroke="#000000" points="652.5,-199.5 652.5,-229.5 753.5,-229.5 753.5,-199.5 652.5,-199.5"/>
<text text-anchor="start" x="660.5" y="-217.5" font-family="Helvetica,sans-Serif" font-size="10.00" fill="#000000">plant::Assimilator</text>
<text text-anchor="middle" x="703" y="-206.5" font-family="Helvetica,sans-Serif" font-size="10.00" fill="#000000">::leaf_turnover_rate</text>
</a>
</g>
</g>
<!-- Node54&#45;&gt;Node66 -->
<g id="edge14" class="edge">
<title>Node54&#45;&gt;Node66</title>
<path fill="none" stroke="#191970" d="M581.6864,-322.4824C586.1389,-319.9119 590.3499,-316.9359 594,-313.5 620.6315,-288.4313 602.5995,-263.7258 630,-239.5 633.9141,-236.0394 638.3298,-233.053 643.0035,-230.4766"/>
<polygon fill="#191970" stroke="#191970" points="644.7643,-233.513 652.2452,-226.0106 641.7185,-227.2104 644.7643,-233.513"/>
</g>
<!-- Node68 -->
<g id="node17" class="node">
<title>Node68</title>
<g id="a_node17"><a xlink:href="classplant_1_1Assimilator.html#acdbc33099ba37ba301616e1b3ad6d1c4" target="_top" xlink:title="plant::Assimilator\l::root_turnover_rate">
<polygon fill="none" stroke="#000000" points="652.5,-297.5 652.5,-327.5 753.5,-327.5 753.5,-297.5 652.5,-297.5"/>
<text text-anchor="start" x="660.5" y="-315.5" font-family="Helvetica,sans-Serif" font-size="10.00" fill="#000000">plant::Assimilator</text>
<text text-anchor="middle" x="703" y="-304.5" font-family="Helvetica,sans-Serif" font-size="10.00" fill="#000000">::root_turnover_rate</text>
</a>
</g>
</g>
<!-- Node54&#45;&gt;Node68 -->
<g id="edge16" class="edge">
<title>Node54&#45;&gt;Node68</title>
<path fill="none" stroke="#191970" d="M582.0756,-330.6025C600.7412,-327.8082 622.5526,-324.543 642.4726,-321.561"/>
<polygon fill="#191970" stroke="#191970" points="643.0112,-325.0194 652.3828,-320.0774 641.9748,-318.0966 643.0112,-325.0194"/>
</g>
<!-- Node56 -->
<g id="node5" class="node">
<title>Node56</title>
<g id="a_node5"><a xlink:href="classplant_1_1PlantGeometry.html#a73eed0a3db55748b6d2615945ec1f08b" target="_top" xlink:title="plant::PlantGeometry\l::crown_area_above">
<polygon fill="none" stroke="#000000" points="816,-456.5 816,-486.5 925,-486.5 925,-456.5 816,-456.5"/>
<text text-anchor="start" x="824" y="-474.5" font-family="Helvetica,sans-Serif" font-size="10.00" fill="#000000">plant::PlantGeometry</text>
<text text-anchor="middle" x="870.5" y="-463.5" font-family="Helvetica,sans-Serif" font-size="10.00" fill="#000000">::crown_area_above</text>
</a>
</g>
</g>
<!-- Node55&#45;&gt;Node56 -->
<g id="edge4" class="edge">
<title>Node55&#45;&gt;Node56</title>
<path fill="none" stroke="#191970" d="M776.4679,-464.7634C786.2153,-465.4617 796.1513,-466.1735 805.737,-466.8603"/>
<polygon fill="#191970" stroke="#191970" points="805.751,-470.3701 815.9756,-467.5938 806.2513,-463.388 805.751,-470.3701"/>
</g>
<!-- Node59 -->
<g id="node8" class="node">
<title>Node59</title>
<g id="a_node8"><a xlink:href="classplant_1_1Assimilator.html#a25e0068c52700ba3d4b0d8e44398aa02" target="_top" xlink:title="plant::Assimilator\l::leaf_assimilation_rate">
<polygon fill="none" stroke="#000000" points="812,-407.5 812,-437.5 929,-437.5 929,-407.5 812,-407.5"/>
<text text-anchor="start" x="820" y="-425.5" font-family="Helvetica,sans-Serif" font-size="10.00" fill="#000000">plant::Assimilator</text>
<text text-anchor="middle" x="870.5" y="-414.5" font-family="Helvetica,sans-Serif" font-size="10.00" fill="#000000">::leaf_assimilation_rate</text>
</a>
</g>
</g>
<!-- Node55&#45;&gt;Node59 -->
<g id="edge7" class="edge">
<title>Node55&#45;&gt;Node59</title>
<path fill="none" stroke="#191970" d="M771.1287,-444.4507C781.2502,-442.2149 791.6873,-439.9094 801.82,-437.6711"/>
<polygon fill="#191970" stroke="#191970" points="802.8188,-441.0349 811.8284,-435.4603 801.3088,-434.1997 802.8188,-441.0349"/>
</g>
<!-- Node57 -->
<g id="node6" class="node">
<title>Node57</title>
<g id="a_node6"><a xlink:href="classplant_1_1PlantGeometry.html#aed573b6d75e2a0adc4ebdeacec3c34e7" target="_top" xlink:title="plant::PlantGeometry::q">
<polygon fill="none" stroke="#000000" points="969,-481 969,-500 1089,-500 1089,-481 969,-481"/>
<text text-anchor="middle" x="1029" y="-488" font-family="Helvetica,sans-Serif" font-size="10.00" fill="#000000">plant::PlantGeometry::q</text>
</a>
</g>
</g>
<!-- Node56&#45;&gt;Node57 -->
<g id="edge5" class="edge">
<title>Node56&#45;&gt;Node57</title>
<path fill="none" stroke="#191970" d="M925.0467,-478.0387C935.8792,-479.3373 947.3958,-480.7178 958.6687,-482.0691"/>
<polygon fill="#191970" stroke="#191970" points="958.5806,-485.5835 968.9261,-483.2987 959.4138,-478.6333 958.5806,-485.5835"/>
</g>
<!-- Node58 -->
<g id="node7" class="node">
<title>Node58</title>
<g id="a_node7"><a xlink:href="classplant_1_1PlantGeometry.html#a538c106c834b386d8dfce3702f42a93d" target="_top" xlink:title="plant::PlantGeometry::zm">
<polygon fill="none" stroke="#000000" points="965,-443 965,-462 1093,-462 1093,-443 965,-443"/>
<text text-anchor="middle" x="1029" y="-450" font-family="Helvetica,sans-Serif" font-size="10.00" fill="#000000">plant::PlantGeometry::zm</text>
</a>
</g>
</g>
<!-- Node56&#45;&gt;Node58 -->
<g id="edge6" class="edge">
<title>Node56&#45;&gt;Node58</title>
<path fill="none" stroke="#191970" d="M925.0467,-464.9613C934.6507,-463.81 944.7925,-462.5943 954.8253,-461.3916"/>
<polygon fill="#191970" stroke="#191970" points="955.2856,-464.8616 964.798,-460.1961 954.4524,-457.9113 955.2856,-464.8616"/>
</g>
<!-- Node62 -->
<g id="node11" class="node">
<title>Node62</title>
<g id="a_node11"><a xlink:href="classplant_1_1PlantGeometry.html#a721712ac253434c4709a4300f3e6396a" target="_top" xlink:title="plant::PlantGeometry\l::root_mass">
<polygon fill="none" stroke="#000000" points="816,-334.5 816,-364.5 925,-364.5 925,-334.5 816,-334.5"/>
<text text-anchor="start" x="824" y="-352.5" font-family="Helvetica,sans-Serif" font-size="10.00" fill="#000000">plant::PlantGeometry</text>
<text text-anchor="middle" x="870.5" y="-341.5" font-family="Helvetica,sans-Serif" font-size="10.00" fill="#000000">::root_mass</text>
</a>
</g>
</g>
<!-- Node61&#45;&gt;Node62 -->
<g id="edge10" class="edge">
<title>Node61&#45;&gt;Node62</title>
<path fill="none" stroke="#191970" d="M758.7751,-357.5042C773.8421,-356.4247 790.2738,-355.2475 805.7856,-354.1363"/>
<polygon fill="#191970" stroke="#191970" points="806.0984,-357.6229 815.8227,-353.4172 805.5981,-350.6408 806.0984,-357.6229"/>
</g>
<!-- Node64 -->
<g id="node13" class="node">
<title>Node64</title>
<g id="a_node13"><a xlink:href="classplant_1_1PlantGeometry.html#aa34014d10ad2f1585b22958a27bee404" target="_top" xlink:title="plant::PlantGeometry\l::sapwood_mass">
<polygon fill="none" stroke="#000000" points="816,-248.5 816,-278.5 925,-278.5 925,-248.5 816,-248.5"/>
<text text-anchor="start" x="824" y="-266.5" font-family="Helvetica,sans-Serif" font-size="10.00" fill="#000000">plant::PlantGeometry</text>
<text text-anchor="middle" x="870.5" y="-255.5" font-family="Helvetica,sans-Serif" font-size="10.00" fill="#000000">::sapwood_mass</text>
</a>
</g>
</g>
<!-- Node63&#45;&gt;Node64 -->
<g id="edge12" class="edge">
<title>Node63&#45;&gt;Node64</title>
<path fill="none" stroke="#191970" d="M770.1635,-263.5C781.9194,-263.5 794.1295,-263.5 805.8165,-263.5"/>
<polygon fill="#191970" stroke="#191970" points="805.9277,-267.0001 815.9276,-263.5 805.9276,-260.0001 805.9277,-267.0001"/>
</g>
<!-- Node65 -->
<g id="node14" class="node">
<title>Node65</title>
<g id="a_node14"><a xlink:href="classplant_1_1PlantGeometry.html#adb7202ef29b176b65c43c5b5d950484d" target="_top" xlink:title="plant::PlantGeometry\l::stem_mass">
<polygon fill="none" stroke="#000000" points="974.5,-248.5 974.5,-278.5 1083.5,-278.5 1083.5,-248.5 974.5,-248.5"/>
<text text-anchor="start" x="982.5" y="-266.5" font-family="Helvetica,sans-Serif" font-size="10.00" fill="#000000">plant::PlantGeometry</text>
<text text-anchor="middle" x="1029" y="-255.5" font-family="Helvetica,sans-Serif" font-size="10.00" fill="#000000">::stem_mass</text>
</a>
</g>
</g>
<!-- Node64&#45;&gt;Node65 -->
<g id="edge13" class="edge">
<title>Node64&#45;&gt;Node65</title>
<path fill="none" stroke="#191970" d="M925.0467,-263.5C937.624,-263.5 951.1235,-263.5 964.0929,-263.5"/>
<polygon fill="#191970" stroke="#191970" points="964.3528,-267.0001 974.3527,-263.5 964.3527,-260.0001 964.3528,-267.0001"/>
</g>
<!-- Node67 -->
<g id="node16" class="node">
<title>Node67</title>
<g id="a_node16"><a xlink:href="classplant_1_1PlantGeometry.html#a9bb344d187b1854c5a1364f6cd585d72" target="_top" xlink:title="plant::PlantGeometry\l::leaf_mass">
<polygon fill="none" stroke="#000000" points="816,-199.5 816,-229.5 925,-229.5 925,-199.5 816,-199.5"/>
<text text-anchor="start" x="824" y="-217.5" font-family="Helvetica,sans-Serif" font-size="10.00" fill="#000000">plant::PlantGeometry</text>
<text text-anchor="middle" x="870.5" y="-206.5" font-family="Helvetica,sans-Serif" font-size="10.00" fill="#000000">::leaf_mass</text>
</a>
</g>
</g>
<!-- Node66&#45;&gt;Node67 -->
<g id="edge15" class="edge">
<title>Node66&#45;&gt;Node67</title>
<path fill="none" stroke="#191970" d="M753.7101,-214.5C770.1302,-214.5 788.5684,-214.5 805.8587,-214.5"/>
<polygon fill="#191970" stroke="#191970" points="805.8824,-218.0001 815.8824,-214.5 805.8824,-211.0001 805.8824,-218.0001"/>
</g>
<!-- Node68&#45;&gt;Node62 -->
<g id="edge17" class="edge">
<title>Node68&#45;&gt;Node62</title>
<path fill="none" stroke="#191970" d="M753.7101,-323.7016C770.1302,-327.3288 788.5684,-331.4017 805.8587,-335.221"/>
<polygon fill="#191970" stroke="#191970" points="805.3628,-338.6958 815.8824,-337.4352 806.8727,-331.8606 805.3628,-338.6958"/>
</g>
<!-- Node69&#45;&gt;Node54 -->
<g id="edge20" class="edge">
<title>Node69&#45;&gt;Node54</title>
<path fill="none" stroke="#191970" d="M390.3679,-264.1307C410.2089,-276.3702 445.9954,-297.7919 478,-313.5 481.3261,-315.1325 484.7918,-316.7547 488.3013,-318.3405"/>
<polygon fill="#191970" stroke="#191970" points="487.0644,-321.6199 497.6278,-322.4355 489.8786,-315.2105 487.0644,-321.6199"/>
</g>
<!-- Node70 -->
<g id="node19" class="node">
<title>Node70</title>
<g id="a_node19"><a xlink:href="classplant_1_1PlantGeometry.html#a818143a8613e10cb44bcb448b36984ca" target="_top" xlink:title="plant::PlantGeometry\l::set_lai">
<polygon fill="none" stroke="#000000" points="481.5,-273.5 481.5,-303.5 590.5,-303.5 590.5,-273.5 481.5,-273.5"/>
<text text-anchor="start" x="489.5" y="-291.5" font-family="Helvetica,sans-Serif" font-size="10.00" fill="#000000">plant::PlantGeometry</text>
<text text-anchor="middle" x="536" y="-280.5" font-family="Helvetica,sans-Serif" font-size="10.00" fill="#000000">::set_lai</text>
</a>
</g>
</g>
<!-- Node69&#45;&gt;Node70 -->
<g id="edge19" class="edge">
<title>Node69&#45;&gt;Node70</title>
<path fill="none" stroke="#191970" d="M420.2759,-264.0614C436.1366,-267.4108 454.2697,-271.2402 471.402,-274.8582"/>
<polygon fill="#191970" stroke="#191970" points="470.8414,-278.3169 481.3488,-276.9588 472.2878,-271.468 470.8414,-278.3169"/>
</g>
<!-- Node71 -->
<g id="node20" class="node">
<title>Node71</title>
<g id="a_node20"><a xlink:href="classplant_1_1PlantGeometry.html#a436490556ceb3fdab0db5b81132a6f3f" target="_top" xlink:title="plant::PlantGeometry\l::dmass_dt_lai">
<polygon fill="none" stroke="#000000" points="481.5,-224.5 481.5,-254.5 590.5,-254.5 590.5,-224.5 481.5,-224.5"/>
<text text-anchor="start" x="489.5" y="-242.5" font-family="Helvetica,sans-Serif" font-size="10.00" fill="#000000">plant::PlantGeometry</text>
<text text-anchor="middle" x="536" y="-231.5" font-family="Helvetica,sans-Serif" font-size="10.00" fill="#000000">::dmass_dt_lai</text>
</a>
</g>
</g>
<!-- Node69&#45;&gt;Node71 -->
<g id="edge21" class="edge">
<title>Node69&#45;&gt;Node71</title>
<path fill="none" stroke="#191970" d="M431.7626,-249.2116C444.4782,-248.0269 458.0616,-246.7613 471.0799,-245.5485"/>
<polygon fill="#191970" stroke="#191970" points="471.7395,-249.0023 481.3717,-244.5896 471.0901,-242.0324 471.7395,-249.0023"/>
</g>
<!-- Node73 -->
<g id="node22" class="node">
<title>Node73</title>
<g id="a_node22"><a xlink:href="classplant_1_1PlantGeometry.html#a41f8eb0dcc4e8c585ed6b8222719dd5d" target="_top" xlink:title="plant::PlantGeometry\l::dreproduction_dmass">
<polygon fill="none" stroke="#000000" points="478,-175.5 478,-205.5 594,-205.5 594,-175.5 478,-175.5"/>
<text text-anchor="start" x="486" y="-193.5" font-family="Helvetica,sans-Serif" font-size="10.00" fill="#000000">plant::PlantGeometry</text>
<text text-anchor="middle" x="536" y="-182.5" font-family="Helvetica,sans-Serif" font-size="10.00" fill="#000000">::dreproduction_dmass</text>
</a>
</g>
</g>
<!-- Node72&#45;&gt;Node73 -->
<g id="edge23" class="edge">
<title>Node72&#45;&gt;Node73</title>
<path fill="none" stroke="#191970" d="M428.6107,-190.5C441.0977,-190.5 454.5599,-190.5 467.5897,-190.5"/>
<polygon fill="#191970" stroke="#191970" points="467.9198,-194.0001 477.9197,-190.5 467.9197,-187.0001 467.9198,-194.0001"/>
</g>
<!-- Node75 -->
<g id="node24" class="node">
<title>Node75</title>
<g id="a_node24"><a xlink:href="classplant_1_1PlantGeometry.html#a2588428307028e5d6f1b6514aaa9dd59" target="_top" xlink:title="plant::PlantGeometry\l::dsize_dmass">
<polygon fill="none" stroke="#000000" points="481.5,-126.5 481.5,-156.5 590.5,-156.5 590.5,-126.5 481.5,-126.5"/>
<text text-anchor="start" x="489.5" y="-144.5" font-family="Helvetica,sans-Serif" font-size="10.00" fill="#000000">plant::PlantGeometry</text>
<text text-anchor="middle" x="536" y="-133.5" font-family="Helvetica,sans-Serif" font-size="10.00" fill="#000000">::dsize_dmass</text>
</a>
</g>
</g>
<!-- Node74&#45;&gt;Node75 -->
<g id="edge25" class="edge">
<title>Node74&#45;&gt;Node75</title>
<path fill="none" stroke="#191970" d="M420.2759,-141.5C435.9884,-141.5 453.931,-141.5 470.9214,-141.5"/>
<polygon fill="#191970" stroke="#191970" points="471.3489,-145.0001 481.3488,-141.5 471.3488,-138.0001 471.3489,-145.0001"/>
</g>
<!-- Node76 -->
<g id="node25" class="node">
<title>Node76</title>
<g id="a_node25"><a xlink:href="classplant_1_1PlantGeometry.html#a3988e151a21d97e544460b200993ac71" target="_top" xlink:title="plant::PlantGeometry\l::get_size">
<polygon fill="none" stroke="#000000" points="481.5,-77.5 481.5,-107.5 590.5,-107.5 590.5,-77.5 481.5,-77.5"/>
<text text-anchor="start" x="489.5" y="-95.5" font-family="Helvetica,sans-Serif" font-size="10.00" fill="#000000">plant::PlantGeometry</text>
<text text-anchor="middle" x="536" y="-84.5" font-family="Helvetica,sans-Serif" font-size="10.00" fill="#000000">::get_size</text>
</a>
</g>
</g>
<!-- Node74&#45;&gt;Node76 -->
<g id="edge26" class="edge">
<title>Node74&#45;&gt;Node76</title>
<path fill="none" stroke="#191970" d="M420.2759,-127.7204C437.8587,-122.3691 458.2341,-116.1679 476.9429,-110.4739"/>
<polygon fill="#191970" stroke="#191970" points="478.0032,-113.8098 486.5508,-107.5497 475.965,-107.1131 478.0032,-113.8098"/>
</g>
</g>
</svg>
