<?xml version="1.0" encoding="UTF-8" standalone="no"?>
<!DOCTYPE svg PUBLIC "-//W3C//DTD SVG 1.1//EN"
 "http://www.w3.org/Graphics/SVG/1.1/DTD/svg11.dtd">
<!-- Generated by graphviz version 2.40.1 (20161225.0304)
 -->
<!-- Title: plant::Assimilator::leaf_assimilation_rate Pages: 1 -->
<svg width="931pt" height="165pt"
 viewBox="0.00 0.00 931.00 164.50" xmlns="http://www.w3.org/2000/svg" xmlns:xlink="http://www.w3.org/1999/xlink">
<g id="graph0" class="graph" transform="scale(1 1) rotate(0) translate(4 160.5)">
<title>plant::Assimilator::leaf_assimilation_rate</title>
<!-- Node15 -->
<g id="node1" class="node">
<title>Node15</title>
<polygon fill="#bfbfbf" stroke="#000000" points="0,-74 0,-104 117,-104 117,-74 0,-74"/>
<text text-anchor="start" x="8" y="-92" font-family="Helvetica,sans-Serif" font-size="10.00" fill="#000000">plant::Assimilator</text>
<text text-anchor="middle" x="58.5" y="-81" font-family="Helvetica,sans-Serif" font-size="10.00" fill="#000000">::leaf_assimilation_rate</text>
</g>
<!-- Node16 -->
<g id="node2" class="node">
<title>Node16</title>
<g id="a_node2"><a xlink:href="classplant_1_1Assimilator.html#a95024a28af68fde0b11acef9903aaa9d" target="_top" xlink:title="plant::Assimilator\l::calc_plant_assimilation_rate">
<polygon fill="none" stroke="#000000" points="153,-74 153,-104 299,-104 299,-74 153,-74"/>
<text text-anchor="start" x="161" y="-92" font-family="Helvetica,sans-Serif" font-size="10.00" fill="#000000">plant::Assimilator</text>
<text text-anchor="middle" x="226" y="-81" font-family="Helvetica,sans-Serif" font-size="10.00" fill="#000000">::calc_plant_assimilation_rate</text>
</a>
</g>
</g>
<!-- Node15&#45;&gt;Node16 -->
<g id="edge1" class="edge">
<title>Node15&#45;&gt;Node16</title>
<path fill="none" stroke="#191970" d="M127.2157,-89C135.6269,-89 144.2474,-89 152.7224,-89"/>
<polygon fill="#191970" stroke="#191970" points="127.0834,-85.5001 117.0834,-89 127.0833,-92.5001 127.0834,-85.5001"/>
</g>
<!-- Node17 -->
<g id="node3" class="node">
<title>Node17</title>
<g id="a_node3"><a xlink:href="classplant_1_1Assimilator.html#ab5cf98dde0fb1d49ce4d0f44387b628b" target="_top" xlink:title="plant::Assimilator\l::net_production">
<polygon fill="none" stroke="#000000" points="335,-74 335,-104 427,-104 427,-74 335,-74"/>
<text text-anchor="start" x="343" y="-92" font-family="Helvetica,sans-Serif" font-size="10.00" fill="#000000">plant::Assimilator</text>
<text text-anchor="middle" x="381" y="-81" font-family="Helvetica,sans-Serif" font-size="10.00" fill="#000000">::net_production</text>
</a>
</g>
</g>
<!-- Node16&#45;&gt;Node17 -->
<g id="edge2" class="edge">
<title>Node16&#45;&gt;Node17</title>
<path fill="none" stroke="#191970" d="M309.5874,-89C318.2353,-89 326.7815,-89 334.7917,-89"/>
<polygon fill="#191970" stroke="#191970" points="309.4148,-85.5001 299.4148,-89 309.4147,-92.5001 309.4148,-85.5001"/>
</g>
<!-- Node18 -->
<g id="node4" class="node">
<title>Node18</title>
<g id="a_node4"><a xlink:href="classplant_1_1Plant.html#a48612779a5850cca9cc6f6caff1ccb8b" target="_top" xlink:title="plant::Plant::lai_model">
<polygon fill="none" stroke="#000000" points="464.5,-117.5 464.5,-136.5 577.5,-136.5 577.5,-117.5 464.5,-117.5"/>
<text text-anchor="middle" x="521" y="-124.5" font-family="Helvetica,sans-Serif" font-size="10.00" fill="#000000">plant::Plant::lai_model</text>
</a>
</g>
</g>
<!-- Node17&#45;&gt;Node18 -->
<g id="edge3" class="edge">
<title>Node17&#45;&gt;Node18</title>
<path fill="none" stroke="#191970" d="M437.2892,-104.2785C453.7185,-108.7379 471.1965,-113.4819 485.9092,-117.4754"/>
<polygon fill="#191970" stroke="#191970" points="437.7969,-100.7897 427.2292,-101.5479 435.9632,-107.5453 437.7969,-100.7897"/>
</g>
<!-- Node19 -->
<g id="node5" class="node">
<title>Node19</title>
<g id="a_node5"><a xlink:href="classplant_1_1Plant.html#ab39fa79cb8884c684af5db0c98a1785e" target="_top" xlink:title="plant::Plant::calc\l_demographic_rates">
<polygon fill="none" stroke="#000000" points="633,-104 633,-134 737,-134 737,-104 633,-104"/>
<text text-anchor="start" x="641" y="-122" font-family="Helvetica,sans-Serif" font-size="10.00" fill="#000000">plant::Plant::calc</text>
<text text-anchor="middle" x="685" y="-111" font-family="Helvetica,sans-Serif" font-size="10.00" fill="#000000">_demographic_rates</text>
</a>
</g>
</g>
<!-- Node17&#45;&gt;Node19 -->
<g id="edge10" class="edge">
<title>Node17&#45;&gt;Node19</title>
<path fill="none" stroke="#191970" d="M437.0252,-94.2597C476.6806,-98.011 531.1103,-103.2175 579,-108 596.5816,-109.7558 615.797,-111.7324 632.9806,-113.5207"/>
<polygon fill="#191970" stroke="#191970" points="437.3041,-90.7705 427.0192,-93.3144 436.6456,-97.7395 437.3041,-90.7705"/>
</g>
<!-- Node22 -->
<g id="node8" class="node">
<title>Node22</title>
<g id="a_node8"><a xlink:href="classplant_1_1Plant.html#a03c45eaaabce7ff0287598818dc4847f" target="_top" xlink:title="plant::Plant::p_survival\l_germination">
<polygon fill="none" stroke="#000000" points="463,-30 463,-60 579,-60 579,-30 463,-30"/>
<text text-anchor="start" x="471" y="-48" font-family="Helvetica,sans-Serif" font-size="10.00" fill="#000000">plant::Plant::p_survival</text>
<text text-anchor="middle" x="521" y="-37" font-family="Helvetica,sans-Serif" font-size="10.00" fill="#000000">_germination</text>
</a>
</g>
</g>
<!-- Node17&#45;&gt;Node22 -->
<g id="edge7" class="edge">
<title>Node17&#45;&gt;Node22</title>
<path fill="none" stroke="#191970" d="M437.0413,-71.387C448.9164,-67.6548 461.3502,-63.7471 472.8995,-60.1173"/>
<polygon fill="#191970" stroke="#191970" points="435.7198,-68.1335 427.2292,-74.4708 437.8186,-74.8115 435.7198,-68.1335"/>
</g>
<!-- Node18&#45;&gt;Node19 -->
<g id="edge4" class="edge">
<title>Node18&#45;&gt;Node19</title>
<path fill="none" stroke="#191970" d="M588.1024,-123.7267C603.0348,-122.9983 618.6493,-122.2366 632.8744,-121.5427"/>
<polygon fill="#191970" stroke="#191970" points="587.7165,-120.2413 577.899,-124.2244 588.0577,-127.233 587.7165,-120.2413"/>
</g>
<!-- Node20 -->
<g id="node6" class="node">
<title>Node20</title>
<g id="a_node6"><a xlink:href="classplant_1_1Plant.html#a274f7da212d5f05d4b281e49e11fc44e" target="_top" xlink:title="plant::Plant::grow\l_for_dt">
<polygon fill="none" stroke="#000000" points="810.5,-126 810.5,-156 903.5,-156 903.5,-126 810.5,-126"/>
<text text-anchor="start" x="818.5" y="-144" font-family="Helvetica,sans-Serif" font-size="10.00" fill="#000000">plant::Plant::grow</text>
<text text-anchor="middle" x="857" y="-133" font-family="Helvetica,sans-Serif" font-size="10.00" fill="#000000">_for_dt</text>
</a>
</g>
</g>
<!-- Node19&#45;&gt;Node20 -->
<g id="edge5" class="edge">
<title>Node19&#45;&gt;Node20</title>
<path fill="none" stroke="#191970" d="M747.1282,-126.9466C767.9941,-129.6155 790.8961,-132.5449 810.3657,-135.0352"/>
<polygon fill="#191970" stroke="#191970" points="747.4357,-123.4575 737.0724,-125.6604 746.5475,-130.401 747.4357,-123.4575"/>
</g>
<!-- Node21 -->
<g id="node7" class="node">
<title>Node21</title>
<g id="a_node7"><a xlink:href="classPSPM__Plant.html#a71f7312443767dffc44d8d0d80b295f0" target="_top" xlink:title="PSPM_Plant::preCompute">
<polygon fill="none" stroke="#000000" points="791,-87.5 791,-106.5 923,-106.5 923,-87.5 791,-87.5"/>
<text text-anchor="middle" x="857" y="-94.5" font-family="Helvetica,sans-Serif" font-size="10.00" fill="#000000">PSPM_Plant::preCompute</text>
</a>
</g>
</g>
<!-- Node19&#45;&gt;Node21 -->
<g id="edge6" class="edge">
<title>Node19&#45;&gt;Node21</title>
<path fill="none" stroke="#191970" d="M747.1933,-111.045C761.353,-109.2339 776.4473,-107.3032 790.7684,-105.4715"/>
<polygon fill="#191970" stroke="#191970" points="746.5475,-107.599 737.0724,-112.3396 747.4357,-114.5425 746.5475,-107.599"/>
</g>
<!-- Node23 -->
<g id="node9" class="node">
<title>Node23</title>
<g id="a_node9"><a xlink:href="classPSPM__Plant.html#a4ceca1be5d1089c49dcecdc5ce216727" target="_top" xlink:title="PSPM_Plant::establishment\lProbability">
<polygon fill="none" stroke="#000000" points="615,-39 615,-69 755,-69 755,-39 615,-39"/>
<text text-anchor="start" x="623" y="-57" font-family="Helvetica,sans-Serif" font-size="10.00" fill="#000000">PSPM_Plant::establishment</text>
<text text-anchor="middle" x="685" y="-46" font-family="Helvetica,sans-Serif" font-size="10.00" fill="#000000">Probability</text>
</a>
</g>
</g>
<!-- Node22&#45;&gt;Node23 -->
<g id="edge8" class="edge">
<title>Node22&#45;&gt;Node23</title>
<path fill="none" stroke="#191970" d="M589.4083,-48.7541C597.8098,-49.2152 606.4071,-49.687 614.8341,-50.1494"/>
<polygon fill="#191970" stroke="#191970" points="589.4588,-45.2517 579.282,-48.1984 589.0752,-52.2412 589.4588,-45.2517"/>
</g>
<!-- Node24 -->
<g id="node10" class="node">
<title>Node24</title>
<g id="a_node10"><a xlink:href="classPSPM__Plant.html#ad3109143960e0a0ceded078733bc4d4c" target="_top" xlink:title="PSPM_Plant::init_state">
<polygon fill="none" stroke="#000000" points="625.5,-.5 625.5,-19.5 744.5,-19.5 744.5,-.5 625.5,-.5"/>
<text text-anchor="middle" x="685" y="-7.5" font-family="Helvetica,sans-Serif" font-size="10.00" fill="#000000">PSPM_Plant::init_state</text>
</a>
</g>
</g>
<!-- Node22&#45;&gt;Node24 -->
<g id="edge9" class="edge">
<title>Node22&#45;&gt;Node24</title>
<path fill="none" stroke="#191970" d="M589.3042,-30.4229C606.5293,-26.7468 624.5841,-22.8936 640.3116,-19.5372"/>
<polygon fill="#191970" stroke="#191970" points="588.3313,-27.0516 579.282,-32.5618 589.7923,-33.8975 588.3313,-27.0516"/>
</g>
</g>
</svg>
