<?xml version="1.0" encoding="UTF-8" standalone="no"?>
<!DOCTYPE svg PUBLIC "-//W3C//DTD SVG 1.1//EN"
 "http://www.w3.org/Graphics/SVG/1.1/DTD/svg11.dtd">
<!-- Generated by graphviz version 2.40.1 (20161225.0304)
 -->
<!-- Title: env::Climate::updateClimate Pages: 1 -->
<svg width="287pt" height="66pt"
 viewBox="0.00 0.00 287.00 66.00" xmlns="http://www.w3.org/2000/svg" xmlns:xlink="http://www.w3.org/1999/xlink">
<g id="graph0" class="graph" transform="scale(1 1) rotate(0) translate(4 62)">
<title>env::Climate::updateClimate</title>
<!-- Node18 -->
<g id="node1" class="node">
<title>Node18</title>
<polygon fill="#bfbfbf" stroke="#000000" points="0,-19.5 0,-38.5 141,-38.5 141,-19.5 0,-19.5"/>
<text text-anchor="middle" x="70.5" y="-26.5" font-family="Helvetica,sans-Serif" font-size="10.00" fill="#000000">env::Climate::updateClimate</text>
</g>
<!-- Node19 -->
<g id="node2" class="node">
<title>Node19</title>
<g id="a_node2"><a xlink:href="classenv_1_1Climate.html#a4cb0ce19d5c0633fe25d0b89ed16c573" target="_top" xlink:title="env::Climate::id">
<polygon fill="none" stroke="#000000" points="185,-38.5 185,-57.5 271,-57.5 271,-38.5 185,-38.5"/>
<text text-anchor="middle" x="228" y="-45.5" font-family="Helvetica,sans-Serif" font-size="10.00" fill="#000000">env::Climate::id</text>
</a>
</g>
</g>
<!-- Node18&#45;&gt;Node19 -->
<g id="edge1" class="edge">
<title>Node18&#45;&gt;Node19</title>
<path fill="none" stroke="#191970" d="M141.4173,-37.5551C152.6786,-38.9136 164.1556,-40.2981 174.915,-41.5961"/>
<polygon fill="#191970" stroke="#191970" points="174.6331,-45.0874 184.9803,-42.8103 175.4715,-38.1378 174.6331,-45.0874"/>
</g>
<!-- Node20 -->
<g id="node3" class="node">
<title>Node20</title>
<g id="a_node3"><a xlink:href="classenv_1_1Climate.html#a02facc89ab0f9c97f4beeff7582542af" target="_top" xlink:title="env::Climate::interp">
<polygon fill="none" stroke="#000000" points="177,-.5 177,-19.5 279,-19.5 279,-.5 177,-.5"/>
<text text-anchor="middle" x="228" y="-7.5" font-family="Helvetica,sans-Serif" font-size="10.00" fill="#000000">env::Climate::interp</text>
</a>
</g>
</g>
<!-- Node18&#45;&gt;Node20 -->
<g id="edge2" class="edge">
<title>Node18&#45;&gt;Node20</title>
<path fill="none" stroke="#191970" d="M141.4173,-20.4449C149.8923,-19.4225 158.4894,-18.3854 166.811,-17.3815"/>
<polygon fill="#191970" stroke="#191970" points="167.2891,-20.8493 176.7979,-16.1768 166.4507,-13.8997 167.2891,-20.8493"/>
</g>
</g>
</svg>
