<?xml version="1.0" encoding="UTF-8" standalone="no"?>
<!DOCTYPE svg PUBLIC "-//W3C//DTD SVG 1.1//EN"
 "http://www.w3.org/Graphics/SVG/1.1/DTD/svg11.dtd">
<!-- Generated by graphviz version 2.40.1 (20161225.0304)
 -->
<!-- Title: plant::Plant::p_survival_germination Pages: 1 -->
<svg width="751pt" height="310pt"
 viewBox="0.00 0.00 751.00 309.50" xmlns="http://www.w3.org/2000/svg" xmlns:xlink="http://www.w3.org/1999/xlink">
<g id="graph0" class="graph" transform="scale(1 1) rotate(0) translate(4 305.5)">
<title>plant::Plant::p_survival_germination</title>
<!-- Node121 -->
<g id="node1" class="node">
<title>Node121</title>
<polygon fill="#bfbfbf" stroke="#000000" points="0,-122.5 0,-152.5 116,-152.5 116,-122.5 0,-122.5"/>
<text text-anchor="start" x="8" y="-140.5" font-family="Helvetica,sans-Serif" font-size="10.00" fill="#000000">plant::Plant::p_survival</text>
<text text-anchor="middle" x="58" y="-129.5" font-family="Helvetica,sans-Serif" font-size="10.00" fill="#000000">_germination</text>
</g>
<!-- Node122 -->
<g id="node2" class="node">
<title>Node122</title>
<g id="a_node2"><a xlink:href="classplant_1_1Assimilator.html#ab5cf98dde0fb1d49ce4d0f44387b628b" target="_top" xlink:title="plant::Assimilator\l::net_production">
<polygon fill="none" stroke="#000000" points="152,-122.5 152,-152.5 244,-152.5 244,-122.5 152,-122.5"/>
<text text-anchor="start" x="160" y="-140.5" font-family="Helvetica,sans-Serif" font-size="10.00" fill="#000000">plant::Assimilator</text>
<text text-anchor="middle" x="198" y="-129.5" font-family="Helvetica,sans-Serif" font-size="10.00" fill="#000000">::net_production</text>
</a>
</g>
</g>
<!-- Node121&#45;&gt;Node122 -->
<g id="edge1" class="edge">
<title>Node121&#45;&gt;Node122</title>
<path fill="none" stroke="#191970" d="M116.1563,-137.5C124.5952,-137.5 133.2705,-137.5 141.6724,-137.5"/>
<polygon fill="#191970" stroke="#191970" points="141.7511,-141.0001 151.751,-137.5 141.751,-134.0001 141.7511,-141.0001"/>
</g>
<!-- Node123 -->
<g id="node3" class="node">
<title>Node123</title>
<g id="a_node3"><a xlink:href="classplant_1_1Assimilator.html#a95024a28af68fde0b11acef9903aaa9d" target="_top" xlink:title="plant::Assimilator\l::calc_plant_assimilation_rate">
<polygon fill="none" stroke="#000000" points="280,-245.5 280,-275.5 426,-275.5 426,-245.5 280,-245.5"/>
<text text-anchor="start" x="288" y="-263.5" font-family="Helvetica,sans-Serif" font-size="10.00" fill="#000000">plant::Assimilator</text>
<text text-anchor="middle" x="353" y="-252.5" font-family="Helvetica,sans-Serif" font-size="10.00" fill="#000000">::calc_plant_assimilation_rate</text>
</a>
</g>
</g>
<!-- Node122&#45;&gt;Node123 -->
<g id="edge2" class="edge">
<title>Node122&#45;&gt;Node123</title>
<path fill="none" stroke="#191970" d="M206.6138,-152.5125C219.7522,-174.1208 246.8072,-213.8724 280,-236.5 282.2477,-238.0323 284.6005,-239.4727 287.0273,-240.8262"/>
<polygon fill="#191970" stroke="#191970" points="285.574,-244.0127 296.0834,-245.3557 288.7053,-237.7521 285.574,-244.0127"/>
</g>
<!-- Node128 -->
<g id="node8" class="node">
<title>Node128</title>
<g id="a_node8"><a xlink:href="classplant_1_1Assimilator.html#a680517258b2674fe94fdcba41fdf771e" target="_top" xlink:title="plant::Assimilator\l::leaf_respiration_rate">
<polygon fill="none" stroke="#000000" points="298,-196.5 298,-226.5 408,-226.5 408,-196.5 298,-196.5"/>
<text text-anchor="start" x="306" y="-214.5" font-family="Helvetica,sans-Serif" font-size="10.00" fill="#000000">plant::Assimilator</text>
<text text-anchor="middle" x="353" y="-203.5" font-family="Helvetica,sans-Serif" font-size="10.00" fill="#000000">::leaf_respiration_rate</text>
</a>
</g>
</g>
<!-- Node122&#45;&gt;Node128 -->
<g id="edge7" class="edge">
<title>Node122&#45;&gt;Node128</title>
<path fill="none" stroke="#191970" d="M219.5122,-152.5096C235.6257,-163.2756 258.5042,-177.5739 280,-187.5 284.0613,-189.3754 288.3111,-191.1712 292.6303,-192.8762"/>
<polygon fill="#191970" stroke="#191970" points="291.5586,-196.2125 302.1506,-196.4592 294.0243,-189.6611 291.5586,-196.2125"/>
</g>
<!-- Node129 -->
<g id="node9" class="node">
<title>Node129</title>
<g id="a_node9"><a xlink:href="classplant_1_1Assimilator.html#ab48c39e03fe75f132440554504c5a1f9" target="_top" xlink:title="plant::Assimilator\l::root_respiration_rate">
<polygon fill="none" stroke="#000000" points="297.5,-147.5 297.5,-177.5 408.5,-177.5 408.5,-147.5 297.5,-147.5"/>
<text text-anchor="start" x="305.5" y="-165.5" font-family="Helvetica,sans-Serif" font-size="10.00" fill="#000000">plant::Assimilator</text>
<text text-anchor="middle" x="353" y="-154.5" font-family="Helvetica,sans-Serif" font-size="10.00" fill="#000000">::root_respiration_rate</text>
</a>
</g>
</g>
<!-- Node122&#45;&gt;Node129 -->
<g id="edge8" class="edge">
<title>Node122&#45;&gt;Node129</title>
<path fill="none" stroke="#191970" d="M244.0854,-144.9331C257.644,-147.12 272.7468,-149.5559 287.2832,-151.9005"/>
<polygon fill="#191970" stroke="#191970" points="286.8007,-155.3679 297.2305,-153.5049 287.9154,-148.4572 286.8007,-155.3679"/>
</g>
<!-- Node131 -->
<g id="node11" class="node">
<title>Node131</title>
<g id="a_node11"><a xlink:href="classplant_1_1Assimilator.html#aa6121d1ac17dca9d28e2f0a5719ebf40" target="_top" xlink:title="plant::Assimilator\l::sapwood_respiration_rate">
<polygon fill="none" stroke="#000000" points="286,-49.5 286,-79.5 420,-79.5 420,-49.5 286,-49.5"/>
<text text-anchor="start" x="294" y="-67.5" font-family="Helvetica,sans-Serif" font-size="10.00" fill="#000000">plant::Assimilator</text>
<text text-anchor="middle" x="353" y="-56.5" font-family="Helvetica,sans-Serif" font-size="10.00" fill="#000000">::sapwood_respiration_rate</text>
</a>
</g>
</g>
<!-- Node122&#45;&gt;Node131 -->
<g id="edge10" class="edge">
<title>Node122&#45;&gt;Node131</title>
<path fill="none" stroke="#191970" d="M221.0149,-122.3524C237.0944,-112.1922 259.3059,-98.9849 280,-89.5 284.8712,-87.2673 290.0024,-85.122 295.1934,-83.0913"/>
<polygon fill="#191970" stroke="#191970" points="296.4329,-86.3645 304.5585,-79.5655 293.9665,-79.8134 296.4329,-86.3645"/>
</g>
<!-- Node134 -->
<g id="node14" class="node">
<title>Node134</title>
<g id="a_node14"><a xlink:href="classplant_1_1Assimilator.html#a620f829f503b9c30129ef26dab988eda" target="_top" xlink:title="plant::Assimilator\l::leaf_turnover_rate">
<polygon fill="none" stroke="#000000" points="302.5,-.5 302.5,-30.5 403.5,-30.5 403.5,-.5 302.5,-.5"/>
<text text-anchor="start" x="310.5" y="-18.5" font-family="Helvetica,sans-Serif" font-size="10.00" fill="#000000">plant::Assimilator</text>
<text text-anchor="middle" x="353" y="-7.5" font-family="Helvetica,sans-Serif" font-size="10.00" fill="#000000">::leaf_turnover_rate</text>
</a>
</g>
</g>
<!-- Node122&#45;&gt;Node134 -->
<g id="edge13" class="edge">
<title>Node122&#45;&gt;Node134</title>
<path fill="none" stroke="#191970" d="M206.8725,-122.2839C220.1382,-100.8189 247.1333,-61.7854 280,-39.5 283.9993,-36.7883 288.3281,-34.3635 292.8132,-32.1987"/>
<polygon fill="#191970" stroke="#191970" points="294.4167,-35.3178 302.1834,-28.1117 291.6181,-28.9016 294.4167,-35.3178"/>
</g>
<!-- Node136 -->
<g id="node16" class="node">
<title>Node136</title>
<g id="a_node16"><a xlink:href="classplant_1_1Assimilator.html#acdbc33099ba37ba301616e1b3ad6d1c4" target="_top" xlink:title="plant::Assimilator\l::root_turnover_rate">
<polygon fill="none" stroke="#000000" points="302.5,-98.5 302.5,-128.5 403.5,-128.5 403.5,-98.5 302.5,-98.5"/>
<text text-anchor="start" x="310.5" y="-116.5" font-family="Helvetica,sans-Serif" font-size="10.00" fill="#000000">plant::Assimilator</text>
<text text-anchor="middle" x="353" y="-105.5" font-family="Helvetica,sans-Serif" font-size="10.00" fill="#000000">::root_turnover_rate</text>
</a>
</g>
</g>
<!-- Node122&#45;&gt;Node136 -->
<g id="edge15" class="edge">
<title>Node122&#45;&gt;Node136</title>
<path fill="none" stroke="#191970" d="M244.0854,-130.3642C259.1653,-128.0293 276.1552,-125.3986 292.1517,-122.9217"/>
<polygon fill="#191970" stroke="#191970" points="293.1435,-126.3099 302.4901,-121.3209 292.0723,-119.3923 293.1435,-126.3099"/>
</g>
<!-- Node124 -->
<g id="node4" class="node">
<title>Node124</title>
<g id="a_node4"><a xlink:href="classplant_1_1PlantGeometry.html#a73eed0a3db55748b6d2615945ec1f08b" target="_top" xlink:title="plant::PlantGeometry\l::crown_area_above">
<polygon fill="none" stroke="#000000" points="466,-257.5 466,-287.5 575,-287.5 575,-257.5 466,-257.5"/>
<text text-anchor="start" x="474" y="-275.5" font-family="Helvetica,sans-Serif" font-size="10.00" fill="#000000">plant::PlantGeometry</text>
<text text-anchor="middle" x="520.5" y="-264.5" font-family="Helvetica,sans-Serif" font-size="10.00" fill="#000000">::crown_area_above</text>
</a>
</g>
</g>
<!-- Node123&#45;&gt;Node124 -->
<g id="edge3" class="edge">
<title>Node123&#45;&gt;Node124</title>
<path fill="none" stroke="#191970" d="M426.4679,-265.7634C436.2153,-266.4617 446.1513,-267.1735 455.737,-267.8603"/>
<polygon fill="#191970" stroke="#191970" points="455.751,-271.3701 465.9756,-268.5938 456.2513,-264.388 455.751,-271.3701"/>
</g>
<!-- Node127 -->
<g id="node7" class="node">
<title>Node127</title>
<g id="a_node7"><a xlink:href="classplant_1_1Assimilator.html#a25e0068c52700ba3d4b0d8e44398aa02" target="_top" xlink:title="plant::Assimilator\l::leaf_assimilation_rate">
<polygon fill="none" stroke="#000000" points="462,-208.5 462,-238.5 579,-238.5 579,-208.5 462,-208.5"/>
<text text-anchor="start" x="470" y="-226.5" font-family="Helvetica,sans-Serif" font-size="10.00" fill="#000000">plant::Assimilator</text>
<text text-anchor="middle" x="520.5" y="-215.5" font-family="Helvetica,sans-Serif" font-size="10.00" fill="#000000">::leaf_assimilation_rate</text>
</a>
</g>
</g>
<!-- Node123&#45;&gt;Node127 -->
<g id="edge6" class="edge">
<title>Node123&#45;&gt;Node127</title>
<path fill="none" stroke="#191970" d="M421.1287,-245.4507C431.2502,-243.2149 441.6873,-240.9094 451.82,-238.6711"/>
<polygon fill="#191970" stroke="#191970" points="452.8188,-242.0349 461.8284,-236.4603 451.3088,-235.1997 452.8188,-242.0349"/>
</g>
<!-- Node125 -->
<g id="node5" class="node">
<title>Node125</title>
<g id="a_node5"><a xlink:href="classplant_1_1PlantGeometry.html#aed573b6d75e2a0adc4ebdeacec3c34e7" target="_top" xlink:title="plant::PlantGeometry::q">
<polygon fill="none" stroke="#000000" points="619,-282 619,-301 739,-301 739,-282 619,-282"/>
<text text-anchor="middle" x="679" y="-289" font-family="Helvetica,sans-Serif" font-size="10.00" fill="#000000">plant::PlantGeometry::q</text>
</a>
</g>
</g>
<!-- Node124&#45;&gt;Node125 -->
<g id="edge4" class="edge">
<title>Node124&#45;&gt;Node125</title>
<path fill="none" stroke="#191970" d="M575.0467,-279.0387C585.8792,-280.3373 597.3958,-281.7178 608.6687,-283.0691"/>
<polygon fill="#191970" stroke="#191970" points="608.5806,-286.5835 618.9261,-284.2987 609.4138,-279.6333 608.5806,-286.5835"/>
</g>
<!-- Node126 -->
<g id="node6" class="node">
<title>Node126</title>
<g id="a_node6"><a xlink:href="classplant_1_1PlantGeometry.html#a538c106c834b386d8dfce3702f42a93d" target="_top" xlink:title="plant::PlantGeometry::zm">
<polygon fill="none" stroke="#000000" points="615,-244 615,-263 743,-263 743,-244 615,-244"/>
<text text-anchor="middle" x="679" y="-251" font-family="Helvetica,sans-Serif" font-size="10.00" fill="#000000">plant::PlantGeometry::zm</text>
</a>
</g>
</g>
<!-- Node124&#45;&gt;Node126 -->
<g id="edge5" class="edge">
<title>Node124&#45;&gt;Node126</title>
<path fill="none" stroke="#191970" d="M575.0467,-265.9613C584.6507,-264.81 594.7925,-263.5943 604.8253,-262.3916"/>
<polygon fill="#191970" stroke="#191970" points="605.2856,-265.8616 614.798,-261.1961 604.4524,-258.9113 605.2856,-265.8616"/>
</g>
<!-- Node130 -->
<g id="node10" class="node">
<title>Node130</title>
<g id="a_node10"><a xlink:href="classplant_1_1PlantGeometry.html#a721712ac253434c4709a4300f3e6396a" target="_top" xlink:title="plant::PlantGeometry\l::root_mass">
<polygon fill="none" stroke="#000000" points="466,-135.5 466,-165.5 575,-165.5 575,-135.5 466,-135.5"/>
<text text-anchor="start" x="474" y="-153.5" font-family="Helvetica,sans-Serif" font-size="10.00" fill="#000000">plant::PlantGeometry</text>
<text text-anchor="middle" x="520.5" y="-142.5" font-family="Helvetica,sans-Serif" font-size="10.00" fill="#000000">::root_mass</text>
</a>
</g>
</g>
<!-- Node129&#45;&gt;Node130 -->
<g id="edge9" class="edge">
<title>Node129&#45;&gt;Node130</title>
<path fill="none" stroke="#191970" d="M408.7751,-158.5042C423.8421,-157.4247 440.2738,-156.2475 455.7856,-155.1363"/>
<polygon fill="#191970" stroke="#191970" points="456.0984,-158.6229 465.8227,-154.4172 455.5981,-151.6408 456.0984,-158.6229"/>
</g>
<!-- Node132 -->
<g id="node12" class="node">
<title>Node132</title>
<g id="a_node12"><a xlink:href="classplant_1_1PlantGeometry.html#aa34014d10ad2f1585b22958a27bee404" target="_top" xlink:title="plant::PlantGeometry\l::sapwood_mass">
<polygon fill="none" stroke="#000000" points="466,-49.5 466,-79.5 575,-79.5 575,-49.5 466,-49.5"/>
<text text-anchor="start" x="474" y="-67.5" font-family="Helvetica,sans-Serif" font-size="10.00" fill="#000000">plant::PlantGeometry</text>
<text text-anchor="middle" x="520.5" y="-56.5" font-family="Helvetica,sans-Serif" font-size="10.00" fill="#000000">::sapwood_mass</text>
</a>
</g>
</g>
<!-- Node131&#45;&gt;Node132 -->
<g id="edge11" class="edge">
<title>Node131&#45;&gt;Node132</title>
<path fill="none" stroke="#191970" d="M420.1635,-64.5C431.9194,-64.5 444.1295,-64.5 455.8165,-64.5"/>
<polygon fill="#191970" stroke="#191970" points="455.9277,-68.0001 465.9276,-64.5 455.9276,-61.0001 455.9277,-68.0001"/>
</g>
<!-- Node133 -->
<g id="node13" class="node">
<title>Node133</title>
<g id="a_node13"><a xlink:href="classplant_1_1PlantGeometry.html#adb7202ef29b176b65c43c5b5d950484d" target="_top" xlink:title="plant::PlantGeometry\l::stem_mass">
<polygon fill="none" stroke="#000000" points="624.5,-49.5 624.5,-79.5 733.5,-79.5 733.5,-49.5 624.5,-49.5"/>
<text text-anchor="start" x="632.5" y="-67.5" font-family="Helvetica,sans-Serif" font-size="10.00" fill="#000000">plant::PlantGeometry</text>
<text text-anchor="middle" x="679" y="-56.5" font-family="Helvetica,sans-Serif" font-size="10.00" fill="#000000">::stem_mass</text>
</a>
</g>
</g>
<!-- Node132&#45;&gt;Node133 -->
<g id="edge12" class="edge">
<title>Node132&#45;&gt;Node133</title>
<path fill="none" stroke="#191970" d="M575.0467,-64.5C587.624,-64.5 601.1235,-64.5 614.0929,-64.5"/>
<polygon fill="#191970" stroke="#191970" points="614.3528,-68.0001 624.3527,-64.5 614.3527,-61.0001 614.3528,-68.0001"/>
</g>
<!-- Node135 -->
<g id="node15" class="node">
<title>Node135</title>
<g id="a_node15"><a xlink:href="classplant_1_1PlantGeometry.html#a9bb344d187b1854c5a1364f6cd585d72" target="_top" xlink:title="plant::PlantGeometry\l::leaf_mass">
<polygon fill="none" stroke="#000000" points="466,-.5 466,-30.5 575,-30.5 575,-.5 466,-.5"/>
<text text-anchor="start" x="474" y="-18.5" font-family="Helvetica,sans-Serif" font-size="10.00" fill="#000000">plant::PlantGeometry</text>
<text text-anchor="middle" x="520.5" y="-7.5" font-family="Helvetica,sans-Serif" font-size="10.00" fill="#000000">::leaf_mass</text>
</a>
</g>
</g>
<!-- Node134&#45;&gt;Node135 -->
<g id="edge14" class="edge">
<title>Node134&#45;&gt;Node135</title>
<path fill="none" stroke="#191970" d="M403.7101,-15.5C420.1302,-15.5 438.5684,-15.5 455.8587,-15.5"/>
<polygon fill="#191970" stroke="#191970" points="455.8824,-19.0001 465.8824,-15.5 455.8824,-12.0001 455.8824,-19.0001"/>
</g>
<!-- Node136&#45;&gt;Node130 -->
<g id="edge16" class="edge">
<title>Node136&#45;&gt;Node130</title>
<path fill="none" stroke="#191970" d="M403.7101,-124.7016C420.1302,-128.3288 438.5684,-132.4017 455.8587,-136.221"/>
<polygon fill="#191970" stroke="#191970" points="455.3628,-139.6958 465.8824,-138.4352 456.8727,-132.8606 455.3628,-139.6958"/>
</g>
</g>
</svg>
