<?xml version="1.0" encoding="UTF-8" standalone="no"?>
<!DOCTYPE svg PUBLIC "-//W3C//DTD SVG 1.1//EN"
 "http://www.w3.org/Graphics/SVG/1.1/DTD/svg11.dtd">
<!-- Generated by graphviz version 2.40.1 (20161225.0304)
 -->
<!-- Title: plant::PlantGeometry::set_size Pages: 1 -->
<svg width="391pt" height="132pt"
 viewBox="0.00 0.00 391.00 132.00" xmlns="http://www.w3.org/2000/svg" xmlns:xlink="http://www.w3.org/1999/xlink">
<g id="graph0" class="graph" transform="scale(1 1) rotate(0) translate(4 128)">
<title>plant::PlantGeometry::set_size</title>
<!-- Node134 -->
<g id="node1" class="node">
<title>Node134</title>
<polygon fill="#bfbfbf" stroke="#000000" points="0,-49.5 0,-79.5 109,-79.5 109,-49.5 0,-49.5"/>
<text text-anchor="start" x="8" y="-67.5" font-family="Helvetica,sans-Serif" font-size="10.00" fill="#000000">plant::PlantGeometry</text>
<text text-anchor="middle" x="54.5" y="-56.5" font-family="Helvetica,sans-Serif" font-size="10.00" fill="#000000">::set_size</text>
</g>
<!-- Node135 -->
<g id="node2" class="node">
<title>Node135</title>
<g id="a_node2"><a xlink:href="classplant_1_1Plant.html#a1157bce8a29e6a26f2e5d4cc30909aea" target="_top" xlink:title="plant::Plant::set_size">
<polygon fill="none" stroke="#000000" points="145,-99 145,-118 254,-118 254,-99 145,-99"/>
<text text-anchor="middle" x="199.5" y="-106" font-family="Helvetica,sans-Serif" font-size="10.00" fill="#000000">plant::Plant::set_size</text>
</a>
</g>
</g>
<!-- Node134&#45;&gt;Node135 -->
<g id="edge1" class="edge">
<title>Node134&#45;&gt;Node135</title>
<path fill="none" stroke="#191970" d="M113.5868,-82.4298C132.1934,-88.0759 152.0213,-94.0927 167.9352,-98.9217"/>
<polygon fill="#191970" stroke="#191970" points="114.5807,-79.0738 103.9952,-79.5192 112.548,-85.7722 114.5807,-79.0738"/>
</g>
<!-- Node137 -->
<g id="node4" class="node">
<title>Node137</title>
<g id="a_node4"><a xlink:href="classplant_1_1PlantGeometry.html#a4064556ab703b368d70964de42a285af" target="_top" xlink:title="plant::PlantGeometry\l::set_state">
<polygon fill="none" stroke="#000000" points="145,-49.5 145,-79.5 254,-79.5 254,-49.5 145,-49.5"/>
<text text-anchor="start" x="153" y="-67.5" font-family="Helvetica,sans-Serif" font-size="10.00" fill="#000000">plant::PlantGeometry</text>
<text text-anchor="middle" x="199.5" y="-56.5" font-family="Helvetica,sans-Serif" font-size="10.00" fill="#000000">::set_state</text>
</a>
</g>
</g>
<!-- Node134&#45;&gt;Node137 -->
<g id="edge3" class="edge">
<title>Node134&#45;&gt;Node137</title>
<path fill="none" stroke="#191970" d="M119.4621,-64.5C127.8588,-64.5 136.3919,-64.5 144.6042,-64.5"/>
<polygon fill="#191970" stroke="#191970" points="119.3183,-61.0001 109.3183,-64.5 119.3182,-68.0001 119.3183,-61.0001"/>
</g>
<!-- Node138 -->
<g id="node5" class="node">
<title>Node138</title>
<g id="a_node5"><a xlink:href="classplant_1_1PlantGeometry.html#a9d9d45d824d5a21c867c5c64cd66d1a8" target="_top" xlink:title="plant::PlantGeometry\l::grow_for_dt">
<polygon fill="none" stroke="#000000" points="145,-.5 145,-30.5 254,-30.5 254,-.5 145,-.5"/>
<text text-anchor="start" x="153" y="-18.5" font-family="Helvetica,sans-Serif" font-size="10.00" fill="#000000">plant::PlantGeometry</text>
<text text-anchor="middle" x="199.5" y="-7.5" font-family="Helvetica,sans-Serif" font-size="10.00" fill="#000000">::grow_for_dt</text>
</a>
</g>
</g>
<!-- Node134&#45;&gt;Node138 -->
<g id="edge4" class="edge">
<title>Node134&#45;&gt;Node138</title>
<path fill="none" stroke="#191970" d="M108.9183,-46.1104C124.0158,-41.0084 140.2308,-35.5289 154.71,-30.6359"/>
<polygon fill="#191970" stroke="#191970" points="107.5411,-42.8813 99.1879,-49.3986 109.7822,-49.5128 107.5411,-42.8813"/>
</g>
<!-- Node136 -->
<g id="node3" class="node">
<title>Node136</title>
<g id="a_node3"><a xlink:href="classplant_1_1Plant.html#a274f7da212d5f05d4b281e49e11fc44e" target="_top" xlink:title="plant::Plant::grow\l_for_dt">
<polygon fill="none" stroke="#000000" points="290,-93.5 290,-123.5 383,-123.5 383,-93.5 290,-93.5"/>
<text text-anchor="start" x="298" y="-111.5" font-family="Helvetica,sans-Serif" font-size="10.00" fill="#000000">plant::Plant::grow</text>
<text text-anchor="middle" x="336.5" y="-100.5" font-family="Helvetica,sans-Serif" font-size="10.00" fill="#000000">_for_dt</text>
</a>
</g>
</g>
<!-- Node135&#45;&gt;Node136 -->
<g id="edge2" class="edge">
<title>Node135&#45;&gt;Node136</title>
<path fill="none" stroke="#191970" d="M264.0912,-108.5C272.714,-108.5 281.4196,-108.5 289.6593,-108.5"/>
<polygon fill="#191970" stroke="#191970" points="264.0397,-105.0001 254.0397,-108.5 264.0396,-112.0001 264.0397,-105.0001"/>
</g>
</g>
</svg>
