<?xml version="1.0" encoding="UTF-8" standalone="no"?>
<!DOCTYPE svg PUBLIC "-//W3C//DTD SVG 1.1//EN"
 "http://www.w3.org/Graphics/SVG/1.1/DTD/svg11.dtd">
<!-- Generated by graphviz version 2.40.1 (20161225.0304)
 -->
<!-- Title: plant::Assimilator::calc_plant_assimilation_rate Pages: 1 -->
<svg width="471pt" height="102pt"
 viewBox="0.00 0.00 471.00 101.50" xmlns="http://www.w3.org/2000/svg" xmlns:xlink="http://www.w3.org/1999/xlink">
<g id="graph0" class="graph" transform="scale(1 1) rotate(0) translate(4 97.5)">
<title>plant::Assimilator::calc_plant_assimilation_rate</title>
<!-- Node0 -->
<g id="node1" class="node">
<title>Node0</title>
<polygon fill="#bfbfbf" stroke="#000000" points="0,-24.5 0,-54.5 146,-54.5 146,-24.5 0,-24.5"/>
<text text-anchor="start" x="8" y="-42.5" font-family="Helvetica,sans-Serif" font-size="10.00" fill="#000000">plant::Assimilator</text>
<text text-anchor="middle" x="73" y="-31.5" font-family="Helvetica,sans-Serif" font-size="10.00" fill="#000000">::calc_plant_assimilation_rate</text>
</g>
<!-- Node1 -->
<g id="node2" class="node">
<title>Node1</title>
<g id="a_node2"><a xlink:href="classplant_1_1PlantGeometry.html#a73eed0a3db55748b6d2615945ec1f08b" target="_top" xlink:title="plant::PlantGeometry\l::crown_area_above">
<polygon fill="none" stroke="#000000" points="186,-49.5 186,-79.5 295,-79.5 295,-49.5 186,-49.5"/>
<text text-anchor="start" x="194" y="-67.5" font-family="Helvetica,sans-Serif" font-size="10.00" fill="#000000">plant::PlantGeometry</text>
<text text-anchor="middle" x="240.5" y="-56.5" font-family="Helvetica,sans-Serif" font-size="10.00" fill="#000000">::crown_area_above</text>
</a>
</g>
</g>
<!-- Node0&#45;&gt;Node1 -->
<g id="edge1" class="edge">
<title>Node0&#45;&gt;Node1</title>
<path fill="none" stroke="#191970" d="M146.4679,-50.4654C156.319,-51.9357 166.3627,-53.4347 176.0428,-54.8795"/>
<polygon fill="#191970" stroke="#191970" points="175.5684,-58.3474 185.9756,-56.362 176.6018,-51.4241 175.5684,-58.3474"/>
</g>
<!-- Node4 -->
<g id="node5" class="node">
<title>Node4</title>
<g id="a_node5"><a xlink:href="classplant_1_1Assimilator.html#a25e0068c52700ba3d4b0d8e44398aa02" target="_top" xlink:title="plant::Assimilator\l::leaf_assimilation_rate">
<polygon fill="none" stroke="#000000" points="182,-.5 182,-30.5 299,-30.5 299,-.5 182,-.5"/>
<text text-anchor="start" x="190" y="-18.5" font-family="Helvetica,sans-Serif" font-size="10.00" fill="#000000">plant::Assimilator</text>
<text text-anchor="middle" x="240.5" y="-7.5" font-family="Helvetica,sans-Serif" font-size="10.00" fill="#000000">::leaf_assimilation_rate</text>
</a>
</g>
</g>
<!-- Node0&#45;&gt;Node4 -->
<g id="edge4" class="edge">
<title>Node0&#45;&gt;Node4</title>
<path fill="none" stroke="#191970" d="M146.4679,-28.9733C154.9043,-27.7645 163.4821,-26.5354 171.8517,-25.3362"/>
<polygon fill="#191970" stroke="#191970" points="172.5316,-28.7746 181.9341,-23.8915 171.5387,-21.8454 172.5316,-28.7746"/>
</g>
<!-- Node2 -->
<g id="node3" class="node">
<title>Node2</title>
<g id="a_node3"><a xlink:href="classplant_1_1PlantGeometry.html#aed573b6d75e2a0adc4ebdeacec3c34e7" target="_top" xlink:title="plant::PlantGeometry::q">
<polygon fill="none" stroke="#000000" points="339,-74 339,-93 459,-93 459,-74 339,-74"/>
<text text-anchor="middle" x="399" y="-81" font-family="Helvetica,sans-Serif" font-size="10.00" fill="#000000">plant::PlantGeometry::q</text>
</a>
</g>
</g>
<!-- Node1&#45;&gt;Node2 -->
<g id="edge2" class="edge">
<title>Node1&#45;&gt;Node2</title>
<path fill="none" stroke="#191970" d="M295.0467,-71.0387C305.8792,-72.3373 317.3958,-73.7178 328.6687,-75.0691"/>
<polygon fill="#191970" stroke="#191970" points="328.5806,-78.5835 338.9261,-76.2987 329.4138,-71.6333 328.5806,-78.5835"/>
</g>
<!-- Node3 -->
<g id="node4" class="node">
<title>Node3</title>
<g id="a_node4"><a xlink:href="classplant_1_1PlantGeometry.html#a538c106c834b386d8dfce3702f42a93d" target="_top" xlink:title="plant::PlantGeometry::zm">
<polygon fill="none" stroke="#000000" points="335,-36 335,-55 463,-55 463,-36 335,-36"/>
<text text-anchor="middle" x="399" y="-43" font-family="Helvetica,sans-Serif" font-size="10.00" fill="#000000">plant::PlantGeometry::zm</text>
</a>
</g>
</g>
<!-- Node1&#45;&gt;Node3 -->
<g id="edge3" class="edge">
<title>Node1&#45;&gt;Node3</title>
<path fill="none" stroke="#191970" d="M295.0467,-57.9613C304.6507,-56.81 314.7925,-55.5943 324.8253,-54.3916"/>
<polygon fill="#191970" stroke="#191970" points="325.2856,-57.8616 334.798,-53.1961 324.4524,-50.9113 325.2856,-57.8616"/>
</g>
</g>
</svg>
