<?xml version="1.0" encoding="UTF-8" standalone="no"?>
<!DOCTYPE svg PUBLIC "-//W3C//DTD SVG 1.1//EN"
 "http://www.w3.org/Graphics/SVG/1.1/DTD/svg11.dtd">
<!-- Generated by graphviz version 2.40.1 (20161225.0304)
 -->
<!-- Title: plant::Plant::calc_demographic_rates Pages: 1 -->
<svg width="280pt" height="78pt"
 viewBox="0.00 0.00 280.00 77.50" xmlns="http://www.w3.org/2000/svg" xmlns:xlink="http://www.w3.org/1999/xlink">
<g id="graph0" class="graph" transform="scale(1 1) rotate(0) translate(4 73.5)">
<title>plant::Plant::calc_demographic_rates</title>
<!-- Node27 -->
<g id="node1" class="node">
<title>Node27</title>
<polygon fill="#bfbfbf" stroke="#000000" points="0,-17 0,-47 104,-47 104,-17 0,-17"/>
<text text-anchor="start" x="8" y="-35" font-family="Helvetica,sans-Serif" font-size="10.00" fill="#000000">plant::Plant::calc</text>
<text text-anchor="middle" x="52" y="-24" font-family="Helvetica,sans-Serif" font-size="10.00" fill="#000000">_demographic_rates</text>
</g>
<!-- Node28 -->
<g id="node2" class="node">
<title>Node28</title>
<g id="a_node2"><a xlink:href="classplant_1_1Plant.html#a274f7da212d5f05d4b281e49e11fc44e" target="_top" xlink:title="plant::Plant::grow\l_for_dt">
<polygon fill="none" stroke="#000000" points="159.5,-39 159.5,-69 252.5,-69 252.5,-39 159.5,-39"/>
<text text-anchor="start" x="167.5" y="-57" font-family="Helvetica,sans-Serif" font-size="10.00" fill="#000000">plant::Plant::grow</text>
<text text-anchor="middle" x="206" y="-46" font-family="Helvetica,sans-Serif" font-size="10.00" fill="#000000">_for_dt</text>
</a>
</g>
</g>
<!-- Node27&#45;&gt;Node28 -->
<g id="edge1" class="edge">
<title>Node27&#45;&gt;Node28</title>
<path fill="none" stroke="#191970" d="M114.3814,-40.9116C129.3988,-43.057 145.1862,-45.3123 159.3443,-47.3349"/>
<polygon fill="#191970" stroke="#191970" points="114.5319,-37.3977 104.1374,-39.4482 113.5419,-44.3273 114.5319,-37.3977"/>
</g>
<!-- Node29 -->
<g id="node3" class="node">
<title>Node29</title>
<g id="a_node3"><a xlink:href="classPSPM__Plant.html#a71f7312443767dffc44d8d0d80b295f0" target="_top" xlink:title="PSPM_Plant::preCompute">
<polygon fill="none" stroke="#000000" points="140,-.5 140,-19.5 272,-19.5 272,-.5 140,-.5"/>
<text text-anchor="middle" x="206" y="-7.5" font-family="Helvetica,sans-Serif" font-size="10.00" fill="#000000">PSPM_Plant::preCompute</text>
</a>
</g>
</g>
<!-- Node27&#45;&gt;Node29 -->
<g id="edge2" class="edge">
<title>Node27&#45;&gt;Node29</title>
<path fill="none" stroke="#191970" d="M114.3054,-23.0992C122.7649,-21.8907 131.4701,-20.6471 139.992,-19.4297"/>
<polygon fill="#191970" stroke="#191970" points="113.5419,-19.6727 104.1374,-24.5518 114.5319,-26.6023 113.5419,-19.6727"/>
</g>
</g>
</svg>
