<?xml version="1.0" encoding="UTF-8" standalone="no"?>
<!DOCTYPE svg PUBLIC "-//W3C//DTD SVG 1.1//EN"
 "http://www.w3.org/Graphics/SVG/1.1/DTD/svg11.dtd">
<!-- Generated by graphviz version 2.40.1 (20161225.0304)
 -->
<!-- Title: plant::PlantGeometry::crown_area_above Pages: 1 -->
<svg width="281pt" height="66pt"
 viewBox="0.00 0.00 281.00 66.00" xmlns="http://www.w3.org/2000/svg" xmlns:xlink="http://www.w3.org/1999/xlink">
<g id="graph0" class="graph" transform="scale(1 1) rotate(0) translate(4 62)">
<title>plant::PlantGeometry::crown_area_above</title>
<!-- Node3 -->
<g id="node1" class="node">
<title>Node3</title>
<polygon fill="#bfbfbf" stroke="#000000" points="0,-14 0,-44 109,-44 109,-14 0,-14"/>
<text text-anchor="start" x="8" y="-32" font-family="Helvetica,sans-Serif" font-size="10.00" fill="#000000">plant::PlantGeometry</text>
<text text-anchor="middle" x="54.5" y="-21" font-family="Helvetica,sans-Serif" font-size="10.00" fill="#000000">::crown_area_above</text>
</g>
<!-- Node4 -->
<g id="node2" class="node">
<title>Node4</title>
<g id="a_node2"><a xlink:href="classplant_1_1PlantGeometry.html#aed573b6d75e2a0adc4ebdeacec3c34e7" target="_top" xlink:title="plant::PlantGeometry::q">
<polygon fill="none" stroke="#000000" points="149,-38.5 149,-57.5 269,-57.5 269,-38.5 149,-38.5"/>
<text text-anchor="middle" x="209" y="-45.5" font-family="Helvetica,sans-Serif" font-size="10.00" fill="#000000">plant::PlantGeometry::q</text>
</a>
</g>
</g>
<!-- Node3&#45;&gt;Node4 -->
<g id="edge1" class="edge">
<title>Node3&#45;&gt;Node4</title>
<path fill="none" stroke="#191970" d="M109.4059,-35.7522C118.8687,-36.9159 128.821,-38.1398 138.6244,-39.3454"/>
<polygon fill="#191970" stroke="#191970" points="138.4074,-42.845 148.7599,-40.5918 139.2619,-35.8973 138.4074,-42.845"/>
</g>
<!-- Node5 -->
<g id="node3" class="node">
<title>Node5</title>
<g id="a_node3"><a xlink:href="classplant_1_1PlantGeometry.html#a538c106c834b386d8dfce3702f42a93d" target="_top" xlink:title="plant::PlantGeometry::zm">
<polygon fill="none" stroke="#000000" points="145,-.5 145,-19.5 273,-19.5 273,-.5 145,-.5"/>
<text text-anchor="middle" x="209" y="-7.5" font-family="Helvetica,sans-Serif" font-size="10.00" fill="#000000">plant::PlantGeometry::zm</text>
</a>
</g>
</g>
<!-- Node3&#45;&gt;Node5 -->
<g id="edge2" class="edge">
<title>Node3&#45;&gt;Node5</title>
<path fill="none" stroke="#191970" d="M109.4059,-22.2478C117.6348,-21.2358 126.2338,-20.1784 134.7832,-19.127"/>
<polygon fill="#191970" stroke="#191970" points="135.2734,-22.5932 144.7714,-17.8987 134.419,-15.6455 135.2734,-22.5932"/>
</g>
</g>
</svg>
