<?xml version="1.0" encoding="UTF-8" standalone="no"?>
<!DOCTYPE svg PUBLIC "-//W3C//DTD SVG 1.1//EN"
 "http://www.w3.org/Graphics/SVG/1.1/DTD/svg11.dtd">
<!-- Generated by graphviz version 2.40.1 (20161225.0304)
 -->
<!-- Title: plant::Plant::size_growth_rate Pages: 1 -->
<svg width="406pt" height="78pt"
 viewBox="0.00 0.00 406.00 77.50" xmlns="http://www.w3.org/2000/svg" xmlns:xlink="http://www.w3.org/1999/xlink">
<g id="graph0" class="graph" transform="scale(1 1) rotate(0) translate(4 73.5)">
<title>plant::Plant::size_growth_rate</title>
<!-- Node155 -->
<g id="node1" class="node">
<title>Node155</title>
<polygon fill="#bfbfbf" stroke="#000000" points="0,-17 0,-47 90,-47 90,-17 0,-17"/>
<text text-anchor="start" x="8" y="-35" font-family="Helvetica,sans-Serif" font-size="10.00" fill="#000000">plant::Plant::size</text>
<text text-anchor="middle" x="45" y="-24" font-family="Helvetica,sans-Serif" font-size="10.00" fill="#000000">_growth_rate</text>
</g>
<!-- Node156 -->
<g id="node2" class="node">
<title>Node156</title>
<g id="a_node2"><a xlink:href="classplant_1_1Plant.html#ab39fa79cb8884c684af5db0c98a1785e" target="_top" xlink:title="plant::Plant::calc\l_demographic_rates">
<polygon fill="none" stroke="#000000" points="126,-17 126,-47 230,-47 230,-17 126,-17"/>
<text text-anchor="start" x="134" y="-35" font-family="Helvetica,sans-Serif" font-size="10.00" fill="#000000">plant::Plant::calc</text>
<text text-anchor="middle" x="178" y="-24" font-family="Helvetica,sans-Serif" font-size="10.00" fill="#000000">_demographic_rates</text>
</a>
</g>
</g>
<!-- Node155&#45;&gt;Node156 -->
<g id="edge1" class="edge">
<title>Node155&#45;&gt;Node156</title>
<path fill="none" stroke="#191970" d="M100.1618,-32C108.6032,-32 117.2957,-32 125.6735,-32"/>
<polygon fill="#191970" stroke="#191970" points="100.0278,-28.5001 90.0277,-32 100.0277,-35.5001 100.0278,-28.5001"/>
</g>
<!-- Node157 -->
<g id="node3" class="node">
<title>Node157</title>
<g id="a_node3"><a xlink:href="classplant_1_1Plant.html#a274f7da212d5f05d4b281e49e11fc44e" target="_top" xlink:title="plant::Plant::grow\l_for_dt">
<polygon fill="none" stroke="#000000" points="285.5,-39 285.5,-69 378.5,-69 378.5,-39 285.5,-39"/>
<text text-anchor="start" x="293.5" y="-57" font-family="Helvetica,sans-Serif" font-size="10.00" fill="#000000">plant::Plant::grow</text>
<text text-anchor="middle" x="332" y="-46" font-family="Helvetica,sans-Serif" font-size="10.00" fill="#000000">_for_dt</text>
</a>
</g>
</g>
<!-- Node156&#45;&gt;Node157 -->
<g id="edge2" class="edge">
<title>Node156&#45;&gt;Node157</title>
<path fill="none" stroke="#191970" d="M240.3814,-40.9116C255.3988,-43.057 271.1862,-45.3123 285.3443,-47.3349"/>
<polygon fill="#191970" stroke="#191970" points="240.5319,-37.3977 230.1374,-39.4482 239.5419,-44.3273 240.5319,-37.3977"/>
</g>
<!-- Node158 -->
<g id="node4" class="node">
<title>Node158</title>
<g id="a_node4"><a xlink:href="classPSPM__Plant.html#a71f7312443767dffc44d8d0d80b295f0" target="_top" xlink:title="PSPM_Plant::preCompute">
<polygon fill="none" stroke="#000000" points="266,-.5 266,-19.5 398,-19.5 398,-.5 266,-.5"/>
<text text-anchor="middle" x="332" y="-7.5" font-family="Helvetica,sans-Serif" font-size="10.00" fill="#000000">PSPM_Plant::preCompute</text>
</a>
</g>
</g>
<!-- Node156&#45;&gt;Node158 -->
<g id="edge3" class="edge">
<title>Node156&#45;&gt;Node158</title>
<path fill="none" stroke="#191970" d="M240.3054,-23.0992C248.7649,-21.8907 257.4701,-20.6471 265.992,-19.4297"/>
<polygon fill="#191970" stroke="#191970" points="239.5419,-19.6727 230.1374,-24.5518 240.5319,-26.6023 239.5419,-19.6727"/>
</g>
</g>
</svg>
