<?xml version="1.0" encoding="UTF-8" standalone="no"?>
<!DOCTYPE svg PUBLIC "-//W3C//DTD SVG 1.1//EN"
 "http://www.w3.org/Graphics/SVG/1.1/DTD/svg11.dtd">
<!-- Generated by graphviz version 2.40.1 (20161225.0304)
 -->
<!-- Title: plant::Assimilator::calc_plant_assimilation_rate Pages: 1 -->
<svg width="778pt" height="165pt"
 viewBox="0.00 0.00 778.00 164.50" xmlns="http://www.w3.org/2000/svg" xmlns:xlink="http://www.w3.org/1999/xlink">
<g id="graph0" class="graph" transform="scale(1 1) rotate(0) translate(4 160.5)">
<title>plant::Assimilator::calc_plant_assimilation_rate</title>
<!-- Node5 -->
<g id="node1" class="node">
<title>Node5</title>
<polygon fill="#bfbfbf" stroke="#000000" points="0,-74 0,-104 146,-104 146,-74 0,-74"/>
<text text-anchor="start" x="8" y="-92" font-family="Helvetica,sans-Serif" font-size="10.00" fill="#000000">plant::Assimilator</text>
<text text-anchor="middle" x="73" y="-81" font-family="Helvetica,sans-Serif" font-size="10.00" fill="#000000">::calc_plant_assimilation_rate</text>
</g>
<!-- Node6 -->
<g id="node2" class="node">
<title>Node6</title>
<g id="a_node2"><a xlink:href="classplant_1_1Assimilator.html#ab5cf98dde0fb1d49ce4d0f44387b628b" target="_top" xlink:title="plant::Assimilator\l::net_production">
<polygon fill="none" stroke="#000000" points="182,-74 182,-104 274,-104 274,-74 182,-74"/>
<text text-anchor="start" x="190" y="-92" font-family="Helvetica,sans-Serif" font-size="10.00" fill="#000000">plant::Assimilator</text>
<text text-anchor="middle" x="228" y="-81" font-family="Helvetica,sans-Serif" font-size="10.00" fill="#000000">::net_production</text>
</a>
</g>
</g>
<!-- Node5&#45;&gt;Node6 -->
<g id="edge1" class="edge">
<title>Node5&#45;&gt;Node6</title>
<path fill="none" stroke="#191970" d="M156.5874,-89C165.2353,-89 173.7815,-89 181.7917,-89"/>
<polygon fill="#191970" stroke="#191970" points="156.4148,-85.5001 146.4148,-89 156.4147,-92.5001 156.4148,-85.5001"/>
</g>
<!-- Node7 -->
<g id="node3" class="node">
<title>Node7</title>
<g id="a_node3"><a xlink:href="classplant_1_1Plant.html#a48612779a5850cca9cc6f6caff1ccb8b" target="_top" xlink:title="plant::Plant::lai_model">
<polygon fill="none" stroke="#000000" points="311.5,-117.5 311.5,-136.5 424.5,-136.5 424.5,-117.5 311.5,-117.5"/>
<text text-anchor="middle" x="368" y="-124.5" font-family="Helvetica,sans-Serif" font-size="10.00" fill="#000000">plant::Plant::lai_model</text>
</a>
</g>
</g>
<!-- Node6&#45;&gt;Node7 -->
<g id="edge2" class="edge">
<title>Node6&#45;&gt;Node7</title>
<path fill="none" stroke="#191970" d="M284.2892,-104.2785C300.7185,-108.7379 318.1965,-113.4819 332.9092,-117.4754"/>
<polygon fill="#191970" stroke="#191970" points="284.7969,-100.7897 274.2292,-101.5479 282.9632,-107.5453 284.7969,-100.7897"/>
</g>
<!-- Node8 -->
<g id="node4" class="node">
<title>Node8</title>
<g id="a_node4"><a xlink:href="classplant_1_1Plant.html#ab39fa79cb8884c684af5db0c98a1785e" target="_top" xlink:title="plant::Plant::calc\l_demographic_rates">
<polygon fill="none" stroke="#000000" points="480,-104 480,-134 584,-134 584,-104 480,-104"/>
<text text-anchor="start" x="488" y="-122" font-family="Helvetica,sans-Serif" font-size="10.00" fill="#000000">plant::Plant::calc</text>
<text text-anchor="middle" x="532" y="-111" font-family="Helvetica,sans-Serif" font-size="10.00" fill="#000000">_demographic_rates</text>
</a>
</g>
</g>
<!-- Node6&#45;&gt;Node8 -->
<g id="edge9" class="edge">
<title>Node6&#45;&gt;Node8</title>
<path fill="none" stroke="#191970" d="M284.0252,-94.2597C323.6806,-98.011 378.1103,-103.2175 426,-108 443.5816,-109.7558 462.797,-111.7324 479.9806,-113.5207"/>
<polygon fill="#191970" stroke="#191970" points="284.3041,-90.7705 274.0192,-93.3144 283.6456,-97.7395 284.3041,-90.7705"/>
</g>
<!-- Node11 -->
<g id="node7" class="node">
<title>Node11</title>
<g id="a_node7"><a xlink:href="classplant_1_1Plant.html#a03c45eaaabce7ff0287598818dc4847f" target="_top" xlink:title="plant::Plant::p_survival\l_germination">
<polygon fill="none" stroke="#000000" points="310,-30 310,-60 426,-60 426,-30 310,-30"/>
<text text-anchor="start" x="318" y="-48" font-family="Helvetica,sans-Serif" font-size="10.00" fill="#000000">plant::Plant::p_survival</text>
<text text-anchor="middle" x="368" y="-37" font-family="Helvetica,sans-Serif" font-size="10.00" fill="#000000">_germination</text>
</a>
</g>
</g>
<!-- Node6&#45;&gt;Node11 -->
<g id="edge6" class="edge">
<title>Node6&#45;&gt;Node11</title>
<path fill="none" stroke="#191970" d="M284.0413,-71.387C295.9164,-67.6548 308.3502,-63.7471 319.8995,-60.1173"/>
<polygon fill="#191970" stroke="#191970" points="282.7198,-68.1335 274.2292,-74.4708 284.8186,-74.8115 282.7198,-68.1335"/>
</g>
<!-- Node7&#45;&gt;Node8 -->
<g id="edge3" class="edge">
<title>Node7&#45;&gt;Node8</title>
<path fill="none" stroke="#191970" d="M435.1024,-123.7267C450.0348,-122.9983 465.6493,-122.2366 479.8744,-121.5427"/>
<polygon fill="#191970" stroke="#191970" points="434.7165,-120.2413 424.899,-124.2244 435.0577,-127.233 434.7165,-120.2413"/>
</g>
<!-- Node9 -->
<g id="node5" class="node">
<title>Node9</title>
<g id="a_node5"><a xlink:href="classplant_1_1Plant.html#a274f7da212d5f05d4b281e49e11fc44e" target="_top" xlink:title="plant::Plant::grow\l_for_dt">
<polygon fill="none" stroke="#000000" points="657.5,-126 657.5,-156 750.5,-156 750.5,-126 657.5,-126"/>
<text text-anchor="start" x="665.5" y="-144" font-family="Helvetica,sans-Serif" font-size="10.00" fill="#000000">plant::Plant::grow</text>
<text text-anchor="middle" x="704" y="-133" font-family="Helvetica,sans-Serif" font-size="10.00" fill="#000000">_for_dt</text>
</a>
</g>
</g>
<!-- Node8&#45;&gt;Node9 -->
<g id="edge4" class="edge">
<title>Node8&#45;&gt;Node9</title>
<path fill="none" stroke="#191970" d="M594.1282,-126.9466C614.9941,-129.6155 637.8961,-132.5449 657.3657,-135.0352"/>
<polygon fill="#191970" stroke="#191970" points="594.4357,-123.4575 584.0724,-125.6604 593.5475,-130.401 594.4357,-123.4575"/>
</g>
<!-- Node10 -->
<g id="node6" class="node">
<title>Node10</title>
<g id="a_node6"><a xlink:href="classPSPM__Plant.html#a71f7312443767dffc44d8d0d80b295f0" target="_top" xlink:title="PSPM_Plant::preCompute">
<polygon fill="none" stroke="#000000" points="638,-87.5 638,-106.5 770,-106.5 770,-87.5 638,-87.5"/>
<text text-anchor="middle" x="704" y="-94.5" font-family="Helvetica,sans-Serif" font-size="10.00" fill="#000000">PSPM_Plant::preCompute</text>
</a>
</g>
</g>
<!-- Node8&#45;&gt;Node10 -->
<g id="edge5" class="edge">
<title>Node8&#45;&gt;Node10</title>
<path fill="none" stroke="#191970" d="M594.1933,-111.045C608.353,-109.2339 623.4473,-107.3032 637.7684,-105.4715"/>
<polygon fill="#191970" stroke="#191970" points="593.5475,-107.599 584.0724,-112.3396 594.4357,-114.5425 593.5475,-107.599"/>
</g>
<!-- Node12 -->
<g id="node8" class="node">
<title>Node12</title>
<g id="a_node8"><a xlink:href="classPSPM__Plant.html#a4ceca1be5d1089c49dcecdc5ce216727" target="_top" xlink:title="PSPM_Plant::establishment\lProbability">
<polygon fill="none" stroke="#000000" points="462,-39 462,-69 602,-69 602,-39 462,-39"/>
<text text-anchor="start" x="470" y="-57" font-family="Helvetica,sans-Serif" font-size="10.00" fill="#000000">PSPM_Plant::establishment</text>
<text text-anchor="middle" x="532" y="-46" font-family="Helvetica,sans-Serif" font-size="10.00" fill="#000000">Probability</text>
</a>
</g>
</g>
<!-- Node11&#45;&gt;Node12 -->
<g id="edge7" class="edge">
<title>Node11&#45;&gt;Node12</title>
<path fill="none" stroke="#191970" d="M436.4083,-48.7541C444.8098,-49.2152 453.4071,-49.687 461.8341,-50.1494"/>
<polygon fill="#191970" stroke="#191970" points="436.4588,-45.2517 426.282,-48.1984 436.0752,-52.2412 436.4588,-45.2517"/>
</g>
<!-- Node13 -->
<g id="node9" class="node">
<title>Node13</title>
<g id="a_node9"><a xlink:href="classPSPM__Plant.html#ad3109143960e0a0ceded078733bc4d4c" target="_top" xlink:title="PSPM_Plant::init_state">
<polygon fill="none" stroke="#000000" points="472.5,-.5 472.5,-19.5 591.5,-19.5 591.5,-.5 472.5,-.5"/>
<text text-anchor="middle" x="532" y="-7.5" font-family="Helvetica,sans-Serif" font-size="10.00" fill="#000000">PSPM_Plant::init_state</text>
</a>
</g>
</g>
<!-- Node11&#45;&gt;Node13 -->
<g id="edge8" class="edge">
<title>Node11&#45;&gt;Node13</title>
<path fill="none" stroke="#191970" d="M436.3042,-30.4229C453.5293,-26.7468 471.5841,-22.8936 487.3116,-19.5372"/>
<polygon fill="#191970" stroke="#191970" points="435.3313,-27.0516 426.282,-32.5618 436.7923,-33.8975 435.3313,-27.0516"/>
</g>
</g>
</svg>
