<?xml version="1.0" encoding="UTF-8" standalone="no"?>
<!DOCTYPE svg PUBLIC "-//W3C//DTD SVG 1.1//EN"
 "http://www.w3.org/Graphics/SVG/1.1/DTD/svg11.dtd">
<!-- Generated by graphviz version 2.40.1 (20161225.0304)
 -->
<!-- Title: plant::Plant Pages: 1 -->
<svg width="631pt" height="186pt"
 viewBox="0.00 0.00 631.00 186.00" xmlns="http://www.w3.org/2000/svg" xmlns:xlink="http://www.w3.org/1999/xlink">
<g id="graph0" class="graph" transform="scale(1 1) rotate(0) translate(4 182)">
<title>plant::Plant</title>
<!-- Node2 -->
<g id="node1" class="node">
<title>Node2</title>
<polygon fill="#bfbfbf" stroke="#000000" points="557,-82 557,-101 623,-101 623,-82 557,-82"/>
<text text-anchor="middle" x="590" y="-89" font-family="Helvetica,sans-Serif" font-size="10.00" fill="#000000">plant::Plant</text>
</g>
<!-- Node3 -->
<g id="node2" class="node">
<title>Node3</title>
<g id="a_node2"><a xlink:href="structplant_1_1PlantAssimilationResult.html" target="_top" xlink:title="plant::PlantAssimilation\lResult">
<polygon fill="none" stroke="#000000" points="132,-147.5 132,-177.5 251,-177.5 251,-147.5 132,-147.5"/>
<text text-anchor="start" x="140" y="-165.5" font-family="Helvetica,sans-Serif" font-size="10.00" fill="#000000">plant::PlantAssimilation</text>
<text text-anchor="middle" x="191.5" y="-154.5" font-family="Helvetica,sans-Serif" font-size="10.00" fill="#000000">Result</text>
</a>
</g>
</g>
<!-- Node3&#45;&gt;Node2 -->
<g id="edge1" class="edge">
<title>Node3&#45;&gt;Node2</title>
<path fill="none" stroke="#9a32cd" stroke-dasharray="5,2" d="M261.4846,-163.8227C318.1392,-163.7363 399.7761,-160.9848 470,-148.5 501.2037,-142.9524 510.5177,-144.3998 539,-130.5 554.6267,-122.8739 570.1466,-110.0599 579.8871,-101.2127"/>
<polygon fill="#9a32cd" stroke="#9a32cd" points="261.2096,-160.3224 251.2051,-163.8095 261.2006,-167.3224 261.2096,-160.3224"/>
<text text-anchor="middle" x="412" y="-163.5" font-family="Helvetica,sans-Serif" font-size="10.00" fill="#000000"> res</text>
</g>
<!-- Node6 -->
<g id="node5" class="node">
<title>Node6</title>
<g id="a_node5"><a xlink:href="classplant_1_1Assimilator.html" target="_top" xlink:title="plant::Assimilator">
<polygon fill="none" stroke="#000000" points="366,-120 366,-139 458,-139 458,-120 366,-120"/>
<text text-anchor="middle" x="412" y="-127" font-family="Helvetica,sans-Serif" font-size="10.00" fill="#000000">plant::Assimilator</text>
</a>
</g>
</g>
<!-- Node3&#45;&gt;Node6 -->
<g id="edge5" class="edge">
<title>Node3&#45;&gt;Node6</title>
<path fill="none" stroke="#9a32cd" stroke-dasharray="5,2" d="M261.2835,-151.6688C263.8883,-151.2727 266.4673,-150.882 269,-150.5 301.3796,-145.6157 337.9073,-140.2541 365.9398,-136.1709"/>
<polygon fill="#9a32cd" stroke="#9a32cd" points="260.5093,-148.2463 251.1521,-153.2155 261.5658,-155.1661 260.5093,-148.2463"/>
<text text-anchor="middle" x="302.5" y="-153.5" font-family="Helvetica,sans-Serif" font-size="10.00" fill="#000000"> plant_assim</text>
</g>
<!-- Node4 -->
<g id="node3" class="node">
<title>Node4</title>
<g id="a_node3"><a xlink:href="classplant_1_1PlantGeometry.html" target="_top" xlink:title="plant::PlantGeometry">
<polygon fill="none" stroke="#000000" points="357.5,-82 357.5,-101 466.5,-101 466.5,-82 357.5,-82"/>
<text text-anchor="middle" x="412" y="-89" font-family="Helvetica,sans-Serif" font-size="10.00" fill="#000000">plant::PlantGeometry</text>
</a>
</g>
</g>
<!-- Node4&#45;&gt;Node2 -->
<g id="edge2" class="edge">
<title>Node4&#45;&gt;Node2</title>
<path fill="none" stroke="#9a32cd" stroke-dasharray="5,2" d="M477.0589,-91.5C504.1429,-91.5 534.4225,-91.5 556.8066,-91.5"/>
<polygon fill="#9a32cd" stroke="#9a32cd" points="476.8583,-88.0001 466.8583,-91.5 476.8583,-95.0001 476.8583,-88.0001"/>
<text text-anchor="middle" x="513.5" y="-94.5" font-family="Helvetica,sans-Serif" font-size="10.00" fill="#000000"> geometry</text>
</g>
<!-- Node5 -->
<g id="node4" class="node">
<title>Node5</title>
<g id="a_node4"><a xlink:href="classplant_1_1PlantParameters.html" target="_top" xlink:title="plant::PlantParameters">
<polygon fill="none" stroke="#000000" points="354,-44 354,-63 470,-63 470,-44 354,-44"/>
<text text-anchor="middle" x="412" y="-51" font-family="Helvetica,sans-Serif" font-size="10.00" fill="#000000">plant::PlantParameters</text>
</a>
</g>
</g>
<!-- Node5&#45;&gt;Node2 -->
<g id="edge3" class="edge">
<title>Node5&#45;&gt;Node2</title>
<path fill="none" stroke="#9a32cd" stroke-dasharray="5,2" d="M479.9775,-64.4274C499.1509,-67.8837 519.9685,-71.9916 539,-76.5 545.6457,-78.0743 552.7107,-79.9918 559.3974,-81.9226"/>
<polygon fill="#9a32cd" stroke="#9a32cd" points="480.5764,-60.979 470.1191,-62.6806 479.3551,-67.8717 480.5764,-60.979"/>
<text text-anchor="middle" x="513.5" y="-79.5" font-family="Helvetica,sans-Serif" font-size="10.00" fill="#000000"> par</text>
</g>
<!-- Node6&#45;&gt;Node2 -->
<g id="edge4" class="edge">
<title>Node6&#45;&gt;Node2</title>
<path fill="none" stroke="#9a32cd" stroke-dasharray="5,2" d="M467.9701,-119.9349C490.1688,-115.8778 515.8712,-110.8506 539,-105.5 544.8145,-104.1549 550.9643,-102.5902 556.9041,-101.0043"/>
<polygon fill="#9a32cd" stroke="#9a32cd" points="467.2578,-116.5069 458.0391,-121.7285 468.5019,-123.3954 467.2578,-116.5069"/>
<text text-anchor="middle" x="513.5" y="-118.5" font-family="Helvetica,sans-Serif" font-size="10.00" fill="#000000"> assimilator</text>
</g>
<!-- Node7 -->
<g id="node6" class="node">
<title>Node7</title>
<g id="a_node6"><a xlink:href="classplant_1_1PlantTraits.html" target="_top" xlink:title="plant::PlantTraits">
<polygon fill="none" stroke="#000000" points="366.5,-6 366.5,-25 457.5,-25 457.5,-6 366.5,-6"/>
<text text-anchor="middle" x="412" y="-13" font-family="Helvetica,sans-Serif" font-size="10.00" fill="#000000">plant::PlantTraits</text>
</a>
</g>
</g>
<!-- Node7&#45;&gt;Node2 -->
<g id="edge6" class="edge">
<title>Node7&#45;&gt;Node2</title>
<path fill="none" stroke="#9a32cd" stroke-dasharray="5,2" d="M467.6547,-25.6507C490.5452,-31.1287 516.8314,-39.1547 539,-50.5 554.9788,-58.6775 570.6607,-72.3786 580.3255,-81.6702"/>
<polygon fill="#9a32cd" stroke="#9a32cd" points="468.2686,-22.2009 457.74,-23.3837 466.7082,-29.0247 468.2686,-22.2009"/>
<text text-anchor="middle" x="513.5" y="-53.5" font-family="Helvetica,sans-Serif" font-size="10.00" fill="#000000"> traits</text>
</g>
<!-- Node8 -->
<g id="node7" class="node">
<title>Node8</title>
<g id="a_node7"><a xlink:title="STL class. ">
<polygon fill="none" stroke="#bfbfbf" points="161.5,-6 161.5,-25 221.5,-25 221.5,-6 161.5,-6"/>
<text text-anchor="middle" x="191.5" y="-13" font-family="Helvetica,sans-Serif" font-size="10.00" fill="#000000">std::string</text>
</a>
</g>
</g>
<!-- Node8&#45;&gt;Node7 -->
<g id="edge7" class="edge">
<title>Node8&#45;&gt;Node7</title>
<path fill="none" stroke="#9a32cd" stroke-dasharray="5,2" d="M231.8972,-15.5C269.941,-15.5 326.8533,-15.5 366.4846,-15.5"/>
<polygon fill="#9a32cd" stroke="#9a32cd" points="231.6973,-12.0001 221.6972,-15.5 231.6972,-19.0001 231.6973,-12.0001"/>
<text text-anchor="middle" x="302.5" y="-18.5" font-family="Helvetica,sans-Serif" font-size="10.00" fill="#000000"> species_name</text>
</g>
<!-- Node9 -->
<g id="node8" class="node">
<title>Node9</title>
<g id="a_node8"><a xlink:title="STL class. ">
<polygon fill="none" stroke="#bfbfbf" points="0,-.5 0,-30.5 95,-30.5 95,-.5 0,-.5"/>
<text text-anchor="start" x="8" y="-18.5" font-family="Helvetica,sans-Serif" font-size="10.00" fill="#000000">std::basic_string&lt;</text>
<text text-anchor="middle" x="47.5" y="-7.5" font-family="Helvetica,sans-Serif" font-size="10.00" fill="#000000"> char &gt;</text>
</a>
</g>
</g>
<!-- Node9&#45;&gt;Node8 -->
<g id="edge8" class="edge">
<title>Node9&#45;&gt;Node8</title>
<path fill="none" stroke="#191970" d="M105.2122,-15.5C124.3743,-15.5 144.9432,-15.5 161.1908,-15.5"/>
<polygon fill="#191970" stroke="#191970" points="105.0501,-12.0001 95.0501,-15.5 105.05,-19.0001 105.0501,-12.0001"/>
</g>
</g>
</svg>
