<?xml version="1.0" encoding="UTF-8" standalone="no"?>
<!DOCTYPE svg PUBLIC "-//W3C//DTD SVG 1.1//EN"
 "http://www.w3.org/Graphics/SVG/1.1/DTD/svg11.dtd">
<!-- Generated by graphviz version 2.40.1 (20161225.0304)
 -->
<!-- Title: plant::PlantGeometry::total_mass Pages: 1 -->
<svg width="262pt" height="137pt"
 viewBox="0.00 0.00 262.00 137.00" xmlns="http://www.w3.org/2000/svg" xmlns:xlink="http://www.w3.org/1999/xlink">
<g id="graph0" class="graph" transform="scale(1 1) rotate(0) translate(4 133)">
<title>plant::PlantGeometry::total_mass</title>
<!-- Node161 -->
<g id="node1" class="node">
<title>Node161</title>
<polygon fill="#bfbfbf" stroke="#000000" points="0,-49.5 0,-79.5 109,-79.5 109,-49.5 0,-49.5"/>
<text text-anchor="start" x="8" y="-67.5" font-family="Helvetica,sans-Serif" font-size="10.00" fill="#000000">plant::PlantGeometry</text>
<text text-anchor="middle" x="54.5" y="-56.5" font-family="Helvetica,sans-Serif" font-size="10.00" fill="#000000">::total_mass</text>
</g>
<!-- Node162 -->
<g id="node2" class="node">
<title>Node162</title>
<g id="a_node2"><a xlink:href="classplant_1_1PlantGeometry.html#adb7202ef29b176b65c43c5b5d950484d" target="_top" xlink:title="plant::PlantGeometry\l::stem_mass">
<polygon fill="none" stroke="#000000" points="145,-98.5 145,-128.5 254,-128.5 254,-98.5 145,-98.5"/>
<text text-anchor="start" x="153" y="-116.5" font-family="Helvetica,sans-Serif" font-size="10.00" fill="#000000">plant::PlantGeometry</text>
<text text-anchor="middle" x="199.5" y="-105.5" font-family="Helvetica,sans-Serif" font-size="10.00" fill="#000000">::stem_mass</text>
</a>
</g>
</g>
<!-- Node161&#45;&gt;Node162 -->
<g id="edge1" class="edge">
<title>Node161&#45;&gt;Node162</title>
<path fill="none" stroke="#191970" d="M99.1879,-79.6014C113.659,-84.4917 129.8725,-89.9707 144.9752,-95.0744"/>
<polygon fill="#191970" stroke="#191970" points="144.1158,-98.4783 154.71,-98.3641 146.3569,-91.8468 144.1158,-98.4783"/>
</g>
<!-- Node163 -->
<g id="node3" class="node">
<title>Node163</title>
<g id="a_node3"><a xlink:href="classplant_1_1PlantGeometry.html#a9bb344d187b1854c5a1364f6cd585d72" target="_top" xlink:title="plant::PlantGeometry\l::leaf_mass">
<polygon fill="none" stroke="#000000" points="145,-49.5 145,-79.5 254,-79.5 254,-49.5 145,-49.5"/>
<text text-anchor="start" x="153" y="-67.5" font-family="Helvetica,sans-Serif" font-size="10.00" fill="#000000">plant::PlantGeometry</text>
<text text-anchor="middle" x="199.5" y="-56.5" font-family="Helvetica,sans-Serif" font-size="10.00" fill="#000000">::leaf_mass</text>
</a>
</g>
</g>
<!-- Node161&#45;&gt;Node163 -->
<g id="edge2" class="edge">
<title>Node161&#45;&gt;Node163</title>
<path fill="none" stroke="#191970" d="M109.3183,-64.5C117.5286,-64.5 126.0611,-64.5 134.4586,-64.5"/>
<polygon fill="#191970" stroke="#191970" points="134.6042,-68.0001 144.6042,-64.5 134.6042,-61.0001 134.6042,-68.0001"/>
</g>
<!-- Node164 -->
<g id="node4" class="node">
<title>Node164</title>
<g id="a_node4"><a xlink:href="classplant_1_1PlantGeometry.html#a721712ac253434c4709a4300f3e6396a" target="_top" xlink:title="plant::PlantGeometry\l::root_mass">
<polygon fill="none" stroke="#000000" points="145,-.5 145,-30.5 254,-30.5 254,-.5 145,-.5"/>
<text text-anchor="start" x="153" y="-18.5" font-family="Helvetica,sans-Serif" font-size="10.00" fill="#000000">plant::PlantGeometry</text>
<text text-anchor="middle" x="199.5" y="-7.5" font-family="Helvetica,sans-Serif" font-size="10.00" fill="#000000">::root_mass</text>
</a>
</g>
</g>
<!-- Node161&#45;&gt;Node164 -->
<g id="edge3" class="edge">
<title>Node161&#45;&gt;Node164</title>
<path fill="none" stroke="#191970" d="M99.1879,-49.3986C113.659,-44.5083 129.8725,-39.0293 144.9752,-33.9256"/>
<polygon fill="#191970" stroke="#191970" points="146.3569,-37.1532 154.71,-30.6359 144.1158,-30.5217 146.3569,-37.1532"/>
</g>
</g>
</svg>
