<?xml version="1.0" encoding="UTF-8" standalone="no"?>
<!DOCTYPE svg PUBLIC "-//W3C//DTD SVG 1.1//EN"
 "http://www.w3.org/Graphics/SVG/1.1/DTD/svg11.dtd">
<!-- Generated by graphviz version 2.40.1 (20161225.0304)
 -->
<!-- Title: plant::PlantGeometry::leaf_mass Pages: 1 -->
<svg width="922pt" height="165pt"
 viewBox="0.00 0.00 922.00 164.50" xmlns="http://www.w3.org/2000/svg" xmlns:xlink="http://www.w3.org/1999/xlink">
<g id="graph0" class="graph" transform="scale(1 1) rotate(0) translate(4 160.5)">
<title>plant::PlantGeometry::leaf_mass</title>
<!-- Node68 -->
<g id="node1" class="node">
<title>Node68</title>
<polygon fill="#bfbfbf" stroke="#000000" points="0,-49 0,-79 109,-79 109,-49 0,-49"/>
<text text-anchor="start" x="8" y="-67" font-family="Helvetica,sans-Serif" font-size="10.00" fill="#000000">plant::PlantGeometry</text>
<text text-anchor="middle" x="54.5" y="-56" font-family="Helvetica,sans-Serif" font-size="10.00" fill="#000000">::leaf_mass</text>
</g>
<!-- Node69 -->
<g id="node2" class="node">
<title>Node69</title>
<g id="a_node2"><a xlink:href="classplant_1_1Assimilator.html#a620f829f503b9c30129ef26dab988eda" target="_top" xlink:title="plant::Assimilator\l::leaf_turnover_rate">
<polygon fill="none" stroke="#000000" points="149,-74 149,-104 250,-104 250,-74 149,-74"/>
<text text-anchor="start" x="157" y="-92" font-family="Helvetica,sans-Serif" font-size="10.00" fill="#000000">plant::Assimilator</text>
<text text-anchor="middle" x="199.5" y="-81" font-family="Helvetica,sans-Serif" font-size="10.00" fill="#000000">::leaf_turnover_rate</text>
</a>
</g>
</g>
<!-- Node68&#45;&gt;Node69 -->
<g id="edge1" class="edge">
<title>Node68&#45;&gt;Node69</title>
<path fill="none" stroke="#191970" d="M119.1853,-75.1526C129.1471,-76.8702 139.3079,-78.6221 148.9037,-80.2765"/>
<polygon fill="#191970" stroke="#191970" points="119.7676,-71.7015 109.3183,-73.4514 118.5782,-78.5997 119.7676,-71.7015"/>
</g>
<!-- Node78 -->
<g id="node11" class="node">
<title>Node78</title>
<g id="a_node11"><a xlink:href="classplant_1_1PlantGeometry.html#a5e8a34362ccb0a9aa37e1c2c6af6fbc4" target="_top" xlink:title="plant::PlantGeometry\l::total_mass">
<polygon fill="none" stroke="#000000" points="145,-25 145,-55 254,-55 254,-25 145,-25"/>
<text text-anchor="start" x="153" y="-43" font-family="Helvetica,sans-Serif" font-size="10.00" fill="#000000">plant::PlantGeometry</text>
<text text-anchor="middle" x="199.5" y="-32" font-family="Helvetica,sans-Serif" font-size="10.00" fill="#000000">::total_mass</text>
</a>
</g>
</g>
<!-- Node68&#45;&gt;Node78 -->
<g id="edge11" class="edge">
<title>Node68&#45;&gt;Node78</title>
<path fill="none" stroke="#191970" d="M119.1853,-53.2935C127.6712,-51.8889 136.3016,-50.4604 144.6042,-49.0862"/>
<polygon fill="#191970" stroke="#191970" points="118.6125,-49.8406 109.3183,-54.9266 119.7556,-56.7466 118.6125,-49.8406"/>
</g>
<!-- Node70 -->
<g id="node3" class="node">
<title>Node70</title>
<g id="a_node3"><a xlink:href="classplant_1_1Assimilator.html#ab5cf98dde0fb1d49ce4d0f44387b628b" target="_top" xlink:title="plant::Assimilator\l::net_production">
<polygon fill="none" stroke="#000000" points="308,-74 308,-104 400,-104 400,-74 308,-74"/>
<text text-anchor="start" x="316" y="-92" font-family="Helvetica,sans-Serif" font-size="10.00" fill="#000000">plant::Assimilator</text>
<text text-anchor="middle" x="354" y="-81" font-family="Helvetica,sans-Serif" font-size="10.00" fill="#000000">::net_production</text>
</a>
</g>
</g>
<!-- Node69&#45;&gt;Node70 -->
<g id="edge2" class="edge">
<title>Node69&#45;&gt;Node70</title>
<path fill="none" stroke="#191970" d="M260.3456,-89C276.2108,-89 293.0438,-89 307.9979,-89"/>
<polygon fill="#191970" stroke="#191970" points="260.0891,-85.5001 250.0891,-89 260.089,-92.5001 260.0891,-85.5001"/>
</g>
<!-- Node71 -->
<g id="node4" class="node">
<title>Node71</title>
<g id="a_node4"><a xlink:href="classplant_1_1Plant.html#a48612779a5850cca9cc6f6caff1ccb8b" target="_top" xlink:title="plant::Plant::lai_model">
<polygon fill="none" stroke="#000000" points="455.5,-117.5 455.5,-136.5 568.5,-136.5 568.5,-117.5 455.5,-117.5"/>
<text text-anchor="middle" x="512" y="-124.5" font-family="Helvetica,sans-Serif" font-size="10.00" fill="#000000">plant::Plant::lai_model</text>
</a>
</g>
</g>
<!-- Node70&#45;&gt;Node71 -->
<g id="edge3" class="edge">
<title>Node70&#45;&gt;Node71</title>
<path fill="none" stroke="#191970" d="M410.0078,-102.4702C430.568,-107.4151 453.4042,-112.9073 472.2471,-117.4392"/>
<polygon fill="#191970" stroke="#191970" points="410.6661,-99.0288 400.1249,-100.0933 409.0292,-105.8348 410.6661,-99.0288"/>
</g>
<!-- Node72 -->
<g id="node5" class="node">
<title>Node72</title>
<g id="a_node5"><a xlink:href="classplant_1_1Plant.html#ab39fa79cb8884c684af5db0c98a1785e" target="_top" xlink:title="plant::Plant::calc\l_demographic_rates">
<polygon fill="none" stroke="#000000" points="624,-104 624,-134 728,-134 728,-104 624,-104"/>
<text text-anchor="start" x="632" y="-122" font-family="Helvetica,sans-Serif" font-size="10.00" fill="#000000">plant::Plant::calc</text>
<text text-anchor="middle" x="676" y="-111" font-family="Helvetica,sans-Serif" font-size="10.00" fill="#000000">_demographic_rates</text>
</a>
</g>
</g>
<!-- Node70&#45;&gt;Node72 -->
<g id="edge10" class="edge">
<title>Node70&#45;&gt;Node72</title>
<path fill="none" stroke="#191970" d="M410.4875,-93.7252C454.0793,-97.4306 515.8808,-102.812 570,-108 587.5884,-109.6861 606.8056,-111.645 623.9887,-113.4385"/>
<polygon fill="#191970" stroke="#191970" points="410.6278,-90.2246 400.3678,-92.8673 410.0364,-97.1996 410.6278,-90.2246"/>
</g>
<!-- Node75 -->
<g id="node8" class="node">
<title>Node75</title>
<g id="a_node8"><a xlink:href="classplant_1_1Plant.html#a03c45eaaabce7ff0287598818dc4847f" target="_top" xlink:title="plant::Plant::p_survival\l_germination">
<polygon fill="none" stroke="#000000" points="454,-30 454,-60 570,-60 570,-30 454,-30"/>
<text text-anchor="start" x="462" y="-48" font-family="Helvetica,sans-Serif" font-size="10.00" fill="#000000">plant::Plant::p_survival</text>
<text text-anchor="middle" x="512" y="-37" font-family="Helvetica,sans-Serif" font-size="10.00" fill="#000000">_germination</text>
</a>
</g>
</g>
<!-- Node70&#45;&gt;Node75 -->
<g id="edge7" class="edge">
<title>Node70&#45;&gt;Node75</title>
<path fill="none" stroke="#191970" d="M410.1396,-73.3662C425.7067,-69.031 442.5697,-64.335 458.0112,-60.0349"/>
<polygon fill="#191970" stroke="#191970" points="408.8193,-70.1006 400.1249,-76.1551 410.6973,-76.844 408.8193,-70.1006"/>
</g>
<!-- Node71&#45;&gt;Node72 -->
<g id="edge4" class="edge">
<title>Node71&#45;&gt;Node72</title>
<path fill="none" stroke="#191970" d="M579.1024,-123.7267C594.0348,-122.9983 609.6493,-122.2366 623.8744,-121.5427"/>
<polygon fill="#191970" stroke="#191970" points="578.7165,-120.2413 568.899,-124.2244 579.0577,-127.233 578.7165,-120.2413"/>
</g>
<!-- Node73 -->
<g id="node6" class="node">
<title>Node73</title>
<g id="a_node6"><a xlink:href="classplant_1_1Plant.html#a274f7da212d5f05d4b281e49e11fc44e" target="_top" xlink:title="plant::Plant::grow\l_for_dt">
<polygon fill="none" stroke="#000000" points="801.5,-126 801.5,-156 894.5,-156 894.5,-126 801.5,-126"/>
<text text-anchor="start" x="809.5" y="-144" font-family="Helvetica,sans-Serif" font-size="10.00" fill="#000000">plant::Plant::grow</text>
<text text-anchor="middle" x="848" y="-133" font-family="Helvetica,sans-Serif" font-size="10.00" fill="#000000">_for_dt</text>
</a>
</g>
</g>
<!-- Node72&#45;&gt;Node73 -->
<g id="edge5" class="edge">
<title>Node72&#45;&gt;Node73</title>
<path fill="none" stroke="#191970" d="M738.1282,-126.9466C758.9941,-129.6155 781.8961,-132.5449 801.3657,-135.0352"/>
<polygon fill="#191970" stroke="#191970" points="738.4357,-123.4575 728.0724,-125.6604 737.5475,-130.401 738.4357,-123.4575"/>
</g>
<!-- Node74 -->
<g id="node7" class="node">
<title>Node74</title>
<g id="a_node7"><a xlink:href="classPSPM__Plant.html#a71f7312443767dffc44d8d0d80b295f0" target="_top" xlink:title="PSPM_Plant::preCompute">
<polygon fill="none" stroke="#000000" points="782,-87.5 782,-106.5 914,-106.5 914,-87.5 782,-87.5"/>
<text text-anchor="middle" x="848" y="-94.5" font-family="Helvetica,sans-Serif" font-size="10.00" fill="#000000">PSPM_Plant::preCompute</text>
</a>
</g>
</g>
<!-- Node72&#45;&gt;Node74 -->
<g id="edge6" class="edge">
<title>Node72&#45;&gt;Node74</title>
<path fill="none" stroke="#191970" d="M738.1933,-111.045C752.353,-109.2339 767.4473,-107.3032 781.7684,-105.4715"/>
<polygon fill="#191970" stroke="#191970" points="737.5475,-107.599 728.0724,-112.3396 738.4357,-114.5425 737.5475,-107.599"/>
</g>
<!-- Node76 -->
<g id="node9" class="node">
<title>Node76</title>
<g id="a_node9"><a xlink:href="classPSPM__Plant.html#a4ceca1be5d1089c49dcecdc5ce216727" target="_top" xlink:title="PSPM_Plant::establishment\lProbability">
<polygon fill="none" stroke="#000000" points="606,-39 606,-69 746,-69 746,-39 606,-39"/>
<text text-anchor="start" x="614" y="-57" font-family="Helvetica,sans-Serif" font-size="10.00" fill="#000000">PSPM_Plant::establishment</text>
<text text-anchor="middle" x="676" y="-46" font-family="Helvetica,sans-Serif" font-size="10.00" fill="#000000">Probability</text>
</a>
</g>
</g>
<!-- Node75&#45;&gt;Node76 -->
<g id="edge8" class="edge">
<title>Node75&#45;&gt;Node76</title>
<path fill="none" stroke="#191970" d="M580.4083,-48.7541C588.8098,-49.2152 597.4071,-49.687 605.8341,-50.1494"/>
<polygon fill="#191970" stroke="#191970" points="580.4588,-45.2517 570.282,-48.1984 580.0752,-52.2412 580.4588,-45.2517"/>
</g>
<!-- Node77 -->
<g id="node10" class="node">
<title>Node77</title>
<g id="a_node10"><a xlink:href="classPSPM__Plant.html#ad3109143960e0a0ceded078733bc4d4c" target="_top" xlink:title="PSPM_Plant::init_state">
<polygon fill="none" stroke="#000000" points="616.5,-.5 616.5,-19.5 735.5,-19.5 735.5,-.5 616.5,-.5"/>
<text text-anchor="middle" x="676" y="-7.5" font-family="Helvetica,sans-Serif" font-size="10.00" fill="#000000">PSPM_Plant::init_state</text>
</a>
</g>
</g>
<!-- Node75&#45;&gt;Node77 -->
<g id="edge9" class="edge">
<title>Node75&#45;&gt;Node77</title>
<path fill="none" stroke="#191970" d="M580.3042,-30.4229C597.5293,-26.7468 615.5841,-22.8936 631.3116,-19.5372"/>
<polygon fill="#191970" stroke="#191970" points="579.3313,-27.0516 570.282,-32.5618 580.7923,-33.8975 579.3313,-27.0516"/>
</g>
<!-- Node79 -->
<g id="node12" class="node">
<title>Node79</title>
<g id="a_node12"><a xlink:href="classplant_1_1Plant.html#a844678ed6bf903552975db098127d9b2" target="_top" xlink:title="plant::Plant::get_biomass">
<polygon fill="none" stroke="#000000" points="290,-30.5 290,-49.5 418,-49.5 418,-30.5 290,-30.5"/>
<text text-anchor="middle" x="354" y="-37.5" font-family="Helvetica,sans-Serif" font-size="10.00" fill="#000000">plant::Plant::get_biomass</text>
</a>
</g>
</g>
<!-- Node78&#45;&gt;Node79 -->
<g id="edge12" class="edge">
<title>Node78&#45;&gt;Node79</title>
<path fill="none" stroke="#191970" d="M264.4865,-40C272.8533,-40 281.417,-40 289.7714,-40"/>
<polygon fill="#191970" stroke="#191970" points="264.406,-36.5001 254.4059,-40 264.4059,-43.5001 264.406,-36.5001"/>
</g>
</g>
</svg>
