<?xml version="1.0" encoding="UTF-8" standalone="no"?>
<!DOCTYPE svg PUBLIC "-//W3C//DTD SVG 1.1//EN"
 "http://www.w3.org/Graphics/SVG/1.1/DTD/svg11.dtd">
<!-- Generated by graphviz version 2.40.1 (20161225.0304)
 -->
<!-- Title: plant::PlantGeometry::grow_for_dt Pages: 1 -->
<svg width="407pt" height="323pt"
 viewBox="0.00 0.00 407.00 322.50" xmlns="http://www.w3.org/2000/svg" xmlns:xlink="http://www.w3.org/1999/xlink">
<g id="graph0" class="graph" transform="scale(1 1) rotate(0) translate(4 318.5)">
<title>plant::PlantGeometry::grow_for_dt</title>
<!-- Node48 -->
<g id="node1" class="node">
<title>Node48</title>
<polygon fill="#bfbfbf" stroke="#000000" points="0,-137 0,-167 109,-167 109,-137 0,-137"/>
<text text-anchor="start" x="8" y="-155" font-family="Helvetica,sans-Serif" font-size="10.00" fill="#000000">plant::PlantGeometry</text>
<text text-anchor="middle" x="54.5" y="-144" font-family="Helvetica,sans-Serif" font-size="10.00" fill="#000000">::grow_for_dt</text>
</g>
<!-- Node49 -->
<g id="node2" class="node">
<title>Node49</title>
<g id="a_node2"><a xlink:href="classplant_1_1PlantGeometry.html#a818143a8613e10cb44bcb448b36984ca" target="_top" xlink:title="plant::PlantGeometry\l::set_lai">
<polygon fill="none" stroke="#000000" points="145,-284 145,-314 254,-314 254,-284 145,-284"/>
<text text-anchor="start" x="153" y="-302" font-family="Helvetica,sans-Serif" font-size="10.00" fill="#000000">plant::PlantGeometry</text>
<text text-anchor="middle" x="199.5" y="-291" font-family="Helvetica,sans-Serif" font-size="10.00" fill="#000000">::set_lai</text>
</a>
</g>
</g>
<!-- Node48&#45;&gt;Node49 -->
<g id="edge1" class="edge">
<title>Node48&#45;&gt;Node49</title>
<path fill="none" stroke="#191970" d="M62.2485,-167.2327C75.857,-192.6555 106.315,-243.995 145,-275 146.5731,-276.2608 148.2228,-277.4688 149.9283,-278.6247"/>
<polygon fill="#191970" stroke="#191970" points="148.4504,-281.82 158.824,-283.9735 152.0575,-275.8209 148.4504,-281.82"/>
</g>
<!-- Node50 -->
<g id="node3" class="node">
<title>Node50</title>
<g id="a_node3"><a xlink:href="classplant_1_1PlantGeometry.html#a6ef545e73792c1947b68189aa613cb35" target="_top" xlink:title="plant::PlantGeometry\l::set_size">
<polygon fill="none" stroke="#000000" points="145,-235 145,-265 254,-265 254,-235 145,-235"/>
<text text-anchor="start" x="153" y="-253" font-family="Helvetica,sans-Serif" font-size="10.00" fill="#000000">plant::PlantGeometry</text>
<text text-anchor="middle" x="199.5" y="-242" font-family="Helvetica,sans-Serif" font-size="10.00" fill="#000000">::set_size</text>
</a>
</g>
</g>
<!-- Node48&#45;&gt;Node50 -->
<g id="edge2" class="edge">
<title>Node48&#45;&gt;Node50</title>
<path fill="none" stroke="#191970" d="M70.17,-167.0602C87.465,-183.1234 116.626,-208.599 145,-226 147.4374,-227.4948 149.9843,-228.9467 152.5884,-230.3476"/>
<polygon fill="#191970" stroke="#191970" points="151.0849,-233.5093 161.5878,-234.902 154.2457,-227.2636 151.0849,-233.5093"/>
</g>
<!-- Node51 -->
<g id="node4" class="node">
<title>Node51</title>
<g id="a_node4"><a xlink:href="classplant_1_1PlantGeometry.html#a436490556ceb3fdab0db5b81132a6f3f" target="_top" xlink:title="plant::PlantGeometry\l::dmass_dt_lai">
<polygon fill="none" stroke="#000000" points="145,-186 145,-216 254,-216 254,-186 145,-186"/>
<text text-anchor="start" x="153" y="-204" font-family="Helvetica,sans-Serif" font-size="10.00" fill="#000000">plant::PlantGeometry</text>
<text text-anchor="middle" x="199.5" y="-193" font-family="Helvetica,sans-Serif" font-size="10.00" fill="#000000">::dmass_dt_lai</text>
</a>
</g>
</g>
<!-- Node48&#45;&gt;Node51 -->
<g id="edge3" class="edge">
<title>Node48&#45;&gt;Node51</title>
<path fill="none" stroke="#191970" d="M99.1879,-167.1014C113.659,-171.9917 129.8725,-177.4707 144.9752,-182.5744"/>
<polygon fill="#191970" stroke="#191970" points="144.1158,-185.9783 154.71,-185.8641 146.3569,-179.3468 144.1158,-185.9783"/>
</g>
<!-- Node52 -->
<g id="node5" class="node">
<title>Node52</title>
<g id="a_node5"><a xlink:href="classplant_1_1PlantGeometry.html#a2588428307028e5d6f1b6514aaa9dd59" target="_top" xlink:title="plant::PlantGeometry\l::dsize_dmass">
<polygon fill="none" stroke="#000000" points="145,-137 145,-167 254,-167 254,-137 145,-137"/>
<text text-anchor="start" x="153" y="-155" font-family="Helvetica,sans-Serif" font-size="10.00" fill="#000000">plant::PlantGeometry</text>
<text text-anchor="middle" x="199.5" y="-144" font-family="Helvetica,sans-Serif" font-size="10.00" fill="#000000">::dsize_dmass</text>
</a>
</g>
</g>
<!-- Node48&#45;&gt;Node52 -->
<g id="edge4" class="edge">
<title>Node48&#45;&gt;Node52</title>
<path fill="none" stroke="#191970" d="M109.3183,-152C117.5286,-152 126.0611,-152 134.4586,-152"/>
<polygon fill="#191970" stroke="#191970" points="134.6042,-155.5001 144.6042,-152 134.6042,-148.5001 134.6042,-155.5001"/>
</g>
<!-- Node53 -->
<g id="node6" class="node">
<title>Node53</title>
<g id="a_node6"><a xlink:href="classplant_1_1PlantGeometry.html#aa34014d10ad2f1585b22958a27bee404" target="_top" xlink:title="plant::PlantGeometry\l::sapwood_mass">
<polygon fill="none" stroke="#000000" points="145,-88 145,-118 254,-118 254,-88 145,-88"/>
<text text-anchor="start" x="153" y="-106" font-family="Helvetica,sans-Serif" font-size="10.00" fill="#000000">plant::PlantGeometry</text>
<text text-anchor="middle" x="199.5" y="-95" font-family="Helvetica,sans-Serif" font-size="10.00" fill="#000000">::sapwood_mass</text>
</a>
</g>
</g>
<!-- Node48&#45;&gt;Node53 -->
<g id="edge5" class="edge">
<title>Node48&#45;&gt;Node53</title>
<path fill="none" stroke="#191970" d="M99.1879,-136.8986C113.659,-132.0083 129.8725,-126.5293 144.9752,-121.4256"/>
<polygon fill="#191970" stroke="#191970" points="146.3569,-124.6532 154.71,-118.1359 144.1158,-118.0217 146.3569,-124.6532"/>
</g>
<!-- Node55 -->
<g id="node8" class="node">
<title>Node55</title>
<g id="a_node8"><a xlink:href="classplant_1_1PlantGeometry.html#a3988e151a21d97e544460b200993ac71" target="_top" xlink:title="plant::PlantGeometry\l::get_size">
<polygon fill="none" stroke="#000000" points="145,-39 145,-69 254,-69 254,-39 145,-39"/>
<text text-anchor="start" x="153" y="-57" font-family="Helvetica,sans-Serif" font-size="10.00" fill="#000000">plant::PlantGeometry</text>
<text text-anchor="middle" x="199.5" y="-46" font-family="Helvetica,sans-Serif" font-size="10.00" fill="#000000">::get_size</text>
</a>
</g>
</g>
<!-- Node48&#45;&gt;Node55 -->
<g id="edge7" class="edge">
<title>Node48&#45;&gt;Node55</title>
<path fill="none" stroke="#191970" d="M70.5773,-136.9558C87.985,-121.1806 117.0254,-96.3221 145,-79 147.9663,-77.1633 151.09,-75.3789 154.2791,-73.6648"/>
<polygon fill="#191970" stroke="#191970" points="156.0433,-76.6941 163.3633,-69.0346 152.8645,-70.4575 156.0433,-76.6941"/>
</g>
<!-- Node56 -->
<g id="node9" class="node">
<title>Node56</title>
<g id="a_node9"><a xlink:href="rk4_8h.html#a3d0ee2e6387dc2895fd9a41509912863" target="_top" xlink:title="RK4">
<polygon fill="none" stroke="#000000" points="181.5,-.5 181.5,-19.5 217.5,-19.5 217.5,-.5 181.5,-.5"/>
<text text-anchor="middle" x="199.5" y="-7.5" font-family="Helvetica,sans-Serif" font-size="10.00" fill="#000000">RK4</text>
</a>
</g>
</g>
<!-- Node48&#45;&gt;Node56 -->
<g id="edge8" class="edge">
<title>Node48&#45;&gt;Node56</title>
<path fill="none" stroke="#191970" d="M62.0725,-136.6258C75.4216,-111.0188 105.5074,-59.5355 145,-30 152.7995,-24.167 162.4762,-19.8879 171.5017,-16.8206"/>
<polygon fill="#191970" stroke="#191970" points="172.7268,-20.1066 181.2803,-13.8544 170.6948,-13.408 172.7268,-20.1066"/>
</g>
<!-- Node54 -->
<g id="node7" class="node">
<title>Node54</title>
<g id="a_node7"><a xlink:href="classplant_1_1PlantGeometry.html#adb7202ef29b176b65c43c5b5d950484d" target="_top" xlink:title="plant::PlantGeometry\l::stem_mass">
<polygon fill="none" stroke="#000000" points="290,-88 290,-118 399,-118 399,-88 290,-88"/>
<text text-anchor="start" x="298" y="-106" font-family="Helvetica,sans-Serif" font-size="10.00" fill="#000000">plant::PlantGeometry</text>
<text text-anchor="middle" x="344.5" y="-95" font-family="Helvetica,sans-Serif" font-size="10.00" fill="#000000">::stem_mass</text>
</a>
</g>
</g>
<!-- Node53&#45;&gt;Node54 -->
<g id="edge6" class="edge">
<title>Node53&#45;&gt;Node54</title>
<path fill="none" stroke="#191970" d="M254.3183,-103C262.5286,-103 271.0611,-103 279.4586,-103"/>
<polygon fill="#191970" stroke="#191970" points="279.6042,-106.5001 289.6042,-103 279.6042,-99.5001 279.6042,-106.5001"/>
</g>
</g>
</svg>
