<?xml version="1.0" encoding="UTF-8" standalone="no"?>
<!DOCTYPE svg PUBLIC "-//W3C//DTD SVG 1.1//EN"
 "http://www.w3.org/Graphics/SVG/1.1/DTD/svg11.dtd">
<!-- Generated by graphviz version 2.40.1 (20161225.0304)
 -->
<!-- Title: plant::PlantGeometry::root_mass Pages: 1 -->
<svg width="924pt" height="165pt"
 viewBox="0.00 0.00 924.00 164.50" xmlns="http://www.w3.org/2000/svg" xmlns:xlink="http://www.w3.org/1999/xlink">
<g id="graph0" class="graph" transform="scale(1 1) rotate(0) translate(4 160.5)">
<title>plant::PlantGeometry::root_mass</title>
<!-- Node94 -->
<g id="node1" class="node">
<title>Node94</title>
<polygon fill="#bfbfbf" stroke="#000000" points="0,-50 0,-80 109,-80 109,-50 0,-50"/>
<text text-anchor="start" x="8" y="-68" font-family="Helvetica,sans-Serif" font-size="10.00" fill="#000000">plant::PlantGeometry</text>
<text text-anchor="middle" x="54.5" y="-57" font-family="Helvetica,sans-Serif" font-size="10.00" fill="#000000">::root_mass</text>
</g>
<!-- Node95 -->
<g id="node2" class="node">
<title>Node95</title>
<g id="a_node2"><a xlink:href="classplant_1_1Assimilator.html#ab48c39e03fe75f132440554504c5a1f9" target="_top" xlink:title="plant::Assimilator\l::root_respiration_rate">
<polygon fill="none" stroke="#000000" points="145,-99 145,-129 256,-129 256,-99 145,-99"/>
<text text-anchor="start" x="153" y="-117" font-family="Helvetica,sans-Serif" font-size="10.00" fill="#000000">plant::Assimilator</text>
<text text-anchor="middle" x="200.5" y="-106" font-family="Helvetica,sans-Serif" font-size="10.00" fill="#000000">::root_respiration_rate</text>
</a>
</g>
</g>
<!-- Node94&#45;&gt;Node95 -->
<g id="edge1" class="edge">
<title>Node94&#45;&gt;Node95</title>
<path fill="none" stroke="#191970" d="M109.3407,-83.4055C124.6164,-88.5322 141.0249,-94.0392 155.6524,-98.9484"/>
<polygon fill="#191970" stroke="#191970" points="110.0901,-79.9651 99.4961,-80.1014 107.8628,-86.6014 110.0901,-79.9651"/>
</g>
<!-- Node104 -->
<g id="node11" class="node">
<title>Node104</title>
<g id="a_node11"><a xlink:href="classplant_1_1Assimilator.html#acdbc33099ba37ba301616e1b3ad6d1c4" target="_top" xlink:title="plant::Assimilator\l::root_turnover_rate">
<polygon fill="none" stroke="#000000" points="150,-50 150,-80 251,-80 251,-50 150,-50"/>
<text text-anchor="start" x="158" y="-68" font-family="Helvetica,sans-Serif" font-size="10.00" fill="#000000">plant::Assimilator</text>
<text text-anchor="middle" x="200.5" y="-57" font-family="Helvetica,sans-Serif" font-size="10.00" fill="#000000">::root_turnover_rate</text>
</a>
</g>
</g>
<!-- Node94&#45;&gt;Node104 -->
<g id="edge11" class="edge">
<title>Node94&#45;&gt;Node104</title>
<path fill="none" stroke="#191970" d="M119.3639,-65C129.5485,-65 139.9471,-65 149.7533,-65"/>
<polygon fill="#191970" stroke="#191970" points="119.2804,-61.5001 109.2804,-65 119.2804,-68.5001 119.2804,-61.5001"/>
</g>
<!-- Node105 -->
<g id="node12" class="node">
<title>Node105</title>
<g id="a_node12"><a xlink:href="classplant_1_1PlantGeometry.html#a5e8a34362ccb0a9aa37e1c2c6af6fbc4" target="_top" xlink:title="plant::PlantGeometry\l::total_mass">
<polygon fill="none" stroke="#000000" points="146,-1 146,-31 255,-31 255,-1 146,-1"/>
<text text-anchor="start" x="154" y="-19" font-family="Helvetica,sans-Serif" font-size="10.00" fill="#000000">plant::PlantGeometry</text>
<text text-anchor="middle" x="200.5" y="-8" font-family="Helvetica,sans-Serif" font-size="10.00" fill="#000000">::total_mass</text>
</a>
</g>
</g>
<!-- Node94&#45;&gt;Node105 -->
<g id="edge13" class="edge">
<title>Node94&#45;&gt;Node105</title>
<path fill="none" stroke="#191970" d="M109.3407,-46.5945C124.6164,-41.4678 141.0249,-35.9608 155.6524,-31.0516"/>
<polygon fill="#191970" stroke="#191970" points="107.8628,-43.3986 99.4961,-49.8986 110.0901,-50.0349 107.8628,-43.3986"/>
</g>
<!-- Node96 -->
<g id="node3" class="node">
<title>Node96</title>
<g id="a_node3"><a xlink:href="classplant_1_1Assimilator.html#ab5cf98dde0fb1d49ce4d0f44387b628b" target="_top" xlink:title="plant::Assimilator\l::net_production">
<polygon fill="none" stroke="#000000" points="310,-74 310,-104 402,-104 402,-74 310,-74"/>
<text text-anchor="start" x="318" y="-92" font-family="Helvetica,sans-Serif" font-size="10.00" fill="#000000">plant::Assimilator</text>
<text text-anchor="middle" x="356" y="-81" font-family="Helvetica,sans-Serif" font-size="10.00" fill="#000000">::net_production</text>
</a>
</g>
</g>
<!-- Node95&#45;&gt;Node96 -->
<g id="edge2" class="edge">
<title>Node95&#45;&gt;Node96</title>
<path fill="none" stroke="#191970" d="M266.2487,-103.4295C280.9372,-101.068 296.2113,-98.6123 309.9055,-96.4107"/>
<polygon fill="#191970" stroke="#191970" points="265.5175,-100.002 256.1999,-105.045 266.6287,-106.9132 265.5175,-100.002"/>
</g>
<!-- Node97 -->
<g id="node4" class="node">
<title>Node97</title>
<g id="a_node4"><a xlink:href="classplant_1_1Plant.html#a48612779a5850cca9cc6f6caff1ccb8b" target="_top" xlink:title="plant::Plant::lai_model">
<polygon fill="none" stroke="#000000" points="457.5,-117.5 457.5,-136.5 570.5,-136.5 570.5,-117.5 457.5,-117.5"/>
<text text-anchor="middle" x="514" y="-124.5" font-family="Helvetica,sans-Serif" font-size="10.00" fill="#000000">plant::Plant::lai_model</text>
</a>
</g>
</g>
<!-- Node96&#45;&gt;Node97 -->
<g id="edge3" class="edge">
<title>Node96&#45;&gt;Node97</title>
<path fill="none" stroke="#191970" d="M412.0078,-102.4702C432.568,-107.4151 455.4042,-112.9073 474.2471,-117.4392"/>
<polygon fill="#191970" stroke="#191970" points="412.6661,-99.0288 402.1249,-100.0933 411.0292,-105.8348 412.6661,-99.0288"/>
</g>
<!-- Node98 -->
<g id="node5" class="node">
<title>Node98</title>
<g id="a_node5"><a xlink:href="classplant_1_1Plant.html#ab39fa79cb8884c684af5db0c98a1785e" target="_top" xlink:title="plant::Plant::calc\l_demographic_rates">
<polygon fill="none" stroke="#000000" points="626,-104 626,-134 730,-134 730,-104 626,-104"/>
<text text-anchor="start" x="634" y="-122" font-family="Helvetica,sans-Serif" font-size="10.00" fill="#000000">plant::Plant::calc</text>
<text text-anchor="middle" x="678" y="-111" font-family="Helvetica,sans-Serif" font-size="10.00" fill="#000000">_demographic_rates</text>
</a>
</g>
</g>
<!-- Node96&#45;&gt;Node98 -->
<g id="edge10" class="edge">
<title>Node96&#45;&gt;Node98</title>
<path fill="none" stroke="#191970" d="M412.4875,-93.7252C456.0793,-97.4306 517.8808,-102.812 572,-108 589.5884,-109.6861 608.8056,-111.645 625.9887,-113.4385"/>
<polygon fill="#191970" stroke="#191970" points="412.6278,-90.2246 402.3678,-92.8673 412.0364,-97.1996 412.6278,-90.2246"/>
</g>
<!-- Node101 -->
<g id="node8" class="node">
<title>Node101</title>
<g id="a_node8"><a xlink:href="classplant_1_1Plant.html#a03c45eaaabce7ff0287598818dc4847f" target="_top" xlink:title="plant::Plant::p_survival\l_germination">
<polygon fill="none" stroke="#000000" points="456,-30 456,-60 572,-60 572,-30 456,-30"/>
<text text-anchor="start" x="464" y="-48" font-family="Helvetica,sans-Serif" font-size="10.00" fill="#000000">plant::Plant::p_survival</text>
<text text-anchor="middle" x="514" y="-37" font-family="Helvetica,sans-Serif" font-size="10.00" fill="#000000">_germination</text>
</a>
</g>
</g>
<!-- Node96&#45;&gt;Node101 -->
<g id="edge7" class="edge">
<title>Node96&#45;&gt;Node101</title>
<path fill="none" stroke="#191970" d="M412.1396,-73.3662C427.7067,-69.031 444.5697,-64.335 460.0112,-60.0349"/>
<polygon fill="#191970" stroke="#191970" points="410.8193,-70.1006 402.1249,-76.1551 412.6973,-76.844 410.8193,-70.1006"/>
</g>
<!-- Node97&#45;&gt;Node98 -->
<g id="edge4" class="edge">
<title>Node97&#45;&gt;Node98</title>
<path fill="none" stroke="#191970" d="M581.1024,-123.7267C596.0348,-122.9983 611.6493,-122.2366 625.8744,-121.5427"/>
<polygon fill="#191970" stroke="#191970" points="580.7165,-120.2413 570.899,-124.2244 581.0577,-127.233 580.7165,-120.2413"/>
</g>
<!-- Node99 -->
<g id="node6" class="node">
<title>Node99</title>
<g id="a_node6"><a xlink:href="classplant_1_1Plant.html#a274f7da212d5f05d4b281e49e11fc44e" target="_top" xlink:title="plant::Plant::grow\l_for_dt">
<polygon fill="none" stroke="#000000" points="803.5,-126 803.5,-156 896.5,-156 896.5,-126 803.5,-126"/>
<text text-anchor="start" x="811.5" y="-144" font-family="Helvetica,sans-Serif" font-size="10.00" fill="#000000">plant::Plant::grow</text>
<text text-anchor="middle" x="850" y="-133" font-family="Helvetica,sans-Serif" font-size="10.00" fill="#000000">_for_dt</text>
</a>
</g>
</g>
<!-- Node98&#45;&gt;Node99 -->
<g id="edge5" class="edge">
<title>Node98&#45;&gt;Node99</title>
<path fill="none" stroke="#191970" d="M740.1282,-126.9466C760.9941,-129.6155 783.8961,-132.5449 803.3657,-135.0352"/>
<polygon fill="#191970" stroke="#191970" points="740.4357,-123.4575 730.0724,-125.6604 739.5475,-130.401 740.4357,-123.4575"/>
</g>
<!-- Node100 -->
<g id="node7" class="node">
<title>Node100</title>
<g id="a_node7"><a xlink:href="classPSPM__Plant.html#a71f7312443767dffc44d8d0d80b295f0" target="_top" xlink:title="PSPM_Plant::preCompute">
<polygon fill="none" stroke="#000000" points="784,-87.5 784,-106.5 916,-106.5 916,-87.5 784,-87.5"/>
<text text-anchor="middle" x="850" y="-94.5" font-family="Helvetica,sans-Serif" font-size="10.00" fill="#000000">PSPM_Plant::preCompute</text>
</a>
</g>
</g>
<!-- Node98&#45;&gt;Node100 -->
<g id="edge6" class="edge">
<title>Node98&#45;&gt;Node100</title>
<path fill="none" stroke="#191970" d="M740.1933,-111.045C754.353,-109.2339 769.4473,-107.3032 783.7684,-105.4715"/>
<polygon fill="#191970" stroke="#191970" points="739.5475,-107.599 730.0724,-112.3396 740.4357,-114.5425 739.5475,-107.599"/>
</g>
<!-- Node102 -->
<g id="node9" class="node">
<title>Node102</title>
<g id="a_node9"><a xlink:href="classPSPM__Plant.html#a4ceca1be5d1089c49dcecdc5ce216727" target="_top" xlink:title="PSPM_Plant::establishment\lProbability">
<polygon fill="none" stroke="#000000" points="608,-39 608,-69 748,-69 748,-39 608,-39"/>
<text text-anchor="start" x="616" y="-57" font-family="Helvetica,sans-Serif" font-size="10.00" fill="#000000">PSPM_Plant::establishment</text>
<text text-anchor="middle" x="678" y="-46" font-family="Helvetica,sans-Serif" font-size="10.00" fill="#000000">Probability</text>
</a>
</g>
</g>
<!-- Node101&#45;&gt;Node102 -->
<g id="edge8" class="edge">
<title>Node101&#45;&gt;Node102</title>
<path fill="none" stroke="#191970" d="M582.4083,-48.7541C590.8098,-49.2152 599.4071,-49.687 607.8341,-50.1494"/>
<polygon fill="#191970" stroke="#191970" points="582.4588,-45.2517 572.282,-48.1984 582.0752,-52.2412 582.4588,-45.2517"/>
</g>
<!-- Node103 -->
<g id="node10" class="node">
<title>Node103</title>
<g id="a_node10"><a xlink:href="classPSPM__Plant.html#ad3109143960e0a0ceded078733bc4d4c" target="_top" xlink:title="PSPM_Plant::init_state">
<polygon fill="none" stroke="#000000" points="618.5,-.5 618.5,-19.5 737.5,-19.5 737.5,-.5 618.5,-.5"/>
<text text-anchor="middle" x="678" y="-7.5" font-family="Helvetica,sans-Serif" font-size="10.00" fill="#000000">PSPM_Plant::init_state</text>
</a>
</g>
</g>
<!-- Node101&#45;&gt;Node103 -->
<g id="edge9" class="edge">
<title>Node101&#45;&gt;Node103</title>
<path fill="none" stroke="#191970" d="M582.3042,-30.4229C599.5293,-26.7468 617.5841,-22.8936 633.3116,-19.5372"/>
<polygon fill="#191970" stroke="#191970" points="581.3313,-27.0516 572.282,-32.5618 582.7923,-33.8975 581.3313,-27.0516"/>
</g>
<!-- Node104&#45;&gt;Node96 -->
<g id="edge12" class="edge">
<title>Node104&#45;&gt;Node96</title>
<path fill="none" stroke="#191970" d="M261.3307,-74.3887C277.5097,-76.8857 294.7159,-79.5414 309.9596,-81.8941"/>
<polygon fill="#191970" stroke="#191970" points="261.8334,-70.9249 251.4165,-72.8585 260.7656,-77.843 261.8334,-70.9249"/>
</g>
<!-- Node106 -->
<g id="node13" class="node">
<title>Node106</title>
<g id="a_node13"><a xlink:href="classplant_1_1Plant.html#a844678ed6bf903552975db098127d9b2" target="_top" xlink:title="plant::Plant::get_biomass">
<polygon fill="none" stroke="#000000" points="292,-6.5 292,-25.5 420,-25.5 420,-6.5 292,-6.5"/>
<text text-anchor="middle" x="356" y="-13.5" font-family="Helvetica,sans-Serif" font-size="10.00" fill="#000000">plant::Plant::get_biomass</text>
</a>
</g>
</g>
<!-- Node105&#45;&gt;Node106 -->
<g id="edge14" class="edge">
<title>Node105&#45;&gt;Node106</title>
<path fill="none" stroke="#191970" d="M265.4399,-16C274.1675,-16 283.1166,-16 291.8307,-16"/>
<polygon fill="#191970" stroke="#191970" points="265.3235,-12.5001 255.3235,-16 265.3234,-19.5001 265.3235,-12.5001"/>
</g>
</g>
</svg>
