<?xml version="1.0" encoding="UTF-8" standalone="no"?>
<!DOCTYPE svg PUBLIC "-//W3C//DTD SVG 1.1//EN"
 "http://www.w3.org/Graphics/SVG/1.1/DTD/svg11.dtd">
<!-- Generated by graphviz version 2.40.1 (20161225.0304)
 -->
<!-- Title: plant::Plant::calc_demographic_rates Pages: 1 -->
<svg width="933pt" height="509pt"
 viewBox="0.00 0.00 933.00 508.50" xmlns="http://www.w3.org/2000/svg" xmlns:xlink="http://www.w3.org/1999/xlink">
<g id="graph0" class="graph" transform="scale(1 1) rotate(0) translate(4 504.5)">
<title>plant::Plant::calc_demographic_rates</title>
<!-- Node0 -->
<g id="node1" class="node">
<title>Node0</title>
<polygon fill="#bfbfbf" stroke="#000000" points="0,-126.5 0,-156.5 104,-156.5 104,-126.5 0,-126.5"/>
<text text-anchor="start" x="8" y="-144.5" font-family="Helvetica,sans-Serif" font-size="10.00" fill="#000000">plant::Plant::calc</text>
<text text-anchor="middle" x="52" y="-133.5" font-family="Helvetica,sans-Serif" font-size="10.00" fill="#000000">_demographic_rates</text>
</g>
<!-- Node1 -->
<g id="node2" class="node">
<title>Node1</title>
<g id="a_node2"><a xlink:href="classplant_1_1Assimilator.html#ab5cf98dde0fb1d49ce4d0f44387b628b" target="_top" xlink:title="plant::Assimilator\l::net_production">
<polygon fill="none" stroke="#000000" points="322,-322.5 322,-352.5 414,-352.5 414,-322.5 322,-322.5"/>
<text text-anchor="start" x="330" y="-340.5" font-family="Helvetica,sans-Serif" font-size="10.00" fill="#000000">plant::Assimilator</text>
<text text-anchor="middle" x="368" y="-329.5" font-family="Helvetica,sans-Serif" font-size="10.00" fill="#000000">::net_production</text>
</a>
</g>
</g>
<!-- Node0&#45;&gt;Node1 -->
<g id="edge1" class="edge">
<title>Node0&#45;&gt;Node1</title>
<path fill="none" stroke="#191970" d="M57.907,-156.7286C69.4008,-184.3213 97.438,-242.5829 140,-273.5 190.9296,-310.4953 262.4953,-326.1311 311.7953,-332.7236"/>
<polygon fill="#191970" stroke="#191970" points="311.6044,-336.2269 321.962,-333.9975 312.4747,-329.2812 311.6044,-336.2269"/>
</g>
<!-- Node16 -->
<g id="node17" class="node">
<title>Node16</title>
<g id="a_node17"><a xlink:href="classplant_1_1Plant.html#a48612779a5850cca9cc6f6caff1ccb8b" target="_top" xlink:title="plant::Plant::lai_model">
<polygon fill="none" stroke="#000000" points="150.5,-245 150.5,-264 263.5,-264 263.5,-245 150.5,-245"/>
<text text-anchor="middle" x="207" y="-252" font-family="Helvetica,sans-Serif" font-size="10.00" fill="#000000">plant::Plant::lai_model</text>
</a>
</g>
</g>
<!-- Node0&#45;&gt;Node16 -->
<g id="edge17" class="edge">
<title>Node0&#45;&gt;Node16</title>
<path fill="none" stroke="#191970" d="M68.1839,-156.5775C85.3385,-172.2005 113.5534,-196.8909 140,-215.5 152.543,-224.3259 167.1949,-233.0219 179.593,-239.9549"/>
<polygon fill="#191970" stroke="#191970" points="178.113,-243.1353 188.5622,-244.8859 181.4854,-237.0012 178.113,-243.1353"/>
</g>
<!-- Node19 -->
<g id="node20" class="node">
<title>Node19</title>
<g id="a_node20"><a xlink:href="classplant_1_1Plant.html#af19cb4918c06a6660da62386a2d2ea36" target="_top" xlink:title="plant::Plant::partition\l_biomass">
<polygon fill="none" stroke="#000000" points="153.5,-175.5 153.5,-205.5 260.5,-205.5 260.5,-175.5 153.5,-175.5"/>
<text text-anchor="start" x="161.5" y="-193.5" font-family="Helvetica,sans-Serif" font-size="10.00" fill="#000000">plant::Plant::partition</text>
<text text-anchor="middle" x="207" y="-182.5" font-family="Helvetica,sans-Serif" font-size="10.00" fill="#000000">_biomass</text>
</a>
</g>
</g>
<!-- Node0&#45;&gt;Node19 -->
<g id="edge21" class="edge">
<title>Node0&#45;&gt;Node19</title>
<path fill="none" stroke="#191970" d="M99.7699,-156.6014C115.4599,-161.5615 133.0662,-167.1274 149.4061,-172.2929"/>
<polygon fill="#191970" stroke="#191970" points="148.798,-175.7713 159.3879,-175.4484 150.908,-169.0969 148.798,-175.7713"/>
</g>
<!-- Node21 -->
<g id="node22" class="node">
<title>Node21</title>
<g id="a_node22"><a xlink:href="classplant_1_1Plant.html#ae3454b0d55be59a37e19915d47431da6" target="_top" xlink:title="plant::Plant::size\l_growth_rate">
<polygon fill="none" stroke="#000000" points="162,-126.5 162,-156.5 252,-156.5 252,-126.5 162,-126.5"/>
<text text-anchor="start" x="170" y="-144.5" font-family="Helvetica,sans-Serif" font-size="10.00" fill="#000000">plant::Plant::size</text>
<text text-anchor="middle" x="207" y="-133.5" font-family="Helvetica,sans-Serif" font-size="10.00" fill="#000000">_growth_rate</text>
</a>
</g>
</g>
<!-- Node0&#45;&gt;Node21 -->
<g id="edge23" class="edge">
<title>Node0&#45;&gt;Node21</title>
<path fill="none" stroke="#191970" d="M104.0439,-141.5C119.4107,-141.5 136.2796,-141.5 151.8357,-141.5"/>
<polygon fill="#191970" stroke="#191970" points="151.8397,-145.0001 161.8397,-141.5 151.8397,-138.0001 151.8397,-145.0001"/>
</g>
<!-- Node24 -->
<g id="node25" class="node">
<title>Node24</title>
<g id="a_node25"><a xlink:href="classplant_1_1Plant.html#a273917d03f78d1f6840ae8e8fc105d2c" target="_top" xlink:title="plant::Plant::mortality_rate">
<polygon fill="none" stroke="#000000" points="141.5,-88 141.5,-107 272.5,-107 272.5,-88 141.5,-88"/>
<text text-anchor="middle" x="207" y="-95" font-family="Helvetica,sans-Serif" font-size="10.00" fill="#000000">plant::Plant::mortality_rate</text>
</a>
</g>
</g>
<!-- Node0&#45;&gt;Node24 -->
<g id="edge26" class="edge">
<title>Node0&#45;&gt;Node24</title>
<path fill="none" stroke="#191970" d="M104.1152,-126.6902C115.9149,-123.3382 128.3881,-119.7959 140,-116.5 147.6057,-114.3412 155.6974,-112.0456 163.5305,-109.824"/>
<polygon fill="#191970" stroke="#191970" points="164.5925,-113.1609 173.2582,-107.0652 162.6826,-106.4264 164.5925,-113.1609"/>
</g>
<!-- Node25 -->
<g id="node26" class="node">
<title>Node25</title>
<g id="a_node26"><a xlink:href="classplant_1_1Plant.html#a35a2b0d4d10c6dd2125bae36fb2f20a9" target="_top" xlink:title="plant::Plant::fecundity_rate">
<polygon fill="none" stroke="#000000" points="140,-50 140,-69 274,-69 274,-50 140,-50"/>
<text text-anchor="middle" x="207" y="-57" font-family="Helvetica,sans-Serif" font-size="10.00" fill="#000000">plant::Plant::fecundity_rate</text>
</a>
</g>
</g>
<!-- Node0&#45;&gt;Node25 -->
<g id="edge27" class="edge">
<title>Node0&#45;&gt;Node25</title>
<path fill="none" stroke="#191970" d="M69.3786,-126.2647C86.3459,-112.0951 113.4224,-91.3 140,-78.5 144.713,-76.2302 149.7466,-74.1849 154.858,-72.3531"/>
<polygon fill="#191970" stroke="#191970" points="156.3247,-75.5545 164.7192,-69.0906 154.1259,-68.9088 156.3247,-75.5545"/>
</g>
<!-- Node26 -->
<g id="node27" class="node">
<title>Node26</title>
<g id="a_node27"><a xlink:href="classplant_1_1Plant.html#a7a9395b79102cb623073ac8540f0f5ea" target="_top" xlink:title="plant::Plant::p_survival\l_dispersal">
<polygon fill="none" stroke="#000000" points="149,-.5 149,-30.5 265,-30.5 265,-.5 149,-.5"/>
<text text-anchor="start" x="157" y="-18.5" font-family="Helvetica,sans-Serif" font-size="10.00" fill="#000000">plant::Plant::p_survival</text>
<text text-anchor="middle" x="207" y="-7.5" font-family="Helvetica,sans-Serif" font-size="10.00" fill="#000000">_dispersal</text>
</a>
</g>
</g>
<!-- Node0&#45;&gt;Node26 -->
<g id="edge28" class="edge">
<title>Node0&#45;&gt;Node26</title>
<path fill="none" stroke="#191970" d="M61.5624,-126.3814C76.0588,-104.5822 105.5827,-64.3304 140,-40.5 142.8421,-38.5321 145.8586,-36.6966 148.9778,-34.9879"/>
<polygon fill="#191970" stroke="#191970" points="150.5905,-38.0948 157.9813,-30.5036 147.4697,-31.829 150.5905,-38.0948"/>
</g>
<!-- Node2 -->
<g id="node3" class="node">
<title>Node2</title>
<g id="a_node3"><a xlink:href="classplant_1_1Assimilator.html#a95024a28af68fde0b11acef9903aaa9d" target="_top" xlink:title="plant::Assimilator\l::calc_plant_assimilation_rate">
<polygon fill="none" stroke="#000000" points="462,-444.5 462,-474.5 608,-474.5 608,-444.5 462,-444.5"/>
<text text-anchor="start" x="470" y="-462.5" font-family="Helvetica,sans-Serif" font-size="10.00" fill="#000000">plant::Assimilator</text>
<text text-anchor="middle" x="535" y="-451.5" font-family="Helvetica,sans-Serif" font-size="10.00" fill="#000000">::calc_plant_assimilation_rate</text>
</a>
</g>
</g>
<!-- Node1&#45;&gt;Node2 -->
<g id="edge2" class="edge">
<title>Node1&#45;&gt;Node2</title>
<path fill="none" stroke="#191970" d="M378.7044,-352.6619C394.5606,-374.061 426.2893,-413.015 462,-435.5 464.6248,-437.1527 467.375,-438.7032 470.2061,-440.1563"/>
<polygon fill="#191970" stroke="#191970" points="468.9263,-443.4213 479.4689,-444.4722 471.8828,-437.0762 468.9263,-443.4213"/>
</g>
<!-- Node7 -->
<g id="node8" class="node">
<title>Node7</title>
<g id="a_node8"><a xlink:href="classplant_1_1Assimilator.html#a680517258b2674fe94fdcba41fdf771e" target="_top" xlink:title="plant::Assimilator\l::leaf_respiration_rate">
<polygon fill="none" stroke="#000000" points="480,-395.5 480,-425.5 590,-425.5 590,-395.5 480,-395.5"/>
<text text-anchor="start" x="488" y="-413.5" font-family="Helvetica,sans-Serif" font-size="10.00" fill="#000000">plant::Assimilator</text>
<text text-anchor="middle" x="535" y="-402.5" font-family="Helvetica,sans-Serif" font-size="10.00" fill="#000000">::leaf_respiration_rate</text>
</a>
</g>
</g>
<!-- Node1&#45;&gt;Node7 -->
<g id="edge7" class="edge">
<title>Node1&#45;&gt;Node7</title>
<path fill="none" stroke="#191970" d="M394.1861,-352.6208C412.7422,-362.9683 438.4292,-376.56 462,-386.5 466.4522,-388.3775 471.1059,-390.2042 475.8148,-391.9568"/>
<polygon fill="#191970" stroke="#191970" points="474.9169,-395.3533 485.5114,-395.4429 477.2851,-388.766 474.9169,-395.3533"/>
</g>
<!-- Node8 -->
<g id="node9" class="node">
<title>Node8</title>
<g id="a_node9"><a xlink:href="classplant_1_1Assimilator.html#ab48c39e03fe75f132440554504c5a1f9" target="_top" xlink:title="plant::Assimilator\l::root_respiration_rate">
<polygon fill="none" stroke="#000000" points="479.5,-346.5 479.5,-376.5 590.5,-376.5 590.5,-346.5 479.5,-346.5"/>
<text text-anchor="start" x="487.5" y="-364.5" font-family="Helvetica,sans-Serif" font-size="10.00" fill="#000000">plant::Assimilator</text>
<text text-anchor="middle" x="535" y="-353.5" font-family="Helvetica,sans-Serif" font-size="10.00" fill="#000000">::root_respiration_rate</text>
</a>
</g>
</g>
<!-- Node1&#45;&gt;Node8 -->
<g id="edge8" class="edge">
<title>Node1&#45;&gt;Node8</title>
<path fill="none" stroke="#191970" d="M414.0756,-344.1216C431.1007,-346.5684 450.7429,-349.3912 469.1799,-352.0408"/>
<polygon fill="#191970" stroke="#191970" points="468.8782,-355.5333 479.2744,-353.4915 469.874,-348.6045 468.8782,-355.5333"/>
</g>
<!-- Node10 -->
<g id="node11" class="node">
<title>Node10</title>
<g id="a_node11"><a xlink:href="classplant_1_1Assimilator.html#aa6121d1ac17dca9d28e2f0a5719ebf40" target="_top" xlink:title="plant::Assimilator\l::sapwood_respiration_rate">
<polygon fill="none" stroke="#000000" points="468,-248.5 468,-278.5 602,-278.5 602,-248.5 468,-248.5"/>
<text text-anchor="start" x="476" y="-266.5" font-family="Helvetica,sans-Serif" font-size="10.00" fill="#000000">plant::Assimilator</text>
<text text-anchor="middle" x="535" y="-255.5" font-family="Helvetica,sans-Serif" font-size="10.00" fill="#000000">::sapwood_respiration_rate</text>
</a>
</g>
</g>
<!-- Node1&#45;&gt;Node10 -->
<g id="edge10" class="edge">
<title>Node1&#45;&gt;Node10</title>
<path fill="none" stroke="#191970" d="M407.5338,-322.4826C413.818,-319.7148 420.1652,-316.685 426,-313.5 443.0981,-304.1667 444.6191,-297.2954 462,-288.5 466.2582,-286.3452 470.745,-284.3059 475.3142,-282.3918"/>
<polygon fill="#191970" stroke="#191970" points="476.7588,-285.5842 484.7622,-278.6418 474.1763,-279.0779 476.7588,-285.5842"/>
</g>
<!-- Node13 -->
<g id="node14" class="node">
<title>Node13</title>
<g id="a_node14"><a xlink:href="classplant_1_1Assimilator.html#a620f829f503b9c30129ef26dab988eda" target="_top" xlink:title="plant::Assimilator\l::leaf_turnover_rate">
<polygon fill="none" stroke="#000000" points="484.5,-199.5 484.5,-229.5 585.5,-229.5 585.5,-199.5 484.5,-199.5"/>
<text text-anchor="start" x="492.5" y="-217.5" font-family="Helvetica,sans-Serif" font-size="10.00" fill="#000000">plant::Assimilator</text>
<text text-anchor="middle" x="535" y="-206.5" font-family="Helvetica,sans-Serif" font-size="10.00" fill="#000000">::leaf_turnover_rate</text>
</a>
</g>
</g>
<!-- Node1&#45;&gt;Node13 -->
<g id="edge13" class="edge">
<title>Node1&#45;&gt;Node13</title>
<path fill="none" stroke="#191970" d="M413.6864,-322.4824C418.1389,-319.9119 422.3499,-316.9359 426,-313.5 452.6315,-288.4313 434.5995,-263.7258 462,-239.5 465.9141,-236.0394 470.3298,-233.053 475.0035,-230.4766"/>
<polygon fill="#191970" stroke="#191970" points="476.7643,-233.513 484.2452,-226.0106 473.7185,-227.2104 476.7643,-233.513"/>
</g>
<!-- Node15 -->
<g id="node16" class="node">
<title>Node15</title>
<g id="a_node16"><a xlink:href="classplant_1_1Assimilator.html#acdbc33099ba37ba301616e1b3ad6d1c4" target="_top" xlink:title="plant::Assimilator\l::root_turnover_rate">
<polygon fill="none" stroke="#000000" points="484.5,-297.5 484.5,-327.5 585.5,-327.5 585.5,-297.5 484.5,-297.5"/>
<text text-anchor="start" x="492.5" y="-315.5" font-family="Helvetica,sans-Serif" font-size="10.00" fill="#000000">plant::Assimilator</text>
<text text-anchor="middle" x="535" y="-304.5" font-family="Helvetica,sans-Serif" font-size="10.00" fill="#000000">::root_turnover_rate</text>
</a>
</g>
</g>
<!-- Node1&#45;&gt;Node15 -->
<g id="edge15" class="edge">
<title>Node1&#45;&gt;Node15</title>
<path fill="none" stroke="#191970" d="M414.0756,-330.6025C432.7412,-327.8082 454.5526,-324.543 474.4726,-321.561"/>
<polygon fill="#191970" stroke="#191970" points="475.0112,-325.0194 484.3828,-320.0774 473.9748,-318.0966 475.0112,-325.0194"/>
</g>
<!-- Node3 -->
<g id="node4" class="node">
<title>Node3</title>
<g id="a_node4"><a xlink:href="classplant_1_1PlantGeometry.html#a73eed0a3db55748b6d2615945ec1f08b" target="_top" xlink:title="plant::PlantGeometry\l::crown_area_above">
<polygon fill="none" stroke="#000000" points="648,-456.5 648,-486.5 757,-486.5 757,-456.5 648,-456.5"/>
<text text-anchor="start" x="656" y="-474.5" font-family="Helvetica,sans-Serif" font-size="10.00" fill="#000000">plant::PlantGeometry</text>
<text text-anchor="middle" x="702.5" y="-463.5" font-family="Helvetica,sans-Serif" font-size="10.00" fill="#000000">::crown_area_above</text>
</a>
</g>
</g>
<!-- Node2&#45;&gt;Node3 -->
<g id="edge3" class="edge">
<title>Node2&#45;&gt;Node3</title>
<path fill="none" stroke="#191970" d="M608.4679,-464.7634C618.2153,-465.4617 628.1513,-466.1735 637.737,-466.8603"/>
<polygon fill="#191970" stroke="#191970" points="637.751,-470.3701 647.9756,-467.5938 638.2513,-463.388 637.751,-470.3701"/>
</g>
<!-- Node6 -->
<g id="node7" class="node">
<title>Node6</title>
<g id="a_node7"><a xlink:href="classplant_1_1Assimilator.html#a25e0068c52700ba3d4b0d8e44398aa02" target="_top" xlink:title="plant::Assimilator\l::leaf_assimilation_rate">
<polygon fill="none" stroke="#000000" points="644,-407.5 644,-437.5 761,-437.5 761,-407.5 644,-407.5"/>
<text text-anchor="start" x="652" y="-425.5" font-family="Helvetica,sans-Serif" font-size="10.00" fill="#000000">plant::Assimilator</text>
<text text-anchor="middle" x="702.5" y="-414.5" font-family="Helvetica,sans-Serif" font-size="10.00" fill="#000000">::leaf_assimilation_rate</text>
</a>
</g>
</g>
<!-- Node2&#45;&gt;Node6 -->
<g id="edge6" class="edge">
<title>Node2&#45;&gt;Node6</title>
<path fill="none" stroke="#191970" d="M603.1287,-444.4507C613.2502,-442.2149 623.6873,-439.9094 633.82,-437.6711"/>
<polygon fill="#191970" stroke="#191970" points="634.8188,-441.0349 643.8284,-435.4603 633.3088,-434.1997 634.8188,-441.0349"/>
</g>
<!-- Node4 -->
<g id="node5" class="node">
<title>Node4</title>
<g id="a_node5"><a xlink:href="classplant_1_1PlantGeometry.html#aed573b6d75e2a0adc4ebdeacec3c34e7" target="_top" xlink:title="plant::PlantGeometry::q">
<polygon fill="none" stroke="#000000" points="801,-481 801,-500 921,-500 921,-481 801,-481"/>
<text text-anchor="middle" x="861" y="-488" font-family="Helvetica,sans-Serif" font-size="10.00" fill="#000000">plant::PlantGeometry::q</text>
</a>
</g>
</g>
<!-- Node3&#45;&gt;Node4 -->
<g id="edge4" class="edge">
<title>Node3&#45;&gt;Node4</title>
<path fill="none" stroke="#191970" d="M757.0467,-478.0387C767.8792,-479.3373 779.3958,-480.7178 790.6687,-482.0691"/>
<polygon fill="#191970" stroke="#191970" points="790.5806,-485.5835 800.9261,-483.2987 791.4138,-478.6333 790.5806,-485.5835"/>
</g>
<!-- Node5 -->
<g id="node6" class="node">
<title>Node5</title>
<g id="a_node6"><a xlink:href="classplant_1_1PlantGeometry.html#a538c106c834b386d8dfce3702f42a93d" target="_top" xlink:title="plant::PlantGeometry::zm">
<polygon fill="none" stroke="#000000" points="797,-443 797,-462 925,-462 925,-443 797,-443"/>
<text text-anchor="middle" x="861" y="-450" font-family="Helvetica,sans-Serif" font-size="10.00" fill="#000000">plant::PlantGeometry::zm</text>
</a>
</g>
</g>
<!-- Node3&#45;&gt;Node5 -->
<g id="edge5" class="edge">
<title>Node3&#45;&gt;Node5</title>
<path fill="none" stroke="#191970" d="M757.0467,-464.9613C766.6507,-463.81 776.7925,-462.5943 786.8253,-461.3916"/>
<polygon fill="#191970" stroke="#191970" points="787.2856,-464.8616 796.798,-460.1961 786.4524,-457.9113 787.2856,-464.8616"/>
</g>
<!-- Node9 -->
<g id="node10" class="node">
<title>Node9</title>
<g id="a_node10"><a xlink:href="classplant_1_1PlantGeometry.html#a721712ac253434c4709a4300f3e6396a" target="_top" xlink:title="plant::PlantGeometry\l::root_mass">
<polygon fill="none" stroke="#000000" points="648,-334.5 648,-364.5 757,-364.5 757,-334.5 648,-334.5"/>
<text text-anchor="start" x="656" y="-352.5" font-family="Helvetica,sans-Serif" font-size="10.00" fill="#000000">plant::PlantGeometry</text>
<text text-anchor="middle" x="702.5" y="-341.5" font-family="Helvetica,sans-Serif" font-size="10.00" fill="#000000">::root_mass</text>
</a>
</g>
</g>
<!-- Node8&#45;&gt;Node9 -->
<g id="edge9" class="edge">
<title>Node8&#45;&gt;Node9</title>
<path fill="none" stroke="#191970" d="M590.7751,-357.5042C605.8421,-356.4247 622.2738,-355.2475 637.7856,-354.1363"/>
<polygon fill="#191970" stroke="#191970" points="638.0984,-357.6229 647.8227,-353.4172 637.5981,-350.6408 638.0984,-357.6229"/>
</g>
<!-- Node11 -->
<g id="node12" class="node">
<title>Node11</title>
<g id="a_node12"><a xlink:href="classplant_1_1PlantGeometry.html#aa34014d10ad2f1585b22958a27bee404" target="_top" xlink:title="plant::PlantGeometry\l::sapwood_mass">
<polygon fill="none" stroke="#000000" points="648,-248.5 648,-278.5 757,-278.5 757,-248.5 648,-248.5"/>
<text text-anchor="start" x="656" y="-266.5" font-family="Helvetica,sans-Serif" font-size="10.00" fill="#000000">plant::PlantGeometry</text>
<text text-anchor="middle" x="702.5" y="-255.5" font-family="Helvetica,sans-Serif" font-size="10.00" fill="#000000">::sapwood_mass</text>
</a>
</g>
</g>
<!-- Node10&#45;&gt;Node11 -->
<g id="edge11" class="edge">
<title>Node10&#45;&gt;Node11</title>
<path fill="none" stroke="#191970" d="M602.1635,-263.5C613.9194,-263.5 626.1295,-263.5 637.8165,-263.5"/>
<polygon fill="#191970" stroke="#191970" points="637.9277,-267.0001 647.9276,-263.5 637.9276,-260.0001 637.9277,-267.0001"/>
</g>
<!-- Node12 -->
<g id="node13" class="node">
<title>Node12</title>
<g id="a_node13"><a xlink:href="classplant_1_1PlantGeometry.html#adb7202ef29b176b65c43c5b5d950484d" target="_top" xlink:title="plant::PlantGeometry\l::stem_mass">
<polygon fill="none" stroke="#000000" points="806.5,-248.5 806.5,-278.5 915.5,-278.5 915.5,-248.5 806.5,-248.5"/>
<text text-anchor="start" x="814.5" y="-266.5" font-family="Helvetica,sans-Serif" font-size="10.00" fill="#000000">plant::PlantGeometry</text>
<text text-anchor="middle" x="861" y="-255.5" font-family="Helvetica,sans-Serif" font-size="10.00" fill="#000000">::stem_mass</text>
</a>
</g>
</g>
<!-- Node11&#45;&gt;Node12 -->
<g id="edge12" class="edge">
<title>Node11&#45;&gt;Node12</title>
<path fill="none" stroke="#191970" d="M757.0467,-263.5C769.624,-263.5 783.1235,-263.5 796.0929,-263.5"/>
<polygon fill="#191970" stroke="#191970" points="796.3528,-267.0001 806.3527,-263.5 796.3527,-260.0001 796.3528,-267.0001"/>
</g>
<!-- Node14 -->
<g id="node15" class="node">
<title>Node14</title>
<g id="a_node15"><a xlink:href="classplant_1_1PlantGeometry.html#a9bb344d187b1854c5a1364f6cd585d72" target="_top" xlink:title="plant::PlantGeometry\l::leaf_mass">
<polygon fill="none" stroke="#000000" points="648,-199.5 648,-229.5 757,-229.5 757,-199.5 648,-199.5"/>
<text text-anchor="start" x="656" y="-217.5" font-family="Helvetica,sans-Serif" font-size="10.00" fill="#000000">plant::PlantGeometry</text>
<text text-anchor="middle" x="702.5" y="-206.5" font-family="Helvetica,sans-Serif" font-size="10.00" fill="#000000">::leaf_mass</text>
</a>
</g>
</g>
<!-- Node13&#45;&gt;Node14 -->
<g id="edge14" class="edge">
<title>Node13&#45;&gt;Node14</title>
<path fill="none" stroke="#191970" d="M585.7101,-214.5C602.1302,-214.5 620.5684,-214.5 637.8587,-214.5"/>
<polygon fill="#191970" stroke="#191970" points="637.8824,-218.0001 647.8824,-214.5 637.8824,-211.0001 637.8824,-218.0001"/>
</g>
<!-- Node15&#45;&gt;Node9 -->
<g id="edge16" class="edge">
<title>Node15&#45;&gt;Node9</title>
<path fill="none" stroke="#191970" d="M585.7101,-323.7016C602.1302,-327.3288 620.5684,-331.4017 637.8587,-335.221"/>
<polygon fill="#191970" stroke="#191970" points="637.3628,-338.6958 647.8824,-337.4352 638.8727,-331.8606 637.3628,-338.6958"/>
</g>
<!-- Node16&#45;&gt;Node1 -->
<g id="edge19" class="edge">
<title>Node16&#45;&gt;Node1</title>
<path fill="none" stroke="#191970" d="M222.3679,-264.1307C242.2089,-276.3702 277.9954,-297.7919 310,-313.5 313.3261,-315.1325 316.7918,-316.7547 320.3013,-318.3405"/>
<polygon fill="#191970" stroke="#191970" points="319.0644,-321.6199 329.6278,-322.4355 321.8786,-315.2105 319.0644,-321.6199"/>
</g>
<!-- Node17 -->
<g id="node18" class="node">
<title>Node17</title>
<g id="a_node18"><a xlink:href="classplant_1_1PlantGeometry.html#a818143a8613e10cb44bcb448b36984ca" target="_top" xlink:title="plant::PlantGeometry\l::set_lai">
<polygon fill="none" stroke="#000000" points="313.5,-273.5 313.5,-303.5 422.5,-303.5 422.5,-273.5 313.5,-273.5"/>
<text text-anchor="start" x="321.5" y="-291.5" font-family="Helvetica,sans-Serif" font-size="10.00" fill="#000000">plant::PlantGeometry</text>
<text text-anchor="middle" x="368" y="-280.5" font-family="Helvetica,sans-Serif" font-size="10.00" fill="#000000">::set_lai</text>
</a>
</g>
</g>
<!-- Node16&#45;&gt;Node17 -->
<g id="edge18" class="edge">
<title>Node16&#45;&gt;Node17</title>
<path fill="none" stroke="#191970" d="M252.2759,-264.0614C268.1366,-267.4108 286.2697,-271.2402 303.402,-274.8582"/>
<polygon fill="#191970" stroke="#191970" points="302.8414,-278.3169 313.3488,-276.9588 304.2878,-271.468 302.8414,-278.3169"/>
</g>
<!-- Node18 -->
<g id="node19" class="node">
<title>Node18</title>
<g id="a_node19"><a xlink:href="classplant_1_1PlantGeometry.html#a436490556ceb3fdab0db5b81132a6f3f" target="_top" xlink:title="plant::PlantGeometry\l::dmass_dt_lai">
<polygon fill="none" stroke="#000000" points="313.5,-224.5 313.5,-254.5 422.5,-254.5 422.5,-224.5 313.5,-224.5"/>
<text text-anchor="start" x="321.5" y="-242.5" font-family="Helvetica,sans-Serif" font-size="10.00" fill="#000000">plant::PlantGeometry</text>
<text text-anchor="middle" x="368" y="-231.5" font-family="Helvetica,sans-Serif" font-size="10.00" fill="#000000">::dmass_dt_lai</text>
</a>
</g>
</g>
<!-- Node16&#45;&gt;Node18 -->
<g id="edge20" class="edge">
<title>Node16&#45;&gt;Node18</title>
<path fill="none" stroke="#191970" d="M263.7626,-249.2116C276.4782,-248.0269 290.0616,-246.7613 303.0799,-245.5485"/>
<polygon fill="#191970" stroke="#191970" points="303.7395,-249.0023 313.3717,-244.5896 303.0901,-242.0324 303.7395,-249.0023"/>
</g>
<!-- Node20 -->
<g id="node21" class="node">
<title>Node20</title>
<g id="a_node21"><a xlink:href="classplant_1_1PlantGeometry.html#a41f8eb0dcc4e8c585ed6b8222719dd5d" target="_top" xlink:title="plant::PlantGeometry\l::dreproduction_dmass">
<polygon fill="none" stroke="#000000" points="310,-175.5 310,-205.5 426,-205.5 426,-175.5 310,-175.5"/>
<text text-anchor="start" x="318" y="-193.5" font-family="Helvetica,sans-Serif" font-size="10.00" fill="#000000">plant::PlantGeometry</text>
<text text-anchor="middle" x="368" y="-182.5" font-family="Helvetica,sans-Serif" font-size="10.00" fill="#000000">::dreproduction_dmass</text>
</a>
</g>
</g>
<!-- Node19&#45;&gt;Node20 -->
<g id="edge22" class="edge">
<title>Node19&#45;&gt;Node20</title>
<path fill="none" stroke="#191970" d="M260.6107,-190.5C273.0977,-190.5 286.5599,-190.5 299.5897,-190.5"/>
<polygon fill="#191970" stroke="#191970" points="299.9198,-194.0001 309.9197,-190.5 299.9197,-187.0001 299.9198,-194.0001"/>
</g>
<!-- Node22 -->
<g id="node23" class="node">
<title>Node22</title>
<g id="a_node23"><a xlink:href="classplant_1_1PlantGeometry.html#a2588428307028e5d6f1b6514aaa9dd59" target="_top" xlink:title="plant::PlantGeometry\l::dsize_dmass">
<polygon fill="none" stroke="#000000" points="313.5,-126.5 313.5,-156.5 422.5,-156.5 422.5,-126.5 313.5,-126.5"/>
<text text-anchor="start" x="321.5" y="-144.5" font-family="Helvetica,sans-Serif" font-size="10.00" fill="#000000">plant::PlantGeometry</text>
<text text-anchor="middle" x="368" y="-133.5" font-family="Helvetica,sans-Serif" font-size="10.00" fill="#000000">::dsize_dmass</text>
</a>
</g>
</g>
<!-- Node21&#45;&gt;Node22 -->
<g id="edge24" class="edge">
<title>Node21&#45;&gt;Node22</title>
<path fill="none" stroke="#191970" d="M252.2759,-141.5C267.9884,-141.5 285.931,-141.5 302.9214,-141.5"/>
<polygon fill="#191970" stroke="#191970" points="303.3489,-145.0001 313.3488,-141.5 303.3488,-138.0001 303.3489,-145.0001"/>
</g>
<!-- Node23 -->
<g id="node24" class="node">
<title>Node23</title>
<g id="a_node24"><a xlink:href="classplant_1_1PlantGeometry.html#a3988e151a21d97e544460b200993ac71" target="_top" xlink:title="plant::PlantGeometry\l::get_size">
<polygon fill="none" stroke="#000000" points="313.5,-77.5 313.5,-107.5 422.5,-107.5 422.5,-77.5 313.5,-77.5"/>
<text text-anchor="start" x="321.5" y="-95.5" font-family="Helvetica,sans-Serif" font-size="10.00" fill="#000000">plant::PlantGeometry</text>
<text text-anchor="middle" x="368" y="-84.5" font-family="Helvetica,sans-Serif" font-size="10.00" fill="#000000">::get_size</text>
</a>
</g>
</g>
<!-- Node21&#45;&gt;Node23 -->
<g id="edge25" class="edge">
<title>Node21&#45;&gt;Node23</title>
<path fill="none" stroke="#191970" d="M252.2759,-127.7204C269.8587,-122.3691 290.2341,-116.1679 308.9429,-110.4739"/>
<polygon fill="#191970" stroke="#191970" points="310.0032,-113.8098 318.5508,-107.5497 307.965,-107.1131 310.0032,-113.8098"/>
</g>
</g>
</svg>
