<?xml version="1.0" encoding="UTF-8" standalone="no"?>
<!DOCTYPE svg PUBLIC "-//W3C//DTD SVG 1.1//EN"
 "http://www.w3.org/Graphics/SVG/1.1/DTD/svg11.dtd">
<!-- Generated by graphviz version 2.40.1 (20161225.0304)
 -->
<!-- Title: plant::PlantParameters::initFromFile Pages: 1 -->
<svg width="276pt" height="66pt"
 viewBox="0.00 0.00 276.00 66.00" xmlns="http://www.w3.org/2000/svg" xmlns:xlink="http://www.w3.org/1999/xlink">
<g id="graph0" class="graph" transform="scale(1 1) rotate(0) translate(4 62)">
<title>plant::PlantParameters::initFromFile</title>
<!-- Node0 -->
<g id="node1" class="node">
<title>Node0</title>
<polygon fill="#bfbfbf" stroke="#000000" points="0,-14 0,-44 116,-44 116,-14 0,-14"/>
<text text-anchor="start" x="8" y="-32" font-family="Helvetica,sans-Serif" font-size="10.00" fill="#000000">plant::PlantParameters</text>
<text text-anchor="middle" x="58" y="-21" font-family="Helvetica,sans-Serif" font-size="10.00" fill="#000000">::initFromFile</text>
</g>
<!-- Node1 -->
<g id="node2" class="node">
<title>Node1</title>
<g id="a_node2"><a xlink:href="classio_1_1Initializer.html#ac5da46da32e3a9f0679a14fdf820012e" target="_top" xlink:title="io::Initializer::readFile">
<polygon fill="none" stroke="#000000" points="155,-38.5 155,-57.5 265,-57.5 265,-38.5 155,-38.5"/>
<text text-anchor="middle" x="210" y="-45.5" font-family="Helvetica,sans-Serif" font-size="10.00" fill="#000000">io::Initializer::readFile</text>
</a>
</g>
</g>
<!-- Node0&#45;&gt;Node1 -->
<g id="edge1" class="edge">
<title>Node0&#45;&gt;Node1</title>
<path fill="none" stroke="#191970" d="M116.3325,-36.2916C125.5548,-37.4443 135.1445,-38.6431 144.5167,-39.8146"/>
<polygon fill="#191970" stroke="#191970" points="144.2166,-43.3042 154.5735,-41.0717 145.0849,-36.3583 144.2166,-43.3042"/>
</g>
<!-- Node2 -->
<g id="node3" class="node">
<title>Node2</title>
<g id="a_node3"><a xlink:href="classio_1_1Initializer.html#a6fb13617609ca86d0990c3436324468e" target="_top" xlink:title="io::Initializer::getScalar">
<polygon fill="none" stroke="#000000" points="152,-.5 152,-19.5 268,-19.5 268,-.5 152,-.5"/>
<text text-anchor="middle" x="210" y="-7.5" font-family="Helvetica,sans-Serif" font-size="10.00" fill="#000000">io::Initializer::getScalar</text>
</a>
</g>
</g>
<!-- Node0&#45;&gt;Node2 -->
<g id="edge2" class="edge">
<title>Node0&#45;&gt;Node2</title>
<path fill="none" stroke="#191970" d="M116.3325,-21.7084C124.6966,-20.6629 133.3631,-19.5796 141.8953,-18.5131"/>
<polygon fill="#191970" stroke="#191970" points="142.335,-21.9855 151.8236,-17.272 141.4667,-15.0395 142.335,-21.9855"/>
</g>
</g>
</svg>
