<?xml version="1.0" encoding="UTF-8" standalone="no"?>
<!DOCTYPE svg PUBLIC "-//W3C//DTD SVG 1.1//EN"
 "http://www.w3.org/Graphics/SVG/1.1/DTD/svg11.dtd">
<!-- Generated by graphviz version 2.40.1 (20161225.0304)
 -->
<!-- Title: plant::Plant::get_biomass Pages: 1 -->
<svg width="426pt" height="137pt"
 viewBox="0.00 0.00 426.00 137.00" xmlns="http://www.w3.org/2000/svg" xmlns:xlink="http://www.w3.org/1999/xlink">
<g id="graph0" class="graph" transform="scale(1 1) rotate(0) translate(4 133)">
<title>plant::Plant::get_biomass</title>
<!-- Node41 -->
<g id="node1" class="node">
<title>Node41</title>
<polygon fill="#bfbfbf" stroke="#000000" points="0,-55 0,-74 128,-74 128,-55 0,-55"/>
<text text-anchor="middle" x="64" y="-62" font-family="Helvetica,sans-Serif" font-size="10.00" fill="#000000">plant::Plant::get_biomass</text>
</g>
<!-- Node42 -->
<g id="node2" class="node">
<title>Node42</title>
<g id="a_node2"><a xlink:href="classplant_1_1PlantGeometry.html#a5e8a34362ccb0a9aa37e1c2c6af6fbc4" target="_top" xlink:title="plant::PlantGeometry\l::total_mass">
<polygon fill="none" stroke="#000000" points="164,-49.5 164,-79.5 273,-79.5 273,-49.5 164,-49.5"/>
<text text-anchor="start" x="172" y="-67.5" font-family="Helvetica,sans-Serif" font-size="10.00" fill="#000000">plant::PlantGeometry</text>
<text text-anchor="middle" x="218.5" y="-56.5" font-family="Helvetica,sans-Serif" font-size="10.00" fill="#000000">::total_mass</text>
</a>
</g>
</g>
<!-- Node41&#45;&gt;Node42 -->
<g id="edge1" class="edge">
<title>Node41&#45;&gt;Node42</title>
<path fill="none" stroke="#191970" d="M128.1797,-64.5C136.5495,-64.5 145.1301,-64.5 153.513,-64.5"/>
<polygon fill="#191970" stroke="#191970" points="153.6128,-68.0001 163.6128,-64.5 153.6127,-61.0001 153.6128,-68.0001"/>
</g>
<!-- Node43 -->
<g id="node3" class="node">
<title>Node43</title>
<g id="a_node3"><a xlink:href="classplant_1_1PlantGeometry.html#adb7202ef29b176b65c43c5b5d950484d" target="_top" xlink:title="plant::PlantGeometry\l::stem_mass">
<polygon fill="none" stroke="#000000" points="309,-98.5 309,-128.5 418,-128.5 418,-98.5 309,-98.5"/>
<text text-anchor="start" x="317" y="-116.5" font-family="Helvetica,sans-Serif" font-size="10.00" fill="#000000">plant::PlantGeometry</text>
<text text-anchor="middle" x="363.5" y="-105.5" font-family="Helvetica,sans-Serif" font-size="10.00" fill="#000000">::stem_mass</text>
</a>
</g>
</g>
<!-- Node42&#45;&gt;Node43 -->
<g id="edge2" class="edge">
<title>Node42&#45;&gt;Node43</title>
<path fill="none" stroke="#191970" d="M263.1879,-79.6014C277.659,-84.4917 293.8725,-89.9707 308.9752,-95.0744"/>
<polygon fill="#191970" stroke="#191970" points="308.1158,-98.4783 318.71,-98.3641 310.3569,-91.8468 308.1158,-98.4783"/>
</g>
<!-- Node44 -->
<g id="node4" class="node">
<title>Node44</title>
<g id="a_node4"><a xlink:href="classplant_1_1PlantGeometry.html#a9bb344d187b1854c5a1364f6cd585d72" target="_top" xlink:title="plant::PlantGeometry\l::leaf_mass">
<polygon fill="none" stroke="#000000" points="309,-49.5 309,-79.5 418,-79.5 418,-49.5 309,-49.5"/>
<text text-anchor="start" x="317" y="-67.5" font-family="Helvetica,sans-Serif" font-size="10.00" fill="#000000">plant::PlantGeometry</text>
<text text-anchor="middle" x="363.5" y="-56.5" font-family="Helvetica,sans-Serif" font-size="10.00" fill="#000000">::leaf_mass</text>
</a>
</g>
</g>
<!-- Node42&#45;&gt;Node44 -->
<g id="edge3" class="edge">
<title>Node42&#45;&gt;Node44</title>
<path fill="none" stroke="#191970" d="M273.3183,-64.5C281.5286,-64.5 290.0611,-64.5 298.4586,-64.5"/>
<polygon fill="#191970" stroke="#191970" points="298.6042,-68.0001 308.6042,-64.5 298.6042,-61.0001 298.6042,-68.0001"/>
</g>
<!-- Node45 -->
<g id="node5" class="node">
<title>Node45</title>
<g id="a_node5"><a xlink:href="classplant_1_1PlantGeometry.html#a721712ac253434c4709a4300f3e6396a" target="_top" xlink:title="plant::PlantGeometry\l::root_mass">
<polygon fill="none" stroke="#000000" points="309,-.5 309,-30.5 418,-30.5 418,-.5 309,-.5"/>
<text text-anchor="start" x="317" y="-18.5" font-family="Helvetica,sans-Serif" font-size="10.00" fill="#000000">plant::PlantGeometry</text>
<text text-anchor="middle" x="363.5" y="-7.5" font-family="Helvetica,sans-Serif" font-size="10.00" fill="#000000">::root_mass</text>
</a>
</g>
</g>
<!-- Node42&#45;&gt;Node45 -->
<g id="edge4" class="edge">
<title>Node42&#45;&gt;Node45</title>
<path fill="none" stroke="#191970" d="M263.1879,-49.3986C277.659,-44.5083 293.8725,-39.0293 308.9752,-33.9256"/>
<polygon fill="#191970" stroke="#191970" points="310.3569,-37.1532 318.71,-30.6359 308.1158,-30.5217 310.3569,-37.1532"/>
</g>
</g>
</svg>
