<?xml version="1.0" encoding="UTF-8" standalone="no"?>
<!DOCTYPE svg PUBLIC "-//W3C//DTD SVG 1.1//EN"
 "http://www.w3.org/Graphics/SVG/1.1/DTD/svg11.dtd">
<!-- Generated by graphviz version 2.40.1 (20161225.0304)
 -->
<!-- Title: PSPM_Plant::establishmentProbability Pages: 1 -->
<svg width="927pt" height="310pt"
 viewBox="0.00 0.00 927.00 309.50" xmlns="http://www.w3.org/2000/svg" xmlns:xlink="http://www.w3.org/1999/xlink">
<g id="graph0" class="graph" transform="scale(1 1) rotate(0) translate(4 305.5)">
<title>PSPM_Plant::establishmentProbability</title>
<!-- Node6 -->
<g id="node1" class="node">
<title>Node6</title>
<polygon fill="#bfbfbf" stroke="#000000" points="0,-122.5 0,-152.5 140,-152.5 140,-122.5 0,-122.5"/>
<text text-anchor="start" x="8" y="-140.5" font-family="Helvetica,sans-Serif" font-size="10.00" fill="#000000">PSPM_Plant::establishment</text>
<text text-anchor="middle" x="70" y="-129.5" font-family="Helvetica,sans-Serif" font-size="10.00" fill="#000000">Probability</text>
</g>
<!-- Node7 -->
<g id="node2" class="node">
<title>Node7</title>
<g id="a_node2"><a xlink:href="classplant_1_1Plant.html#a03c45eaaabce7ff0287598818dc4847f" target="_top" xlink:title="plant::Plant::p_survival\l_germination">
<polygon fill="none" stroke="#000000" points="176,-122.5 176,-152.5 292,-152.5 292,-122.5 176,-122.5"/>
<text text-anchor="start" x="184" y="-140.5" font-family="Helvetica,sans-Serif" font-size="10.00" fill="#000000">plant::Plant::p_survival</text>
<text text-anchor="middle" x="234" y="-129.5" font-family="Helvetica,sans-Serif" font-size="10.00" fill="#000000">_germination</text>
</a>
</g>
</g>
<!-- Node6&#45;&gt;Node7 -->
<g id="edge1" class="edge">
<title>Node6&#45;&gt;Node7</title>
<path fill="none" stroke="#191970" d="M140.0265,-137.5C148.506,-137.5 157.1601,-137.5 165.6154,-137.5"/>
<polygon fill="#191970" stroke="#191970" points="165.8055,-141.0001 175.8055,-137.5 165.8055,-134.0001 165.8055,-141.0001"/>
</g>
<!-- Node8 -->
<g id="node3" class="node">
<title>Node8</title>
<g id="a_node3"><a xlink:href="classplant_1_1Assimilator.html#ab5cf98dde0fb1d49ce4d0f44387b628b" target="_top" xlink:title="plant::Assimilator\l::net_production">
<polygon fill="none" stroke="#000000" points="328,-122.5 328,-152.5 420,-152.5 420,-122.5 328,-122.5"/>
<text text-anchor="start" x="336" y="-140.5" font-family="Helvetica,sans-Serif" font-size="10.00" fill="#000000">plant::Assimilator</text>
<text text-anchor="middle" x="374" y="-129.5" font-family="Helvetica,sans-Serif" font-size="10.00" fill="#000000">::net_production</text>
</a>
</g>
</g>
<!-- Node7&#45;&gt;Node8 -->
<g id="edge2" class="edge">
<title>Node7&#45;&gt;Node8</title>
<path fill="none" stroke="#191970" d="M292.1563,-137.5C300.5952,-137.5 309.2705,-137.5 317.6724,-137.5"/>
<polygon fill="#191970" stroke="#191970" points="317.7511,-141.0001 327.751,-137.5 317.751,-134.0001 317.7511,-141.0001"/>
</g>
<!-- Node9 -->
<g id="node4" class="node">
<title>Node9</title>
<g id="a_node4"><a xlink:href="classplant_1_1Assimilator.html#a95024a28af68fde0b11acef9903aaa9d" target="_top" xlink:title="plant::Assimilator\l::calc_plant_assimilation_rate">
<polygon fill="none" stroke="#000000" points="456,-245.5 456,-275.5 602,-275.5 602,-245.5 456,-245.5"/>
<text text-anchor="start" x="464" y="-263.5" font-family="Helvetica,sans-Serif" font-size="10.00" fill="#000000">plant::Assimilator</text>
<text text-anchor="middle" x="529" y="-252.5" font-family="Helvetica,sans-Serif" font-size="10.00" fill="#000000">::calc_plant_assimilation_rate</text>
</a>
</g>
</g>
<!-- Node8&#45;&gt;Node9 -->
<g id="edge3" class="edge">
<title>Node8&#45;&gt;Node9</title>
<path fill="none" stroke="#191970" d="M382.6138,-152.5125C395.7522,-174.1208 422.8072,-213.8724 456,-236.5 458.2477,-238.0323 460.6005,-239.4727 463.0273,-240.8262"/>
<polygon fill="#191970" stroke="#191970" points="461.574,-244.0127 472.0834,-245.3557 464.7053,-237.7521 461.574,-244.0127"/>
</g>
<!-- Node14 -->
<g id="node9" class="node">
<title>Node14</title>
<g id="a_node9"><a xlink:href="classplant_1_1Assimilator.html#a680517258b2674fe94fdcba41fdf771e" target="_top" xlink:title="plant::Assimilator\l::leaf_respiration_rate">
<polygon fill="none" stroke="#000000" points="474,-196.5 474,-226.5 584,-226.5 584,-196.5 474,-196.5"/>
<text text-anchor="start" x="482" y="-214.5" font-family="Helvetica,sans-Serif" font-size="10.00" fill="#000000">plant::Assimilator</text>
<text text-anchor="middle" x="529" y="-203.5" font-family="Helvetica,sans-Serif" font-size="10.00" fill="#000000">::leaf_respiration_rate</text>
</a>
</g>
</g>
<!-- Node8&#45;&gt;Node14 -->
<g id="edge8" class="edge">
<title>Node8&#45;&gt;Node14</title>
<path fill="none" stroke="#191970" d="M395.5122,-152.5096C411.6257,-163.2756 434.5042,-177.5739 456,-187.5 460.0613,-189.3754 464.3111,-191.1712 468.6303,-192.8762"/>
<polygon fill="#191970" stroke="#191970" points="467.5586,-196.2125 478.1506,-196.4592 470.0243,-189.6611 467.5586,-196.2125"/>
</g>
<!-- Node15 -->
<g id="node10" class="node">
<title>Node15</title>
<g id="a_node10"><a xlink:href="classplant_1_1Assimilator.html#ab48c39e03fe75f132440554504c5a1f9" target="_top" xlink:title="plant::Assimilator\l::root_respiration_rate">
<polygon fill="none" stroke="#000000" points="473.5,-147.5 473.5,-177.5 584.5,-177.5 584.5,-147.5 473.5,-147.5"/>
<text text-anchor="start" x="481.5" y="-165.5" font-family="Helvetica,sans-Serif" font-size="10.00" fill="#000000">plant::Assimilator</text>
<text text-anchor="middle" x="529" y="-154.5" font-family="Helvetica,sans-Serif" font-size="10.00" fill="#000000">::root_respiration_rate</text>
</a>
</g>
</g>
<!-- Node8&#45;&gt;Node15 -->
<g id="edge9" class="edge">
<title>Node8&#45;&gt;Node15</title>
<path fill="none" stroke="#191970" d="M420.0854,-144.9331C433.644,-147.12 448.7468,-149.5559 463.2832,-151.9005"/>
<polygon fill="#191970" stroke="#191970" points="462.8007,-155.3679 473.2305,-153.5049 463.9154,-148.4572 462.8007,-155.3679"/>
</g>
<!-- Node17 -->
<g id="node12" class="node">
<title>Node17</title>
<g id="a_node12"><a xlink:href="classplant_1_1Assimilator.html#aa6121d1ac17dca9d28e2f0a5719ebf40" target="_top" xlink:title="plant::Assimilator\l::sapwood_respiration_rate">
<polygon fill="none" stroke="#000000" points="462,-49.5 462,-79.5 596,-79.5 596,-49.5 462,-49.5"/>
<text text-anchor="start" x="470" y="-67.5" font-family="Helvetica,sans-Serif" font-size="10.00" fill="#000000">plant::Assimilator</text>
<text text-anchor="middle" x="529" y="-56.5" font-family="Helvetica,sans-Serif" font-size="10.00" fill="#000000">::sapwood_respiration_rate</text>
</a>
</g>
</g>
<!-- Node8&#45;&gt;Node17 -->
<g id="edge11" class="edge">
<title>Node8&#45;&gt;Node17</title>
<path fill="none" stroke="#191970" d="M397.0149,-122.3524C413.0944,-112.1922 435.3059,-98.9849 456,-89.5 460.8712,-87.2673 466.0024,-85.122 471.1934,-83.0913"/>
<polygon fill="#191970" stroke="#191970" points="472.4329,-86.3645 480.5585,-79.5655 469.9665,-79.8134 472.4329,-86.3645"/>
</g>
<!-- Node20 -->
<g id="node15" class="node">
<title>Node20</title>
<g id="a_node15"><a xlink:href="classplant_1_1Assimilator.html#a620f829f503b9c30129ef26dab988eda" target="_top" xlink:title="plant::Assimilator\l::leaf_turnover_rate">
<polygon fill="none" stroke="#000000" points="478.5,-.5 478.5,-30.5 579.5,-30.5 579.5,-.5 478.5,-.5"/>
<text text-anchor="start" x="486.5" y="-18.5" font-family="Helvetica,sans-Serif" font-size="10.00" fill="#000000">plant::Assimilator</text>
<text text-anchor="middle" x="529" y="-7.5" font-family="Helvetica,sans-Serif" font-size="10.00" fill="#000000">::leaf_turnover_rate</text>
</a>
</g>
</g>
<!-- Node8&#45;&gt;Node20 -->
<g id="edge14" class="edge">
<title>Node8&#45;&gt;Node20</title>
<path fill="none" stroke="#191970" d="M382.8725,-122.2839C396.1382,-100.8189 423.1333,-61.7854 456,-39.5 459.9993,-36.7883 464.3281,-34.3635 468.8132,-32.1987"/>
<polygon fill="#191970" stroke="#191970" points="470.4167,-35.3178 478.1834,-28.1117 467.6181,-28.9016 470.4167,-35.3178"/>
</g>
<!-- Node22 -->
<g id="node17" class="node">
<title>Node22</title>
<g id="a_node17"><a xlink:href="classplant_1_1Assimilator.html#acdbc33099ba37ba301616e1b3ad6d1c4" target="_top" xlink:title="plant::Assimilator\l::root_turnover_rate">
<polygon fill="none" stroke="#000000" points="478.5,-98.5 478.5,-128.5 579.5,-128.5 579.5,-98.5 478.5,-98.5"/>
<text text-anchor="start" x="486.5" y="-116.5" font-family="Helvetica,sans-Serif" font-size="10.00" fill="#000000">plant::Assimilator</text>
<text text-anchor="middle" x="529" y="-105.5" font-family="Helvetica,sans-Serif" font-size="10.00" fill="#000000">::root_turnover_rate</text>
</a>
</g>
</g>
<!-- Node8&#45;&gt;Node22 -->
<g id="edge16" class="edge">
<title>Node8&#45;&gt;Node22</title>
<path fill="none" stroke="#191970" d="M420.0854,-130.3642C435.1653,-128.0293 452.1552,-125.3986 468.1517,-122.9217"/>
<polygon fill="#191970" stroke="#191970" points="469.1435,-126.3099 478.4901,-121.3209 468.0723,-119.3923 469.1435,-126.3099"/>
</g>
<!-- Node10 -->
<g id="node5" class="node">
<title>Node10</title>
<g id="a_node5"><a xlink:href="classplant_1_1PlantGeometry.html#a73eed0a3db55748b6d2615945ec1f08b" target="_top" xlink:title="plant::PlantGeometry\l::crown_area_above">
<polygon fill="none" stroke="#000000" points="642,-257.5 642,-287.5 751,-287.5 751,-257.5 642,-257.5"/>
<text text-anchor="start" x="650" y="-275.5" font-family="Helvetica,sans-Serif" font-size="10.00" fill="#000000">plant::PlantGeometry</text>
<text text-anchor="middle" x="696.5" y="-264.5" font-family="Helvetica,sans-Serif" font-size="10.00" fill="#000000">::crown_area_above</text>
</a>
</g>
</g>
<!-- Node9&#45;&gt;Node10 -->
<g id="edge4" class="edge">
<title>Node9&#45;&gt;Node10</title>
<path fill="none" stroke="#191970" d="M602.4679,-265.7634C612.2153,-266.4617 622.1513,-267.1735 631.737,-267.8603"/>
<polygon fill="#191970" stroke="#191970" points="631.751,-271.3701 641.9756,-268.5938 632.2513,-264.388 631.751,-271.3701"/>
</g>
<!-- Node13 -->
<g id="node8" class="node">
<title>Node13</title>
<g id="a_node8"><a xlink:href="classplant_1_1Assimilator.html#a25e0068c52700ba3d4b0d8e44398aa02" target="_top" xlink:title="plant::Assimilator\l::leaf_assimilation_rate">
<polygon fill="none" stroke="#000000" points="638,-208.5 638,-238.5 755,-238.5 755,-208.5 638,-208.5"/>
<text text-anchor="start" x="646" y="-226.5" font-family="Helvetica,sans-Serif" font-size="10.00" fill="#000000">plant::Assimilator</text>
<text text-anchor="middle" x="696.5" y="-215.5" font-family="Helvetica,sans-Serif" font-size="10.00" fill="#000000">::leaf_assimilation_rate</text>
</a>
</g>
</g>
<!-- Node9&#45;&gt;Node13 -->
<g id="edge7" class="edge">
<title>Node9&#45;&gt;Node13</title>
<path fill="none" stroke="#191970" d="M597.1287,-245.4507C607.2502,-243.2149 617.6873,-240.9094 627.82,-238.6711"/>
<polygon fill="#191970" stroke="#191970" points="628.8188,-242.0349 637.8284,-236.4603 627.3088,-235.1997 628.8188,-242.0349"/>
</g>
<!-- Node11 -->
<g id="node6" class="node">
<title>Node11</title>
<g id="a_node6"><a xlink:href="classplant_1_1PlantGeometry.html#aed573b6d75e2a0adc4ebdeacec3c34e7" target="_top" xlink:title="plant::PlantGeometry::q">
<polygon fill="none" stroke="#000000" points="795,-282 795,-301 915,-301 915,-282 795,-282"/>
<text text-anchor="middle" x="855" y="-289" font-family="Helvetica,sans-Serif" font-size="10.00" fill="#000000">plant::PlantGeometry::q</text>
</a>
</g>
</g>
<!-- Node10&#45;&gt;Node11 -->
<g id="edge5" class="edge">
<title>Node10&#45;&gt;Node11</title>
<path fill="none" stroke="#191970" d="M751.0467,-279.0387C761.8792,-280.3373 773.3958,-281.7178 784.6687,-283.0691"/>
<polygon fill="#191970" stroke="#191970" points="784.5806,-286.5835 794.9261,-284.2987 785.4138,-279.6333 784.5806,-286.5835"/>
</g>
<!-- Node12 -->
<g id="node7" class="node">
<title>Node12</title>
<g id="a_node7"><a xlink:href="classplant_1_1PlantGeometry.html#a538c106c834b386d8dfce3702f42a93d" target="_top" xlink:title="plant::PlantGeometry::zm">
<polygon fill="none" stroke="#000000" points="791,-244 791,-263 919,-263 919,-244 791,-244"/>
<text text-anchor="middle" x="855" y="-251" font-family="Helvetica,sans-Serif" font-size="10.00" fill="#000000">plant::PlantGeometry::zm</text>
</a>
</g>
</g>
<!-- Node10&#45;&gt;Node12 -->
<g id="edge6" class="edge">
<title>Node10&#45;&gt;Node12</title>
<path fill="none" stroke="#191970" d="M751.0467,-265.9613C760.6507,-264.81 770.7925,-263.5943 780.8253,-262.3916"/>
<polygon fill="#191970" stroke="#191970" points="781.2856,-265.8616 790.798,-261.1961 780.4524,-258.9113 781.2856,-265.8616"/>
</g>
<!-- Node16 -->
<g id="node11" class="node">
<title>Node16</title>
<g id="a_node11"><a xlink:href="classplant_1_1PlantGeometry.html#a721712ac253434c4709a4300f3e6396a" target="_top" xlink:title="plant::PlantGeometry\l::root_mass">
<polygon fill="none" stroke="#000000" points="642,-135.5 642,-165.5 751,-165.5 751,-135.5 642,-135.5"/>
<text text-anchor="start" x="650" y="-153.5" font-family="Helvetica,sans-Serif" font-size="10.00" fill="#000000">plant::PlantGeometry</text>
<text text-anchor="middle" x="696.5" y="-142.5" font-family="Helvetica,sans-Serif" font-size="10.00" fill="#000000">::root_mass</text>
</a>
</g>
</g>
<!-- Node15&#45;&gt;Node16 -->
<g id="edge10" class="edge">
<title>Node15&#45;&gt;Node16</title>
<path fill="none" stroke="#191970" d="M584.7751,-158.5042C599.8421,-157.4247 616.2738,-156.2475 631.7856,-155.1363"/>
<polygon fill="#191970" stroke="#191970" points="632.0984,-158.6229 641.8227,-154.4172 631.5981,-151.6408 632.0984,-158.6229"/>
</g>
<!-- Node18 -->
<g id="node13" class="node">
<title>Node18</title>
<g id="a_node13"><a xlink:href="classplant_1_1PlantGeometry.html#aa34014d10ad2f1585b22958a27bee404" target="_top" xlink:title="plant::PlantGeometry\l::sapwood_mass">
<polygon fill="none" stroke="#000000" points="642,-49.5 642,-79.5 751,-79.5 751,-49.5 642,-49.5"/>
<text text-anchor="start" x="650" y="-67.5" font-family="Helvetica,sans-Serif" font-size="10.00" fill="#000000">plant::PlantGeometry</text>
<text text-anchor="middle" x="696.5" y="-56.5" font-family="Helvetica,sans-Serif" font-size="10.00" fill="#000000">::sapwood_mass</text>
</a>
</g>
</g>
<!-- Node17&#45;&gt;Node18 -->
<g id="edge12" class="edge">
<title>Node17&#45;&gt;Node18</title>
<path fill="none" stroke="#191970" d="M596.1635,-64.5C607.9194,-64.5 620.1295,-64.5 631.8165,-64.5"/>
<polygon fill="#191970" stroke="#191970" points="631.9277,-68.0001 641.9276,-64.5 631.9276,-61.0001 631.9277,-68.0001"/>
</g>
<!-- Node19 -->
<g id="node14" class="node">
<title>Node19</title>
<g id="a_node14"><a xlink:href="classplant_1_1PlantGeometry.html#adb7202ef29b176b65c43c5b5d950484d" target="_top" xlink:title="plant::PlantGeometry\l::stem_mass">
<polygon fill="none" stroke="#000000" points="800.5,-49.5 800.5,-79.5 909.5,-79.5 909.5,-49.5 800.5,-49.5"/>
<text text-anchor="start" x="808.5" y="-67.5" font-family="Helvetica,sans-Serif" font-size="10.00" fill="#000000">plant::PlantGeometry</text>
<text text-anchor="middle" x="855" y="-56.5" font-family="Helvetica,sans-Serif" font-size="10.00" fill="#000000">::stem_mass</text>
</a>
</g>
</g>
<!-- Node18&#45;&gt;Node19 -->
<g id="edge13" class="edge">
<title>Node18&#45;&gt;Node19</title>
<path fill="none" stroke="#191970" d="M751.0467,-64.5C763.624,-64.5 777.1235,-64.5 790.0929,-64.5"/>
<polygon fill="#191970" stroke="#191970" points="790.3528,-68.0001 800.3527,-64.5 790.3527,-61.0001 790.3528,-68.0001"/>
</g>
<!-- Node21 -->
<g id="node16" class="node">
<title>Node21</title>
<g id="a_node16"><a xlink:href="classplant_1_1PlantGeometry.html#a9bb344d187b1854c5a1364f6cd585d72" target="_top" xlink:title="plant::PlantGeometry\l::leaf_mass">
<polygon fill="none" stroke="#000000" points="642,-.5 642,-30.5 751,-30.5 751,-.5 642,-.5"/>
<text text-anchor="start" x="650" y="-18.5" font-family="Helvetica,sans-Serif" font-size="10.00" fill="#000000">plant::PlantGeometry</text>
<text text-anchor="middle" x="696.5" y="-7.5" font-family="Helvetica,sans-Serif" font-size="10.00" fill="#000000">::leaf_mass</text>
</a>
</g>
</g>
<!-- Node20&#45;&gt;Node21 -->
<g id="edge15" class="edge">
<title>Node20&#45;&gt;Node21</title>
<path fill="none" stroke="#191970" d="M579.7101,-15.5C596.1302,-15.5 614.5684,-15.5 631.8587,-15.5"/>
<polygon fill="#191970" stroke="#191970" points="631.8824,-19.0001 641.8824,-15.5 631.8824,-12.0001 631.8824,-19.0001"/>
</g>
<!-- Node22&#45;&gt;Node16 -->
<g id="edge17" class="edge">
<title>Node22&#45;&gt;Node16</title>
<path fill="none" stroke="#191970" d="M579.7101,-124.7016C596.1302,-128.3288 614.5684,-132.4017 631.8587,-136.221"/>
<polygon fill="#191970" stroke="#191970" points="631.3628,-139.6958 641.8824,-138.4352 632.8727,-132.8606 631.3628,-139.6958"/>
</g>
</g>
</svg>
