<?xml version="1.0" encoding="UTF-8" standalone="no"?>
<!DOCTYPE svg PUBLIC "-//W3C//DTD SVG 1.1//EN"
 "http://www.w3.org/Graphics/SVG/1.1/DTD/svg11.dtd">
<!-- Generated by graphviz version 2.40.1 (20161225.0304)
 -->
<!-- Title: plant::PlantTraits::initFromFile Pages: 1 -->
<svg width="251pt" height="66pt"
 viewBox="0.00 0.00 251.00 66.00" xmlns="http://www.w3.org/2000/svg" xmlns:xlink="http://www.w3.org/1999/xlink">
<g id="graph0" class="graph" transform="scale(1 1) rotate(0) translate(4 62)">
<title>plant::PlantTraits::initFromFile</title>
<!-- Node0 -->
<g id="node1" class="node">
<title>Node0</title>
<polygon fill="#bfbfbf" stroke="#000000" points="0,-14 0,-44 91,-44 91,-14 0,-14"/>
<text text-anchor="start" x="8" y="-32" font-family="Helvetica,sans-Serif" font-size="10.00" fill="#000000">plant::PlantTraits</text>
<text text-anchor="middle" x="45.5" y="-21" font-family="Helvetica,sans-Serif" font-size="10.00" fill="#000000">::initFromFile</text>
</g>
<!-- Node1 -->
<g id="node2" class="node">
<title>Node1</title>
<g id="a_node2"><a xlink:href="classio_1_1Initializer.html#ac5da46da32e3a9f0679a14fdf820012e" target="_top" xlink:title="io::Initializer::readFile">
<polygon fill="none" stroke="#000000" points="130,-38.5 130,-57.5 240,-57.5 240,-38.5 130,-38.5"/>
<text text-anchor="middle" x="185" y="-45.5" font-family="Helvetica,sans-Serif" font-size="10.00" fill="#000000">io::Initializer::readFile</text>
</a>
</g>
</g>
<!-- Node0&#45;&gt;Node1 -->
<g id="edge1" class="edge">
<title>Node0&#45;&gt;Node1</title>
<path fill="none" stroke="#191970" d="M91.1775,-35.2213C100.3776,-36.4744 110.2146,-37.8142 119.93,-39.1374"/>
<polygon fill="#191970" stroke="#191970" points="119.5977,-42.6244 129.9786,-40.506 120.5424,-35.6884 119.5977,-42.6244"/>
</g>
<!-- Node2 -->
<g id="node3" class="node">
<title>Node2</title>
<g id="a_node3"><a xlink:href="classio_1_1Initializer.html#a6fb13617609ca86d0990c3436324468e" target="_top" xlink:title="io::Initializer::getScalar">
<polygon fill="none" stroke="#000000" points="127,-.5 127,-19.5 243,-19.5 243,-.5 127,-.5"/>
<text text-anchor="middle" x="185" y="-7.5" font-family="Helvetica,sans-Serif" font-size="10.00" fill="#000000">io::Initializer::getScalar</text>
</a>
</g>
</g>
<!-- Node0&#45;&gt;Node2 -->
<g id="edge2" class="edge">
<title>Node0&#45;&gt;Node2</title>
<path fill="none" stroke="#191970" d="M91.1775,-22.7787C99.2875,-21.6741 107.8924,-20.5021 116.4726,-19.3335"/>
<polygon fill="#191970" stroke="#191970" points="117.0664,-22.785 126.5026,-17.9674 116.1217,-15.849 117.0664,-22.785"/>
</g>
</g>
</svg>
