<?xml version="1.0" encoding="UTF-8" standalone="no"?>
<!DOCTYPE svg PUBLIC "-//W3C//DTD SVG 1.1//EN"
 "http://www.w3.org/Graphics/SVG/1.1/DTD/svg11.dtd">
<!-- Generated by graphviz version 2.40.1 (20161225.0304)
 -->
<!-- Title: plant::PlantGeometry::set_lai Pages: 1 -->
<svg width="574pt" height="173pt"
 viewBox="0.00 0.00 574.00 173.00" xmlns="http://www.w3.org/2000/svg" xmlns:xlink="http://www.w3.org/1999/xlink">
<g id="graph0" class="graph" transform="scale(1 1) rotate(0) translate(4 169)">
<title>plant::PlantGeometry::set_lai</title>
<!-- Node126 -->
<g id="node1" class="node">
<title>Node126</title>
<polygon fill="#bfbfbf" stroke="#000000" points="0,-71.5 0,-101.5 109,-101.5 109,-71.5 0,-71.5"/>
<text text-anchor="start" x="8" y="-89.5" font-family="Helvetica,sans-Serif" font-size="10.00" fill="#000000">plant::PlantGeometry</text>
<text text-anchor="middle" x="54.5" y="-78.5" font-family="Helvetica,sans-Serif" font-size="10.00" fill="#000000">::set_lai</text>
</g>
<!-- Node127 -->
<g id="node2" class="node">
<title>Node127</title>
<g id="a_node2"><a xlink:href="classplant_1_1Plant.html#a274f7da212d5f05d4b281e49e11fc44e" target="_top" xlink:title="plant::Plant::grow\l_for_dt">
<polygon fill="none" stroke="#000000" points="453.5,-134.5 453.5,-164.5 546.5,-164.5 546.5,-134.5 453.5,-134.5"/>
<text text-anchor="start" x="461.5" y="-152.5" font-family="Helvetica,sans-Serif" font-size="10.00" fill="#000000">plant::Plant::grow</text>
<text text-anchor="middle" x="500" y="-141.5" font-family="Helvetica,sans-Serif" font-size="10.00" fill="#000000">_for_dt</text>
</a>
</g>
</g>
<!-- Node126&#45;&gt;Node127 -->
<g id="edge1" class="edge">
<title>Node126&#45;&gt;Node127</title>
<path fill="none" stroke="#191970" d="M90.0252,-106.2174C106.2868,-114.2811 126.1091,-122.8042 145,-127.5 252.8678,-154.313 384.5531,-154.2967 453.2343,-151.9238"/>
<polygon fill="#191970" stroke="#191970" points="91.3938,-102.9864 80.8961,-101.5552 88.21,-109.2205 91.3938,-102.9864"/>
</g>
<!-- Node128 -->
<g id="node3" class="node">
<title>Node128</title>
<g id="a_node3"><a xlink:href="classplant_1_1Plant.html#a48612779a5850cca9cc6f6caff1ccb8b" target="_top" xlink:title="plant::Plant::lai_model">
<polygon fill="none" stroke="#000000" points="145,-99 145,-118 258,-118 258,-99 145,-99"/>
<text text-anchor="middle" x="201.5" y="-106" font-family="Helvetica,sans-Serif" font-size="10.00" fill="#000000">plant::Plant::lai_model</text>
</a>
</g>
</g>
<!-- Node126&#45;&gt;Node128 -->
<g id="edge2" class="edge">
<title>Node126&#45;&gt;Node128</title>
<path fill="none" stroke="#191970" d="M119.1478,-96.1752C127.6772,-97.4517 136.3678,-98.7523 144.7514,-100.007"/>
<polygon fill="#191970" stroke="#191970" points="119.6453,-92.7107 109.2374,-94.692 118.6092,-99.6336 119.6453,-92.7107"/>
</g>
<!-- Node131 -->
<g id="node6" class="node">
<title>Node131</title>
<g id="a_node6"><a xlink:href="classplant_1_1PlantGeometry.html#a4064556ab703b368d70964de42a285af" target="_top" xlink:title="plant::PlantGeometry\l::set_state">
<polygon fill="none" stroke="#000000" points="147,-49.5 147,-79.5 256,-79.5 256,-49.5 147,-49.5"/>
<text text-anchor="start" x="155" y="-67.5" font-family="Helvetica,sans-Serif" font-size="10.00" fill="#000000">plant::PlantGeometry</text>
<text text-anchor="middle" x="201.5" y="-56.5" font-family="Helvetica,sans-Serif" font-size="10.00" fill="#000000">::set_state</text>
</a>
</g>
</g>
<!-- Node126&#45;&gt;Node131 -->
<g id="edge6" class="edge">
<title>Node126&#45;&gt;Node131</title>
<path fill="none" stroke="#191970" d="M119.4182,-76.7844C128.5295,-75.4207 137.8193,-74.0305 146.7169,-72.6988"/>
<polygon fill="#191970" stroke="#191970" points="118.6092,-73.3664 109.2374,-78.308 119.6453,-80.2893 118.6092,-73.3664"/>
</g>
<!-- Node132 -->
<g id="node7" class="node">
<title>Node132</title>
<g id="a_node7"><a xlink:href="classplant_1_1PlantGeometry.html#a9d9d45d824d5a21c867c5c64cd66d1a8" target="_top" xlink:title="plant::PlantGeometry\l::grow_for_dt">
<polygon fill="none" stroke="#000000" points="147,-.5 147,-30.5 256,-30.5 256,-.5 147,-.5"/>
<text text-anchor="start" x="155" y="-18.5" font-family="Helvetica,sans-Serif" font-size="10.00" fill="#000000">plant::PlantGeometry</text>
<text text-anchor="middle" x="201.5" y="-7.5" font-family="Helvetica,sans-Serif" font-size="10.00" fill="#000000">::grow_for_dt</text>
</a>
</g>
</g>
<!-- Node126&#45;&gt;Node132 -->
<g id="edge7" class="edge">
<title>Node126&#45;&gt;Node132</title>
<path fill="none" stroke="#191970" d="M91.5232,-66.4495C107.7848,-57.8574 127.1941,-47.8901 145,-39.5 151.3628,-36.5019 158.2002,-33.4544 164.8446,-30.5824"/>
<polygon fill="#191970" stroke="#191970" points="89.5351,-63.5425 82.3483,-71.3272 92.8211,-69.7234 89.5351,-63.5425"/>
</g>
<!-- Node129 -->
<g id="node4" class="node">
<title>Node129</title>
<g id="a_node4"><a xlink:href="classplant_1_1Plant.html#ab39fa79cb8884c684af5db0c98a1785e" target="_top" xlink:title="plant::Plant::calc\l_demographic_rates">
<polygon fill="none" stroke="#000000" points="294,-90.5 294,-120.5 398,-120.5 398,-90.5 294,-90.5"/>
<text text-anchor="start" x="302" y="-108.5" font-family="Helvetica,sans-Serif" font-size="10.00" fill="#000000">plant::Plant::calc</text>
<text text-anchor="middle" x="346" y="-97.5" font-family="Helvetica,sans-Serif" font-size="10.00" fill="#000000">_demographic_rates</text>
</a>
</g>
</g>
<!-- Node128&#45;&gt;Node129 -->
<g id="edge3" class="edge">
<title>Node128&#45;&gt;Node129</title>
<path fill="none" stroke="#191970" d="M268.455,-107.1099C276.9315,-106.9339 285.5058,-106.7559 293.7077,-106.5857"/>
<polygon fill="#191970" stroke="#191970" points="268.1207,-103.616 258.1955,-107.3229 268.266,-110.6145 268.1207,-103.616"/>
</g>
<!-- Node129&#45;&gt;Node127 -->
<g id="edge4" class="edge">
<title>Node129&#45;&gt;Node127</title>
<path fill="none" stroke="#191970" d="M407.9485,-123.1996C423.095,-127.5271 439.0501,-132.0857 453.3443,-136.1698"/>
<polygon fill="#191970" stroke="#191970" points="408.7142,-119.7783 398.1374,-120.3964 406.7911,-126.509 408.7142,-119.7783"/>
</g>
<!-- Node130 -->
<g id="node5" class="node">
<title>Node130</title>
<g id="a_node5"><a xlink:href="classPSPM__Plant.html#a71f7312443767dffc44d8d0d80b295f0" target="_top" xlink:title="PSPM_Plant::preCompute">
<polygon fill="none" stroke="#000000" points="434,-96 434,-115 566,-115 566,-96 434,-96"/>
<text text-anchor="middle" x="500" y="-103" font-family="Helvetica,sans-Serif" font-size="10.00" fill="#000000">PSPM_Plant::preCompute</text>
</a>
</g>
</g>
<!-- Node129&#45;&gt;Node130 -->
<g id="edge5" class="edge">
<title>Node129&#45;&gt;Node130</title>
<path fill="none" stroke="#191970" d="M408.3054,-105.5C416.7649,-105.5 425.4701,-105.5 433.992,-105.5"/>
<polygon fill="#191970" stroke="#191970" points="408.1374,-102.0001 398.1374,-105.5 408.1373,-109.0001 408.1374,-102.0001"/>
</g>
</g>
</svg>
