<?xml version="1.0" encoding="UTF-8" standalone="no"?>
<!DOCTYPE svg PUBLIC "-//W3C//DTD SVG 1.1//EN"
 "http://www.w3.org/Graphics/SVG/1.1/DTD/svg11.dtd">
<!-- Generated by graphviz version 2.40.1 (20161225.0304)
 -->
<!-- Title: PSPM_Plant Pages: 1 -->
<svg width="815pt" height="234pt"
 viewBox="0.00 0.00 815.00 234.00" xmlns="http://www.w3.org/2000/svg" xmlns:xlink="http://www.w3.org/1999/xlink">
<g id="graph0" class="graph" transform="scale(1 1) rotate(0) translate(4 230)">
<title>PSPM_Plant</title>
<!-- Node2 -->
<g id="node1" class="node">
<title>Node2</title>
<polygon fill="#bfbfbf" stroke="#000000" points="734,-46.5 734,-65.5 807,-65.5 807,-46.5 734,-46.5"/>
<text text-anchor="middle" x="770.5" y="-53.5" font-family="Helvetica,sans-Serif" font-size="10.00" fill="#000000">PSPM_Plant</text>
</g>
<!-- Node3 -->
<g id="node2" class="node">
<title>Node3</title>
<g id="a_node2"><a xlink:href="classplant_1_1Plant.html" target="_top" xlink:title="plant::Plant">
<polygon fill="none" stroke="#000000" points="631,-92.5 631,-111.5 697,-111.5 697,-92.5 631,-92.5"/>
<text text-anchor="middle" x="664" y="-99.5" font-family="Helvetica,sans-Serif" font-size="10.00" fill="#000000">plant::Plant</text>
</a>
</g>
</g>
<!-- Node3&#45;&gt;Node2 -->
<g id="edge1" class="edge">
<title>Node3&#45;&gt;Node2</title>
<path fill="none" stroke="#191970" d="M695.6073,-88.348C712.6218,-80.999 733.1886,-72.1157 748.4614,-65.519"/>
<polygon fill="#191970" stroke="#191970" points="693.8593,-85.2904 686.0669,-92.4688 696.635,-91.7166 693.8593,-85.2904"/>
</g>
<!-- Node4 -->
<g id="node3" class="node">
<title>Node4</title>
<g id="a_node3"><a xlink:href="structplant_1_1PlantAssimilationResult.html" target="_top" xlink:title="plant::PlantAssimilation\lResult">
<polygon fill="none" stroke="#000000" points="132,-177 132,-207 251,-207 251,-177 132,-177"/>
<text text-anchor="start" x="140" y="-195" font-family="Helvetica,sans-Serif" font-size="10.00" fill="#000000">plant::PlantAssimilation</text>
<text text-anchor="middle" x="191.5" y="-184" font-family="Helvetica,sans-Serif" font-size="10.00" fill="#000000">Result</text>
</a>
</g>
</g>
<!-- Node4&#45;&gt;Node3 -->
<g id="edge2" class="edge">
<title>Node4&#45;&gt;Node3</title>
<path fill="none" stroke="#9a32cd" stroke-dasharray="5,2" d="M261.4379,-205.2943C349.2905,-218.2947 501.9639,-228.3533 613,-168 636.4098,-155.2757 652.5147,-126.7469 659.7219,-111.7059"/>
<polygon fill="#9a32cd" stroke="#9a32cd" points="261.7294,-201.7981 251.3141,-203.7404 260.6673,-208.7171 261.7294,-201.7981"/>
<text text-anchor="middle" x="412" y="-218" font-family="Helvetica,sans-Serif" font-size="10.00" fill="#000000"> res</text>
</g>
<!-- Node7 -->
<g id="node6" class="node">
<title>Node7</title>
<g id="a_node6"><a xlink:href="classplant_1_1Assimilator.html" target="_top" xlink:title="plant::Assimilator">
<polygon fill="none" stroke="#000000" points="366,-149.5 366,-168.5 458,-168.5 458,-149.5 366,-149.5"/>
<text text-anchor="middle" x="412" y="-156.5" font-family="Helvetica,sans-Serif" font-size="10.00" fill="#000000">plant::Assimilator</text>
</a>
</g>
</g>
<!-- Node4&#45;&gt;Node7 -->
<g id="edge6" class="edge">
<title>Node4&#45;&gt;Node7</title>
<path fill="none" stroke="#9a32cd" stroke-dasharray="5,2" d="M261.2835,-181.1688C263.8883,-180.7727 266.4673,-180.382 269,-180 301.3796,-175.1157 337.9073,-169.7541 365.9398,-165.6709"/>
<polygon fill="#9a32cd" stroke="#9a32cd" points="260.5093,-177.7463 251.1521,-182.7155 261.5658,-184.6661 260.5093,-177.7463"/>
<text text-anchor="middle" x="302.5" y="-183" font-family="Helvetica,sans-Serif" font-size="10.00" fill="#000000"> plant_assim</text>
</g>
<!-- Node5 -->
<g id="node4" class="node">
<title>Node5</title>
<g id="a_node4"><a xlink:href="classplant_1_1PlantGeometry.html" target="_top" xlink:title="plant::PlantGeometry">
<polygon fill="none" stroke="#000000" points="357.5,-111.5 357.5,-130.5 466.5,-130.5 466.5,-111.5 357.5,-111.5"/>
<text text-anchor="middle" x="412" y="-118.5" font-family="Helvetica,sans-Serif" font-size="10.00" fill="#000000">plant::PlantGeometry</text>
</a>
</g>
</g>
<!-- Node5&#45;&gt;Node3 -->
<g id="edge3" class="edge">
<title>Node5&#45;&gt;Node3</title>
<path fill="none" stroke="#9a32cd" stroke-dasharray="5,2" d="M476.9088,-116.1061C526.08,-112.3987 591.627,-107.4567 630.6563,-104.514"/>
<polygon fill="#9a32cd" stroke="#9a32cd" points="476.3888,-112.6353 466.6802,-116.8773 476.9151,-119.6155 476.3888,-112.6353"/>
<text text-anchor="middle" x="550.5" y="-117" font-family="Helvetica,sans-Serif" font-size="10.00" fill="#000000"> geometry</text>
</g>
<!-- Node6 -->
<g id="node5" class="node">
<title>Node6</title>
<g id="a_node5"><a xlink:href="classplant_1_1PlantParameters.html" target="_top" xlink:title="plant::PlantParameters">
<polygon fill="none" stroke="#000000" points="354,-73.5 354,-92.5 470,-92.5 470,-73.5 354,-73.5"/>
<text text-anchor="middle" x="412" y="-80.5" font-family="Helvetica,sans-Serif" font-size="10.00" fill="#000000">plant::PlantParameters</text>
</a>
</g>
</g>
<!-- Node6&#45;&gt;Node3 -->
<g id="edge4" class="edge">
<title>Node6&#45;&gt;Node3</title>
<path fill="none" stroke="#9a32cd" stroke-dasharray="5,2" d="M480.4551,-82.8021C519.439,-83.4194 569.1104,-85.4357 613,-91 618.8408,-91.7405 625.0035,-92.8141 630.948,-94.0039"/>
<polygon fill="#9a32cd" stroke="#9a32cd" points="480.317,-79.3001 470.2719,-82.6687 480.2252,-86.2995 480.317,-79.3001"/>
<text text-anchor="middle" x="550.5" y="-94" font-family="Helvetica,sans-Serif" font-size="10.00" fill="#000000"> par</text>
</g>
<!-- Node7&#45;&gt;Node3 -->
<g id="edge5" class="edge">
<title>Node7&#45;&gt;Node3</title>
<path fill="none" stroke="#9a32cd" stroke-dasharray="5,2" d="M468.1888,-155.7195C509.1586,-152.1098 565.5686,-144.5883 613,-129 625.7536,-124.8085 639.1291,-117.6074 648.9811,-111.6957"/>
<polygon fill="#9a32cd" stroke="#9a32cd" points="467.7964,-152.24 458.1203,-156.5555 468.3757,-159.216 467.7964,-152.24"/>
<text text-anchor="middle" x="550.5" y="-156" font-family="Helvetica,sans-Serif" font-size="10.00" fill="#000000"> assimilator</text>
</g>
<!-- Node8 -->
<g id="node7" class="node">
<title>Node8</title>
<g id="a_node7"><a xlink:href="classplant_1_1PlantTraits.html" target="_top" xlink:title="plant::PlantTraits">
<polygon fill="none" stroke="#000000" points="366.5,-35.5 366.5,-54.5 457.5,-54.5 457.5,-35.5 366.5,-35.5"/>
<text text-anchor="middle" x="412" y="-42.5" font-family="Helvetica,sans-Serif" font-size="10.00" fill="#000000">plant::PlantTraits</text>
</a>
</g>
</g>
<!-- Node8&#45;&gt;Node3 -->
<g id="edge7" class="edge">
<title>Node8&#45;&gt;Node3</title>
<path fill="none" stroke="#9a32cd" stroke-dasharray="5,2" d="M467.8998,-43.88C509.1893,-44.7603 566.1229,-49.6098 613,-67 628.505,-72.752 643.8113,-84.2493 653.547,-92.4981"/>
<polygon fill="#9a32cd" stroke="#9a32cd" points="467.8037,-40.3784 457.7552,-43.7366 467.7047,-47.3777 467.8037,-40.3784"/>
<text text-anchor="middle" x="550.5" y="-70" font-family="Helvetica,sans-Serif" font-size="10.00" fill="#000000"> traits</text>
</g>
<!-- Node9 -->
<g id="node8" class="node">
<title>Node9</title>
<g id="a_node8"><a xlink:title="STL class. ">
<polygon fill="none" stroke="#bfbfbf" points="161.5,-14.5 161.5,-33.5 221.5,-33.5 221.5,-14.5 161.5,-14.5"/>
<text text-anchor="middle" x="191.5" y="-21.5" font-family="Helvetica,sans-Serif" font-size="10.00" fill="#000000">std::string</text>
</a>
</g>
</g>
<!-- Node9&#45;&gt;Node8 -->
<g id="edge8" class="edge">
<title>Node9&#45;&gt;Node8</title>
<path fill="none" stroke="#9a32cd" stroke-dasharray="5,2" d="M231.8972,-27.8473C269.941,-31.4706 326.8533,-36.8908 366.4846,-40.6652"/>
<polygon fill="#9a32cd" stroke="#9a32cd" points="231.9841,-24.3399 221.6972,-26.8759 231.3203,-31.3083 231.9841,-24.3399"/>
<text text-anchor="middle" x="302.5" y="-41" font-family="Helvetica,sans-Serif" font-size="10.00" fill="#000000"> species_name</text>
</g>
<!-- Node11 -->
<g id="node10" class="node">
<title>Node11</title>
<polygon fill="none" stroke="#bfbfbf" points="488,-.5 488,-19.5 613,-19.5 613,-.5 488,-.5"/>
<text text-anchor="middle" x="550.5" y="-7.5" font-family="Helvetica,sans-Serif" font-size="10.00" fill="#000000">std::vector&lt; std::string &gt;</text>
</g>
<!-- Node9&#45;&gt;Node11 -->
<g id="edge11" class="edge">
<title>Node9&#45;&gt;Node11</title>
<path fill="none" stroke="#9a32cd" stroke-dasharray="5,2" d="M231.7996,-19.8578C243.7614,-18.7642 256.8993,-17.6962 269,-17 344.1611,-12.6757 430.7625,-11.021 487.841,-10.3888"/>
<polygon fill="#9a32cd" stroke="#9a32cd" points="231.2726,-16.392 221.646,-20.8169 231.9309,-23.3609 231.2726,-16.392"/>
<text text-anchor="middle" x="302.5" y="-20" font-family="Helvetica,sans-Serif" font-size="10.00" fill="#000000"> elements</text>
</g>
<!-- Node10 -->
<g id="node9" class="node">
<title>Node10</title>
<g id="a_node9"><a xlink:title="STL class. ">
<polygon fill="none" stroke="#bfbfbf" points="0,-9 0,-39 95,-39 95,-9 0,-9"/>
<text text-anchor="start" x="8" y="-27" font-family="Helvetica,sans-Serif" font-size="10.00" fill="#000000">std::basic_string&lt;</text>
<text text-anchor="middle" x="47.5" y="-16" font-family="Helvetica,sans-Serif" font-size="10.00" fill="#000000"> char &gt;</text>
</a>
</g>
</g>
<!-- Node10&#45;&gt;Node9 -->
<g id="edge9" class="edge">
<title>Node10&#45;&gt;Node9</title>
<path fill="none" stroke="#191970" d="M105.2122,-24C124.3743,-24 144.9432,-24 161.1908,-24"/>
<polygon fill="#191970" stroke="#191970" points="105.0501,-20.5001 95.0501,-24 105.05,-27.5001 105.0501,-20.5001"/>
</g>
<!-- Node11&#45;&gt;Node2 -->
<g id="edge10" class="edge">
<title>Node11&#45;&gt;Node2</title>
<path fill="none" stroke="#9a32cd" stroke-dasharray="5,2" d="M605.9566,-21.5955C645.9538,-29.9585 698.8319,-41.0148 733.7157,-48.3087"/>
<polygon fill="#9a32cd" stroke="#9a32cd" points="606.5888,-18.152 596.0841,-19.5312 605.1561,-25.0039 606.5888,-18.152"/>
<text text-anchor="middle" x="664" y="-55" font-family="Helvetica,sans-Serif" font-size="10.00" fill="#000000"> varnames</text>
<text text-anchor="middle" x="664" y="-44" font-family="Helvetica,sans-Serif" font-size="10.00" fill="#000000">statevarnames</text>
</g>
</g>
</svg>
