<?xml version="1.0" encoding="UTF-8" standalone="no"?>
<!DOCTYPE svg PUBLIC "-//W3C//DTD SVG 1.1//EN"
 "http://www.w3.org/Graphics/SVG/1.1/DTD/svg11.dtd">
<!-- Generated by graphviz version 2.40.1 (20161225.0304)
 -->
<!-- Title: PSPM_Plant::init_state Pages: 1 -->
<svg width="906pt" height="310pt"
 viewBox="0.00 0.00 906.00 309.50" xmlns="http://www.w3.org/2000/svg" xmlns:xlink="http://www.w3.org/1999/xlink">
<g id="graph0" class="graph" transform="scale(1 1) rotate(0) translate(4 305.5)">
<title>PSPM_Plant::init_state</title>
<!-- Node32 -->
<g id="node1" class="node">
<title>Node32</title>
<polygon fill="#bfbfbf" stroke="#000000" points="0,-128 0,-147 119,-147 119,-128 0,-128"/>
<text text-anchor="middle" x="59.5" y="-135" font-family="Helvetica,sans-Serif" font-size="10.00" fill="#000000">PSPM_Plant::init_state</text>
</g>
<!-- Node33 -->
<g id="node2" class="node">
<title>Node33</title>
<g id="a_node2"><a xlink:href="classplant_1_1Plant.html#a03c45eaaabce7ff0287598818dc4847f" target="_top" xlink:title="plant::Plant::p_survival\l_germination">
<polygon fill="none" stroke="#000000" points="155,-122.5 155,-152.5 271,-152.5 271,-122.5 155,-122.5"/>
<text text-anchor="start" x="163" y="-140.5" font-family="Helvetica,sans-Serif" font-size="10.00" fill="#000000">plant::Plant::p_survival</text>
<text text-anchor="middle" x="213" y="-129.5" font-family="Helvetica,sans-Serif" font-size="10.00" fill="#000000">_germination</text>
</a>
</g>
</g>
<!-- Node32&#45;&gt;Node33 -->
<g id="edge1" class="edge">
<title>Node32&#45;&gt;Node33</title>
<path fill="none" stroke="#191970" d="M119.2866,-137.5C127.6054,-137.5 136.2039,-137.5 144.6645,-137.5"/>
<polygon fill="#191970" stroke="#191970" points="144.8879,-141.0001 154.8879,-137.5 144.8878,-134.0001 144.8879,-141.0001"/>
</g>
<!-- Node34 -->
<g id="node3" class="node">
<title>Node34</title>
<g id="a_node3"><a xlink:href="classplant_1_1Assimilator.html#ab5cf98dde0fb1d49ce4d0f44387b628b" target="_top" xlink:title="plant::Assimilator\l::net_production">
<polygon fill="none" stroke="#000000" points="307,-122.5 307,-152.5 399,-152.5 399,-122.5 307,-122.5"/>
<text text-anchor="start" x="315" y="-140.5" font-family="Helvetica,sans-Serif" font-size="10.00" fill="#000000">plant::Assimilator</text>
<text text-anchor="middle" x="353" y="-129.5" font-family="Helvetica,sans-Serif" font-size="10.00" fill="#000000">::net_production</text>
</a>
</g>
</g>
<!-- Node33&#45;&gt;Node34 -->
<g id="edge2" class="edge">
<title>Node33&#45;&gt;Node34</title>
<path fill="none" stroke="#191970" d="M271.1563,-137.5C279.5952,-137.5 288.2705,-137.5 296.6724,-137.5"/>
<polygon fill="#191970" stroke="#191970" points="296.7511,-141.0001 306.751,-137.5 296.751,-134.0001 296.7511,-141.0001"/>
</g>
<!-- Node35 -->
<g id="node4" class="node">
<title>Node35</title>
<g id="a_node4"><a xlink:href="classplant_1_1Assimilator.html#a95024a28af68fde0b11acef9903aaa9d" target="_top" xlink:title="plant::Assimilator\l::calc_plant_assimilation_rate">
<polygon fill="none" stroke="#000000" points="435,-245.5 435,-275.5 581,-275.5 581,-245.5 435,-245.5"/>
<text text-anchor="start" x="443" y="-263.5" font-family="Helvetica,sans-Serif" font-size="10.00" fill="#000000">plant::Assimilator</text>
<text text-anchor="middle" x="508" y="-252.5" font-family="Helvetica,sans-Serif" font-size="10.00" fill="#000000">::calc_plant_assimilation_rate</text>
</a>
</g>
</g>
<!-- Node34&#45;&gt;Node35 -->
<g id="edge3" class="edge">
<title>Node34&#45;&gt;Node35</title>
<path fill="none" stroke="#191970" d="M361.6138,-152.5125C374.7522,-174.1208 401.8072,-213.8724 435,-236.5 437.2477,-238.0323 439.6005,-239.4727 442.0273,-240.8262"/>
<polygon fill="#191970" stroke="#191970" points="440.574,-244.0127 451.0834,-245.3557 443.7053,-237.7521 440.574,-244.0127"/>
</g>
<!-- Node40 -->
<g id="node9" class="node">
<title>Node40</title>
<g id="a_node9"><a xlink:href="classplant_1_1Assimilator.html#a680517258b2674fe94fdcba41fdf771e" target="_top" xlink:title="plant::Assimilator\l::leaf_respiration_rate">
<polygon fill="none" stroke="#000000" points="453,-196.5 453,-226.5 563,-226.5 563,-196.5 453,-196.5"/>
<text text-anchor="start" x="461" y="-214.5" font-family="Helvetica,sans-Serif" font-size="10.00" fill="#000000">plant::Assimilator</text>
<text text-anchor="middle" x="508" y="-203.5" font-family="Helvetica,sans-Serif" font-size="10.00" fill="#000000">::leaf_respiration_rate</text>
</a>
</g>
</g>
<!-- Node34&#45;&gt;Node40 -->
<g id="edge8" class="edge">
<title>Node34&#45;&gt;Node40</title>
<path fill="none" stroke="#191970" d="M374.5122,-152.5096C390.6257,-163.2756 413.5042,-177.5739 435,-187.5 439.0613,-189.3754 443.3111,-191.1712 447.6303,-192.8762"/>
<polygon fill="#191970" stroke="#191970" points="446.5586,-196.2125 457.1506,-196.4592 449.0243,-189.6611 446.5586,-196.2125"/>
</g>
<!-- Node41 -->
<g id="node10" class="node">
<title>Node41</title>
<g id="a_node10"><a xlink:href="classplant_1_1Assimilator.html#ab48c39e03fe75f132440554504c5a1f9" target="_top" xlink:title="plant::Assimilator\l::root_respiration_rate">
<polygon fill="none" stroke="#000000" points="452.5,-147.5 452.5,-177.5 563.5,-177.5 563.5,-147.5 452.5,-147.5"/>
<text text-anchor="start" x="460.5" y="-165.5" font-family="Helvetica,sans-Serif" font-size="10.00" fill="#000000">plant::Assimilator</text>
<text text-anchor="middle" x="508" y="-154.5" font-family="Helvetica,sans-Serif" font-size="10.00" fill="#000000">::root_respiration_rate</text>
</a>
</g>
</g>
<!-- Node34&#45;&gt;Node41 -->
<g id="edge9" class="edge">
<title>Node34&#45;&gt;Node41</title>
<path fill="none" stroke="#191970" d="M399.0854,-144.9331C412.644,-147.12 427.7468,-149.5559 442.2832,-151.9005"/>
<polygon fill="#191970" stroke="#191970" points="441.8007,-155.3679 452.2305,-153.5049 442.9154,-148.4572 441.8007,-155.3679"/>
</g>
<!-- Node43 -->
<g id="node12" class="node">
<title>Node43</title>
<g id="a_node12"><a xlink:href="classplant_1_1Assimilator.html#aa6121d1ac17dca9d28e2f0a5719ebf40" target="_top" xlink:title="plant::Assimilator\l::sapwood_respiration_rate">
<polygon fill="none" stroke="#000000" points="441,-49.5 441,-79.5 575,-79.5 575,-49.5 441,-49.5"/>
<text text-anchor="start" x="449" y="-67.5" font-family="Helvetica,sans-Serif" font-size="10.00" fill="#000000">plant::Assimilator</text>
<text text-anchor="middle" x="508" y="-56.5" font-family="Helvetica,sans-Serif" font-size="10.00" fill="#000000">::sapwood_respiration_rate</text>
</a>
</g>
</g>
<!-- Node34&#45;&gt;Node43 -->
<g id="edge11" class="edge">
<title>Node34&#45;&gt;Node43</title>
<path fill="none" stroke="#191970" d="M376.0149,-122.3524C392.0944,-112.1922 414.3059,-98.9849 435,-89.5 439.8712,-87.2673 445.0024,-85.122 450.1934,-83.0913"/>
<polygon fill="#191970" stroke="#191970" points="451.4329,-86.3645 459.5585,-79.5655 448.9665,-79.8134 451.4329,-86.3645"/>
</g>
<!-- Node46 -->
<g id="node15" class="node">
<title>Node46</title>
<g id="a_node15"><a xlink:href="classplant_1_1Assimilator.html#a620f829f503b9c30129ef26dab988eda" target="_top" xlink:title="plant::Assimilator\l::leaf_turnover_rate">
<polygon fill="none" stroke="#000000" points="457.5,-.5 457.5,-30.5 558.5,-30.5 558.5,-.5 457.5,-.5"/>
<text text-anchor="start" x="465.5" y="-18.5" font-family="Helvetica,sans-Serif" font-size="10.00" fill="#000000">plant::Assimilator</text>
<text text-anchor="middle" x="508" y="-7.5" font-family="Helvetica,sans-Serif" font-size="10.00" fill="#000000">::leaf_turnover_rate</text>
</a>
</g>
</g>
<!-- Node34&#45;&gt;Node46 -->
<g id="edge14" class="edge">
<title>Node34&#45;&gt;Node46</title>
<path fill="none" stroke="#191970" d="M361.8725,-122.2839C375.1382,-100.8189 402.1333,-61.7854 435,-39.5 438.9993,-36.7883 443.3281,-34.3635 447.8132,-32.1987"/>
<polygon fill="#191970" stroke="#191970" points="449.4167,-35.3178 457.1834,-28.1117 446.6181,-28.9016 449.4167,-35.3178"/>
</g>
<!-- Node48 -->
<g id="node17" class="node">
<title>Node48</title>
<g id="a_node17"><a xlink:href="classplant_1_1Assimilator.html#acdbc33099ba37ba301616e1b3ad6d1c4" target="_top" xlink:title="plant::Assimilator\l::root_turnover_rate">
<polygon fill="none" stroke="#000000" points="457.5,-98.5 457.5,-128.5 558.5,-128.5 558.5,-98.5 457.5,-98.5"/>
<text text-anchor="start" x="465.5" y="-116.5" font-family="Helvetica,sans-Serif" font-size="10.00" fill="#000000">plant::Assimilator</text>
<text text-anchor="middle" x="508" y="-105.5" font-family="Helvetica,sans-Serif" font-size="10.00" fill="#000000">::root_turnover_rate</text>
</a>
</g>
</g>
<!-- Node34&#45;&gt;Node48 -->
<g id="edge16" class="edge">
<title>Node34&#45;&gt;Node48</title>
<path fill="none" stroke="#191970" d="M399.0854,-130.3642C414.1653,-128.0293 431.1552,-125.3986 447.1517,-122.9217"/>
<polygon fill="#191970" stroke="#191970" points="448.1435,-126.3099 457.4901,-121.3209 447.0723,-119.3923 448.1435,-126.3099"/>
</g>
<!-- Node36 -->
<g id="node5" class="node">
<title>Node36</title>
<g id="a_node5"><a xlink:href="classplant_1_1PlantGeometry.html#a73eed0a3db55748b6d2615945ec1f08b" target="_top" xlink:title="plant::PlantGeometry\l::crown_area_above">
<polygon fill="none" stroke="#000000" points="621,-257.5 621,-287.5 730,-287.5 730,-257.5 621,-257.5"/>
<text text-anchor="start" x="629" y="-275.5" font-family="Helvetica,sans-Serif" font-size="10.00" fill="#000000">plant::PlantGeometry</text>
<text text-anchor="middle" x="675.5" y="-264.5" font-family="Helvetica,sans-Serif" font-size="10.00" fill="#000000">::crown_area_above</text>
</a>
</g>
</g>
<!-- Node35&#45;&gt;Node36 -->
<g id="edge4" class="edge">
<title>Node35&#45;&gt;Node36</title>
<path fill="none" stroke="#191970" d="M581.4679,-265.7634C591.2153,-266.4617 601.1513,-267.1735 610.737,-267.8603"/>
<polygon fill="#191970" stroke="#191970" points="610.751,-271.3701 620.9756,-268.5938 611.2513,-264.388 610.751,-271.3701"/>
</g>
<!-- Node39 -->
<g id="node8" class="node">
<title>Node39</title>
<g id="a_node8"><a xlink:href="classplant_1_1Assimilator.html#a25e0068c52700ba3d4b0d8e44398aa02" target="_top" xlink:title="plant::Assimilator\l::leaf_assimilation_rate">
<polygon fill="none" stroke="#000000" points="617,-208.5 617,-238.5 734,-238.5 734,-208.5 617,-208.5"/>
<text text-anchor="start" x="625" y="-226.5" font-family="Helvetica,sans-Serif" font-size="10.00" fill="#000000">plant::Assimilator</text>
<text text-anchor="middle" x="675.5" y="-215.5" font-family="Helvetica,sans-Serif" font-size="10.00" fill="#000000">::leaf_assimilation_rate</text>
</a>
</g>
</g>
<!-- Node35&#45;&gt;Node39 -->
<g id="edge7" class="edge">
<title>Node35&#45;&gt;Node39</title>
<path fill="none" stroke="#191970" d="M576.1287,-245.4507C586.2502,-243.2149 596.6873,-240.9094 606.82,-238.6711"/>
<polygon fill="#191970" stroke="#191970" points="607.8188,-242.0349 616.8284,-236.4603 606.3088,-235.1997 607.8188,-242.0349"/>
</g>
<!-- Node37 -->
<g id="node6" class="node">
<title>Node37</title>
<g id="a_node6"><a xlink:href="classplant_1_1PlantGeometry.html#aed573b6d75e2a0adc4ebdeacec3c34e7" target="_top" xlink:title="plant::PlantGeometry::q">
<polygon fill="none" stroke="#000000" points="774,-282 774,-301 894,-301 894,-282 774,-282"/>
<text text-anchor="middle" x="834" y="-289" font-family="Helvetica,sans-Serif" font-size="10.00" fill="#000000">plant::PlantGeometry::q</text>
</a>
</g>
</g>
<!-- Node36&#45;&gt;Node37 -->
<g id="edge5" class="edge">
<title>Node36&#45;&gt;Node37</title>
<path fill="none" stroke="#191970" d="M730.0467,-279.0387C740.8792,-280.3373 752.3958,-281.7178 763.6687,-283.0691"/>
<polygon fill="#191970" stroke="#191970" points="763.5806,-286.5835 773.9261,-284.2987 764.4138,-279.6333 763.5806,-286.5835"/>
</g>
<!-- Node38 -->
<g id="node7" class="node">
<title>Node38</title>
<g id="a_node7"><a xlink:href="classplant_1_1PlantGeometry.html#a538c106c834b386d8dfce3702f42a93d" target="_top" xlink:title="plant::PlantGeometry::zm">
<polygon fill="none" stroke="#000000" points="770,-244 770,-263 898,-263 898,-244 770,-244"/>
<text text-anchor="middle" x="834" y="-251" font-family="Helvetica,sans-Serif" font-size="10.00" fill="#000000">plant::PlantGeometry::zm</text>
</a>
</g>
</g>
<!-- Node36&#45;&gt;Node38 -->
<g id="edge6" class="edge">
<title>Node36&#45;&gt;Node38</title>
<path fill="none" stroke="#191970" d="M730.0467,-265.9613C739.6507,-264.81 749.7925,-263.5943 759.8253,-262.3916"/>
<polygon fill="#191970" stroke="#191970" points="760.2856,-265.8616 769.798,-261.1961 759.4524,-258.9113 760.2856,-265.8616"/>
</g>
<!-- Node42 -->
<g id="node11" class="node">
<title>Node42</title>
<g id="a_node11"><a xlink:href="classplant_1_1PlantGeometry.html#a721712ac253434c4709a4300f3e6396a" target="_top" xlink:title="plant::PlantGeometry\l::root_mass">
<polygon fill="none" stroke="#000000" points="621,-135.5 621,-165.5 730,-165.5 730,-135.5 621,-135.5"/>
<text text-anchor="start" x="629" y="-153.5" font-family="Helvetica,sans-Serif" font-size="10.00" fill="#000000">plant::PlantGeometry</text>
<text text-anchor="middle" x="675.5" y="-142.5" font-family="Helvetica,sans-Serif" font-size="10.00" fill="#000000">::root_mass</text>
</a>
</g>
</g>
<!-- Node41&#45;&gt;Node42 -->
<g id="edge10" class="edge">
<title>Node41&#45;&gt;Node42</title>
<path fill="none" stroke="#191970" d="M563.7751,-158.5042C578.8421,-157.4247 595.2738,-156.2475 610.7856,-155.1363"/>
<polygon fill="#191970" stroke="#191970" points="611.0984,-158.6229 620.8227,-154.4172 610.5981,-151.6408 611.0984,-158.6229"/>
</g>
<!-- Node44 -->
<g id="node13" class="node">
<title>Node44</title>
<g id="a_node13"><a xlink:href="classplant_1_1PlantGeometry.html#aa34014d10ad2f1585b22958a27bee404" target="_top" xlink:title="plant::PlantGeometry\l::sapwood_mass">
<polygon fill="none" stroke="#000000" points="621,-49.5 621,-79.5 730,-79.5 730,-49.5 621,-49.5"/>
<text text-anchor="start" x="629" y="-67.5" font-family="Helvetica,sans-Serif" font-size="10.00" fill="#000000">plant::PlantGeometry</text>
<text text-anchor="middle" x="675.5" y="-56.5" font-family="Helvetica,sans-Serif" font-size="10.00" fill="#000000">::sapwood_mass</text>
</a>
</g>
</g>
<!-- Node43&#45;&gt;Node44 -->
<g id="edge12" class="edge">
<title>Node43&#45;&gt;Node44</title>
<path fill="none" stroke="#191970" d="M575.1635,-64.5C586.9194,-64.5 599.1295,-64.5 610.8165,-64.5"/>
<polygon fill="#191970" stroke="#191970" points="610.9277,-68.0001 620.9276,-64.5 610.9276,-61.0001 610.9277,-68.0001"/>
</g>
<!-- Node45 -->
<g id="node14" class="node">
<title>Node45</title>
<g id="a_node14"><a xlink:href="classplant_1_1PlantGeometry.html#adb7202ef29b176b65c43c5b5d950484d" target="_top" xlink:title="plant::PlantGeometry\l::stem_mass">
<polygon fill="none" stroke="#000000" points="779.5,-49.5 779.5,-79.5 888.5,-79.5 888.5,-49.5 779.5,-49.5"/>
<text text-anchor="start" x="787.5" y="-67.5" font-family="Helvetica,sans-Serif" font-size="10.00" fill="#000000">plant::PlantGeometry</text>
<text text-anchor="middle" x="834" y="-56.5" font-family="Helvetica,sans-Serif" font-size="10.00" fill="#000000">::stem_mass</text>
</a>
</g>
</g>
<!-- Node44&#45;&gt;Node45 -->
<g id="edge13" class="edge">
<title>Node44&#45;&gt;Node45</title>
<path fill="none" stroke="#191970" d="M730.0467,-64.5C742.624,-64.5 756.1235,-64.5 769.0929,-64.5"/>
<polygon fill="#191970" stroke="#191970" points="769.3528,-68.0001 779.3527,-64.5 769.3527,-61.0001 769.3528,-68.0001"/>
</g>
<!-- Node47 -->
<g id="node16" class="node">
<title>Node47</title>
<g id="a_node16"><a xlink:href="classplant_1_1PlantGeometry.html#a9bb344d187b1854c5a1364f6cd585d72" target="_top" xlink:title="plant::PlantGeometry\l::leaf_mass">
<polygon fill="none" stroke="#000000" points="621,-.5 621,-30.5 730,-30.5 730,-.5 621,-.5"/>
<text text-anchor="start" x="629" y="-18.5" font-family="Helvetica,sans-Serif" font-size="10.00" fill="#000000">plant::PlantGeometry</text>
<text text-anchor="middle" x="675.5" y="-7.5" font-family="Helvetica,sans-Serif" font-size="10.00" fill="#000000">::leaf_mass</text>
</a>
</g>
</g>
<!-- Node46&#45;&gt;Node47 -->
<g id="edge15" class="edge">
<title>Node46&#45;&gt;Node47</title>
<path fill="none" stroke="#191970" d="M558.7101,-15.5C575.1302,-15.5 593.5684,-15.5 610.8587,-15.5"/>
<polygon fill="#191970" stroke="#191970" points="610.8824,-19.0001 620.8824,-15.5 610.8824,-12.0001 610.8824,-19.0001"/>
</g>
<!-- Node48&#45;&gt;Node42 -->
<g id="edge17" class="edge">
<title>Node48&#45;&gt;Node42</title>
<path fill="none" stroke="#191970" d="M558.7101,-124.7016C575.1302,-128.3288 593.5684,-132.4017 610.8587,-136.221"/>
<polygon fill="#191970" stroke="#191970" points="610.3628,-139.6958 620.8824,-138.4352 611.8727,-132.8606 610.3628,-139.6958"/>
</g>
</g>
</svg>
