<?xml version="1.0" encoding="UTF-8" standalone="no"?>
<!DOCTYPE svg PUBLIC "-//W3C//DTD SVG 1.1//EN"
 "http://www.w3.org/Graphics/SVG/1.1/DTD/svg11.dtd">
<!-- Generated by graphviz version 2.40.1 (20161225.0304)
 -->
<!-- Title: plant::PlantGeometry::stem_mass Pages: 1 -->
<svg width="1056pt" height="238pt"
 viewBox="0.00 0.00 1056.00 238.00" xmlns="http://www.w3.org/2000/svg" xmlns:xlink="http://www.w3.org/1999/xlink">
<g id="graph0" class="graph" transform="scale(1 1) rotate(0) translate(4 234)">
<title>plant::PlantGeometry::stem_mass</title>
<!-- Node144 -->
<g id="node1" class="node">
<title>Node144</title>
<polygon fill="#bfbfbf" stroke="#000000" points="0,-73.5 0,-103.5 109,-103.5 109,-73.5 0,-73.5"/>
<text text-anchor="start" x="8" y="-91.5" font-family="Helvetica,sans-Serif" font-size="10.00" fill="#000000">plant::PlantGeometry</text>
<text text-anchor="middle" x="54.5" y="-80.5" font-family="Helvetica,sans-Serif" font-size="10.00" fill="#000000">::stem_mass</text>
</g>
<!-- Node145 -->
<g id="node2" class="node">
<title>Node145</title>
<g id="a_node2"><a xlink:href="classplant_1_1PlantGeometry.html#a01d8d7a51156bd9e0485b3abc94d9c54" target="_top" xlink:title="plant::PlantGeometry\l::coarse_root_mass">
<polygon fill="none" stroke="#000000" points="145,-147.5 145,-177.5 254,-177.5 254,-147.5 145,-147.5"/>
<text text-anchor="start" x="153" y="-165.5" font-family="Helvetica,sans-Serif" font-size="10.00" fill="#000000">plant::PlantGeometry</text>
<text text-anchor="middle" x="199.5" y="-154.5" font-family="Helvetica,sans-Serif" font-size="10.00" fill="#000000">::coarse_root_mass</text>
</a>
</g>
</g>
<!-- Node144&#45;&gt;Node145 -->
<g id="edge1" class="edge">
<title>Node144&#45;&gt;Node145</title>
<path fill="none" stroke="#191970" d="M89.9988,-108.4247C106.5756,-117.5466 126.6577,-128.34 145,-137.5 151.6123,-140.8021 158.7489,-144.1956 165.6105,-147.3757"/>
<polygon fill="#191970" stroke="#191970" points="91.6283,-105.3263 81.1834,-103.5499 88.2407,-111.452 91.6283,-105.3263"/>
</g>
<!-- Node146 -->
<g id="node3" class="node">
<title>Node146</title>
<g id="a_node3"><a xlink:href="classplant_1_1PlantGeometry.html#aa34014d10ad2f1585b22958a27bee404" target="_top" xlink:title="plant::PlantGeometry\l::sapwood_mass">
<polygon fill="none" stroke="#000000" points="145,-98.5 145,-128.5 254,-128.5 254,-98.5 145,-98.5"/>
<text text-anchor="start" x="153" y="-116.5" font-family="Helvetica,sans-Serif" font-size="10.00" fill="#000000">plant::PlantGeometry</text>
<text text-anchor="middle" x="199.5" y="-105.5" font-family="Helvetica,sans-Serif" font-size="10.00" fill="#000000">::sapwood_mass</text>
</a>
</g>
</g>
<!-- Node144&#45;&gt;Node146 -->
<g id="edge2" class="edge">
<title>Node144&#45;&gt;Node146</title>
<path fill="none" stroke="#191970" d="M119.1853,-99.6526C127.6712,-101.1157 136.3016,-102.6037 144.6042,-104.0352"/>
<polygon fill="#191970" stroke="#191970" points="119.7676,-96.2015 109.3183,-97.9514 118.5782,-103.0997 119.7676,-96.2015"/>
</g>
<!-- Node158 -->
<g id="node15" class="node">
<title>Node158</title>
<g id="a_node15"><a xlink:href="classplant_1_1PlantGeometry.html#afed31a4dc35fc2d9d3e927d014f49fe6" target="_top" xlink:title="plant::PlantGeometry\l::heartwood_mass">
<polygon fill="none" stroke="#000000" points="145,-49.5 145,-79.5 254,-79.5 254,-49.5 145,-49.5"/>
<text text-anchor="start" x="153" y="-67.5" font-family="Helvetica,sans-Serif" font-size="10.00" fill="#000000">plant::PlantGeometry</text>
<text text-anchor="middle" x="199.5" y="-56.5" font-family="Helvetica,sans-Serif" font-size="10.00" fill="#000000">::heartwood_mass</text>
</a>
</g>
</g>
<!-- Node144&#45;&gt;Node158 -->
<g id="edge15" class="edge">
<title>Node144&#45;&gt;Node158</title>
<path fill="none" stroke="#191970" d="M119.1853,-77.7935C127.6712,-76.3889 136.3016,-74.9604 144.6042,-73.5862"/>
<polygon fill="#191970" stroke="#191970" points="118.6125,-74.3406 109.3183,-79.4266 119.7556,-81.2466 118.6125,-74.3406"/>
</g>
<!-- Node159 -->
<g id="node16" class="node">
<title>Node159</title>
<g id="a_node16"><a xlink:href="classplant_1_1PlantGeometry.html#a5e8a34362ccb0a9aa37e1c2c6af6fbc4" target="_top" xlink:title="plant::PlantGeometry\l::total_mass">
<polygon fill="none" stroke="#000000" points="145,-.5 145,-30.5 254,-30.5 254,-.5 145,-.5"/>
<text text-anchor="start" x="153" y="-18.5" font-family="Helvetica,sans-Serif" font-size="10.00" fill="#000000">plant::PlantGeometry</text>
<text text-anchor="middle" x="199.5" y="-7.5" font-family="Helvetica,sans-Serif" font-size="10.00" fill="#000000">::total_mass</text>
</a>
</g>
</g>
<!-- Node144&#45;&gt;Node159 -->
<g id="edge16" class="edge">
<title>Node144&#45;&gt;Node159</title>
<path fill="none" stroke="#191970" d="M89.9354,-68.4472C106.4991,-59.2986 126.5883,-48.5198 145,-39.5 151.1277,-36.4981 157.7182,-33.4488 164.1257,-30.5762"/>
<polygon fill="#191970" stroke="#191970" points="88.1703,-65.4239 81.1292,-73.3406 91.5704,-71.5428 88.1703,-65.4239"/>
</g>
<!-- Node147 -->
<g id="node4" class="node">
<title>Node147</title>
<g id="a_node4"><a xlink:href="classplant_1_1Assimilator.html#aa6121d1ac17dca9d28e2f0a5719ebf40" target="_top" xlink:title="plant::Assimilator\l::sapwood_respiration_rate">
<polygon fill="none" stroke="#000000" points="290,-147.5 290,-177.5 424,-177.5 424,-147.5 290,-147.5"/>
<text text-anchor="start" x="298" y="-165.5" font-family="Helvetica,sans-Serif" font-size="10.00" fill="#000000">plant::Assimilator</text>
<text text-anchor="middle" x="357" y="-154.5" font-family="Helvetica,sans-Serif" font-size="10.00" fill="#000000">::sapwood_respiration_rate</text>
</a>
</g>
</g>
<!-- Node146&#45;&gt;Node147 -->
<g id="edge3" class="edge">
<title>Node146&#45;&gt;Node147</title>
<path fill="none" stroke="#191970" d="M257.7201,-131.6129C274.4643,-136.8222 292.5396,-142.4457 308.6199,-147.4484"/>
<polygon fill="#191970" stroke="#191970" points="258.6287,-128.2302 248.0403,-128.6014 256.5492,-134.9142 258.6287,-128.2302"/>
</g>
<!-- Node156 -->
<g id="node13" class="node">
<title>Node156</title>
<g id="a_node13"><a xlink:href="classplant_1_1PlantGeometry.html#a9a9fcab821d01edca49610082ceeb497" target="_top" xlink:title="plant::PlantGeometry\l::sapwood_mass_real">
<polygon fill="none" stroke="#000000" points="301,-98.5 301,-128.5 413,-128.5 413,-98.5 301,-98.5"/>
<text text-anchor="start" x="309" y="-116.5" font-family="Helvetica,sans-Serif" font-size="10.00" fill="#000000">plant::PlantGeometry</text>
<text text-anchor="middle" x="357" y="-105.5" font-family="Helvetica,sans-Serif" font-size="10.00" fill="#000000">::sapwood_mass_real</text>
</a>
</g>
</g>
<!-- Node146&#45;&gt;Node156 -->
<g id="edge13" class="edge">
<title>Node146&#45;&gt;Node156</title>
<path fill="none" stroke="#191970" d="M264.2173,-113.5C276.3701,-113.5 288.9836,-113.5 300.8493,-113.5"/>
<polygon fill="#191970" stroke="#191970" points="264.1439,-110.0001 254.1438,-113.5 264.1438,-117.0001 264.1439,-110.0001"/>
</g>
<!-- Node157 -->
<g id="node14" class="node">
<title>Node157</title>
<g id="a_node14"><a xlink:href="classplant_1_1PlantGeometry.html#a9d9d45d824d5a21c867c5c64cd66d1a8" target="_top" xlink:title="plant::PlantGeometry\l::grow_for_dt">
<polygon fill="none" stroke="#000000" points="302.5,-49.5 302.5,-79.5 411.5,-79.5 411.5,-49.5 302.5,-49.5"/>
<text text-anchor="start" x="310.5" y="-67.5" font-family="Helvetica,sans-Serif" font-size="10.00" fill="#000000">plant::PlantGeometry</text>
<text text-anchor="middle" x="357" y="-56.5" font-family="Helvetica,sans-Serif" font-size="10.00" fill="#000000">::grow_for_dt</text>
</a>
</g>
</g>
<!-- Node146&#45;&gt;Node157 -->
<g id="edge14" class="edge">
<title>Node146&#45;&gt;Node157</title>
<path fill="none" stroke="#191970" d="M257.7201,-95.3871C274.4643,-90.1778 292.5396,-84.5543 308.6199,-79.5516"/>
<polygon fill="#191970" stroke="#191970" points="256.5492,-92.0858 248.0403,-98.3986 258.6287,-98.7698 256.5492,-92.0858"/>
</g>
<!-- Node148 -->
<g id="node5" class="node">
<title>Node148</title>
<g id="a_node5"><a xlink:href="classplant_1_1Assimilator.html#ab5cf98dde0fb1d49ce4d0f44387b628b" target="_top" xlink:title="plant::Assimilator\l::net_production">
<polygon fill="none" stroke="#000000" points="460,-147.5 460,-177.5 552,-177.5 552,-147.5 460,-147.5"/>
<text text-anchor="start" x="468" y="-165.5" font-family="Helvetica,sans-Serif" font-size="10.00" fill="#000000">plant::Assimilator</text>
<text text-anchor="middle" x="506" y="-154.5" font-family="Helvetica,sans-Serif" font-size="10.00" fill="#000000">::net_production</text>
</a>
</g>
</g>
<!-- Node147&#45;&gt;Node148 -->
<g id="edge4" class="edge">
<title>Node147&#45;&gt;Node148</title>
<path fill="none" stroke="#191970" d="M434.2907,-162.5C442.9845,-162.5 451.6276,-162.5 459.7454,-162.5"/>
<polygon fill="#191970" stroke="#191970" points="434.09,-159.0001 424.09,-162.5 434.09,-166.0001 434.09,-159.0001"/>
</g>
<!-- Node149 -->
<g id="node6" class="node">
<title>Node149</title>
<g id="a_node6"><a xlink:href="classplant_1_1Plant.html#a48612779a5850cca9cc6f6caff1ccb8b" target="_top" xlink:title="plant::Plant::lai_model">
<polygon fill="none" stroke="#000000" points="589.5,-191 589.5,-210 702.5,-210 702.5,-191 589.5,-191"/>
<text text-anchor="middle" x="646" y="-198" font-family="Helvetica,sans-Serif" font-size="10.00" fill="#000000">plant::Plant::lai_model</text>
</a>
</g>
</g>
<!-- Node148&#45;&gt;Node149 -->
<g id="edge5" class="edge">
<title>Node148&#45;&gt;Node149</title>
<path fill="none" stroke="#191970" d="M562.2892,-177.7785C578.7185,-182.2379 596.1965,-186.9819 610.9092,-190.9754"/>
<polygon fill="#191970" stroke="#191970" points="562.7969,-174.2897 552.2292,-175.0479 560.9632,-181.0453 562.7969,-174.2897"/>
</g>
<!-- Node150 -->
<g id="node7" class="node">
<title>Node150</title>
<g id="a_node7"><a xlink:href="classplant_1_1Plant.html#ab39fa79cb8884c684af5db0c98a1785e" target="_top" xlink:title="plant::Plant::calc\l_demographic_rates">
<polygon fill="none" stroke="#000000" points="758,-177.5 758,-207.5 862,-207.5 862,-177.5 758,-177.5"/>
<text text-anchor="start" x="766" y="-195.5" font-family="Helvetica,sans-Serif" font-size="10.00" fill="#000000">plant::Plant::calc</text>
<text text-anchor="middle" x="810" y="-184.5" font-family="Helvetica,sans-Serif" font-size="10.00" fill="#000000">_demographic_rates</text>
</a>
</g>
</g>
<!-- Node148&#45;&gt;Node150 -->
<g id="edge12" class="edge">
<title>Node148&#45;&gt;Node150</title>
<path fill="none" stroke="#191970" d="M562.0252,-167.7597C601.6806,-171.511 656.1103,-176.7175 704,-181.5 721.5816,-183.2558 740.797,-185.2324 757.9806,-187.0207"/>
<polygon fill="#191970" stroke="#191970" points="562.3041,-164.2705 552.0192,-166.8144 561.6456,-171.2395 562.3041,-164.2705"/>
</g>
<!-- Node153 -->
<g id="node10" class="node">
<title>Node153</title>
<g id="a_node10"><a xlink:href="classplant_1_1Plant.html#a03c45eaaabce7ff0287598818dc4847f" target="_top" xlink:title="plant::Plant::p_survival\l_germination">
<polygon fill="none" stroke="#000000" points="588,-103.5 588,-133.5 704,-133.5 704,-103.5 588,-103.5"/>
<text text-anchor="start" x="596" y="-121.5" font-family="Helvetica,sans-Serif" font-size="10.00" fill="#000000">plant::Plant::p_survival</text>
<text text-anchor="middle" x="646" y="-110.5" font-family="Helvetica,sans-Serif" font-size="10.00" fill="#000000">_germination</text>
</a>
</g>
</g>
<!-- Node148&#45;&gt;Node153 -->
<g id="edge9" class="edge">
<title>Node148&#45;&gt;Node153</title>
<path fill="none" stroke="#191970" d="M562.0413,-144.887C573.9164,-141.1548 586.3502,-137.2471 597.8995,-133.6173"/>
<polygon fill="#191970" stroke="#191970" points="560.7198,-141.6335 552.2292,-147.9708 562.8186,-148.3115 560.7198,-141.6335"/>
</g>
<!-- Node149&#45;&gt;Node150 -->
<g id="edge6" class="edge">
<title>Node149&#45;&gt;Node150</title>
<path fill="none" stroke="#191970" d="M713.1024,-197.2267C728.0348,-196.4983 743.6493,-195.7366 757.8744,-195.0427"/>
<polygon fill="#191970" stroke="#191970" points="712.7165,-193.7413 702.899,-197.7244 713.0577,-200.733 712.7165,-193.7413"/>
</g>
<!-- Node151 -->
<g id="node8" class="node">
<title>Node151</title>
<g id="a_node8"><a xlink:href="classplant_1_1Plant.html#a274f7da212d5f05d4b281e49e11fc44e" target="_top" xlink:title="plant::Plant::grow\l_for_dt">
<polygon fill="none" stroke="#000000" points="935.5,-199.5 935.5,-229.5 1028.5,-229.5 1028.5,-199.5 935.5,-199.5"/>
<text text-anchor="start" x="943.5" y="-217.5" font-family="Helvetica,sans-Serif" font-size="10.00" fill="#000000">plant::Plant::grow</text>
<text text-anchor="middle" x="982" y="-206.5" font-family="Helvetica,sans-Serif" font-size="10.00" fill="#000000">_for_dt</text>
</a>
</g>
</g>
<!-- Node150&#45;&gt;Node151 -->
<g id="edge7" class="edge">
<title>Node150&#45;&gt;Node151</title>
<path fill="none" stroke="#191970" d="M872.1282,-200.4466C892.9941,-203.1155 915.8961,-206.0449 935.3657,-208.5352"/>
<polygon fill="#191970" stroke="#191970" points="872.4357,-196.9575 862.0724,-199.1604 871.5475,-203.901 872.4357,-196.9575"/>
</g>
<!-- Node152 -->
<g id="node9" class="node">
<title>Node152</title>
<g id="a_node9"><a xlink:href="classPSPM__Plant.html#a71f7312443767dffc44d8d0d80b295f0" target="_top" xlink:title="PSPM_Plant::preCompute">
<polygon fill="none" stroke="#000000" points="916,-161 916,-180 1048,-180 1048,-161 916,-161"/>
<text text-anchor="middle" x="982" y="-168" font-family="Helvetica,sans-Serif" font-size="10.00" fill="#000000">PSPM_Plant::preCompute</text>
</a>
</g>
</g>
<!-- Node150&#45;&gt;Node152 -->
<g id="edge8" class="edge">
<title>Node150&#45;&gt;Node152</title>
<path fill="none" stroke="#191970" d="M872.1933,-184.545C886.353,-182.7339 901.4473,-180.8032 915.7684,-178.9715"/>
<polygon fill="#191970" stroke="#191970" points="871.5475,-181.099 862.0724,-185.8396 872.4357,-188.0425 871.5475,-181.099"/>
</g>
<!-- Node154 -->
<g id="node11" class="node">
<title>Node154</title>
<g id="a_node11"><a xlink:href="classPSPM__Plant.html#a4ceca1be5d1089c49dcecdc5ce216727" target="_top" xlink:title="PSPM_Plant::establishment\lProbability">
<polygon fill="none" stroke="#000000" points="740,-112.5 740,-142.5 880,-142.5 880,-112.5 740,-112.5"/>
<text text-anchor="start" x="748" y="-130.5" font-family="Helvetica,sans-Serif" font-size="10.00" fill="#000000">PSPM_Plant::establishment</text>
<text text-anchor="middle" x="810" y="-119.5" font-family="Helvetica,sans-Serif" font-size="10.00" fill="#000000">Probability</text>
</a>
</g>
</g>
<!-- Node153&#45;&gt;Node154 -->
<g id="edge10" class="edge">
<title>Node153&#45;&gt;Node154</title>
<path fill="none" stroke="#191970" d="M714.4083,-122.2541C722.8098,-122.7152 731.4071,-123.187 739.8341,-123.6494"/>
<polygon fill="#191970" stroke="#191970" points="714.4588,-118.7517 704.282,-121.6984 714.0752,-125.7412 714.4588,-118.7517"/>
</g>
<!-- Node155 -->
<g id="node12" class="node">
<title>Node155</title>
<g id="a_node12"><a xlink:href="classPSPM__Plant.html#ad3109143960e0a0ceded078733bc4d4c" target="_top" xlink:title="PSPM_Plant::init_state">
<polygon fill="none" stroke="#000000" points="750.5,-74 750.5,-93 869.5,-93 869.5,-74 750.5,-74"/>
<text text-anchor="middle" x="810" y="-81" font-family="Helvetica,sans-Serif" font-size="10.00" fill="#000000">PSPM_Plant::init_state</text>
</a>
</g>
</g>
<!-- Node153&#45;&gt;Node155 -->
<g id="edge11" class="edge">
<title>Node153&#45;&gt;Node155</title>
<path fill="none" stroke="#191970" d="M714.3042,-103.9229C731.5293,-100.2468 749.5841,-96.3936 765.3116,-93.0372"/>
<polygon fill="#191970" stroke="#191970" points="713.3313,-100.5516 704.282,-106.0618 714.7923,-107.3975 713.3313,-100.5516"/>
</g>
<!-- Node160 -->
<g id="node17" class="node">
<title>Node160</title>
<g id="a_node17"><a xlink:href="classplant_1_1Plant.html#a844678ed6bf903552975db098127d9b2" target="_top" xlink:title="plant::Plant::get_biomass">
<polygon fill="none" stroke="#000000" points="293,-6 293,-25 421,-25 421,-6 293,-6"/>
<text text-anchor="middle" x="357" y="-13" font-family="Helvetica,sans-Serif" font-size="10.00" fill="#000000">plant::Plant::get_biomass</text>
</a>
</g>
</g>
<!-- Node159&#45;&gt;Node160 -->
<g id="edge17" class="edge">
<title>Node159&#45;&gt;Node160</title>
<path fill="none" stroke="#191970" d="M264.2902,-15.5C273.7665,-15.5 283.5214,-15.5 292.9822,-15.5"/>
<polygon fill="#191970" stroke="#191970" points="264.1439,-12.0001 254.1438,-15.5 264.1438,-19.0001 264.1439,-12.0001"/>
</g>
</g>
</svg>
