<?xml version="1.0" encoding="UTF-8" standalone="no"?>
<!DOCTYPE svg PUBLIC "-//W3C//DTD SVG 1.1//EN"
 "http://www.w3.org/Graphics/SVG/1.1/DTD/svg11.dtd">
<!-- Generated by graphviz version 2.40.1 (20161225.0304)
 -->
<!-- Title: plant::Plant::fecundity_rate Pages: 1 -->
<svg width="450pt" height="78pt"
 viewBox="0.00 0.00 450.00 77.50" xmlns="http://www.w3.org/2000/svg" xmlns:xlink="http://www.w3.org/1999/xlink">
<g id="graph0" class="graph" transform="scale(1 1) rotate(0) translate(4 73.5)">
<title>plant::Plant::fecundity_rate</title>
<!-- Node37 -->
<g id="node1" class="node">
<title>Node37</title>
<polygon fill="#bfbfbf" stroke="#000000" points="0,-22.5 0,-41.5 134,-41.5 134,-22.5 0,-22.5"/>
<text text-anchor="middle" x="67" y="-29.5" font-family="Helvetica,sans-Serif" font-size="10.00" fill="#000000">plant::Plant::fecundity_rate</text>
</g>
<!-- Node38 -->
<g id="node2" class="node">
<title>Node38</title>
<g id="a_node2"><a xlink:href="classplant_1_1Plant.html#ab39fa79cb8884c684af5db0c98a1785e" target="_top" xlink:title="plant::Plant::calc\l_demographic_rates">
<polygon fill="none" stroke="#000000" points="170,-17 170,-47 274,-47 274,-17 170,-17"/>
<text text-anchor="start" x="178" y="-35" font-family="Helvetica,sans-Serif" font-size="10.00" fill="#000000">plant::Plant::calc</text>
<text text-anchor="middle" x="222" y="-24" font-family="Helvetica,sans-Serif" font-size="10.00" fill="#000000">_demographic_rates</text>
</a>
</g>
</g>
<!-- Node37&#45;&gt;Node38 -->
<g id="edge1" class="edge">
<title>Node37&#45;&gt;Node38</title>
<path fill="none" stroke="#191970" d="M144.2166,-32C152.8721,-32 161.5324,-32 169.7655,-32"/>
<polygon fill="#191970" stroke="#191970" points="144.0838,-28.5001 134.0838,-32 144.0837,-35.5001 144.0838,-28.5001"/>
</g>
<!-- Node39 -->
<g id="node3" class="node">
<title>Node39</title>
<g id="a_node3"><a xlink:href="classplant_1_1Plant.html#a274f7da212d5f05d4b281e49e11fc44e" target="_top" xlink:title="plant::Plant::grow\l_for_dt">
<polygon fill="none" stroke="#000000" points="329.5,-39 329.5,-69 422.5,-69 422.5,-39 329.5,-39"/>
<text text-anchor="start" x="337.5" y="-57" font-family="Helvetica,sans-Serif" font-size="10.00" fill="#000000">plant::Plant::grow</text>
<text text-anchor="middle" x="376" y="-46" font-family="Helvetica,sans-Serif" font-size="10.00" fill="#000000">_for_dt</text>
</a>
</g>
</g>
<!-- Node38&#45;&gt;Node39 -->
<g id="edge2" class="edge">
<title>Node38&#45;&gt;Node39</title>
<path fill="none" stroke="#191970" d="M284.3814,-40.9116C299.3988,-43.057 315.1862,-45.3123 329.3443,-47.3349"/>
<polygon fill="#191970" stroke="#191970" points="284.5319,-37.3977 274.1374,-39.4482 283.5419,-44.3273 284.5319,-37.3977"/>
</g>
<!-- Node40 -->
<g id="node4" class="node">
<title>Node40</title>
<g id="a_node4"><a xlink:href="classPSPM__Plant.html#a71f7312443767dffc44d8d0d80b295f0" target="_top" xlink:title="PSPM_Plant::preCompute">
<polygon fill="none" stroke="#000000" points="310,-.5 310,-19.5 442,-19.5 442,-.5 310,-.5"/>
<text text-anchor="middle" x="376" y="-7.5" font-family="Helvetica,sans-Serif" font-size="10.00" fill="#000000">PSPM_Plant::preCompute</text>
</a>
</g>
</g>
<!-- Node38&#45;&gt;Node40 -->
<g id="edge3" class="edge">
<title>Node38&#45;&gt;Node40</title>
<path fill="none" stroke="#191970" d="M284.3054,-23.0992C292.7649,-21.8907 301.4701,-20.6471 309.992,-19.4297"/>
<polygon fill="#191970" stroke="#191970" points="283.5419,-19.6727 274.1374,-24.5518 284.5319,-26.6023 283.5419,-19.6727"/>
</g>
</g>
</svg>
