<?xml version="1.0" encoding="UTF-8" standalone="no"?>
<!DOCTYPE svg PUBLIC "-//W3C//DTD SVG 1.1//EN"
 "http://www.w3.org/Graphics/SVG/1.1/DTD/svg11.dtd">
<!-- Generated by graphviz version 2.40.1 (20161225.0304)
 -->
<!-- Title: plant::PlantGeometry::get_size Pages: 1 -->
<svg width="570pt" height="171pt"
 viewBox="0.00 0.00 570.00 170.50" xmlns="http://www.w3.org/2000/svg" xmlns:xlink="http://www.w3.org/1999/xlink">
<g id="graph0" class="graph" transform="scale(1 1) rotate(0) translate(4 166.5)">
<title>plant::PlantGeometry::get_size</title>
<!-- Node41 -->
<g id="node1" class="node">
<title>Node41</title>
<polygon fill="#bfbfbf" stroke="#000000" points="0,-63 0,-93 109,-93 109,-63 0,-63"/>
<text text-anchor="start" x="8" y="-81" font-family="Helvetica,sans-Serif" font-size="10.00" fill="#000000">plant::PlantGeometry</text>
<text text-anchor="middle" x="54.5" y="-70" font-family="Helvetica,sans-Serif" font-size="10.00" fill="#000000">::get_size</text>
</g>
<!-- Node42 -->
<g id="node2" class="node">
<title>Node42</title>
<g id="a_node2"><a xlink:href="classplant_1_1Plant.html#a274f7da212d5f05d4b281e49e11fc44e" target="_top" xlink:title="plant::Plant::grow\l_for_dt">
<polygon fill="none" stroke="#000000" points="449.5,-132 449.5,-162 542.5,-162 542.5,-132 449.5,-132"/>
<text text-anchor="start" x="457.5" y="-150" font-family="Helvetica,sans-Serif" font-size="10.00" fill="#000000">plant::Plant::grow</text>
<text text-anchor="middle" x="496" y="-139" font-family="Helvetica,sans-Serif" font-size="10.00" fill="#000000">_for_dt</text>
</a>
</g>
</g>
<!-- Node41&#45;&gt;Node42 -->
<g id="edge1" class="edge">
<title>Node41&#45;&gt;Node42</title>
<path fill="none" stroke="#191970" d="M84.8582,-98.8148C101.7769,-109.2589 123.6816,-120.9486 145,-127 250.5431,-156.9592 380.9197,-154.707 449.2222,-150.7076"/>
<polygon fill="#191970" stroke="#191970" points="86.3234,-95.5987 76.0073,-93.1844 82.5661,-101.5049 86.3234,-95.5987"/>
</g>
<!-- Node43 -->
<g id="node3" class="node">
<title>Node43</title>
<g id="a_node3"><a xlink:href="classplant_1_1Plant.html#ae3454b0d55be59a37e19915d47431da6" target="_top" xlink:title="plant::Plant::size\l_growth_rate">
<polygon fill="none" stroke="#000000" points="154.5,-88 154.5,-118 244.5,-118 244.5,-88 154.5,-88"/>
<text text-anchor="start" x="162.5" y="-106" font-family="Helvetica,sans-Serif" font-size="10.00" fill="#000000">plant::Plant::size</text>
<text text-anchor="middle" x="199.5" y="-95" font-family="Helvetica,sans-Serif" font-size="10.00" fill="#000000">_growth_rate</text>
</a>
</g>
</g>
<!-- Node41&#45;&gt;Node43 -->
<g id="edge2" class="edge">
<title>Node41&#45;&gt;Node43</title>
<path fill="none" stroke="#191970" d="M119.4775,-89.203C131.1501,-91.2155 143.0856,-93.2734 154.0562,-95.1649"/>
<polygon fill="#191970" stroke="#191970" points="119.7676,-85.7015 109.3183,-87.4514 118.5782,-92.5997 119.7676,-85.7015"/>
</g>
<!-- Node46 -->
<g id="node6" class="node">
<title>Node46</title>
<g id="a_node6"><a xlink:href="classplant_1_1PlantGeometry.html#a9d9d45d824d5a21c867c5c64cd66d1a8" target="_top" xlink:title="plant::PlantGeometry\l::grow_for_dt">
<polygon fill="none" stroke="#000000" points="145,-39 145,-69 254,-69 254,-39 145,-39"/>
<text text-anchor="start" x="153" y="-57" font-family="Helvetica,sans-Serif" font-size="10.00" fill="#000000">plant::PlantGeometry</text>
<text text-anchor="middle" x="199.5" y="-46" font-family="Helvetica,sans-Serif" font-size="10.00" fill="#000000">::grow_for_dt</text>
</a>
</g>
</g>
<!-- Node41&#45;&gt;Node46 -->
<g id="edge6" class="edge">
<title>Node41&#45;&gt;Node46</title>
<path fill="none" stroke="#191970" d="M119.1853,-67.2935C127.6712,-65.8889 136.3016,-64.4604 144.6042,-63.0862"/>
<polygon fill="#191970" stroke="#191970" points="118.6125,-63.8406 109.3183,-68.9266 119.7556,-70.7466 118.6125,-63.8406"/>
</g>
<!-- Node47 -->
<g id="node7" class="node">
<title>Node47</title>
<g id="a_node7"><a xlink:href="classPSPM__Plant.html#a5940d6bbd7a7d235e6bb89ebb782f2b2" target="_top" xlink:title="PSPM_Plant::print">
<polygon fill="none" stroke="#000000" points="150.5,-.5 150.5,-19.5 248.5,-19.5 248.5,-.5 150.5,-.5"/>
<text text-anchor="middle" x="199.5" y="-7.5" font-family="Helvetica,sans-Serif" font-size="10.00" fill="#000000">PSPM_Plant::print</text>
</a>
</g>
</g>
<!-- Node41&#45;&gt;Node47 -->
<g id="edge7" class="edge">
<title>Node41&#45;&gt;Node47</title>
<path fill="none" stroke="#191970" d="M88.5354,-57.8862C105.2316,-48.458 125.8312,-37.4649 145,-29 152.7914,-25.5593 161.4171,-22.3088 169.4642,-19.5015"/>
<polygon fill="#191970" stroke="#191970" points="86.6416,-54.9372 79.6952,-62.9371 90.1142,-61.0151 86.6416,-54.9372"/>
</g>
<!-- Node44 -->
<g id="node4" class="node">
<title>Node44</title>
<g id="a_node4"><a xlink:href="classplant_1_1Plant.html#ab39fa79cb8884c684af5db0c98a1785e" target="_top" xlink:title="plant::Plant::calc\l_demographic_rates">
<polygon fill="none" stroke="#000000" points="290,-88 290,-118 394,-118 394,-88 290,-88"/>
<text text-anchor="start" x="298" y="-106" font-family="Helvetica,sans-Serif" font-size="10.00" fill="#000000">plant::Plant::calc</text>
<text text-anchor="middle" x="342" y="-95" font-family="Helvetica,sans-Serif" font-size="10.00" fill="#000000">_demographic_rates</text>
</a>
</g>
</g>
<!-- Node43&#45;&gt;Node44 -->
<g id="edge3" class="edge">
<title>Node43&#45;&gt;Node44</title>
<path fill="none" stroke="#191970" d="M254.6201,-103C266.2514,-103 278.488,-103 289.9998,-103"/>
<polygon fill="#191970" stroke="#191970" points="254.5879,-99.5001 244.5879,-103 254.5879,-106.5001 254.5879,-99.5001"/>
</g>
<!-- Node44&#45;&gt;Node42 -->
<g id="edge4" class="edge">
<title>Node44&#45;&gt;Node42</title>
<path fill="none" stroke="#191970" d="M403.9485,-120.6996C419.095,-125.0271 435.0501,-129.5857 449.3443,-133.6698"/>
<polygon fill="#191970" stroke="#191970" points="404.7142,-117.2783 394.1374,-117.8964 402.7911,-124.009 404.7142,-117.2783"/>
</g>
<!-- Node45 -->
<g id="node5" class="node">
<title>Node45</title>
<g id="a_node5"><a xlink:href="classPSPM__Plant.html#a71f7312443767dffc44d8d0d80b295f0" target="_top" xlink:title="PSPM_Plant::preCompute">
<polygon fill="none" stroke="#000000" points="430,-93.5 430,-112.5 562,-112.5 562,-93.5 430,-93.5"/>
<text text-anchor="middle" x="496" y="-100.5" font-family="Helvetica,sans-Serif" font-size="10.00" fill="#000000">PSPM_Plant::preCompute</text>
</a>
</g>
</g>
<!-- Node44&#45;&gt;Node45 -->
<g id="edge5" class="edge">
<title>Node44&#45;&gt;Node45</title>
<path fill="none" stroke="#191970" d="M404.3054,-103C412.7649,-103 421.4701,-103 429.992,-103"/>
<polygon fill="#191970" stroke="#191970" points="404.1374,-99.5001 394.1374,-103 404.1373,-106.5001 404.1374,-99.5001"/>
</g>
</g>
</svg>
