<?xml version="1.0" encoding="UTF-8" standalone="no"?>
<!DOCTYPE svg PUBLIC "-//W3C//DTD SVG 1.1//EN"
 "http://www.w3.org/Graphics/SVG/1.1/DTD/svg11.dtd">
<!-- Generated by graphviz version 2.40.1 (20161225.0304)
 -->
<!-- Title: plant::Plant::coordinateTraits Pages: 1 -->
<svg width="354pt" height="66pt"
 viewBox="0.00 0.00 354.00 66.00" xmlns="http://www.w3.org/2000/svg" xmlns:xlink="http://www.w3.org/1999/xlink">
<g id="graph0" class="graph" transform="scale(1 1) rotate(0) translate(4 62)">
<title>plant::Plant::coordinateTraits</title>
<!-- Node30 -->
<g id="node1" class="node">
<title>Node30</title>
<polygon fill="#bfbfbf" stroke="#000000" points="0,-14 0,-44 117,-44 117,-14 0,-14"/>
<text text-anchor="start" x="8" y="-32" font-family="Helvetica,sans-Serif" font-size="10.00" fill="#000000">plant::Plant::coordinate</text>
<text text-anchor="middle" x="58.5" y="-21" font-family="Helvetica,sans-Serif" font-size="10.00" fill="#000000">Traits</text>
</g>
<!-- Node31 -->
<g id="node2" class="node">
<title>Node31</title>
<g id="a_node2"><a xlink:href="classplant_1_1PlantGeometry.html#a7cfa7c88359eaeca1e9f9d7f0d137414" target="_top" xlink:title="plant::PlantGeometry\l::init">
<polygon fill="none" stroke="#000000" points="153,-14 153,-44 262,-44 262,-14 153,-14"/>
<text text-anchor="start" x="161" y="-32" font-family="Helvetica,sans-Serif" font-size="10.00" fill="#000000">plant::PlantGeometry</text>
<text text-anchor="middle" x="207.5" y="-21" font-family="Helvetica,sans-Serif" font-size="10.00" fill="#000000">::init</text>
</a>
</g>
</g>
<!-- Node30&#45;&gt;Node31 -->
<g id="edge1" class="edge">
<title>Node30&#45;&gt;Node31</title>
<path fill="none" stroke="#191970" d="M117.3887,-29C125.7163,-29 134.3164,-29 142.747,-29"/>
<polygon fill="#191970" stroke="#191970" points="142.9168,-32.5001 152.9168,-29 142.9167,-25.5001 142.9168,-32.5001"/>
</g>
<!-- Node32 -->
<g id="node3" class="node">
<title>Node32</title>
<g id="a_node3"><a xlink:href="incbeta_8h.html#a9eb0ac72975c73100e4f9ca13bbd4366" target="_top" xlink:title="beta">
<polygon fill="none" stroke="#000000" points="304.5,-38.5 304.5,-57.5 339.5,-57.5 339.5,-38.5 304.5,-38.5"/>
<text text-anchor="middle" x="322" y="-45.5" font-family="Helvetica,sans-Serif" font-size="10.00" fill="#000000">beta</text>
</a>
</g>
</g>
<!-- Node31&#45;&gt;Node32 -->
<g id="edge2" class="edge">
<title>Node31&#45;&gt;Node32</title>
<path fill="none" stroke="#191970" d="M262.0673,-38.0548C273.3189,-39.9219 284.709,-41.812 294.494,-43.4357"/>
<polygon fill="#191970" stroke="#191970" points="293.9613,-46.8951 304.3994,-45.0794 295.1073,-39.9895 293.9613,-46.8951"/>
</g>
<!-- Node33 -->
<g id="node4" class="node">
<title>Node33</title>
<g id="a_node4"><a xlink:href="incbeta_8h.html#adf3ab3ef5b85f1a8d61e12d64bb8af16" target="_top" xlink:title="incbeta">
<polygon fill="none" stroke="#000000" points="298,-.5 298,-19.5 346,-19.5 346,-.5 298,-.5"/>
<text text-anchor="middle" x="322" y="-7.5" font-family="Helvetica,sans-Serif" font-size="10.00" fill="#000000">incbeta</text>
</a>
</g>
</g>
<!-- Node31&#45;&gt;Node33 -->
<g id="edge3" class="edge">
<title>Node31&#45;&gt;Node33</title>
<path fill="none" stroke="#191970" d="M262.0673,-19.9452C270.798,-18.4964 279.6122,-17.0338 287.6951,-15.6925"/>
<polygon fill="#191970" stroke="#191970" points="288.5391,-19.1004 297.8312,-14.0105 287.3931,-12.1948 288.5391,-19.1004"/>
</g>
</g>
</svg>
