<?xml version="1.0" encoding="UTF-8" standalone="no"?>
<!DOCTYPE svg PUBLIC "-//W3C//DTD SVG 1.1//EN"
 "http://www.w3.org/Graphics/SVG/1.1/DTD/svg11.dtd">
<!-- Generated by graphviz version 2.40.1 (20161225.0304)
 -->
<!-- Title: PSPM_Dynamic_Environment Pages: 1 -->
<svg width="324pt" height="84pt"
 viewBox="0.00 0.00 324.00 84.00" xmlns="http://www.w3.org/2000/svg" xmlns:xlink="http://www.w3.org/1999/xlink">
<g id="graph0" class="graph" transform="scale(1 1) rotate(0) translate(4 80)">
<title>PSPM_Dynamic_Environment</title>
<!-- Node0 -->
<g id="node1" class="node">
<title>Node0</title>
<polygon fill="#bfbfbf" stroke="#000000" points="94.5,-.5 94.5,-19.5 243.5,-19.5 243.5,-.5 94.5,-.5"/>
<text text-anchor="middle" x="169" y="-7.5" font-family="Helvetica,sans-Serif" font-size="10.00" fill="#000000">PSPM_Dynamic_Environment</text>
</g>
<!-- Node1 -->
<g id="node2" class="node">
<title>Node1</title>
<polygon fill="none" stroke="#bfbfbf" points="0,-56.5 0,-75.5 94,-75.5 94,-56.5 0,-56.5"/>
<text text-anchor="middle" x="47" y="-63.5" font-family="Helvetica,sans-Serif" font-size="10.00" fill="#000000">EnvironmentBase</text>
</g>
<!-- Node1&#45;&gt;Node0 -->
<g id="edge1" class="edge">
<title>Node1&#45;&gt;Node0</title>
<path fill="none" stroke="#191970" d="M77.2584,-52.1109C99.3819,-41.9559 128.8094,-28.4482 148.3011,-19.5011"/>
<polygon fill="#191970" stroke="#191970" points="75.6007,-49.0206 67.9725,-56.3733 78.521,-55.3824 75.6007,-49.0206"/>
</g>
<!-- Node2 -->
<g id="node3" class="node">
<title>Node2</title>
<g id="a_node3"><a xlink:href="classenv_1_1LightEnvironment.html" target="_top" xlink:title="env::LightEnvironment">
<polygon fill="none" stroke="#000000" points="112,-56.5 112,-75.5 226,-75.5 226,-56.5 112,-56.5"/>
<text text-anchor="middle" x="169" y="-63.5" font-family="Helvetica,sans-Serif" font-size="10.00" fill="#000000">env::LightEnvironment</text>
</a>
</g>
</g>
<!-- Node2&#45;&gt;Node0 -->
<g id="edge2" class="edge">
<title>Node2&#45;&gt;Node0</title>
<path fill="none" stroke="#191970" d="M169,-46.1575C169,-37.155 169,-26.9199 169,-19.6427"/>
<polygon fill="#191970" stroke="#191970" points="165.5001,-46.2455 169,-56.2455 172.5001,-46.2456 165.5001,-46.2455"/>
</g>
<!-- Node3 -->
<g id="node4" class="node">
<title>Node3</title>
<g id="a_node4"><a xlink:href="classenv_1_1Climate.html" target="_top" xlink:title="env::Climate">
<polygon fill="none" stroke="#000000" points="244,-56.5 244,-75.5 316,-75.5 316,-56.5 244,-56.5"/>
<text text-anchor="middle" x="280" y="-63.5" font-family="Helvetica,sans-Serif" font-size="10.00" fill="#000000">env::Climate</text>
</a>
</g>
</g>
<!-- Node3&#45;&gt;Node0 -->
<g id="edge3" class="edge">
<title>Node3&#45;&gt;Node0</title>
<path fill="none" stroke="#191970" d="M251.9266,-51.8368C231.8615,-41.7139 205.4078,-28.3679 187.8326,-19.5011"/>
<polygon fill="#191970" stroke="#191970" points="250.4138,-54.9938 260.9184,-56.3733 253.5668,-48.7441 250.4138,-54.9938"/>
</g>
</g>
</svg>
