<?xml version="1.0" encoding="UTF-8" standalone="no"?>
<!DOCTYPE svg PUBLIC "-//W3C//DTD SVG 1.1//EN"
 "http://www.w3.org/Graphics/SVG/1.1/DTD/svg11.dtd">
<!-- Generated by graphviz version 2.40.1 (20161225.0304)
 -->
<!-- Title: src/climate.cpp Pages: 1 -->
<svg width="467pt" height="140pt"
 viewBox="0.00 0.00 467.00 140.00" xmlns="http://www.w3.org/2000/svg" xmlns:xlink="http://www.w3.org/1999/xlink">
<g id="graph0" class="graph" transform="scale(1 1) rotate(0) translate(4 136)">
<title>src/climate.cpp</title>
<!-- Node0 -->
<g id="node1" class="node">
<title>Node0</title>
<polygon fill="#bfbfbf" stroke="#000000" points="196,-112.5 196,-131.5 279,-131.5 279,-112.5 196,-112.5"/>
<text text-anchor="middle" x="237.5" y="-119.5" font-family="Helvetica,sans-Serif" font-size="10.00" fill="#000000">src/climate.cpp</text>
</g>
<!-- Node1 -->
<g id="node2" class="node">
<title>Node1</title>
<polygon fill="none" stroke="#bfbfbf" points="0,-.5 0,-19.5 41,-19.5 41,-.5 0,-.5"/>
<text text-anchor="middle" x="20.5" y="-7.5" font-family="Helvetica,sans-Serif" font-size="10.00" fill="#000000">string</text>
</g>
<!-- Node0&#45;&gt;Node1 -->
<g id="edge1" class="edge">
<title>Node0&#45;&gt;Node1</title>
<path fill="none" stroke="#191970" d="M213.0996,-112.4423C191.3499,-103.6811 158.8241,-89.9808 131.5,-76 100.4137,-60.0942 66.0666,-39.1127 43.933,-25.1191"/>
<polygon fill="#191970" stroke="#191970" points="45.5553,-22.0029 35.2401,-19.5849 41.796,-27.9078 45.5553,-22.0029"/>
</g>
<!-- Node2 -->
<g id="node3" class="node">
<title>Node2</title>
<polygon fill="none" stroke="#bfbfbf" points="59.5,-.5 59.5,-19.5 109.5,-19.5 109.5,-.5 59.5,-.5"/>
<text text-anchor="middle" x="84.5" y="-7.5" font-family="Helvetica,sans-Serif" font-size="10.00" fill="#000000">fstream</text>
</g>
<!-- Node0&#45;&gt;Node2 -->
<g id="edge2" class="edge">
<title>Node0&#45;&gt;Node2</title>
<path fill="none" stroke="#191970" d="M218.6458,-112.4085C202.2138,-103.7296 178.0239,-90.1696 158.5,-76 137.5756,-60.814 115.7332,-40.7304 101.2517,-26.7224"/>
<polygon fill="#191970" stroke="#191970" points="103.6093,-24.1323 94.0163,-19.635 98.7109,-29.133 103.6093,-24.1323"/>
</g>
<!-- Node3 -->
<g id="node4" class="node">
<title>Node3</title>
<polygon fill="none" stroke="#bfbfbf" points="127.5,-.5 127.5,-19.5 179.5,-19.5 179.5,-.5 127.5,-.5"/>
<text text-anchor="middle" x="153.5" y="-7.5" font-family="Helvetica,sans-Serif" font-size="10.00" fill="#000000">sstream</text>
</g>
<!-- Node0&#45;&gt;Node3 -->
<g id="edge3" class="edge">
<title>Node0&#45;&gt;Node3</title>
<path fill="none" stroke="#191970" d="M217.3785,-112.4453C202.8884,-104.5817 183.9482,-92.1172 172.5,-76 162.8019,-62.3466 158.0262,-43.8082 155.6908,-29.8549"/>
<polygon fill="#191970" stroke="#191970" points="159.1404,-29.2498 154.2937,-19.8285 152.2074,-30.2159 159.1404,-29.2498"/>
</g>
<!-- Node4 -->
<g id="node5" class="node">
<title>Node4</title>
<polygon fill="none" stroke="#bfbfbf" points="259.5,-.5 259.5,-19.5 313.5,-19.5 313.5,-.5 259.5,-.5"/>
<text text-anchor="middle" x="286.5" y="-7.5" font-family="Helvetica,sans-Serif" font-size="10.00" fill="#000000">iostream</text>
</g>
<!-- Node0&#45;&gt;Node4 -->
<g id="edge4" class="edge">
<title>Node0&#45;&gt;Node4</title>
<path fill="none" stroke="#191970" d="M241.6777,-112.4509C249.778,-93.936 267.7492,-52.8591 278.3106,-28.7187"/>
<polygon fill="#191970" stroke="#191970" points="281.5312,-30.0894 282.3329,-19.5249 275.1181,-27.2836 281.5312,-30.0894"/>
</g>
<!-- Node5 -->
<g id="node6" class="node">
<title>Node5</title>
<polygon fill="none" stroke="#bfbfbf" points="331.5,-56.5 331.5,-75.5 381.5,-75.5 381.5,-56.5 331.5,-56.5"/>
<text text-anchor="middle" x="356.5" y="-63.5" font-family="Helvetica,sans-Serif" font-size="10.00" fill="#000000">iomanip</text>
</g>
<!-- Node0&#45;&gt;Node5 -->
<g id="edge5" class="edge">
<title>Node0&#45;&gt;Node5</title>
<path fill="none" stroke="#191970" d="M257.9568,-112.3733C276.9738,-103.4241 305.5175,-89.9917 326.9976,-79.8835"/>
<polygon fill="#191970" stroke="#191970" points="328.7522,-82.926 336.3101,-75.5011 325.7716,-76.5923 328.7522,-82.926"/>
</g>
<!-- Node6 -->
<g id="node7" class="node">
<title>Node6</title>
<polygon fill="none" stroke="#bfbfbf" points="331.5,-.5 331.5,-19.5 375.5,-19.5 375.5,-.5 331.5,-.5"/>
<text text-anchor="middle" x="353.5" y="-7.5" font-family="Helvetica,sans-Serif" font-size="10.00" fill="#000000">cmath</text>
</g>
<!-- Node0&#45;&gt;Node6 -->
<g id="edge6" class="edge">
<title>Node0&#45;&gt;Node6</title>
<path fill="none" stroke="#191970" d="M247.3901,-112.4509C267.1656,-93.3574 311.7921,-50.2697 336.4041,-26.5063"/>
<polygon fill="#191970" stroke="#191970" points="338.872,-28.9888 343.6349,-19.5249 334.0098,-23.9529 338.872,-28.9888"/>
</g>
<!-- Node7 -->
<g id="node8" class="node">
<title>Node7</title>
<polygon fill="none" stroke="#bfbfbf" points="400,-56.5 400,-75.5 459,-75.5 459,-56.5 400,-56.5"/>
<text text-anchor="middle" x="429.5" y="-63.5" font-family="Helvetica,sans-Serif" font-size="10.00" fill="#000000">stdexcept</text>
</g>
<!-- Node0&#45;&gt;Node7 -->
<g id="edge7" class="edge">
<title>Node0&#45;&gt;Node7</title>
<path fill="none" stroke="#191970" d="M270.506,-112.3733C303.5873,-102.7245 354.5369,-87.8642 389.8055,-77.5776"/>
<polygon fill="#191970" stroke="#191970" points="391.1392,-80.8345 399.7591,-74.6744 389.1791,-74.1145 391.1392,-80.8345"/>
</g>
<!-- Node8 -->
<g id="node9" class="node">
<title>Node8</title>
<g id="a_node9"><a xlink:href="climate_8h.html" target="_top" xlink:title="climate.h">
<polygon fill="none" stroke="#000000" points="181.5,-56.5 181.5,-75.5 237.5,-75.5 237.5,-56.5 181.5,-56.5"/>
<text text-anchor="middle" x="209.5" y="-63.5" font-family="Helvetica,sans-Serif" font-size="10.00" fill="#000000">climate.h</text>
</a>
</g>
</g>
<!-- Node0&#45;&gt;Node8 -->
<g id="edge8" class="edge">
<title>Node0&#45;&gt;Node8</title>
<path fill="none" stroke="#191970" d="M232.6228,-112.2455C228.8487,-104.6973 223.5079,-94.0158 218.9099,-84.8197"/>
<polygon fill="#191970" stroke="#191970" points="221.924,-83.0217 214.3213,-75.6427 215.663,-86.1522 221.924,-83.0217"/>
</g>
<!-- Node8&#45;&gt;Node1 -->
<g id="edge9" class="edge">
<title>Node8&#45;&gt;Node1</title>
<path fill="none" stroke="#191970" d="M181.2509,-58.1967C151.248,-49.8284 102.224,-35.9257 50.7562,-19.9926"/>
<polygon fill="#191970" stroke="#191970" points="51.71,-16.6239 41.1216,-16.9947 49.6302,-23.3078 51.71,-16.6239"/>
</g>
<!-- Node8&#45;&gt;Node2 -->
<g id="edge10" class="edge">
<title>Node8&#45;&gt;Node2</title>
<path fill="none" stroke="#191970" d="M188.0117,-56.3733C167.856,-47.3435 137.512,-33.7494 114.882,-23.6111"/>
<polygon fill="#191970" stroke="#191970" points="116.2649,-20.3955 105.7079,-19.5011 113.4029,-26.7838 116.2649,-20.3955"/>
</g>
<!-- Node8&#45;&gt;Node3 -->
<g id="edge11" class="edge">
<title>Node8&#45;&gt;Node3</title>
<path fill="none" stroke="#191970" d="M199.7455,-56.2455C191.6352,-48.1352 179.9075,-36.4075 170.2919,-26.7919"/>
<polygon fill="#191970" stroke="#191970" points="172.6887,-24.2389 163.1427,-19.6427 167.7389,-29.1887 172.6887,-24.2389"/>
</g>
<!-- Node8&#45;&gt;Node4 -->
<g id="edge12" class="edge">
<title>Node8&#45;&gt;Node4</title>
<path fill="none" stroke="#191970" d="M222.9124,-56.2455C234.5057,-47.814 251.4748,-35.4729 264.9678,-25.6598"/>
<polygon fill="#191970" stroke="#191970" points="267.2126,-28.355 273.2413,-19.6427 263.0953,-22.6938 267.2126,-28.355"/>
</g>
<!-- Node8&#45;&gt;Node6 -->
<g id="edge13" class="edge">
<title>Node8&#45;&gt;Node6</title>
<path fill="none" stroke="#191970" d="M234.2545,-56.3733C258.4979,-46.9453 295.5363,-32.5414 321.8955,-22.2906"/>
<polygon fill="#191970" stroke="#191970" points="323.3747,-25.4708 331.4261,-18.5843 320.8375,-18.9468 323.3747,-25.4708"/>
</g>
<!-- Node9 -->
<g id="node10" class="node">
<title>Node9</title>
<polygon fill="none" stroke="#bfbfbf" points="197.5,-.5 197.5,-19.5 241.5,-19.5 241.5,-.5 197.5,-.5"/>
<text text-anchor="middle" x="219.5" y="-7.5" font-family="Helvetica,sans-Serif" font-size="10.00" fill="#000000">vector</text>
</g>
<!-- Node8&#45;&gt;Node9 -->
<g id="edge14" class="edge">
<title>Node8&#45;&gt;Node9</title>
<path fill="none" stroke="#191970" d="M211.2419,-56.2455C212.5467,-48.9382 214.376,-38.6944 215.9813,-29.7046"/>
<polygon fill="#191970" stroke="#191970" points="219.4656,-30.1022 217.7781,-19.6427 212.5746,-28.8717 219.4656,-30.1022"/>
</g>
</g>
</svg>
