<?xml version="1.0" encoding="UTF-8" standalone="no"?>
<!DOCTYPE svg PUBLIC "-//W3C//DTD SVG 1.1//EN"
 "http://www.w3.org/Graphics/SVG/1.1/DTD/svg11.dtd">
<!-- Generated by graphviz version 2.40.1 (20161225.0304)
 -->
<!-- Title: include/climate.h Pages: 1 -->
<svg width="384pt" height="84pt"
 viewBox="0.00 0.00 383.50 84.00" xmlns="http://www.w3.org/2000/svg" xmlns:xlink="http://www.w3.org/1999/xlink">
<g id="graph0" class="graph" transform="scale(1 1) rotate(0) translate(4 80)">
<title>include/climate.h</title>
<!-- Node0 -->
<g id="node1" class="node">
<title>Node0</title>
<polygon fill="#bfbfbf" stroke="#000000" points="143.5,-56.5 143.5,-75.5 233.5,-75.5 233.5,-56.5 143.5,-56.5"/>
<text text-anchor="middle" x="188.5" y="-63.5" font-family="Helvetica,sans-Serif" font-size="10.00" fill="#000000">include/climate.h</text>
</g>
<!-- Node1 -->
<g id="node2" class="node">
<title>Node1</title>
<polygon fill="none" stroke="#bfbfbf" points="0,-.5 0,-19.5 41,-19.5 41,-.5 0,-.5"/>
<text text-anchor="middle" x="20.5" y="-7.5" font-family="Helvetica,sans-Serif" font-size="10.00" fill="#000000">string</text>
</g>
<!-- Node0&#45;&gt;Node1 -->
<g id="edge1" class="edge">
<title>Node0&#45;&gt;Node1</title>
<path fill="none" stroke="#191970" d="M159.6198,-56.3733C129.2762,-46.2587 81.7521,-30.4174 50.8628,-20.1209"/>
<polygon fill="#191970" stroke="#191970" points="51.6675,-16.6999 41.0738,-16.8579 49.4538,-23.3407 51.6675,-16.6999"/>
</g>
<!-- Node2 -->
<g id="node3" class="node">
<title>Node2</title>
<polygon fill="none" stroke="#bfbfbf" points="59.5,-.5 59.5,-19.5 109.5,-19.5 109.5,-.5 59.5,-.5"/>
<text text-anchor="middle" x="84.5" y="-7.5" font-family="Helvetica,sans-Serif" font-size="10.00" fill="#000000">fstream</text>
</g>
<!-- Node0&#45;&gt;Node2 -->
<g id="edge2" class="edge">
<title>Node0&#45;&gt;Node2</title>
<path fill="none" stroke="#191970" d="M170.3846,-56.2455C154.055,-47.4527 129.829,-34.4079 111.2661,-24.4125"/>
<polygon fill="#191970" stroke="#191970" points="112.8719,-21.3021 102.4078,-19.6427 109.5532,-27.4654 112.8719,-21.3021"/>
</g>
<!-- Node3 -->
<g id="node4" class="node">
<title>Node3</title>
<polygon fill="none" stroke="#bfbfbf" points="127.5,-.5 127.5,-19.5 179.5,-19.5 179.5,-.5 127.5,-.5"/>
<text text-anchor="middle" x="153.5" y="-7.5" font-family="Helvetica,sans-Serif" font-size="10.00" fill="#000000">sstream</text>
</g>
<!-- Node0&#45;&gt;Node3 -->
<g id="edge3" class="edge">
<title>Node0&#45;&gt;Node3</title>
<path fill="none" stroke="#191970" d="M182.4035,-56.2455C177.5855,-48.5367 170.7249,-37.5598 164.8968,-28.2348"/>
<polygon fill="#191970" stroke="#191970" points="167.7947,-26.2677 159.5267,-19.6427 161.8587,-29.9777 167.7947,-26.2677"/>
</g>
<!-- Node4 -->
<g id="node5" class="node">
<title>Node4</title>
<polygon fill="none" stroke="#bfbfbf" points="197.5,-.5 197.5,-19.5 251.5,-19.5 251.5,-.5 197.5,-.5"/>
<text text-anchor="middle" x="224.5" y="-7.5" font-family="Helvetica,sans-Serif" font-size="10.00" fill="#000000">iostream</text>
</g>
<!-- Node0&#45;&gt;Node4 -->
<g id="edge4" class="edge">
<title>Node0&#45;&gt;Node4</title>
<path fill="none" stroke="#191970" d="M194.7707,-56.2455C199.7264,-48.5367 206.783,-37.5598 212.7776,-28.2348"/>
<polygon fill="#191970" stroke="#191970" points="215.8376,-29.9471 218.3011,-19.6427 209.9494,-26.1618 215.8376,-29.9471"/>
</g>
<!-- Node5 -->
<g id="node6" class="node">
<title>Node5</title>
<polygon fill="none" stroke="#bfbfbf" points="269.5,-.5 269.5,-19.5 313.5,-19.5 313.5,-.5 269.5,-.5"/>
<text text-anchor="middle" x="291.5" y="-7.5" font-family="Helvetica,sans-Serif" font-size="10.00" fill="#000000">cmath</text>
</g>
<!-- Node0&#45;&gt;Node5 -->
<g id="edge5" class="edge">
<title>Node0&#45;&gt;Node5</title>
<path fill="none" stroke="#191970" d="M206.4412,-56.2455C222.54,-47.4928 246.3879,-34.527 264.7391,-24.5496"/>
<polygon fill="#191970" stroke="#191970" points="266.6507,-27.4942 273.7644,-19.6427 263.3071,-21.3444 266.6507,-27.4942"/>
</g>
<!-- Node6 -->
<g id="node7" class="node">
<title>Node6</title>
<polygon fill="none" stroke="#bfbfbf" points="331.5,-.5 331.5,-19.5 375.5,-19.5 375.5,-.5 331.5,-.5"/>
<text text-anchor="middle" x="353.5" y="-7.5" font-family="Helvetica,sans-Serif" font-size="10.00" fill="#000000">vector</text>
</g>
<!-- Node0&#45;&gt;Node6 -->
<g id="edge6" class="edge">
<title>Node0&#45;&gt;Node6</title>
<path fill="none" stroke="#191970" d="M216.8645,-56.3733C246.0039,-46.4835 291.2756,-31.1186 321.6331,-20.8154"/>
<polygon fill="#191970" stroke="#191970" points="322.967,-24.0589 331.3116,-17.5306 320.7173,-17.4302 322.967,-24.0589"/>
</g>
</g>
</svg>
