<?xml version="1.0" encoding="UTF-8" standalone="no"?>
<!DOCTYPE svg PUBLIC "-//W3C//DTD SVG 1.1//EN"
 "http://www.w3.org/Graphics/SVG/1.1/DTD/svg11.dtd">
<!-- Generated by graphviz version 2.40.1 (20161225.0304)
 -->
<!-- Title: incbeta Pages: 1 -->
<svg width="509pt" height="39pt"
 viewBox="0.00 0.00 509.00 39.00" xmlns="http://www.w3.org/2000/svg" xmlns:xlink="http://www.w3.org/1999/xlink">
<g id="graph0" class="graph" transform="scale(1 1) rotate(0) translate(4 35)">
<title>incbeta</title>
<!-- Node6 -->
<g id="node1" class="node">
<title>Node6</title>
<polygon fill="#bfbfbf" stroke="#000000" points="0,-6 0,-25 48,-25 48,-6 0,-6"/>
<text text-anchor="middle" x="24" y="-13" font-family="Helvetica,sans-Serif" font-size="10.00" fill="#000000">incbeta</text>
</g>
<!-- Node7 -->
<g id="node2" class="node">
<title>Node7</title>
<g id="a_node2"><a xlink:href="classplant_1_1PlantGeometry.html#a7cfa7c88359eaeca1e9f9d7f0d137414" target="_top" xlink:title="plant::PlantGeometry\l::init">
<polygon fill="none" stroke="#000000" points="84,-.5 84,-30.5 193,-30.5 193,-.5 84,-.5"/>
<text text-anchor="start" x="92" y="-18.5" font-family="Helvetica,sans-Serif" font-size="10.00" fill="#000000">plant::PlantGeometry</text>
<text text-anchor="middle" x="138.5" y="-7.5" font-family="Helvetica,sans-Serif" font-size="10.00" fill="#000000">::init</text>
</a>
</g>
</g>
<!-- Node6&#45;&gt;Node7 -->
<g id="edge1" class="edge">
<title>Node6&#45;&gt;Node7</title>
<path fill="none" stroke="#191970" d="M58.1592,-15.5C66.2625,-15.5 75.1072,-15.5 83.8699,-15.5"/>
<polygon fill="#191970" stroke="#191970" points="58.003,-12.0001 48.003,-15.5 58.0029,-19.0001 58.003,-12.0001"/>
</g>
<!-- Node8 -->
<g id="node3" class="node">
<title>Node8</title>
<g id="a_node3"><a xlink:href="classplant_1_1Plant.html#aef656755f62f6ba9ea17a9b304eca104" target="_top" xlink:title="plant::Plant::coordinate\lTraits">
<polygon fill="none" stroke="#000000" points="229,-.5 229,-30.5 346,-30.5 346,-.5 229,-.5"/>
<text text-anchor="start" x="237" y="-18.5" font-family="Helvetica,sans-Serif" font-size="10.00" fill="#000000">plant::Plant::coordinate</text>
<text text-anchor="middle" x="287.5" y="-7.5" font-family="Helvetica,sans-Serif" font-size="10.00" fill="#000000">Traits</text>
</a>
</g>
</g>
<!-- Node7&#45;&gt;Node8 -->
<g id="edge2" class="edge">
<title>Node7&#45;&gt;Node8</title>
<path fill="none" stroke="#191970" d="M203.3639,-15.5C211.8425,-15.5 220.4905,-15.5 228.8585,-15.5"/>
<polygon fill="#191970" stroke="#191970" points="203.1361,-12.0001 193.136,-15.5 203.136,-19.0001 203.1361,-12.0001"/>
</g>
<!-- Node9 -->
<g id="node4" class="node">
<title>Node9</title>
<g id="a_node4"><a xlink:href="classplant_1_1Plant.html#ad0ad8df9b05a798faaee3f1b3aec2230" target="_top" xlink:title="plant::Plant::initParams\lFromFile">
<polygon fill="none" stroke="#000000" points="382,-.5 382,-30.5 501,-30.5 501,-.5 382,-.5"/>
<text text-anchor="start" x="390" y="-18.5" font-family="Helvetica,sans-Serif" font-size="10.00" fill="#000000">plant::Plant::initParams</text>
<text text-anchor="middle" x="441.5" y="-7.5" font-family="Helvetica,sans-Serif" font-size="10.00" fill="#000000">FromFile</text>
</a>
</g>
</g>
<!-- Node8&#45;&gt;Node9 -->
<g id="edge3" class="edge">
<title>Node8&#45;&gt;Node9</title>
<path fill="none" stroke="#191970" d="M356.1743,-15.5C364.7821,-15.5 373.5304,-15.5 381.982,-15.5"/>
<polygon fill="#191970" stroke="#191970" points="356.1601,-12.0001 346.1601,-15.5 356.1601,-19.0001 356.1601,-12.0001"/>
</g>
</g>
</svg>
