<?xml version="1.0" encoding="UTF-8" standalone="no"?>
<!DOCTYPE svg PUBLIC "-//W3C//DTD SVG 1.1//EN"
 "http://www.w3.org/Graphics/SVG/1.1/DTD/svg11.dtd">
<!-- Generated by graphviz version 2.40.1 (20161225.0304)
 -->
<!-- Title: beta Pages: 1 -->
<svg width="496pt" height="39pt"
 viewBox="0.00 0.00 496.00 39.00" xmlns="http://www.w3.org/2000/svg" xmlns:xlink="http://www.w3.org/1999/xlink">
<g id="graph0" class="graph" transform="scale(1 1) rotate(0) translate(4 35)">
<title>beta</title>
<!-- Node1 -->
<g id="node1" class="node">
<title>Node1</title>
<polygon fill="#bfbfbf" stroke="#000000" points="0,-6 0,-25 35,-25 35,-6 0,-6"/>
<text text-anchor="middle" x="17.5" y="-13" font-family="Helvetica,sans-Serif" font-size="10.00" fill="#000000">beta</text>
</g>
<!-- Node2 -->
<g id="node2" class="node">
<title>Node2</title>
<g id="a_node2"><a xlink:href="classplant_1_1PlantGeometry.html#a7cfa7c88359eaeca1e9f9d7f0d137414" target="_top" xlink:title="plant::PlantGeometry\l::init">
<polygon fill="none" stroke="#000000" points="71,-.5 71,-30.5 180,-30.5 180,-.5 71,-.5"/>
<text text-anchor="start" x="79" y="-18.5" font-family="Helvetica,sans-Serif" font-size="10.00" fill="#000000">plant::PlantGeometry</text>
<text text-anchor="middle" x="125.5" y="-7.5" font-family="Helvetica,sans-Serif" font-size="10.00" fill="#000000">::init</text>
</a>
</g>
</g>
<!-- Node1&#45;&gt;Node2 -->
<g id="edge1" class="edge">
<title>Node1&#45;&gt;Node2</title>
<path fill="none" stroke="#191970" d="M45.5904,-15.5C53.3537,-15.5 62.0534,-15.5 70.7782,-15.5"/>
<polygon fill="#191970" stroke="#191970" points="45.334,-12.0001 35.334,-15.5 45.334,-19.0001 45.334,-12.0001"/>
</g>
<!-- Node3 -->
<g id="node3" class="node">
<title>Node3</title>
<g id="a_node3"><a xlink:href="classplant_1_1Plant.html#aef656755f62f6ba9ea17a9b304eca104" target="_top" xlink:title="plant::Plant::coordinate\lTraits">
<polygon fill="none" stroke="#000000" points="216,-.5 216,-30.5 333,-30.5 333,-.5 216,-.5"/>
<text text-anchor="start" x="224" y="-18.5" font-family="Helvetica,sans-Serif" font-size="10.00" fill="#000000">plant::Plant::coordinate</text>
<text text-anchor="middle" x="274.5" y="-7.5" font-family="Helvetica,sans-Serif" font-size="10.00" fill="#000000">Traits</text>
</a>
</g>
</g>
<!-- Node2&#45;&gt;Node3 -->
<g id="edge2" class="edge">
<title>Node2&#45;&gt;Node3</title>
<path fill="none" stroke="#191970" d="M190.3639,-15.5C198.8425,-15.5 207.4905,-15.5 215.8585,-15.5"/>
<polygon fill="#191970" stroke="#191970" points="190.1361,-12.0001 180.136,-15.5 190.136,-19.0001 190.1361,-12.0001"/>
</g>
<!-- Node4 -->
<g id="node4" class="node">
<title>Node4</title>
<g id="a_node4"><a xlink:href="classplant_1_1Plant.html#ad0ad8df9b05a798faaee3f1b3aec2230" target="_top" xlink:title="plant::Plant::initParams\lFromFile">
<polygon fill="none" stroke="#000000" points="369,-.5 369,-30.5 488,-30.5 488,-.5 369,-.5"/>
<text text-anchor="start" x="377" y="-18.5" font-family="Helvetica,sans-Serif" font-size="10.00" fill="#000000">plant::Plant::initParams</text>
<text text-anchor="middle" x="428.5" y="-7.5" font-family="Helvetica,sans-Serif" font-size="10.00" fill="#000000">FromFile</text>
</a>
</g>
</g>
<!-- Node3&#45;&gt;Node4 -->
<g id="edge3" class="edge">
<title>Node3&#45;&gt;Node4</title>
<path fill="none" stroke="#191970" d="M343.1743,-15.5C351.7821,-15.5 360.5304,-15.5 368.982,-15.5"/>
<polygon fill="#191970" stroke="#191970" points="343.1601,-12.0001 333.1601,-15.5 343.1601,-19.0001 343.1601,-12.0001"/>
</g>
</g>
</svg>
