<?xml version="1.0" encoding="UTF-8" standalone="no"?>
<!DOCTYPE svg PUBLIC "-//W3C//DTD SVG 1.1//EN"
 "http://www.w3.org/Graphics/SVG/1.1/DTD/svg11.dtd">
<!-- Generated by graphviz version 2.40.1 (20161225.0304)
 -->
<!-- Title: Graphical Class Hierarchy Pages: 1 -->
<svg width="307pt" height="104pt"
 viewBox="0.00 0.00 307.00 104.00" xmlns="http://www.w3.org/2000/svg" xmlns:xlink="http://www.w3.org/1999/xlink">
<g id="graph0" class="graph" transform="scale(1 1) rotate(0) translate(4 100)">
<title>Graphical Class Hierarchy</title>
<!-- Node11 -->
<g id="node1" class="node">
<title>Node11</title>
<g id="a_node1"><a xlink:href="classenv_1_1Climate.html" target="_top" xlink:title="env::Climate">
<polygon fill="none" stroke="#000000" points="21,-76.5 21,-95.5 93,-95.5 93,-76.5 21,-76.5"/>
<text text-anchor="middle" x="57" y="-83.5" font-family="Helvetica,sans-Serif" font-size="10.00" fill="#000000">env::Climate</text>
</a>
</g>
</g>
<!-- Node1 -->
<g id="node2" class="node">
<title>Node1</title>
<g id="a_node2"><a xlink:href="classPSPM__Dynamic__Environment.html" target="_top" xlink:title="PSPM_Dynamic_Environment">
<polygon fill="none" stroke="#000000" points="150,-38.5 150,-57.5 299,-57.5 299,-38.5 150,-38.5"/>
<text text-anchor="middle" x="224.5" y="-45.5" font-family="Helvetica,sans-Serif" font-size="10.00" fill="#000000">PSPM_Dynamic_Environment</text>
</a>
</g>
</g>
<!-- Node11&#45;&gt;Node1 -->
<g id="edge1" class="edge">
<title>Node11&#45;&gt;Node1</title>
<path fill="none" stroke="#191970" d="M103.2647,-75.5041C128.102,-69.8694 158.4812,-62.9774 182.6159,-57.5021"/>
<polygon fill="#191970" stroke="#191970" points="102.3228,-72.1288 93.345,-77.7546 103.8716,-78.9553 102.3228,-72.1288"/>
</g>
<!-- Node10 -->
<g id="node3" class="node">
<title>Node10</title>
<polygon fill="none" stroke="#bfbfbf" points="10,-38.5 10,-57.5 104,-57.5 104,-38.5 10,-38.5"/>
<text text-anchor="middle" x="57" y="-45.5" font-family="Helvetica,sans-Serif" font-size="10.00" fill="#000000">EnvironmentBase</text>
</g>
<!-- Node10&#45;&gt;Node1 -->
<g id="edge2" class="edge">
<title>Node10&#45;&gt;Node1</title>
<path fill="none" stroke="#191970" d="M114.3666,-48C125.7956,-48 137.9547,-48 149.865,-48"/>
<polygon fill="#191970" stroke="#191970" points="114.1039,-44.5001 104.1038,-48 114.1038,-51.5001 114.1039,-44.5001"/>
</g>
<!-- Node0 -->
<g id="node4" class="node">
<title>Node0</title>
<g id="a_node4"><a xlink:href="classenv_1_1LightEnvironment.html" target="_top" xlink:title="env::LightEnvironment">
<polygon fill="none" stroke="#000000" points="0,-.5 0,-19.5 114,-19.5 114,-.5 0,-.5"/>
<text text-anchor="middle" x="57" y="-7.5" font-family="Helvetica,sans-Serif" font-size="10.00" fill="#000000">env::LightEnvironment</text>
</a>
</g>
</g>
<!-- Node0&#45;&gt;Node1 -->
<g id="edge3" class="edge">
<title>Node0&#45;&gt;Node1</title>
<path fill="none" stroke="#191970" d="M109.1201,-21.8243C132.7347,-27.1816 160.282,-33.4311 182.5366,-38.4799"/>
<polygon fill="#191970" stroke="#191970" points="109.7939,-18.3883 99.2673,-19.589 108.2451,-25.2148 109.7939,-18.3883"/>
</g>
</g>
</svg>
