<?xml version="1.0" encoding="UTF-8" standalone="no"?>
<!DOCTYPE svg PUBLIC "-//W3C//DTD SVG 1.1//EN"
 "http://www.w3.org/Graphics/SVG/1.1/DTD/svg11.dtd">
<!-- Generated by graphviz version 2.40.1 (20161225.0304)
 -->
<!-- Title: include/utils/initializer.h Pages: 1 -->
<svg width="384pt" height="364pt"
 viewBox="0.00 0.00 383.50 364.00" xmlns="http://www.w3.org/2000/svg" xmlns:xlink="http://www.w3.org/1999/xlink">
<g id="graph0" class="graph" transform="scale(1 1) rotate(0) translate(4 360)">
<title>include/utils/initializer.h</title>
<!-- Node8 -->
<g id="node1" class="node">
<title>Node8</title>
<polygon fill="#bfbfbf" stroke="#000000" points="122.5,-336.5 122.5,-355.5 240.5,-355.5 240.5,-336.5 122.5,-336.5"/>
<text text-anchor="middle" x="181.5" y="-343.5" font-family="Helvetica,sans-Serif" font-size="10.00" fill="#000000">include/utils/initializer.h</text>
</g>
<!-- Node9 -->
<g id="node2" class="node">
<title>Node9</title>
<g id="a_node2"><a xlink:href="plant__params_8h.html" target="_top" xlink:title="include/plant_params.h">
<polygon fill="none" stroke="#000000" points="123,-280.5 123,-299.5 240,-299.5 240,-280.5 123,-280.5"/>
<text text-anchor="middle" x="181.5" y="-287.5" font-family="Helvetica,sans-Serif" font-size="10.00" fill="#000000">include/plant_params.h</text>
</a>
</g>
</g>
<!-- Node8&#45;&gt;Node9 -->
<g id="edge1" class="edge">
<title>Node8&#45;&gt;Node9</title>
<path fill="none" stroke="#191970" d="M181.5,-326.1575C181.5,-317.155 181.5,-306.9199 181.5,-299.6427"/>
<polygon fill="#191970" stroke="#191970" points="178.0001,-326.2455 181.5,-336.2455 185.0001,-326.2456 178.0001,-326.2455"/>
</g>
<!-- Node10 -->
<g id="node3" class="node">
<title>Node10</title>
<g id="a_node3"><a xlink:href="plant__geometry_8cpp.html" target="_top" xlink:title="src/plant_geometry.cpp">
<polygon fill="none" stroke="#000000" points="0,-168.5 0,-187.5 119,-187.5 119,-168.5 0,-168.5"/>
<text text-anchor="middle" x="59.5" y="-175.5" font-family="Helvetica,sans-Serif" font-size="10.00" fill="#000000">src/plant_geometry.cpp</text>
</a>
</g>
</g>
<!-- Node9&#45;&gt;Node10 -->
<g id="edge2" class="edge">
<title>Node9&#45;&gt;Node10</title>
<path fill="none" stroke="#191970" d="M113.1138,-277.2459C94.5365,-270.4378 76.3112,-260 64.5,-244 52.2156,-227.3589 54.7342,-201.49 57.3123,-187.5969"/>
<polygon fill="#191970" stroke="#191970" points="112.2348,-280.6422 122.8285,-280.4855 114.4493,-274.0017 112.2348,-280.6422"/>
</g>
<!-- Node11 -->
<g id="node4" class="node">
<title>Node11</title>
<g id="a_node4"><a xlink:href="assimilation_8h.html" target="_top" xlink:title="include/assimilation.h">
<polygon fill="none" stroke="#000000" points="255.5,-168.5 255.5,-187.5 365.5,-187.5 365.5,-168.5 255.5,-168.5"/>
<text text-anchor="middle" x="310.5" y="-175.5" font-family="Helvetica,sans-Serif" font-size="10.00" fill="#000000">include/assimilation.h</text>
</a>
</g>
</g>
<!-- Node9&#45;&gt;Node11 -->
<g id="edge3" class="edge">
<title>Node9&#45;&gt;Node11</title>
<path fill="none" stroke="#191970" d="M203.4107,-274.1016C214.9778,-265.486 229.2701,-254.4828 241.5,-244 263.6515,-225.0128 287.958,-200.9377 300.9863,-187.745"/>
<polygon fill="#191970" stroke="#191970" points="201.1453,-271.4235 195.1758,-280.1766 205.3009,-277.0566 201.1453,-271.4235"/>
</g>
<!-- Node13 -->
<g id="node6" class="node">
<title>Node13</title>
<g id="a_node6"><a xlink:href="plant_8h.html" target="_top" xlink:title="include/plant.h">
<polygon fill="none" stroke="#000000" points="173.5,-112.5 173.5,-131.5 253.5,-131.5 253.5,-112.5 173.5,-112.5"/>
<text text-anchor="middle" x="213.5" y="-119.5" font-family="Helvetica,sans-Serif" font-size="10.00" fill="#000000">include/plant.h</text>
</a>
</g>
</g>
<!-- Node9&#45;&gt;Node13 -->
<g id="edge13" class="edge">
<title>Node9&#45;&gt;Node13</title>
<path fill="none" stroke="#191970" d="M194.3921,-271.7899C199.4339,-263.6722 204.6764,-253.7534 207.5,-244 219.1761,-203.6679 216.38,-152.7435 214.5136,-131.7386"/>
<polygon fill="#191970" stroke="#191970" points="191.3131,-270.101 188.7226,-280.3742 197.1541,-273.9587 191.3131,-270.101"/>
</g>
<!-- Node17 -->
<g id="node10" class="node">
<title>Node17</title>
<g id="a_node10"><a xlink:href="plant__geometry_8h.html" target="_top" xlink:title="include/plant_geometry.h">
<polygon fill="none" stroke="#000000" points="74,-224.5 74,-243.5 199,-243.5 199,-224.5 74,-224.5"/>
<text text-anchor="middle" x="136.5" y="-231.5" font-family="Helvetica,sans-Serif" font-size="10.00" fill="#000000">include/plant_geometry.h</text>
</a>
</g>
</g>
<!-- Node9&#45;&gt;Node17 -->
<g id="edge9" class="edge">
<title>Node9&#45;&gt;Node17</title>
<path fill="none" stroke="#191970" d="M167.2054,-272.2112C159.6004,-262.7472 150.5462,-251.4797 144.2486,-243.6427"/>
<polygon fill="#191970" stroke="#191970" points="164.6694,-274.6428 173.6616,-280.2455 170.1259,-270.2581 164.6694,-274.6428"/>
</g>
<!-- Node12 -->
<g id="node5" class="node">
<title>Node12</title>
<g id="a_node5"><a xlink:href="assimilation_8cpp.html" target="_top" xlink:title="src/assimilation.cpp">
<polygon fill="none" stroke="#000000" points="271.5,-112.5 271.5,-131.5 375.5,-131.5 375.5,-112.5 271.5,-112.5"/>
<text text-anchor="middle" x="323.5" y="-119.5" font-family="Helvetica,sans-Serif" font-size="10.00" fill="#000000">src/assimilation.cpp</text>
</a>
</g>
</g>
<!-- Node11&#45;&gt;Node12 -->
<g id="edge4" class="edge">
<title>Node11&#45;&gt;Node12</title>
<path fill="none" stroke="#191970" d="M315.0375,-158.4538C317.1439,-149.3803 319.5536,-138.9998 321.2615,-131.6427"/>
<polygon fill="#191970" stroke="#191970" points="311.6165,-157.7131 312.7644,-168.2455 318.4351,-159.2961 311.6165,-157.7131"/>
</g>
<!-- Node11&#45;&gt;Node13 -->
<g id="edge5" class="edge">
<title>Node11&#45;&gt;Node13</title>
<path fill="none" stroke="#191970" d="M284.5984,-163.0465C267.3391,-153.0824 245.1624,-140.2794 230.2025,-131.6427"/>
<polygon fill="#191970" stroke="#191970" points="283.1936,-166.2768 293.6039,-168.2455 286.6935,-160.2146 283.1936,-166.2768"/>
</g>
<!-- Node14 -->
<g id="node7" class="node">
<title>Node14</title>
<g id="a_node7"><a xlink:href="plant_8cpp.html" target="_top" xlink:title="src/plant.cpp">
<polygon fill="none" stroke="#000000" points="119,-56.5 119,-75.5 192,-75.5 192,-56.5 119,-56.5"/>
<text text-anchor="middle" x="155.5" y="-63.5" font-family="Helvetica,sans-Serif" font-size="10.00" fill="#000000">src/plant.cpp</text>
</a>
</g>
</g>
<!-- Node13&#45;&gt;Node14 -->
<g id="edge6" class="edge">
<title>Node13&#45;&gt;Node14</title>
<path fill="none" stroke="#191970" d="M195.9707,-105.0751C185.9917,-95.4402 173.8524,-83.7196 165.4871,-75.6427"/>
<polygon fill="#191970" stroke="#191970" points="193.772,-107.8175 203.3972,-112.2455 198.6342,-102.7817 193.772,-107.8175"/>
</g>
<!-- Node15 -->
<g id="node8" class="node">
<title>Node15</title>
<g id="a_node8"><a xlink:href="pspm__interface_8h.html" target="_top" xlink:title="include/pspm_interface.h">
<polygon fill="none" stroke="#000000" points="210,-56.5 210,-75.5 335,-75.5 335,-56.5 210,-56.5"/>
<text text-anchor="middle" x="272.5" y="-63.5" font-family="Helvetica,sans-Serif" font-size="10.00" fill="#000000">include/pspm_interface.h</text>
</a>
</g>
</g>
<!-- Node13&#45;&gt;Node15 -->
<g id="edge7" class="edge">
<title>Node13&#45;&gt;Node15</title>
<path fill="none" stroke="#191970" d="M231.0307,-105.3607C241.2377,-95.6727 253.7469,-83.7995 262.3408,-75.6427"/>
<polygon fill="#191970" stroke="#191970" points="228.6206,-102.8227 223.777,-112.2455 233.4396,-107.8998 228.6206,-102.8227"/>
</g>
<!-- Node16 -->
<g id="node9" class="node">
<title>Node16</title>
<g id="a_node9"><a xlink:href="pspm__interface_8cpp.html" target="_top" xlink:title="src/pspm_interface.cpp">
<polygon fill="none" stroke="#000000" points="213,-.5 213,-19.5 332,-19.5 332,-.5 213,-.5"/>
<text text-anchor="middle" x="272.5" y="-7.5" font-family="Helvetica,sans-Serif" font-size="10.00" fill="#000000">src/pspm_interface.cpp</text>
</a>
</g>
</g>
<!-- Node15&#45;&gt;Node16 -->
<g id="edge8" class="edge">
<title>Node15&#45;&gt;Node16</title>
<path fill="none" stroke="#191970" d="M272.5,-46.1575C272.5,-37.155 272.5,-26.9199 272.5,-19.6427"/>
<polygon fill="#191970" stroke="#191970" points="269.0001,-46.2455 272.5,-56.2455 276.0001,-46.2456 269.0001,-46.2455"/>
</g>
<!-- Node17&#45;&gt;Node10 -->
<g id="edge10" class="edge">
<title>Node17&#45;&gt;Node10</title>
<path fill="none" stroke="#191970" d="M114.7884,-218.2097C101.2647,-208.3743 84.3042,-196.0394 72.7587,-187.6427"/>
<polygon fill="#191970" stroke="#191970" points="112.9416,-221.1944 123.0876,-224.2455 117.0589,-215.5332 112.9416,-221.1944"/>
</g>
<!-- Node17&#45;&gt;Node11 -->
<g id="edge11" class="edge">
<title>Node17&#45;&gt;Node11</title>
<path fill="none" stroke="#191970" d="M176.301,-221.1905C208.179,-210.9309 252.1816,-196.7691 280.9787,-187.5011"/>
<polygon fill="#191970" stroke="#191970" points="174.8585,-217.9779 166.4117,-224.3733 177.0031,-224.6413 174.8585,-217.9779"/>
</g>
<!-- Node17&#45;&gt;Node13 -->
<g id="edge12" class="edge">
<title>Node17&#45;&gt;Node13</title>
<path fill="none" stroke="#191970" d="M148.9488,-215.8927C165.4919,-191.8299 194.1226,-150.1853 206.9516,-131.5249"/>
<polygon fill="#191970" stroke="#191970" points="145.8462,-214.2276 143.065,-224.4509 151.6145,-218.1934 145.8462,-214.2276"/>
</g>
</g>
</svg>
