<?xml version="1.0" encoding="UTF-8" standalone="no"?>
<!DOCTYPE svg PUBLIC "-//W3C//DTD SVG 1.1//EN"
 "http://www.w3.org/Graphics/SVG/1.1/DTD/svg11.dtd">
<!-- Generated by graphviz version 2.40.1 (20161225.0304)
 -->
<!-- Title: include/utils/initializer.h Pages: 1 -->
<svg width="453pt" height="84pt"
 viewBox="0.00 0.00 452.50 84.00" xmlns="http://www.w3.org/2000/svg" xmlns:xlink="http://www.w3.org/1999/xlink">
<g id="graph0" class="graph" transform="scale(1 1) rotate(0) translate(4 80)">
<title>include/utils/initializer.h</title>
<!-- Node0 -->
<g id="node1" class="node">
<title>Node0</title>
<polygon fill="#bfbfbf" stroke="#000000" points="151,-56.5 151,-75.5 269,-75.5 269,-56.5 151,-56.5"/>
<text text-anchor="middle" x="210" y="-63.5" font-family="Helvetica,sans-Serif" font-size="10.00" fill="#000000">include/utils/initializer.h</text>
</g>
<!-- Node1 -->
<g id="node2" class="node">
<title>Node1</title>
<polygon fill="none" stroke="#bfbfbf" points="0,-.5 0,-19.5 54,-19.5 54,-.5 0,-.5"/>
<text text-anchor="middle" x="27" y="-7.5" font-family="Helvetica,sans-Serif" font-size="10.00" fill="#000000">iostream</text>
</g>
<!-- Node0&#45;&gt;Node1 -->
<g id="edge1" class="edge">
<title>Node0&#45;&gt;Node1</title>
<path fill="none" stroke="#191970" d="M178.5412,-56.3733C146.7754,-46.6526 97.724,-31.6423 64.0844,-21.3482"/>
<polygon fill="#191970" stroke="#191970" points="64.7619,-17.8954 54.1755,-18.316 62.7136,-24.589 64.7619,-17.8954"/>
</g>
<!-- Node2 -->
<g id="node3" class="node">
<title>Node2</title>
<polygon fill="none" stroke="#bfbfbf" points="72.5,-.5 72.5,-19.5 113.5,-19.5 113.5,-.5 72.5,-.5"/>
<text text-anchor="middle" x="93" y="-7.5" font-family="Helvetica,sans-Serif" font-size="10.00" fill="#000000">string</text>
</g>
<!-- Node0&#45;&gt;Node2 -->
<g id="edge2" class="edge">
<title>Node0&#45;&gt;Node2</title>
<path fill="none" stroke="#191970" d="M189.887,-56.3733C171.1897,-47.4241 143.1256,-33.9917 122.0066,-23.8835"/>
<polygon fill="#191970" stroke="#191970" points="123.3817,-20.6614 112.8506,-19.5011 120.3595,-26.9755 123.3817,-20.6614"/>
</g>
<!-- Node3 -->
<g id="node4" class="node">
<title>Node3</title>
<polygon fill="none" stroke="#bfbfbf" points="131.5,-.5 131.5,-19.5 166.5,-19.5 166.5,-.5 131.5,-.5"/>
<text text-anchor="middle" x="149" y="-7.5" font-family="Helvetica,sans-Serif" font-size="10.00" fill="#000000">map</text>
</g>
<!-- Node0&#45;&gt;Node3 -->
<g id="edge3" class="edge">
<title>Node0&#45;&gt;Node3</title>
<path fill="none" stroke="#191970" d="M199.3746,-56.2455C190.4527,-48.0549 177.512,-36.1749 166.9808,-26.5069"/>
<polygon fill="#191970" stroke="#191970" points="169.2371,-23.8271 159.5036,-19.6427 164.5032,-28.9837 169.2371,-23.8271"/>
</g>
<!-- Node4 -->
<g id="node5" class="node">
<title>Node4</title>
<polygon fill="none" stroke="#bfbfbf" points="185,-.5 185,-19.5 235,-19.5 235,-.5 185,-.5"/>
<text text-anchor="middle" x="210" y="-7.5" font-family="Helvetica,sans-Serif" font-size="10.00" fill="#000000">fstream</text>
</g>
<!-- Node0&#45;&gt;Node4 -->
<g id="edge4" class="edge">
<title>Node0&#45;&gt;Node4</title>
<path fill="none" stroke="#191970" d="M210,-56.2455C210,-48.9382 210,-38.6944 210,-29.7046"/>
<polygon fill="#191970" stroke="#191970" points="213.5001,-29.6426 210,-19.6427 206.5001,-29.6427 213.5001,-29.6426"/>
</g>
<!-- Node5 -->
<g id="node6" class="node">
<title>Node5</title>
<polygon fill="none" stroke="#bfbfbf" points="253,-.5 253,-19.5 297,-19.5 297,-.5 253,-.5"/>
<text text-anchor="middle" x="275" y="-7.5" font-family="Helvetica,sans-Serif" font-size="10.00" fill="#000000">vector</text>
</g>
<!-- Node0&#45;&gt;Node5 -->
<g id="edge5" class="edge">
<title>Node0&#45;&gt;Node5</title>
<path fill="none" stroke="#191970" d="M221.3221,-56.2455C230.9223,-47.9746 244.8892,-35.9416 256.1695,-26.2232"/>
<polygon fill="#191970" stroke="#191970" points="258.516,-28.8214 263.8076,-19.6427 253.947,-23.5182 258.516,-28.8214"/>
</g>
<!-- Node6 -->
<g id="node7" class="node">
<title>Node6</title>
<polygon fill="none" stroke="#bfbfbf" points="315,-.5 315,-19.5 367,-19.5 367,-.5 315,-.5"/>
<text text-anchor="middle" x="341" y="-7.5" font-family="Helvetica,sans-Serif" font-size="10.00" fill="#000000">sstream</text>
</g>
<!-- Node0&#45;&gt;Node6 -->
<g id="edge6" class="edge">
<title>Node0&#45;&gt;Node6</title>
<path fill="none" stroke="#191970" d="M232.5197,-56.3733C253.7372,-47.3032 285.7276,-33.6279 309.4769,-23.4755"/>
<polygon fill="#191970" stroke="#191970" points="310.9548,-26.6502 318.7742,-19.5011 308.2033,-20.2136 310.9548,-26.6502"/>
</g>
<!-- Node7 -->
<g id="node8" class="node">
<title>Node7</title>
<polygon fill="none" stroke="#bfbfbf" points="385.5,-.5 385.5,-19.5 444.5,-19.5 444.5,-.5 385.5,-.5"/>
<text text-anchor="middle" x="415" y="-7.5" font-family="Helvetica,sans-Serif" font-size="10.00" fill="#000000">stdexcept</text>
</g>
<!-- Node0&#45;&gt;Node7 -->
<g id="edge7" class="edge">
<title>Node0&#45;&gt;Node7</title>
<path fill="none" stroke="#191970" d="M245.2408,-56.3733C281.3414,-46.5116 337.3714,-31.2059 375.0859,-20.9034"/>
<polygon fill="#191970" stroke="#191970" points="376.4816,-24.1504 385.2058,-18.1389 374.6369,-17.3978 376.4816,-24.1504"/>
</g>
</g>
</svg>
