<?xml version="1.0" encoding="UTF-8" standalone="no"?>
<!DOCTYPE svg PUBLIC "-//W3C//DTD SVG 1.1//EN"
 "http://www.w3.org/Graphics/SVG/1.1/DTD/svg11.dtd">
<!-- Generated by graphviz version 2.40.1 (20161225.0304)
 -->
<!-- Title: include/light_environment.h Pages: 1 -->
<svg width="280pt" height="140pt"
 viewBox="0.00 0.00 279.50 140.00" xmlns="http://www.w3.org/2000/svg" xmlns:xlink="http://www.w3.org/1999/xlink">
<g id="graph0" class="graph" transform="scale(1 1) rotate(0) translate(4 136)">
<title>include/light_environment.h</title>
<!-- Node3 -->
<g id="node1" class="node">
<title>Node3</title>
<polygon fill="#bfbfbf" stroke="#000000" points="68.5,-112.5 68.5,-131.5 203.5,-131.5 203.5,-112.5 68.5,-112.5"/>
<text text-anchor="middle" x="136" y="-119.5" font-family="Helvetica,sans-Serif" font-size="10.00" fill="#000000">include/light_environment.h</text>
</g>
<!-- Node4 -->
<g id="node2" class="node">
<title>Node4</title>
<g id="a_node2"><a xlink:href="light__environment_8cpp.html" target="_top" xlink:title="src/light_environment.cpp">
<polygon fill="none" stroke="#000000" points="0,-56.5 0,-75.5 128,-75.5 128,-56.5 0,-56.5"/>
<text text-anchor="middle" x="64" y="-63.5" font-family="Helvetica,sans-Serif" font-size="10.00" fill="#000000">src/light_environment.cpp</text>
</a>
</g>
</g>
<!-- Node3&#45;&gt;Node4 -->
<g id="edge1" class="edge">
<title>Node3&#45;&gt;Node4</title>
<path fill="none" stroke="#191970" d="M115.336,-105.928C102.7511,-96.1397 87.0908,-83.9595 76.3977,-75.6427"/>
<polygon fill="#191970" stroke="#191970" points="113.4162,-108.8688 123.4586,-112.2455 117.7138,-103.3434 113.4162,-108.8688"/>
</g>
<!-- Node5 -->
<g id="node3" class="node">
<title>Node5</title>
<g id="a_node3"><a xlink:href="pspm__interface_8h.html" target="_top" xlink:title="include/pspm_interface.h">
<polygon fill="none" stroke="#000000" points="146.5,-56.5 146.5,-75.5 271.5,-75.5 271.5,-56.5 146.5,-56.5"/>
<text text-anchor="middle" x="209" y="-63.5" font-family="Helvetica,sans-Serif" font-size="10.00" fill="#000000">include/pspm_interface.h</text>
</a>
</g>
</g>
<!-- Node3&#45;&gt;Node5 -->
<g id="edge2" class="edge">
<title>Node3&#45;&gt;Node5</title>
<path fill="none" stroke="#191970" d="M156.951,-105.928C169.7107,-96.1397 185.5885,-83.9595 196.4301,-75.6427"/>
<polygon fill="#191970" stroke="#191970" points="154.5196,-103.3819 148.7156,-112.2455 158.7803,-108.9359 154.5196,-103.3819"/>
</g>
<!-- Node6 -->
<g id="node4" class="node">
<title>Node6</title>
<g id="a_node4"><a xlink:href="pspm__interface_8cpp.html" target="_top" xlink:title="src/pspm_interface.cpp">
<polygon fill="none" stroke="#000000" points="149.5,-.5 149.5,-19.5 268.5,-19.5 268.5,-.5 149.5,-.5"/>
<text text-anchor="middle" x="209" y="-7.5" font-family="Helvetica,sans-Serif" font-size="10.00" fill="#000000">src/pspm_interface.cpp</text>
</a>
</g>
</g>
<!-- Node5&#45;&gt;Node6 -->
<g id="edge3" class="edge">
<title>Node5&#45;&gt;Node6</title>
<path fill="none" stroke="#191970" d="M209,-46.1575C209,-37.155 209,-26.9199 209,-19.6427"/>
<polygon fill="#191970" stroke="#191970" points="205.5001,-46.2455 209,-56.2455 212.5001,-46.2456 205.5001,-46.2455"/>
</g>
</g>
</svg>
