<?xml version="1.0" encoding="UTF-8" standalone="no"?>
<!DOCTYPE svg PUBLIC "-//W3C//DTD SVG 1.1//EN"
 "http://www.w3.org/Graphics/SVG/1.1/DTD/svg11.dtd">
<!-- Generated by graphviz version 2.40.1 (20161225.0304)
 -->
<!-- Title: src/light_environment.cpp Pages: 1 -->
<svg width="198pt" height="140pt"
 viewBox="0.00 0.00 198.12 140.00" xmlns="http://www.w3.org/2000/svg" xmlns:xlink="http://www.w3.org/1999/xlink">
<g id="graph0" class="graph" transform="scale(1 1) rotate(0) translate(4 136)">
<title>src/light_environment.cpp</title>
<!-- Node0 -->
<g id="node1" class="node">
<title>Node0</title>
<polygon fill="#bfbfbf" stroke="#000000" points="15.5184,-112.5 15.5184,-131.5 143.5184,-131.5 143.5184,-112.5 15.5184,-112.5"/>
<text text-anchor="middle" x="79.5184" y="-119.5" font-family="Helvetica,sans-Serif" font-size="10.00" fill="#000000">src/light_environment.cpp</text>
</g>
<!-- Node1 -->
<g id="node2" class="node">
<title>Node1</title>
<polygon fill="none" stroke="#bfbfbf" points="33.5184,-.5 33.5184,-19.5 87.5184,-19.5 87.5184,-.5 33.5184,-.5"/>
<text text-anchor="middle" x="60.5184" y="-7.5" font-family="Helvetica,sans-Serif" font-size="10.00" fill="#000000">iostream</text>
</g>
<!-- Node0&#45;&gt;Node1 -->
<g id="edge1" class="edge">
<title>Node0&#45;&gt;Node1</title>
<path fill="none" stroke="#191970" d="M49.9499,-112.3976C33.1076,-105.2338 13.439,-93.6009 3.5184,-76 -7.5055,-56.4418 13.3674,-37.3966 32.8833,-24.8326"/>
<polygon fill="#191970" stroke="#191970" points="34.8911,-27.7086 41.6351,-19.5374 31.2674,-21.7195 34.8911,-27.7086"/>
</g>
<!-- Node2 -->
<g id="node3" class="node">
<title>Node2</title>
<polygon fill="none" stroke="#bfbfbf" points="12.5184,-56.5 12.5184,-75.5 56.5184,-75.5 56.5184,-56.5 12.5184,-56.5"/>
<text text-anchor="middle" x="34.5184" y="-63.5" font-family="Helvetica,sans-Serif" font-size="10.00" fill="#000000">cmath</text>
</g>
<!-- Node0&#45;&gt;Node2 -->
<g id="edge2" class="edge">
<title>Node0&#45;&gt;Node2</title>
<path fill="none" stroke="#191970" d="M71.68,-112.2455C65.3563,-104.3761 56.296,-93.101 48.7048,-83.6542"/>
<polygon fill="#191970" stroke="#191970" points="51.2592,-81.2454 42.267,-75.6427 45.8026,-85.6302 51.2592,-81.2454"/>
</g>
<!-- Node3 -->
<g id="node4" class="node">
<title>Node3</title>
<polygon fill="none" stroke="#bfbfbf" points="142.5184,-.5 142.5184,-19.5 186.5184,-19.5 186.5184,-.5 142.5184,-.5"/>
<text text-anchor="middle" x="164.5184" y="-7.5" font-family="Helvetica,sans-Serif" font-size="10.00" fill="#000000">vector</text>
</g>
<!-- Node0&#45;&gt;Node3 -->
<g id="edge3" class="edge">
<title>Node0&#45;&gt;Node3</title>
<path fill="none" stroke="#191970" d="M130.9809,-112.4528C151.5574,-105.8386 173.2475,-94.7016 185.5184,-76 195.1503,-61.3204 186.9628,-41.915 178.1498,-27.9504"/>
<polygon fill="#191970" stroke="#191970" points="181.0004,-25.9187 172.4491,-19.6637 175.2333,-29.8862 181.0004,-25.9187"/>
</g>
<!-- Node4 -->
<g id="node5" class="node">
<title>Node4</title>
<g id="a_node5"><a xlink:href="light__environment_8h.html" target="_top" xlink:title="light_environment.h">
<polygon fill="none" stroke="#000000" points="75.0184,-56.5 75.0184,-75.5 176.0184,-75.5 176.0184,-56.5 75.0184,-56.5"/>
<text text-anchor="middle" x="125.5184" y="-63.5" font-family="Helvetica,sans-Serif" font-size="10.00" fill="#000000">light_environment.h</text>
</a>
</g>
</g>
<!-- Node0&#45;&gt;Node4 -->
<g id="edge4" class="edge">
<title>Node0&#45;&gt;Node4</title>
<path fill="none" stroke="#191970" d="M87.531,-112.2455C93.9951,-104.3761 103.2568,-93.101 111.0167,-83.6542"/>
<polygon fill="#191970" stroke="#191970" points="113.9547,-85.5916 117.5976,-75.6427 108.5456,-81.1484 113.9547,-85.5916"/>
</g>
<!-- Node4&#45;&gt;Node1 -->
<g id="edge5" class="edge">
<title>Node4&#45;&gt;Node1</title>
<path fill="none" stroke="#191970" d="M114.1962,-56.2455C104.5961,-47.9746 90.6292,-35.9416 79.3489,-26.2232"/>
<polygon fill="#191970" stroke="#191970" points="81.5714,-23.5182 71.7108,-19.6427 77.0024,-28.8214 81.5714,-23.5182"/>
</g>
<!-- Node4&#45;&gt;Node3 -->
<g id="edge6" class="edge">
<title>Node4&#45;&gt;Node3</title>
<path fill="none" stroke="#191970" d="M132.3117,-56.2455C137.7362,-48.4564 145.4845,-37.3308 152.0217,-27.9439"/>
<polygon fill="#191970" stroke="#191970" points="154.9601,-29.849 157.8029,-19.6427 149.2158,-25.8485 154.9601,-29.849"/>
</g>
</g>
</svg>
