<?xml version="1.0" encoding="UTF-8" standalone="no"?>
<!DOCTYPE svg PUBLIC "-//W3C//DTD SVG 1.1//EN"
 "http://www.w3.org/Graphics/SVG/1.1/DTD/svg11.dtd">
<!-- Generated by graphviz version 2.40.1 (20161225.0304)
 -->
<!-- Title: include/utils/moving_average.h Pages: 1 -->
<svg width="224pt" height="207pt"
 viewBox="0.00 0.00 224.00 207.00" xmlns="http://www.w3.org/2000/svg" xmlns:xlink="http://www.w3.org/1999/xlink">
<g id="graph0" class="graph" transform="scale(1 1) rotate(0) translate(4 203)">
<title>include/utils/moving_average.h</title>
<!-- Node5 -->
<g id="node1" class="node">
<title>Node5</title>
<polygon fill="#bfbfbf" stroke="#000000" points="43,-168.5 43,-198.5 146,-198.5 146,-168.5 43,-168.5"/>
<text text-anchor="start" x="51" y="-186.5" font-family="Helvetica,sans-Serif" font-size="10.00" fill="#000000">include/utils/moving</text>
<text text-anchor="middle" x="94.5" y="-175.5" font-family="Helvetica,sans-Serif" font-size="10.00" fill="#000000">_average.h</text>
</g>
<!-- Node6 -->
<g id="node2" class="node">
<title>Node6</title>
<g id="a_node2"><a xlink:href="plant_8h.html" target="_top" xlink:title="include/plant.h">
<polygon fill="none" stroke="#000000" points="54.5,-112.5 54.5,-131.5 134.5,-131.5 134.5,-112.5 54.5,-112.5"/>
<text text-anchor="middle" x="94.5" y="-119.5" font-family="Helvetica,sans-Serif" font-size="10.00" fill="#000000">include/plant.h</text>
</a>
</g>
</g>
<!-- Node5&#45;&gt;Node6 -->
<g id="edge1" class="edge">
<title>Node5&#45;&gt;Node6</title>
<path fill="none" stroke="#191970" d="M94.5,-158.2849C94.5,-148.9858 94.5,-138.9883 94.5,-131.8469"/>
<polygon fill="#191970" stroke="#191970" points="91.0001,-158.2977 94.5,-168.2977 98.0001,-158.2978 91.0001,-158.2977"/>
</g>
<!-- Node7 -->
<g id="node3" class="node">
<title>Node7</title>
<g id="a_node3"><a xlink:href="plant_8cpp.html" target="_top" xlink:title="src/plant.cpp">
<polygon fill="none" stroke="#000000" points="0,-56.5 0,-75.5 73,-75.5 73,-56.5 0,-56.5"/>
<text text-anchor="middle" x="36.5" y="-63.5" font-family="Helvetica,sans-Serif" font-size="10.00" fill="#000000">src/plant.cpp</text>
</a>
</g>
</g>
<!-- Node6&#45;&gt;Node7 -->
<g id="edge2" class="edge">
<title>Node6&#45;&gt;Node7</title>
<path fill="none" stroke="#191970" d="M76.9707,-105.0751C66.9917,-95.4402 54.8524,-83.7196 46.4871,-75.6427"/>
<polygon fill="#191970" stroke="#191970" points="74.772,-107.8175 84.3972,-112.2455 79.6342,-102.7817 74.772,-107.8175"/>
</g>
<!-- Node8 -->
<g id="node4" class="node">
<title>Node8</title>
<g id="a_node4"><a xlink:href="pspm__interface_8h.html" target="_top" xlink:title="include/pspm_interface.h">
<polygon fill="none" stroke="#000000" points="91,-56.5 91,-75.5 216,-75.5 216,-56.5 91,-56.5"/>
<text text-anchor="middle" x="153.5" y="-63.5" font-family="Helvetica,sans-Serif" font-size="10.00" fill="#000000">include/pspm_interface.h</text>
</a>
</g>
</g>
<!-- Node6&#45;&gt;Node8 -->
<g id="edge3" class="edge">
<title>Node6&#45;&gt;Node8</title>
<path fill="none" stroke="#191970" d="M112.0307,-105.3607C122.2377,-95.6727 134.7469,-83.7995 143.3408,-75.6427"/>
<polygon fill="#191970" stroke="#191970" points="109.6206,-102.8227 104.777,-112.2455 114.4396,-107.8998 109.6206,-102.8227"/>
</g>
<!-- Node9 -->
<g id="node5" class="node">
<title>Node9</title>
<g id="a_node5"><a xlink:href="pspm__interface_8cpp.html" target="_top" xlink:title="src/pspm_interface.cpp">
<polygon fill="none" stroke="#000000" points="94,-.5 94,-19.5 213,-19.5 213,-.5 94,-.5"/>
<text text-anchor="middle" x="153.5" y="-7.5" font-family="Helvetica,sans-Serif" font-size="10.00" fill="#000000">src/pspm_interface.cpp</text>
</a>
</g>
</g>
<!-- Node8&#45;&gt;Node9 -->
<g id="edge4" class="edge">
<title>Node8&#45;&gt;Node9</title>
<path fill="none" stroke="#191970" d="M153.5,-46.1575C153.5,-37.155 153.5,-26.9199 153.5,-19.6427"/>
<polygon fill="#191970" stroke="#191970" points="150.0001,-46.2455 153.5,-56.2455 157.0001,-46.2456 150.0001,-46.2455"/>
</g>
</g>
</svg>
