<?xml version="1.0" encoding="UTF-8" standalone="no"?>
<!DOCTYPE svg PUBLIC "-//W3C//DTD SVG 1.1//EN"
 "http://www.w3.org/Graphics/SVG/1.1/DTD/svg11.dtd">
<!-- Generated by graphviz version 2.40.1 (20161225.0304)
 -->
<!-- Title: src/plant_geometry.cpp Pages: 1 -->
<svg width="602pt" height="252pt"
 viewBox="0.00 0.00 601.50 252.00" xmlns="http://www.w3.org/2000/svg" xmlns:xlink="http://www.w3.org/1999/xlink">
<g id="graph0" class="graph" transform="scale(1 1) rotate(0) translate(4 248)">
<title>src/plant_geometry.cpp</title>
<!-- Node0 -->
<g id="node1" class="node">
<title>Node0</title>
<polygon fill="#bfbfbf" stroke="#000000" points="404.5,-224.5 404.5,-243.5 523.5,-243.5 523.5,-224.5 404.5,-224.5"/>
<text text-anchor="middle" x="464" y="-231.5" font-family="Helvetica,sans-Serif" font-size="10.00" fill="#000000">src/plant_geometry.cpp</text>
</g>
<!-- Node1 -->
<g id="node2" class="node">
<title>Node1</title>
<g id="a_node2"><a xlink:href="plant__geometry_8h.html" target="_top" xlink:title="plant_geometry.h">
<polygon fill="none" stroke="#000000" points="344,-168.5 344,-187.5 436,-187.5 436,-168.5 344,-168.5"/>
<text text-anchor="middle" x="390" y="-175.5" font-family="Helvetica,sans-Serif" font-size="10.00" fill="#000000">plant_geometry.h</text>
</a>
</g>
</g>
<!-- Node0&#45;&gt;Node1 -->
<g id="edge1" class="edge">
<title>Node0&#45;&gt;Node1</title>
<path fill="none" stroke="#191970" d="M451.1102,-224.2455C440.0746,-215.8943 423.9708,-203.7076 411.0647,-193.9408"/>
<polygon fill="#191970" stroke="#191970" points="412.8283,-190.8862 402.7421,-187.6427 408.6041,-196.4681 412.8283,-190.8862"/>
</g>
<!-- Node2 -->
<g id="node3" class="node">
<title>Node2</title>
<polygon fill="none" stroke="#bfbfbf" points="428,-56.5 428,-75.5 472,-75.5 472,-56.5 428,-56.5"/>
<text text-anchor="middle" x="450" y="-63.5" font-family="Helvetica,sans-Serif" font-size="10.00" fill="#000000">cmath</text>
</g>
<!-- Node0&#45;&gt;Node2 -->
<g id="edge18" class="edge">
<title>Node0&#45;&gt;Node2</title>
<path fill="none" stroke="#191970" d="M463.2072,-224.4862C460.9941,-197.9293 454.7138,-122.5651 451.6805,-86.1655"/>
<polygon fill="#191970" stroke="#191970" points="455.1374,-85.5027 450.819,-75.8279 448.1616,-86.084 455.1374,-85.5027"/>
</g>
<!-- Node3 -->
<g id="node4" class="node">
<title>Node3</title>
<g id="a_node4"><a xlink:href="plant__params_8h.html" target="_top" xlink:title="plant_params.h">
<polygon fill="none" stroke="#000000" points="314.5,-112.5 314.5,-131.5 397.5,-131.5 397.5,-112.5 314.5,-112.5"/>
<text text-anchor="middle" x="356" y="-119.5" font-family="Helvetica,sans-Serif" font-size="10.00" fill="#000000">plant_params.h</text>
</a>
</g>
</g>
<!-- Node0&#45;&gt;Node3 -->
<g id="edge17" class="edge">
<title>Node0&#45;&gt;Node3</title>
<path fill="none" stroke="#191970" d="M421.5849,-224.4524C388.0824,-215.9508 345.3104,-202.6229 335,-188 324.8825,-173.6507 333.1384,-154.1988 342.0997,-140.1333"/>
<polygon fill="#191970" stroke="#191970" points="345.0745,-141.9857 347.9044,-131.7758 339.3252,-137.9925 345.0745,-141.9857"/>
</g>
<!-- Node12 -->
<g id="node13" class="node">
<title>Node12</title>
<g id="a_node13"><a xlink:href="rk4_8h.html" target="_top" xlink:title="utils/rk4.h">
<polygon fill="none" stroke="#000000" points="492.5,-168.5 492.5,-187.5 551.5,-187.5 551.5,-168.5 492.5,-168.5"/>
<text text-anchor="middle" x="522" y="-175.5" font-family="Helvetica,sans-Serif" font-size="10.00" fill="#000000">utils/rk4.h</text>
</a>
</g>
</g>
<!-- Node0&#45;&gt;Node12 -->
<g id="edge14" class="edge">
<title>Node0&#45;&gt;Node12</title>
<path fill="none" stroke="#191970" d="M474.1028,-224.2455C482.5028,-216.1352 494.6494,-204.4075 504.6084,-194.7919"/>
<polygon fill="#191970" stroke="#191970" points="507.25,-197.1066 512.0129,-187.6427 502.3878,-192.0707 507.25,-197.1066"/>
</g>
<!-- Node13 -->
<g id="node14" class="node">
<title>Node13</title>
<g id="a_node14"><a xlink:href="incbeta_8h.html" target="_top" xlink:title="utils/incbeta.h">
<polygon fill="none" stroke="#000000" points="516.5,-112.5 516.5,-131.5 593.5,-131.5 593.5,-112.5 516.5,-112.5"/>
<text text-anchor="middle" x="555" y="-119.5" font-family="Helvetica,sans-Serif" font-size="10.00" fill="#000000">utils/incbeta.h</text>
</a>
</g>
</g>
<!-- Node0&#45;&gt;Node13 -->
<g id="edge15" class="edge">
<title>Node0&#45;&gt;Node13</title>
<path fill="none" stroke="#191970" d="M508.1748,-224.428C527.8983,-217.7169 549.2933,-206.508 561,-188 569.724,-174.2075 566.9385,-155.4371 562.7194,-141.4395"/>
<polygon fill="#191970" stroke="#191970" points="565.9681,-140.1251 559.3806,-131.8271 559.3556,-142.422 565.9681,-140.1251"/>
</g>
<!-- Node1&#45;&gt;Node2 -->
<g id="edge2" class="edge">
<title>Node1&#45;&gt;Node2</title>
<path fill="none" stroke="#191970" d="M395.1156,-168.4509C405.0786,-149.8533 427.2365,-108.4919 440.1448,-84.3964"/>
<polygon fill="#191970" stroke="#191970" points="443.2603,-85.9925 444.8974,-75.5249 437.0899,-82.6869 443.2603,-85.9925"/>
</g>
<!-- Node1&#45;&gt;Node3 -->
<g id="edge3" class="edge">
<title>Node1&#45;&gt;Node3</title>
<path fill="none" stroke="#191970" d="M384.0777,-168.2455C379.3973,-160.5367 372.7327,-149.5598 367.0711,-140.2348"/>
<polygon fill="#191970" stroke="#191970" points="370.0361,-138.3741 361.8545,-131.6427 364.0525,-142.007 370.0361,-138.3741"/>
</g>
<!-- Node3&#45;&gt;Node2 -->
<g id="edge12" class="edge">
<title>Node3&#45;&gt;Node2</title>
<path fill="none" stroke="#191970" d="M372.3736,-112.2455C386.9308,-103.5731 408.431,-90.7645 425.1152,-80.825"/>
<polygon fill="#191970" stroke="#191970" points="427.0144,-83.7676 433.8141,-75.6427 423.4317,-77.7539 427.0144,-83.7676"/>
</g>
<!-- Node4 -->
<g id="node5" class="node">
<title>Node4</title>
<g id="a_node5"><a xlink:href="initializer_8h.html" target="_top" xlink:title="utils/initializer.h">
<polygon fill="none" stroke="#000000" points="207,-56.5 207,-75.5 291,-75.5 291,-56.5 207,-56.5"/>
<text text-anchor="middle" x="249" y="-63.5" font-family="Helvetica,sans-Serif" font-size="10.00" fill="#000000">utils/initializer.h</text>
</a>
</g>
</g>
<!-- Node3&#45;&gt;Node4 -->
<g id="edge4" class="edge">
<title>Node3&#45;&gt;Node4</title>
<path fill="none" stroke="#191970" d="M337.362,-112.2455C320.5614,-103.4527 295.6366,-90.4079 276.5382,-80.4125"/>
<polygon fill="#191970" stroke="#191970" points="277.9073,-77.1787 267.4244,-75.6427 274.6614,-83.3807 277.9073,-77.1787"/>
</g>
<!-- Node6 -->
<g id="node7" class="node">
<title>Node6</title>
<polygon fill="none" stroke="#bfbfbf" points="403.5,-.5 403.5,-19.5 444.5,-19.5 444.5,-.5 403.5,-.5"/>
<text text-anchor="middle" x="424" y="-7.5" font-family="Helvetica,sans-Serif" font-size="10.00" fill="#000000">string</text>
</g>
<!-- Node3&#45;&gt;Node6 -->
<g id="edge13" class="edge">
<title>Node3&#45;&gt;Node6</title>
<path fill="none" stroke="#191970" d="M361.7976,-112.4509C373.1392,-93.7707 398.4249,-52.1238 413.0252,-28.0761"/>
<polygon fill="#191970" stroke="#191970" points="416.019,-29.8892 418.217,-19.5249 410.0354,-26.2563 416.019,-29.8892"/>
</g>
<!-- Node5 -->
<g id="node6" class="node">
<title>Node5</title>
<polygon fill="none" stroke="#bfbfbf" points="0,-.5 0,-19.5 54,-19.5 54,-.5 0,-.5"/>
<text text-anchor="middle" x="27" y="-7.5" font-family="Helvetica,sans-Serif" font-size="10.00" fill="#000000">iostream</text>
</g>
<!-- Node4&#45;&gt;Node5 -->
<g id="edge5" class="edge">
<title>Node4&#45;&gt;Node5</title>
<path fill="none" stroke="#191970" d="M209.0051,-56.4575C173.3446,-47.8712 119.485,-34.7127 63.7864,-20.1576"/>
<polygon fill="#191970" stroke="#191970" points="64.6652,-16.7698 54.1044,-17.6181 62.8892,-23.5407 64.6652,-16.7698"/>
</g>
<!-- Node4&#45;&gt;Node6 -->
<g id="edge6" class="edge">
<title>Node4&#45;&gt;Node6</title>
<path fill="none" stroke="#191970" d="M279.5923,-56.4368C307.016,-47.8329 348.5846,-34.7145 393.683,-20.0717"/>
<polygon fill="#191970" stroke="#191970" points="394.9294,-23.3469 403.3562,-16.9251 392.764,-16.6902 394.9294,-23.3469"/>
</g>
<!-- Node7 -->
<g id="node8" class="node">
<title>Node7</title>
<polygon fill="none" stroke="#bfbfbf" points="72.5,-.5 72.5,-19.5 107.5,-19.5 107.5,-.5 72.5,-.5"/>
<text text-anchor="middle" x="90" y="-7.5" font-family="Helvetica,sans-Serif" font-size="10.00" fill="#000000">map</text>
</g>
<!-- Node4&#45;&gt;Node7 -->
<g id="edge7" class="edge">
<title>Node4&#45;&gt;Node7</title>
<path fill="none" stroke="#191970" d="M221.1328,-56.4641C196.2605,-47.9146 158.6222,-34.8831 117.168,-20.0154"/>
<polygon fill="#191970" stroke="#191970" points="118.2953,-16.7014 107.7008,-16.6116 115.927,-23.2886 118.2953,-16.7014"/>
</g>
<!-- Node8 -->
<g id="node9" class="node">
<title>Node8</title>
<polygon fill="none" stroke="#bfbfbf" points="126,-.5 126,-19.5 176,-19.5 176,-.5 126,-.5"/>
<text text-anchor="middle" x="151" y="-7.5" font-family="Helvetica,sans-Serif" font-size="10.00" fill="#000000">fstream</text>
</g>
<!-- Node4&#45;&gt;Node8 -->
<g id="edge8" class="edge">
<title>Node4&#45;&gt;Node8</title>
<path fill="none" stroke="#191970" d="M231.9297,-56.2455C216.753,-47.5731 194.3379,-34.7645 176.9437,-24.825"/>
<polygon fill="#191970" stroke="#191970" points="178.2936,-21.5653 167.8747,-19.6427 174.8206,-27.643 178.2936,-21.5653"/>
</g>
<!-- Node9 -->
<g id="node10" class="node">
<title>Node9</title>
<polygon fill="none" stroke="#bfbfbf" points="194,-.5 194,-19.5 238,-19.5 238,-.5 194,-.5"/>
<text text-anchor="middle" x="216" y="-7.5" font-family="Helvetica,sans-Serif" font-size="10.00" fill="#000000">vector</text>
</g>
<!-- Node4&#45;&gt;Node9 -->
<g id="edge9" class="edge">
<title>Node4&#45;&gt;Node9</title>
<path fill="none" stroke="#191970" d="M243.2518,-56.2455C238.7565,-48.617 232.3752,-37.7881 226.9175,-28.5267"/>
<polygon fill="#191970" stroke="#191970" points="229.7747,-26.4811 221.6823,-19.6427 223.7439,-30.035 229.7747,-26.4811"/>
</g>
<!-- Node10 -->
<g id="node11" class="node">
<title>Node10</title>
<polygon fill="none" stroke="#bfbfbf" points="256,-.5 256,-19.5 308,-19.5 308,-.5 256,-.5"/>
<text text-anchor="middle" x="282" y="-7.5" font-family="Helvetica,sans-Serif" font-size="10.00" fill="#000000">sstream</text>
</g>
<!-- Node4&#45;&gt;Node10 -->
<g id="edge10" class="edge">
<title>Node4&#45;&gt;Node10</title>
<path fill="none" stroke="#191970" d="M254.7482,-56.2455C259.2435,-48.617 265.6248,-37.7881 271.0825,-28.5267"/>
<polygon fill="#191970" stroke="#191970" points="274.2561,-30.035 276.3177,-19.6427 268.2253,-26.4811 274.2561,-30.035"/>
</g>
<!-- Node11 -->
<g id="node12" class="node">
<title>Node11</title>
<polygon fill="none" stroke="#bfbfbf" points="326.5,-.5 326.5,-19.5 385.5,-19.5 385.5,-.5 326.5,-.5"/>
<text text-anchor="middle" x="356" y="-7.5" font-family="Helvetica,sans-Serif" font-size="10.00" fill="#000000">stdexcept</text>
</g>
<!-- Node4&#45;&gt;Node11 -->
<g id="edge11" class="edge">
<title>Node4&#45;&gt;Node11</title>
<path fill="none" stroke="#191970" d="M267.638,-56.2455C284.4386,-47.4527 309.3634,-34.4079 328.4618,-24.4125"/>
<polygon fill="#191970" stroke="#191970" points="330.3386,-27.3807 337.5756,-19.6427 327.0927,-21.1787 330.3386,-27.3807"/>
</g>
<!-- Node13&#45;&gt;Node2 -->
<g id="edge16" class="edge">
<title>Node13&#45;&gt;Node2</title>
<path fill="none" stroke="#191970" d="M536.7104,-112.2455C520.2238,-103.4527 495.7648,-90.4079 477.0235,-80.4125"/>
<polygon fill="#191970" stroke="#191970" points="478.5506,-77.2604 468.08,-75.6427 475.2565,-83.4368 478.5506,-77.2604"/>
</g>
</g>
</svg>
