<?xml version="1.0" encoding="UTF-8" standalone="no"?>
<!DOCTYPE svg PUBLIC "-//W3C//DTD SVG 1.1//EN"
 "http://www.w3.org/Graphics/SVG/1.1/DTD/svg11.dtd">
<!-- Generated by graphviz version 2.40.1 (20161225.0304)
 -->
<!-- Title: include/plant.h Pages: 1 -->
<svg width="611pt" height="308pt"
 viewBox="0.00 0.00 610.50 308.00" xmlns="http://www.w3.org/2000/svg" xmlns:xlink="http://www.w3.org/1999/xlink">
<g id="graph0" class="graph" transform="scale(1 1) rotate(0) translate(4 304)">
<title>include/plant.h</title>
<!-- Node0 -->
<g id="node1" class="node">
<title>Node0</title>
<polygon fill="#bfbfbf" stroke="#000000" points="286.5,-280.5 286.5,-299.5 366.5,-299.5 366.5,-280.5 286.5,-280.5"/>
<text text-anchor="middle" x="326.5" y="-287.5" font-family="Helvetica,sans-Serif" font-size="10.00" fill="#000000">include/plant.h</text>
</g>
<!-- Node1 -->
<g id="node2" class="node">
<title>Node1</title>
<g id="a_node2"><a xlink:href="plant__params_8h.html" target="_top" xlink:title="plant_params.h">
<polygon fill="none" stroke="#000000" points="141,-112.5 141,-131.5 224,-131.5 224,-112.5 141,-112.5"/>
<text text-anchor="middle" x="182.5" y="-119.5" font-family="Helvetica,sans-Serif" font-size="10.00" fill="#000000">plant_params.h</text>
</a>
</g>
</g>
<!-- Node0&#45;&gt;Node1 -->
<g id="edge1" class="edge">
<title>Node0&#45;&gt;Node1</title>
<path fill="none" stroke="#191970" d="M286.0899,-283.1563C237.6557,-272.4733 159.0765,-246.6167 127.5,-188 117.0576,-168.6154 136.9469,-149.6406 155.6589,-137.0487"/>
<polygon fill="#191970" stroke="#191970" points="157.7487,-139.8686 164.3355,-131.5702 154.0114,-133.9497 157.7487,-139.8686"/>
</g>
<!-- Node11 -->
<g id="node12" class="node">
<title>Node11</title>
<g id="a_node12"><a xlink:href="plant__geometry_8h.html" target="_top" xlink:title="plant_geometry.h">
<polygon fill="none" stroke="#000000" points="136.5,-168.5 136.5,-187.5 228.5,-187.5 228.5,-168.5 136.5,-168.5"/>
<text text-anchor="middle" x="182.5" y="-175.5" font-family="Helvetica,sans-Serif" font-size="10.00" fill="#000000">plant_geometry.h</text>
</a>
</g>
</g>
<!-- Node0&#45;&gt;Node11 -->
<g id="edge12" class="edge">
<title>Node0&#45;&gt;Node11</title>
<path fill="none" stroke="#191970" d="M300.4565,-280.3414C281.2558,-272.4249 255.1659,-259.9396 235.5,-244 218.6429,-230.337 203.5996,-210.4784 193.8858,-196.1166"/>
<polygon fill="#191970" stroke="#191970" points="196.7117,-194.0431 188.3065,-187.593 190.8548,-197.8768 196.7117,-194.0431"/>
</g>
<!-- Node12 -->
<g id="node13" class="node">
<title>Node12</title>
<g id="a_node13"><a xlink:href="assimilation_8h.html" target="_top" xlink:title="assimilation.h">
<polygon fill="none" stroke="#000000" points="245,-224.5 245,-243.5 322,-243.5 322,-224.5 245,-224.5"/>
<text text-anchor="middle" x="283.5" y="-231.5" font-family="Helvetica,sans-Serif" font-size="10.00" fill="#000000">assimilation.h</text>
</a>
</g>
</g>
<!-- Node0&#45;&gt;Node12 -->
<g id="edge15" class="edge">
<title>Node0&#45;&gt;Node12</title>
<path fill="none" stroke="#191970" d="M319.01,-280.2455C312.9674,-272.3761 304.3097,-261.101 297.0559,-251.6542"/>
<polygon fill="#191970" stroke="#191970" points="299.7705,-249.4426 290.9042,-243.6427 294.2185,-253.7058 299.7705,-249.4426"/>
</g>
<!-- Node15 -->
<g id="node16" class="node">
<title>Node15</title>
<g id="a_node16"><a xlink:href="rk4_8h.html" target="_top" xlink:title="utils/rk4.h">
<polygon fill="none" stroke="#000000" points="340,-224.5 340,-243.5 399,-243.5 399,-224.5 340,-224.5"/>
<text text-anchor="middle" x="369.5" y="-231.5" font-family="Helvetica,sans-Serif" font-size="10.00" fill="#000000">utils/rk4.h</text>
</a>
</g>
</g>
<!-- Node0&#45;&gt;Node15 -->
<g id="edge20" class="edge">
<title>Node0&#45;&gt;Node15</title>
<path fill="none" stroke="#191970" d="M333.99,-280.2455C340.0326,-272.3761 348.6903,-261.101 355.9441,-251.6542"/>
<polygon fill="#191970" stroke="#191970" points="358.7815,-253.7058 362.0958,-243.6427 353.2295,-249.4426 358.7815,-253.7058"/>
</g>
<!-- Node16 -->
<g id="node17" class="node">
<title>Node16</title>
<g id="a_node17"><a xlink:href="moving__average_8h.html" target="_top" xlink:title="utils/moving_average.h">
<polygon fill="none" stroke="#000000" points="402,-112.5 402,-131.5 519,-131.5 519,-112.5 402,-112.5"/>
<text text-anchor="middle" x="460.5" y="-119.5" font-family="Helvetica,sans-Serif" font-size="10.00" fill="#000000">utils/moving_average.h</text>
</a>
</g>
</g>
<!-- Node0&#45;&gt;Node16 -->
<g id="edge21" class="edge">
<title>Node0&#45;&gt;Node16</title>
<path fill="none" stroke="#191970" d="M355.773,-280.3994C392.2148,-266.6083 452.4663,-237.2719 475.5,-188 482.4792,-173.0707 477.3091,-154.6901 471.2071,-141.1208"/>
<polygon fill="#191970" stroke="#191970" points="474.1547,-139.1906 466.5449,-131.8189 467.8967,-142.3271 474.1547,-139.1906"/>
</g>
<!-- Node19 -->
<g id="node20" class="node">
<title>Node19</title>
<g id="a_node20"><a xlink:href="plant_8tpp.html" target="_top" xlink:title="../src/plant.tpp">
<polygon fill="none" stroke="#000000" points="522.5,-224.5 522.5,-243.5 602.5,-243.5 602.5,-224.5 522.5,-224.5"/>
<text text-anchor="middle" x="562.5" y="-231.5" font-family="Helvetica,sans-Serif" font-size="10.00" fill="#000000">../src/plant.tpp</text>
</a>
</g>
</g>
<!-- Node0&#45;&gt;Node19 -->
<g id="edge26" class="edge">
<title>Node0&#45;&gt;Node19</title>
<path fill="none" stroke="#191970" d="M366.5342,-280.5004C406.7955,-270.9468 468.9753,-256.1923 512.4658,-245.8725"/>
<polygon fill="#191970" stroke="#191970" points="513.3477,-249.2605 522.2694,-243.5462 511.7315,-242.4496 513.3477,-249.2605"/>
</g>
<!-- Node2 -->
<g id="node3" class="node">
<title>Node2</title>
<g id="a_node3"><a xlink:href="initializer_8h.html" target="_top" xlink:title="utils/initializer.h">
<polygon fill="none" stroke="#000000" points="140.5,-56.5 140.5,-75.5 224.5,-75.5 224.5,-56.5 140.5,-56.5"/>
<text text-anchor="middle" x="182.5" y="-63.5" font-family="Helvetica,sans-Serif" font-size="10.00" fill="#000000">utils/initializer.h</text>
</a>
</g>
</g>
<!-- Node1&#45;&gt;Node2 -->
<g id="edge2" class="edge">
<title>Node1&#45;&gt;Node2</title>
<path fill="none" stroke="#191970" d="M182.5,-112.2455C182.5,-104.9382 182.5,-94.6944 182.5,-85.7046"/>
<polygon fill="#191970" stroke="#191970" points="186.0001,-85.6426 182.5,-75.6427 179.0001,-85.6427 186.0001,-85.6426"/>
</g>
<!-- Node4 -->
<g id="node5" class="node">
<title>Node4</title>
<polygon fill="none" stroke="#bfbfbf" points="0,-.5 0,-19.5 41,-19.5 41,-.5 0,-.5"/>
<text text-anchor="middle" x="20.5" y="-7.5" font-family="Helvetica,sans-Serif" font-size="10.00" fill="#000000">string</text>
</g>
<!-- Node1&#45;&gt;Node4 -->
<g id="edge11" class="edge">
<title>Node1&#45;&gt;Node4</title>
<path fill="none" stroke="#191970" d="M168.688,-112.4509C140.5923,-93.0268 76.5785,-48.7703 42.6152,-25.2895"/>
<polygon fill="#191970" stroke="#191970" points="44.4931,-22.3328 34.2771,-19.5249 40.5123,-28.0907 44.4931,-22.3328"/>
</g>
<!-- Node10 -->
<g id="node11" class="node">
<title>Node10</title>
<polygon fill="none" stroke="#bfbfbf" points="242.5,-56.5 242.5,-75.5 286.5,-75.5 286.5,-56.5 242.5,-56.5"/>
<text text-anchor="middle" x="264.5" y="-63.5" font-family="Helvetica,sans-Serif" font-size="10.00" fill="#000000">cmath</text>
</g>
<!-- Node1&#45;&gt;Node10 -->
<g id="edge10" class="edge">
<title>Node1&#45;&gt;Node10</title>
<path fill="none" stroke="#191970" d="M196.7833,-112.2455C209.247,-103.7337 227.5451,-91.2375 241.9792,-81.3801"/>
<polygon fill="#191970" stroke="#191970" points="244.0962,-84.1726 250.3804,-75.6427 240.1485,-78.392 244.0962,-84.1726"/>
</g>
<!-- Node3 -->
<g id="node4" class="node">
<title>Node3</title>
<polygon fill="none" stroke="#bfbfbf" points="390.5,-.5 390.5,-19.5 444.5,-19.5 444.5,-.5 390.5,-.5"/>
<text text-anchor="middle" x="417.5" y="-7.5" font-family="Helvetica,sans-Serif" font-size="10.00" fill="#000000">iostream</text>
</g>
<!-- Node2&#45;&gt;Node3 -->
<g id="edge3" class="edge">
<title>Node2&#45;&gt;Node3</title>
<path fill="none" stroke="#191970" d="M224.5575,-56.8393C262.7947,-48.3853 321.0033,-35.2047 380.4675,-20.1873"/>
<polygon fill="#191970" stroke="#191970" points="381.5765,-23.5168 390.4071,-17.6626 379.8532,-16.7322 381.5765,-23.5168"/>
</g>
<!-- Node2&#45;&gt;Node4 -->
<g id="edge4" class="edge">
<title>Node2&#45;&gt;Node4</title>
<path fill="none" stroke="#191970" d="M154.6512,-56.3733C125.7165,-46.3711 80.5808,-30.7687 50.7771,-20.4662"/>
<polygon fill="#191970" stroke="#191970" points="51.8979,-17.1504 41.3031,-17.1912 49.6109,-23.7663 51.8979,-17.1504"/>
</g>
<!-- Node5 -->
<g id="node6" class="node">
<title>Node5</title>
<polygon fill="none" stroke="#bfbfbf" points="337,-.5 337,-19.5 372,-19.5 372,-.5 337,-.5"/>
<text text-anchor="middle" x="354.5" y="-7.5" font-family="Helvetica,sans-Serif" font-size="10.00" fill="#000000">map</text>
</g>
<!-- Node2&#45;&gt;Node5 -->
<g id="edge5" class="edge">
<title>Node2&#45;&gt;Node5</title>
<path fill="none" stroke="#191970" d="M214.8745,-56.4286C242.5553,-48.1064 283.6383,-35.4293 327.287,-20.2962"/>
<polygon fill="#191970" stroke="#191970" points="328.6465,-23.5288 336.9324,-16.9261 326.3375,-16.9205 328.6465,-23.5288"/>
</g>
<!-- Node6 -->
<g id="node7" class="node">
<title>Node6</title>
<polygon fill="none" stroke="#bfbfbf" points="59.5,-.5 59.5,-19.5 109.5,-19.5 109.5,-.5 59.5,-.5"/>
<text text-anchor="middle" x="84.5" y="-7.5" font-family="Helvetica,sans-Serif" font-size="10.00" fill="#000000">fstream</text>
</g>
<!-- Node2&#45;&gt;Node6 -->
<g id="edge6" class="edge">
<title>Node2&#45;&gt;Node6</title>
<path fill="none" stroke="#191970" d="M165.4297,-56.2455C150.253,-47.5731 127.8379,-34.7645 110.4437,-24.825"/>
<polygon fill="#191970" stroke="#191970" points="111.7936,-21.5653 101.3747,-19.6427 108.3206,-27.643 111.7936,-21.5653"/>
</g>
<!-- Node7 -->
<g id="node8" class="node">
<title>Node7</title>
<polygon fill="none" stroke="#bfbfbf" points="127.5,-.5 127.5,-19.5 171.5,-19.5 171.5,-.5 127.5,-.5"/>
<text text-anchor="middle" x="149.5" y="-7.5" font-family="Helvetica,sans-Serif" font-size="10.00" fill="#000000">vector</text>
</g>
<!-- Node2&#45;&gt;Node7 -->
<g id="edge7" class="edge">
<title>Node2&#45;&gt;Node7</title>
<path fill="none" stroke="#191970" d="M176.7518,-56.2455C172.2565,-48.617 165.8752,-37.7881 160.4175,-28.5267"/>
<polygon fill="#191970" stroke="#191970" points="163.2747,-26.4811 155.1823,-19.6427 157.2439,-30.035 163.2747,-26.4811"/>
</g>
<!-- Node8 -->
<g id="node9" class="node">
<title>Node8</title>
<polygon fill="none" stroke="#bfbfbf" points="189.5,-.5 189.5,-19.5 241.5,-19.5 241.5,-.5 189.5,-.5"/>
<text text-anchor="middle" x="215.5" y="-7.5" font-family="Helvetica,sans-Serif" font-size="10.00" fill="#000000">sstream</text>
</g>
<!-- Node2&#45;&gt;Node8 -->
<g id="edge8" class="edge">
<title>Node2&#45;&gt;Node8</title>
<path fill="none" stroke="#191970" d="M188.2482,-56.2455C192.7435,-48.617 199.1248,-37.7881 204.5825,-28.5267"/>
<polygon fill="#191970" stroke="#191970" points="207.7561,-30.035 209.8177,-19.6427 201.7253,-26.4811 207.7561,-30.035"/>
</g>
<!-- Node9 -->
<g id="node10" class="node">
<title>Node9</title>
<polygon fill="none" stroke="#bfbfbf" points="260,-.5 260,-19.5 319,-19.5 319,-.5 260,-.5"/>
<text text-anchor="middle" x="289.5" y="-7.5" font-family="Helvetica,sans-Serif" font-size="10.00" fill="#000000">stdexcept</text>
</g>
<!-- Node2&#45;&gt;Node9 -->
<g id="edge9" class="edge">
<title>Node2&#45;&gt;Node9</title>
<path fill="none" stroke="#191970" d="M201.138,-56.2455C217.9386,-47.4527 242.8634,-34.4079 261.9618,-24.4125"/>
<polygon fill="#191970" stroke="#191970" points="263.8386,-27.3807 271.0756,-19.6427 260.5927,-21.1787 263.8386,-27.3807"/>
</g>
<!-- Node11&#45;&gt;Node1 -->
<g id="edge14" class="edge">
<title>Node11&#45;&gt;Node1</title>
<path fill="none" stroke="#191970" d="M182.5,-168.2455C182.5,-160.9382 182.5,-150.6944 182.5,-141.7046"/>
<polygon fill="#191970" stroke="#191970" points="186.0001,-141.6426 182.5,-131.6427 179.0001,-141.6427 186.0001,-141.6426"/>
</g>
<!-- Node11&#45;&gt;Node10 -->
<g id="edge13" class="edge">
<title>Node11&#45;&gt;Node10</title>
<path fill="none" stroke="#191970" d="M195.689,-168.1747C206.5926,-159.5518 221.9445,-146.1994 232.5,-132 243.276,-117.504 251.9345,-98.8097 257.5139,-85.0198"/>
<polygon fill="#191970" stroke="#191970" points="260.8214,-86.1706 261.1643,-75.5813 254.2927,-83.6455 260.8214,-86.1706"/>
</g>
<!-- Node12&#45;&gt;Node1 -->
<g id="edge17" class="edge">
<title>Node12&#45;&gt;Node1</title>
<path fill="none" stroke="#191970" d="M277.9673,-224.4586C269.9709,-211.0807 254.2906,-186.3341 237.5,-168 227.4166,-156.9897 214.7091,-146.1993 204.0496,-137.8394"/>
<polygon fill="#191970" stroke="#191970" points="206.0969,-134.9988 196.0292,-131.6983 201.8413,-140.5567 206.0969,-134.9988"/>
</g>
<!-- Node12&#45;&gt;Node11 -->
<g id="edge18" class="edge">
<title>Node12&#45;&gt;Node11</title>
<path fill="none" stroke="#191970" d="M265.9071,-224.2455C250.121,-215.4928 226.7361,-202.527 208.7413,-192.5496"/>
<polygon fill="#191970" stroke="#191970" points="210.3341,-189.4308 199.8913,-187.6427 206.9397,-195.5528 210.3341,-189.4308"/>
</g>
<!-- Node13 -->
<g id="node14" class="node">
<title>Node13</title>
<polygon fill="none" stroke="#bfbfbf" points="284.5,-168.5 284.5,-187.5 338.5,-187.5 338.5,-168.5 284.5,-168.5"/>
<text text-anchor="middle" x="311.5" y="-175.5" font-family="Helvetica,sans-Serif" font-size="10.00" fill="#000000">phydro.h</text>
</g>
<!-- Node12&#45;&gt;Node13 -->
<g id="edge16" class="edge">
<title>Node12&#45;&gt;Node13</title>
<path fill="none" stroke="#191970" d="M288.3772,-224.2455C292.1513,-216.6973 297.4921,-206.0158 302.0901,-196.8197"/>
<polygon fill="#191970" stroke="#191970" points="305.337,-198.1522 306.6787,-187.6427 299.076,-195.0217 305.337,-198.1522"/>
</g>
<!-- Node14 -->
<g id="node15" class="node">
<title>Node14</title>
<g id="a_node15"><a xlink:href="assimilation_8tpp.html" target="_top" xlink:title="../src/assimilation.tpp">
<polygon fill="none" stroke="#000000" points="356.5,-168.5 356.5,-187.5 466.5,-187.5 466.5,-168.5 356.5,-168.5"/>
<text text-anchor="middle" x="411.5" y="-175.5" font-family="Helvetica,sans-Serif" font-size="10.00" fill="#000000">../src/assimilation.tpp</text>
</a>
</g>
</g>
<!-- Node12&#45;&gt;Node14 -->
<g id="edge19" class="edge">
<title>Node12&#45;&gt;Node14</title>
<path fill="none" stroke="#191970" d="M305.504,-224.3733C326.1435,-215.3435 357.2158,-201.7494 380.3889,-191.6111"/>
<polygon fill="#191970" stroke="#191970" points="382.0245,-194.7159 389.7831,-187.5011 379.2187,-188.3028 382.0245,-194.7159"/>
</g>
<!-- Node16&#45;&gt;Node3 -->
<g id="edge22" class="edge">
<title>Node16&#45;&gt;Node3</title>
<path fill="none" stroke="#191970" d="M455.072,-112.3503C450.0664,-103.1915 442.6528,-88.9407 437.5,-76 431.4098,-60.7052 426.0921,-42.8003 422.474,-29.5014"/>
<polygon fill="#191970" stroke="#191970" points="425.7897,-28.3486 419.8549,-19.5721 419.0212,-30.1341 425.7897,-28.3486"/>
</g>
<!-- Node16&#45;&gt;Node10 -->
<g id="edge24" class="edge">
<title>Node16&#45;&gt;Node10</title>
<path fill="none" stroke="#191970" d="M426.8064,-112.3733C390.2465,-101.9276 332.3086,-85.3739 296.4472,-75.1278"/>
<polygon fill="#191970" stroke="#191970" points="297.0913,-71.6718 286.5145,-72.2899 295.1682,-78.4025 297.0913,-71.6718"/>
</g>
<!-- Node17 -->
<g id="node18" class="node">
<title>Node17</title>
<polygon fill="none" stroke="#bfbfbf" points="446,-56.5 446,-75.5 475,-75.5 475,-56.5 446,-56.5"/>
<text text-anchor="middle" x="460.5" y="-63.5" font-family="Helvetica,sans-Serif" font-size="10.00" fill="#000000">list</text>
</g>
<!-- Node16&#45;&gt;Node17 -->
<g id="edge23" class="edge">
<title>Node16&#45;&gt;Node17</title>
<path fill="none" stroke="#191970" d="M460.5,-112.2455C460.5,-104.9382 460.5,-94.6944 460.5,-85.7046"/>
<polygon fill="#191970" stroke="#191970" points="464.0001,-85.6426 460.5,-75.6427 457.0001,-85.6427 464.0001,-85.6426"/>
</g>
<!-- Node18 -->
<g id="node19" class="node">
<title>Node18</title>
<polygon fill="none" stroke="#bfbfbf" points="493,-56.5 493,-75.5 542,-75.5 542,-56.5 493,-56.5"/>
<text text-anchor="middle" x="517.5" y="-63.5" font-family="Helvetica,sans-Serif" font-size="10.00" fill="#000000">cassert</text>
</g>
<!-- Node16&#45;&gt;Node18 -->
<g id="edge25" class="edge">
<title>Node16&#45;&gt;Node18</title>
<path fill="none" stroke="#191970" d="M470.4286,-112.2455C478.6838,-104.1352 490.6209,-92.4075 500.4082,-82.7919"/>
<polygon fill="#191970" stroke="#191970" points="503.0046,-85.1476 507.6851,-75.6427 498.0989,-80.1542 503.0046,-85.1476"/>
</g>
</g>
</svg>
