<?xml version="1.0" encoding="UTF-8" standalone="no"?>
<!DOCTYPE svg PUBLIC "-//W3C//DTD SVG 1.1//EN"
 "http://www.w3.org/Graphics/SVG/1.1/DTD/svg11.dtd">
<!-- Generated by graphviz version 2.40.1 (20161225.0304)
 -->
<!-- Title: include/plant_geometry.h Pages: 1 -->
<svg width="404pt" height="252pt"
 viewBox="0.00 0.00 404.00 252.00" xmlns="http://www.w3.org/2000/svg" xmlns:xlink="http://www.w3.org/1999/xlink">
<g id="graph0" class="graph" transform="scale(1 1) rotate(0) translate(4 248)">
<title>include/plant_geometry.h</title>
<!-- Node11 -->
<g id="node1" class="node">
<title>Node11</title>
<polygon fill="#bfbfbf" stroke="#000000" points="130,-224.5 130,-243.5 255,-243.5 255,-224.5 130,-224.5"/>
<text text-anchor="middle" x="192.5" y="-231.5" font-family="Helvetica,sans-Serif" font-size="10.00" fill="#000000">include/plant_geometry.h</text>
</g>
<!-- Node12 -->
<g id="node2" class="node">
<title>Node12</title>
<g id="a_node2"><a xlink:href="plant__geometry_8cpp.html" target="_top" xlink:title="src/plant_geometry.cpp">
<polygon fill="none" stroke="#000000" points="0,-168.5 0,-187.5 119,-187.5 119,-168.5 0,-168.5"/>
<text text-anchor="middle" x="59.5" y="-175.5" font-family="Helvetica,sans-Serif" font-size="10.00" fill="#000000">src/plant_geometry.cpp</text>
</a>
</g>
</g>
<!-- Node11&#45;&gt;Node12 -->
<g id="edge1" class="edge">
<title>Node11&#45;&gt;Node12</title>
<path fill="none" stroke="#191970" d="M160.1603,-220.3833C135.9715,-210.1985 103.505,-196.5284 82.0652,-187.5011"/>
<polygon fill="#191970" stroke="#191970" points="159.0619,-223.7184 169.6365,-224.3733 161.7783,-217.2669 159.0619,-223.7184"/>
</g>
<!-- Node13 -->
<g id="node3" class="node">
<title>Node13</title>
<g id="a_node3"><a xlink:href="assimilation_8h.html" target="_top" xlink:title="include/assimilation.h">
<polygon fill="none" stroke="#000000" points="137.5,-168.5 137.5,-187.5 247.5,-187.5 247.5,-168.5 137.5,-168.5"/>
<text text-anchor="middle" x="192.5" y="-175.5" font-family="Helvetica,sans-Serif" font-size="10.00" fill="#000000">include/assimilation.h</text>
</a>
</g>
</g>
<!-- Node11&#45;&gt;Node13 -->
<g id="edge2" class="edge">
<title>Node11&#45;&gt;Node13</title>
<path fill="none" stroke="#191970" d="M192.5,-214.1575C192.5,-205.155 192.5,-194.9199 192.5,-187.6427"/>
<polygon fill="#191970" stroke="#191970" points="189.0001,-214.2455 192.5,-224.2455 196.0001,-214.2456 189.0001,-214.2455"/>
</g>
<!-- Node15 -->
<g id="node5" class="node">
<title>Node15</title>
<g id="a_node5"><a xlink:href="plant_8h.html" target="_top" xlink:title="include/plant.h">
<polygon fill="none" stroke="#000000" points="235.5,-112.5 235.5,-131.5 315.5,-131.5 315.5,-112.5 235.5,-112.5"/>
<text text-anchor="middle" x="275.5" y="-119.5" font-family="Helvetica,sans-Serif" font-size="10.00" fill="#000000">include/plant.h</text>
</a>
</g>
</g>
<!-- Node11&#45;&gt;Node15 -->
<g id="edge8" class="edge">
<title>Node11&#45;&gt;Node15</title>
<path fill="none" stroke="#191970" d="M221.0851,-219.228C233.5819,-211.4641 247.429,-200.8701 256.5,-188 268.7272,-170.6518 273.1367,-145.5201 274.6886,-131.816"/>
<polygon fill="#191970" stroke="#191970" points="219.1672,-216.2952 212.3117,-224.3732 222.7083,-222.3335 219.1672,-216.2952"/>
</g>
<!-- Node14 -->
<g id="node4" class="node">
<title>Node14</title>
<g id="a_node4"><a xlink:href="assimilation_8cpp.html" target="_top" xlink:title="src/assimilation.cpp">
<polygon fill="none" stroke="#000000" points="113.5,-112.5 113.5,-131.5 217.5,-131.5 217.5,-112.5 113.5,-112.5"/>
<text text-anchor="middle" x="165.5" y="-119.5" font-family="Helvetica,sans-Serif" font-size="10.00" fill="#000000">src/assimilation.cpp</text>
</a>
</g>
</g>
<!-- Node13&#45;&gt;Node14 -->
<g id="edge3" class="edge">
<title>Node13&#45;&gt;Node14</title>
<path fill="none" stroke="#191970" d="M183.3604,-159.0437C178.9195,-149.8331 173.7735,-139.1598 170.1491,-131.6427"/>
<polygon fill="#191970" stroke="#191970" points="180.3012,-160.7579 187.797,-168.2455 186.6066,-157.7178 180.3012,-160.7579"/>
</g>
<!-- Node13&#45;&gt;Node15 -->
<g id="edge4" class="edge">
<title>Node13&#45;&gt;Node15</title>
<path fill="none" stroke="#191970" d="M215.488,-162.49C230.1322,-152.6096 248.6444,-140.1194 261.2082,-131.6427"/>
<polygon fill="#191970" stroke="#191970" points="213.2896,-159.7511 206.9575,-168.2455 217.2047,-165.5539 213.2896,-159.7511"/>
</g>
<!-- Node16 -->
<g id="node6" class="node">
<title>Node16</title>
<g id="a_node6"><a xlink:href="plant_8cpp.html" target="_top" xlink:title="src/plant.cpp">
<polygon fill="none" stroke="#000000" points="180,-56.5 180,-75.5 253,-75.5 253,-56.5 180,-56.5"/>
<text text-anchor="middle" x="216.5" y="-63.5" font-family="Helvetica,sans-Serif" font-size="10.00" fill="#000000">src/plant.cpp</text>
</a>
</g>
</g>
<!-- Node15&#45;&gt;Node16 -->
<g id="edge5" class="edge">
<title>Node15&#45;&gt;Node16</title>
<path fill="none" stroke="#191970" d="M257.9693,-105.3607C247.7623,-95.6727 235.2531,-83.7995 226.6592,-75.6427"/>
<polygon fill="#191970" stroke="#191970" points="255.5604,-107.8998 265.223,-112.2455 260.3794,-102.8227 255.5604,-107.8998"/>
</g>
<!-- Node17 -->
<g id="node7" class="node">
<title>Node17</title>
<g id="a_node7"><a xlink:href="pspm__interface_8h.html" target="_top" xlink:title="include/pspm_interface.h">
<polygon fill="none" stroke="#000000" points="271,-56.5 271,-75.5 396,-75.5 396,-56.5 271,-56.5"/>
<text text-anchor="middle" x="333.5" y="-63.5" font-family="Helvetica,sans-Serif" font-size="10.00" fill="#000000">include/pspm_interface.h</text>
</a>
</g>
</g>
<!-- Node15&#45;&gt;Node17 -->
<g id="edge6" class="edge">
<title>Node15&#45;&gt;Node17</title>
<path fill="none" stroke="#191970" d="M293.0293,-105.0751C303.0083,-95.4402 315.1476,-83.7196 323.5129,-75.6427"/>
<polygon fill="#191970" stroke="#191970" points="290.3658,-102.7817 285.6028,-112.2455 295.228,-107.8175 290.3658,-102.7817"/>
</g>
<!-- Node18 -->
<g id="node8" class="node">
<title>Node18</title>
<g id="a_node8"><a xlink:href="pspm__interface_8cpp.html" target="_top" xlink:title="src/pspm_interface.cpp">
<polygon fill="none" stroke="#000000" points="274,-.5 274,-19.5 393,-19.5 393,-.5 274,-.5"/>
<text text-anchor="middle" x="333.5" y="-7.5" font-family="Helvetica,sans-Serif" font-size="10.00" fill="#000000">src/pspm_interface.cpp</text>
</a>
</g>
</g>
<!-- Node17&#45;&gt;Node18 -->
<g id="edge7" class="edge">
<title>Node17&#45;&gt;Node18</title>
<path fill="none" stroke="#191970" d="M333.5,-46.1575C333.5,-37.155 333.5,-26.9199 333.5,-19.6427"/>
<polygon fill="#191970" stroke="#191970" points="330.0001,-46.2455 333.5,-56.2455 337.0001,-46.2456 330.0001,-46.2455"/>
</g>
</g>
</svg>
