<?xml version="1.0" encoding="UTF-8" standalone="no"?>
<!DOCTYPE svg PUBLIC "-//W3C//DTD SVG 1.1//EN"
 "http://www.w3.org/Graphics/SVG/1.1/DTD/svg11.dtd">
<!-- Generated by graphviz version 2.40.1 (20161225.0304)
 -->
<!-- Title: include/plant_params.h Pages: 1 -->
<svg width="453pt" height="140pt"
 viewBox="0.00 0.00 453.00 140.00" xmlns="http://www.w3.org/2000/svg" xmlns:xlink="http://www.w3.org/1999/xlink">
<g id="graph0" class="graph" transform="scale(1 1) rotate(0) translate(4 136)">
<title>include/plant_params.h</title>
<!-- Node0 -->
<g id="node1" class="node">
<title>Node0</title>
<polygon fill="#bfbfbf" stroke="#000000" points="121,-112.5 121,-131.5 238,-131.5 238,-112.5 121,-112.5"/>
<text text-anchor="middle" x="179.5" y="-119.5" font-family="Helvetica,sans-Serif" font-size="10.00" fill="#000000">include/plant_params.h</text>
</g>
<!-- Node1 -->
<g id="node2" class="node">
<title>Node1</title>
<g id="a_node2"><a xlink:href="initializer_8h.html" target="_top" xlink:title="utils/initializer.h">
<polygon fill="none" stroke="#000000" points="137.5,-56.5 137.5,-75.5 221.5,-75.5 221.5,-56.5 137.5,-56.5"/>
<text text-anchor="middle" x="179.5" y="-63.5" font-family="Helvetica,sans-Serif" font-size="10.00" fill="#000000">utils/initializer.h</text>
</a>
</g>
</g>
<!-- Node0&#45;&gt;Node1 -->
<g id="edge1" class="edge">
<title>Node0&#45;&gt;Node1</title>
<path fill="none" stroke="#191970" d="M179.5,-112.2455C179.5,-104.9382 179.5,-94.6944 179.5,-85.7046"/>
<polygon fill="#191970" stroke="#191970" points="183.0001,-85.6426 179.5,-75.6427 176.0001,-85.6427 183.0001,-85.6426"/>
</g>
<!-- Node3 -->
<g id="node4" class="node">
<title>Node3</title>
<polygon fill="none" stroke="#bfbfbf" points="0,-.5 0,-19.5 41,-19.5 41,-.5 0,-.5"/>
<text text-anchor="middle" x="20.5" y="-7.5" font-family="Helvetica,sans-Serif" font-size="10.00" fill="#000000">string</text>
</g>
<!-- Node0&#45;&gt;Node3 -->
<g id="edge10" class="edge">
<title>Node0&#45;&gt;Node3</title>
<path fill="none" stroke="#191970" d="M165.9437,-112.4509C138.3684,-93.0268 75.54,-48.7703 42.2056,-25.2895"/>
<polygon fill="#191970" stroke="#191970" points="44.2129,-22.4223 34.0219,-19.5249 40.1818,-28.1451 44.2129,-22.4223"/>
</g>
<!-- Node9 -->
<g id="node10" class="node">
<title>Node9</title>
<polygon fill="none" stroke="#bfbfbf" points="239.5,-56.5 239.5,-75.5 283.5,-75.5 283.5,-56.5 239.5,-56.5"/>
<text text-anchor="middle" x="261.5" y="-63.5" font-family="Helvetica,sans-Serif" font-size="10.00" fill="#000000">cmath</text>
</g>
<!-- Node0&#45;&gt;Node9 -->
<g id="edge9" class="edge">
<title>Node0&#45;&gt;Node9</title>
<path fill="none" stroke="#191970" d="M193.7833,-112.2455C206.247,-103.7337 224.5451,-91.2375 238.9792,-81.3801"/>
<polygon fill="#191970" stroke="#191970" points="241.0962,-84.1726 247.3804,-75.6427 237.1485,-78.392 241.0962,-84.1726"/>
</g>
<!-- Node2 -->
<g id="node3" class="node">
<title>Node2</title>
<polygon fill="none" stroke="#bfbfbf" points="59.5,-.5 59.5,-19.5 113.5,-19.5 113.5,-.5 59.5,-.5"/>
<text text-anchor="middle" x="86.5" y="-7.5" font-family="Helvetica,sans-Serif" font-size="10.00" fill="#000000">iostream</text>
</g>
<!-- Node1&#45;&gt;Node2 -->
<g id="edge2" class="edge">
<title>Node1&#45;&gt;Node2</title>
<path fill="none" stroke="#191970" d="M163.3006,-56.2455C148.8982,-47.5731 127.6268,-34.7645 111.1201,-24.825"/>
<polygon fill="#191970" stroke="#191970" points="112.886,-21.8028 102.5137,-19.6427 109.275,-27.7996 112.886,-21.8028"/>
</g>
<!-- Node1&#45;&gt;Node3 -->
<g id="edge3" class="edge">
<title>Node1&#45;&gt;Node3</title>
<path fill="none" stroke="#191970" d="M152.1669,-56.3733C124.0503,-46.4706 80.3475,-31.0784 51.0933,-20.775"/>
<polygon fill="#191970" stroke="#191970" points="51.9924,-17.381 41.3975,-17.3601 49.6669,-23.9834 51.9924,-17.381"/>
</g>
<!-- Node4 -->
<g id="node5" class="node">
<title>Node4</title>
<polygon fill="none" stroke="#bfbfbf" points="132,-.5 132,-19.5 167,-19.5 167,-.5 132,-.5"/>
<text text-anchor="middle" x="149.5" y="-7.5" font-family="Helvetica,sans-Serif" font-size="10.00" fill="#000000">map</text>
</g>
<!-- Node1&#45;&gt;Node4 -->
<g id="edge4" class="edge">
<title>Node1&#45;&gt;Node4</title>
<path fill="none" stroke="#191970" d="M174.2744,-56.2455C170.1877,-48.617 164.3865,-37.7881 159.425,-28.5267"/>
<polygon fill="#191970" stroke="#191970" points="162.4732,-26.8047 154.6657,-19.6427 156.3028,-30.1103 162.4732,-26.8047"/>
</g>
<!-- Node5 -->
<g id="node6" class="node">
<title>Node5</title>
<polygon fill="none" stroke="#bfbfbf" points="185.5,-.5 185.5,-19.5 235.5,-19.5 235.5,-.5 185.5,-.5"/>
<text text-anchor="middle" x="210.5" y="-7.5" font-family="Helvetica,sans-Serif" font-size="10.00" fill="#000000">fstream</text>
</g>
<!-- Node1&#45;&gt;Node5 -->
<g id="edge5" class="edge">
<title>Node1&#45;&gt;Node5</title>
<path fill="none" stroke="#191970" d="M184.8998,-56.2455C189.1227,-48.617 195.1173,-37.7881 200.2441,-28.5267"/>
<polygon fill="#191970" stroke="#191970" points="203.381,-30.0867 205.1621,-19.6427 197.2568,-26.6965 203.381,-30.0867"/>
</g>
<!-- Node6 -->
<g id="node7" class="node">
<title>Node6</title>
<polygon fill="none" stroke="#bfbfbf" points="253.5,-.5 253.5,-19.5 297.5,-19.5 297.5,-.5 253.5,-.5"/>
<text text-anchor="middle" x="275.5" y="-7.5" font-family="Helvetica,sans-Serif" font-size="10.00" fill="#000000">vector</text>
</g>
<!-- Node1&#45;&gt;Node6 -->
<g id="edge6" class="edge">
<title>Node1&#45;&gt;Node6</title>
<path fill="none" stroke="#191970" d="M196.2219,-56.2455C211.0889,-47.5731 233.0466,-34.7645 250.0858,-24.825"/>
<polygon fill="#191970" stroke="#191970" points="252.0955,-27.7047 258.9697,-19.6427 248.5683,-21.6582 252.0955,-27.7047"/>
</g>
<!-- Node7 -->
<g id="node8" class="node">
<title>Node7</title>
<polygon fill="none" stroke="#bfbfbf" points="315.5,-.5 315.5,-19.5 367.5,-19.5 367.5,-.5 315.5,-.5"/>
<text text-anchor="middle" x="341.5" y="-7.5" font-family="Helvetica,sans-Serif" font-size="10.00" fill="#000000">sstream</text>
</g>
<!-- Node1&#45;&gt;Node7 -->
<g id="edge7" class="edge">
<title>Node1&#45;&gt;Node7</title>
<path fill="none" stroke="#191970" d="M207.3488,-56.3733C234.5767,-46.9611 276.1505,-32.5899 305.795,-22.3425"/>
<polygon fill="#191970" stroke="#191970" points="307.0453,-25.6135 315.3531,-19.0384 304.7583,-18.9977 307.0453,-25.6135"/>
</g>
<!-- Node8 -->
<g id="node9" class="node">
<title>Node8</title>
<polygon fill="none" stroke="#bfbfbf" points="386,-.5 386,-19.5 445,-19.5 445,-.5 386,-.5"/>
<text text-anchor="middle" x="415.5" y="-7.5" font-family="Helvetica,sans-Serif" font-size="10.00" fill="#000000">stdexcept</text>
</g>
<!-- Node1&#45;&gt;Node8 -->
<g id="edge8" class="edge">
<title>Node1&#45;&gt;Node8</title>
<path fill="none" stroke="#191970" d="M221.4513,-56.4807C259.2713,-47.8369 316.6624,-34.5676 375.8139,-20.1313"/>
<polygon fill="#191970" stroke="#191970" points="376.825,-23.4872 385.7061,-17.71 375.1607,-16.6879 376.825,-23.4872"/>
</g>
</g>
</svg>
