<?xml version="1.0" encoding="UTF-8" standalone="no"?>
<!DOCTYPE svg PUBLIC "-//W3C//DTD SVG 1.1//EN"
 "http://www.w3.org/Graphics/SVG/1.1/DTD/svg11.dtd">
<!-- Generated by graphviz version 2.40.1 (20161225.0304)
 -->
<!-- Title: include/plant_geometry.h Pages: 1 -->
<svg width="496pt" height="196pt"
 viewBox="0.00 0.00 496.00 196.00" xmlns="http://www.w3.org/2000/svg" xmlns:xlink="http://www.w3.org/1999/xlink">
<g id="graph0" class="graph" transform="scale(1 1) rotate(0) translate(4 192)">
<title>include/plant_geometry.h</title>
<!-- Node0 -->
<g id="node1" class="node">
<title>Node0</title>
<polygon fill="#bfbfbf" stroke="#000000" points="0,-168.5 0,-187.5 125,-187.5 125,-168.5 0,-168.5"/>
<text text-anchor="middle" x="62.5" y="-175.5" font-family="Helvetica,sans-Serif" font-size="10.00" fill="#000000">include/plant_geometry.h</text>
</g>
<!-- Node1 -->
<g id="node2" class="node">
<title>Node1</title>
<polygon fill="none" stroke="#bfbfbf" points="15.5,-56.5 15.5,-75.5 59.5,-75.5 59.5,-56.5 15.5,-56.5"/>
<text text-anchor="middle" x="37.5" y="-63.5" font-family="Helvetica,sans-Serif" font-size="10.00" fill="#000000">cmath</text>
</g>
<!-- Node0&#45;&gt;Node1 -->
<g id="edge1" class="edge">
<title>Node0&#45;&gt;Node1</title>
<path fill="none" stroke="#191970" d="M58.4898,-168.2985C54.8422,-159.103 49.573,-144.8275 46.5,-132 42.8326,-116.6912 40.5206,-99.0017 39.1596,-85.7919"/>
<polygon fill="#191970" stroke="#191970" points="42.614,-85.1395 38.1982,-75.5088 35.6444,-85.7912 42.614,-85.1395"/>
</g>
<!-- Node2 -->
<g id="node3" class="node">
<title>Node2</title>
<g id="a_node3"><a xlink:href="plant__params_8h.html" target="_top" xlink:title="plant_params.h">
<polygon fill="none" stroke="#000000" points="56,-112.5 56,-131.5 139,-131.5 139,-112.5 56,-112.5"/>
<text text-anchor="middle" x="97.5" y="-119.5" font-family="Helvetica,sans-Serif" font-size="10.00" fill="#000000">plant_params.h</text>
</a>
</g>
</g>
<!-- Node0&#45;&gt;Node2 -->
<g id="edge2" class="edge">
<title>Node0&#45;&gt;Node2</title>
<path fill="none" stroke="#191970" d="M68.5965,-168.2455C73.4145,-160.5367 80.2751,-149.5598 86.1032,-140.2348"/>
<polygon fill="#191970" stroke="#191970" points="89.1413,-141.9777 91.4733,-131.6427 83.2053,-138.2677 89.1413,-141.9777"/>
</g>
<!-- Node2&#45;&gt;Node1 -->
<g id="edge11" class="edge">
<title>Node2&#45;&gt;Node1</title>
<path fill="none" stroke="#191970" d="M87.0488,-112.2455C78.2731,-104.0549 65.5446,-92.1749 55.186,-82.5069"/>
<polygon fill="#191970" stroke="#191970" points="57.5301,-79.9072 47.8314,-75.6427 52.7539,-85.0246 57.5301,-79.9072"/>
</g>
<!-- Node3 -->
<g id="node4" class="node">
<title>Node3</title>
<g id="a_node4"><a xlink:href="initializer_8h.html" target="_top" xlink:title="utils/initializer.h">
<polygon fill="none" stroke="#000000" points="180.5,-56.5 180.5,-75.5 264.5,-75.5 264.5,-56.5 180.5,-56.5"/>
<text text-anchor="middle" x="222.5" y="-63.5" font-family="Helvetica,sans-Serif" font-size="10.00" fill="#000000">utils/initializer.h</text>
</a>
</g>
</g>
<!-- Node2&#45;&gt;Node3 -->
<g id="edge3" class="edge">
<title>Node2&#45;&gt;Node3</title>
<path fill="none" stroke="#191970" d="M118.9883,-112.3733C139.144,-103.3435 169.488,-89.7494 192.118,-79.6111"/>
<polygon fill="#191970" stroke="#191970" points="193.5971,-82.7838 201.2921,-75.5011 190.7351,-76.3955 193.5971,-82.7838"/>
</g>
<!-- Node5 -->
<g id="node6" class="node">
<title>Node5</title>
<polygon fill="none" stroke="#bfbfbf" points="43,-.5 43,-19.5 84,-19.5 84,-.5 43,-.5"/>
<text text-anchor="middle" x="63.5" y="-7.5" font-family="Helvetica,sans-Serif" font-size="10.00" fill="#000000">string</text>
</g>
<!-- Node2&#45;&gt;Node5 -->
<g id="edge12" class="edge">
<title>Node2&#45;&gt;Node5</title>
<path fill="none" stroke="#191970" d="M94.6012,-112.4509C89.0308,-94.1013 76.7329,-53.5908 69.38,-29.3693"/>
<polygon fill="#191970" stroke="#191970" points="72.6455,-28.077 66.3915,-19.5249 65.9473,-30.1104 72.6455,-28.077"/>
</g>
<!-- Node4 -->
<g id="node5" class="node">
<title>Node4</title>
<polygon fill="none" stroke="#bfbfbf" points="102.5,-.5 102.5,-19.5 156.5,-19.5 156.5,-.5 102.5,-.5"/>
<text text-anchor="middle" x="129.5" y="-7.5" font-family="Helvetica,sans-Serif" font-size="10.00" fill="#000000">iostream</text>
</g>
<!-- Node3&#45;&gt;Node4 -->
<g id="edge4" class="edge">
<title>Node3&#45;&gt;Node4</title>
<path fill="none" stroke="#191970" d="M206.3006,-56.2455C191.8982,-47.5731 170.6268,-34.7645 154.1201,-24.825"/>
<polygon fill="#191970" stroke="#191970" points="155.886,-21.8028 145.5137,-19.6427 152.275,-27.7996 155.886,-21.8028"/>
</g>
<!-- Node3&#45;&gt;Node5 -->
<g id="edge5" class="edge">
<title>Node3&#45;&gt;Node5</title>
<path fill="none" stroke="#191970" d="M195.1669,-56.3733C167.0503,-46.4706 123.3475,-31.0784 94.0933,-20.775"/>
<polygon fill="#191970" stroke="#191970" points="94.9924,-17.381 84.3975,-17.3601 92.6669,-23.9834 94.9924,-17.381"/>
</g>
<!-- Node6 -->
<g id="node7" class="node">
<title>Node6</title>
<polygon fill="none" stroke="#bfbfbf" points="175,-.5 175,-19.5 210,-19.5 210,-.5 175,-.5"/>
<text text-anchor="middle" x="192.5" y="-7.5" font-family="Helvetica,sans-Serif" font-size="10.00" fill="#000000">map</text>
</g>
<!-- Node3&#45;&gt;Node6 -->
<g id="edge6" class="edge">
<title>Node3&#45;&gt;Node6</title>
<path fill="none" stroke="#191970" d="M217.2744,-56.2455C213.1877,-48.617 207.3865,-37.7881 202.425,-28.5267"/>
<polygon fill="#191970" stroke="#191970" points="205.4732,-26.8047 197.6657,-19.6427 199.3028,-30.1103 205.4732,-26.8047"/>
</g>
<!-- Node7 -->
<g id="node8" class="node">
<title>Node7</title>
<polygon fill="none" stroke="#bfbfbf" points="228.5,-.5 228.5,-19.5 278.5,-19.5 278.5,-.5 228.5,-.5"/>
<text text-anchor="middle" x="253.5" y="-7.5" font-family="Helvetica,sans-Serif" font-size="10.00" fill="#000000">fstream</text>
</g>
<!-- Node3&#45;&gt;Node7 -->
<g id="edge7" class="edge">
<title>Node3&#45;&gt;Node7</title>
<path fill="none" stroke="#191970" d="M227.8998,-56.2455C232.1227,-48.617 238.1173,-37.7881 243.2441,-28.5267"/>
<polygon fill="#191970" stroke="#191970" points="246.381,-30.0867 248.1621,-19.6427 240.2568,-26.6965 246.381,-30.0867"/>
</g>
<!-- Node8 -->
<g id="node9" class="node">
<title>Node8</title>
<polygon fill="none" stroke="#bfbfbf" points="296.5,-.5 296.5,-19.5 340.5,-19.5 340.5,-.5 296.5,-.5"/>
<text text-anchor="middle" x="318.5" y="-7.5" font-family="Helvetica,sans-Serif" font-size="10.00" fill="#000000">vector</text>
</g>
<!-- Node3&#45;&gt;Node8 -->
<g id="edge8" class="edge">
<title>Node3&#45;&gt;Node8</title>
<path fill="none" stroke="#191970" d="M239.2219,-56.2455C254.0889,-47.5731 276.0466,-34.7645 293.0858,-24.825"/>
<polygon fill="#191970" stroke="#191970" points="295.0955,-27.7047 301.9697,-19.6427 291.5683,-21.6582 295.0955,-27.7047"/>
</g>
<!-- Node9 -->
<g id="node10" class="node">
<title>Node9</title>
<polygon fill="none" stroke="#bfbfbf" points="358.5,-.5 358.5,-19.5 410.5,-19.5 410.5,-.5 358.5,-.5"/>
<text text-anchor="middle" x="384.5" y="-7.5" font-family="Helvetica,sans-Serif" font-size="10.00" fill="#000000">sstream</text>
</g>
<!-- Node3&#45;&gt;Node9 -->
<g id="edge9" class="edge">
<title>Node3&#45;&gt;Node9</title>
<path fill="none" stroke="#191970" d="M250.3488,-56.3733C277.5767,-46.9611 319.1505,-32.5899 348.795,-22.3425"/>
<polygon fill="#191970" stroke="#191970" points="350.0453,-25.6135 358.3531,-19.0384 347.7583,-18.9977 350.0453,-25.6135"/>
</g>
<!-- Node10 -->
<g id="node11" class="node">
<title>Node10</title>
<polygon fill="none" stroke="#bfbfbf" points="429,-.5 429,-19.5 488,-19.5 488,-.5 429,-.5"/>
<text text-anchor="middle" x="458.5" y="-7.5" font-family="Helvetica,sans-Serif" font-size="10.00" fill="#000000">stdexcept</text>
</g>
<!-- Node3&#45;&gt;Node10 -->
<g id="edge10" class="edge">
<title>Node3&#45;&gt;Node10</title>
<path fill="none" stroke="#191970" d="M264.4513,-56.4807C302.2713,-47.8369 359.6624,-34.5676 418.8139,-20.1313"/>
<polygon fill="#191970" stroke="#191970" points="419.825,-23.4872 428.7061,-17.71 418.1607,-16.6879 419.825,-23.4872"/>
</g>
</g>
</svg>
