<?xml version="1.0" encoding="UTF-8" standalone="no"?>
<!DOCTYPE svg PUBLIC "-//W3C//DTD SVG 1.1//EN"
 "http://www.w3.org/Graphics/SVG/1.1/DTD/svg11.dtd">
<!-- Generated by graphviz version 2.40.1 (20161225.0304)
 -->
<!-- Title: include/pspm_interface.h Pages: 1 -->
<svg width="666pt" height="364pt"
 viewBox="0.00 0.00 666.00 364.00" xmlns="http://www.w3.org/2000/svg" xmlns:xlink="http://www.w3.org/1999/xlink">
<g id="graph0" class="graph" transform="scale(1 1) rotate(0) translate(4 360)">
<title>include/pspm_interface.h</title>
<!-- Node0 -->
<g id="node1" class="node">
<title>Node0</title>
<polygon fill="#bfbfbf" stroke="#000000" points="143,-336.5 143,-355.5 268,-355.5 268,-336.5 143,-336.5"/>
<text text-anchor="middle" x="205.5" y="-343.5" font-family="Helvetica,sans-Serif" font-size="10.00" fill="#000000">include/pspm_interface.h</text>
</g>
<!-- Node1 -->
<g id="node2" class="node">
<title>Node1</title>
<polygon fill="none" stroke="#bfbfbf" points="54,-280.5 54,-299.5 105,-299.5 105,-280.5 54,-280.5"/>
<text text-anchor="middle" x="79.5" y="-287.5" font-family="Helvetica,sans-Serif" font-size="10.00" fill="#000000">solver.h</text>
</g>
<!-- Node0&#45;&gt;Node1 -->
<g id="edge1" class="edge">
<title>Node0&#45;&gt;Node1</title>
<path fill="none" stroke="#191970" d="M183.8398,-336.3733C163.5228,-327.3435 132.936,-313.7494 110.125,-303.6111"/>
<polygon fill="#191970" stroke="#191970" points="111.4372,-300.3642 100.8775,-299.5011 108.5941,-306.7609 111.4372,-300.3642"/>
</g>
<!-- Node2 -->
<g id="node3" class="node">
<title>Node2</title>
<g id="a_node3"><a xlink:href="light__environment_8h.html" target="_top" xlink:title="light_environment.h">
<polygon fill="none" stroke="#000000" points="212,-56.5 212,-75.5 313,-75.5 313,-56.5 212,-56.5"/>
<text text-anchor="middle" x="262.5" y="-63.5" font-family="Helvetica,sans-Serif" font-size="10.00" fill="#000000">light_environment.h</text>
</a>
</g>
</g>
<!-- Node0&#45;&gt;Node2 -->
<g id="edge2" class="edge">
<title>Node0&#45;&gt;Node2</title>
<path fill="none" stroke="#191970" d="M198.0706,-336.4491C177.9268,-309.3186 125.5418,-229.762 152.5,-168 169.536,-128.97 209.6869,-98.1856 236.4738,-81.0367"/>
<polygon fill="#191970" stroke="#191970" points="238.3406,-83.9975 244.993,-75.7515 234.6503,-78.0492 238.3406,-83.9975"/>
</g>
<!-- Node5 -->
<g id="node6" class="node">
<title>Node5</title>
<g id="a_node6"><a xlink:href="climate_8h.html" target="_top" xlink:title="climate.h">
<polygon fill="none" stroke="#000000" points="331.5,-56.5 331.5,-75.5 387.5,-75.5 387.5,-56.5 331.5,-56.5"/>
<text text-anchor="middle" x="359.5" y="-63.5" font-family="Helvetica,sans-Serif" font-size="10.00" fill="#000000">climate.h</text>
</a>
</g>
</g>
<!-- Node0&#45;&gt;Node5 -->
<g id="edge5" class="edge">
<title>Node0&#45;&gt;Node5</title>
<path fill="none" stroke="#191970" d="M268.0249,-339.0966C369.1757,-326.1703 557.5,-294.0417 557.5,-234 557.5,-234 557.5,-234 557.5,-178 557.5,-144.3717 546.878,-132.8583 520.5,-112 518.0172,-110.0367 444.3502,-89.4417 397.5354,-76.4834"/>
<polygon fill="#191970" stroke="#191970" points="398.2739,-73.0563 387.7028,-73.7646 396.4083,-79.8031 398.2739,-73.0563"/>
</g>
<!-- Node10 -->
<g id="node11" class="node">
<title>Node10</title>
<g id="a_node11"><a xlink:href="plant_8h.html" target="_top" xlink:title="plant.h">
<polygon fill="none" stroke="#000000" points="254.5,-280.5 254.5,-299.5 300.5,-299.5 300.5,-280.5 254.5,-280.5"/>
<text text-anchor="middle" x="277.5" y="-287.5" font-family="Helvetica,sans-Serif" font-size="10.00" fill="#000000">plant.h</text>
</a>
</g>
</g>
<!-- Node0&#45;&gt;Node10 -->
<g id="edge12" class="edge">
<title>Node0&#45;&gt;Node10</title>
<path fill="none" stroke="#191970" d="M218.0414,-336.2455C228.7787,-327.8943 244.4473,-315.7076 257.0047,-305.9408"/>
<polygon fill="#191970" stroke="#191970" points="259.3575,-308.5449 265.1023,-299.6427 255.0599,-303.0194 259.3575,-308.5449"/>
</g>
<!-- Node3 -->
<g id="node4" class="node">
<title>Node3</title>
<polygon fill="none" stroke="#bfbfbf" points="214.5,-.5 214.5,-19.5 268.5,-19.5 268.5,-.5 214.5,-.5"/>
<text text-anchor="middle" x="241.5" y="-7.5" font-family="Helvetica,sans-Serif" font-size="10.00" fill="#000000">iostream</text>
</g>
<!-- Node2&#45;&gt;Node3 -->
<g id="edge3" class="edge">
<title>Node2&#45;&gt;Node3</title>
<path fill="none" stroke="#191970" d="M258.8421,-56.2455C256.0416,-48.7776 252.091,-38.2427 248.6676,-29.1137"/>
<polygon fill="#191970" stroke="#191970" points="251.9045,-27.777 245.116,-19.6427 245.3501,-30.2349 251.9045,-27.777"/>
</g>
<!-- Node4 -->
<g id="node5" class="node">
<title>Node4</title>
<polygon fill="none" stroke="#bfbfbf" points="286.5,-.5 286.5,-19.5 330.5,-19.5 330.5,-.5 286.5,-.5"/>
<text text-anchor="middle" x="308.5" y="-7.5" font-family="Helvetica,sans-Serif" font-size="10.00" fill="#000000">vector</text>
</g>
<!-- Node2&#45;&gt;Node4 -->
<g id="edge4" class="edge">
<title>Node2&#45;&gt;Node4</title>
<path fill="none" stroke="#191970" d="M270.5126,-56.2455C276.9768,-48.3761 286.2385,-37.101 293.9983,-27.6542"/>
<polygon fill="#191970" stroke="#191970" points="296.9364,-29.5916 300.5792,-19.6427 291.5273,-25.1484 296.9364,-29.5916"/>
</g>
<!-- Node5&#45;&gt;Node3 -->
<g id="edge9" class="edge">
<title>Node5&#45;&gt;Node3</title>
<path fill="none" stroke="#191970" d="M339.2151,-56.3733C320.3579,-47.4241 292.054,-33.9917 270.7545,-23.8835"/>
<polygon fill="#191970" stroke="#191970" points="272.0551,-20.6266 261.5202,-19.5011 269.0539,-26.9506 272.0551,-20.6266"/>
</g>
<!-- Node5&#45;&gt;Node4 -->
<g id="edge11" class="edge">
<title>Node5&#45;&gt;Node4</title>
<path fill="none" stroke="#191970" d="M350.6165,-56.2455C343.3034,-48.2155 332.7609,-36.6394 324.0533,-27.0781"/>
<polygon fill="#191970" stroke="#191970" points="326.6028,-24.6795 317.2817,-19.6427 321.4273,-29.3928 326.6028,-24.6795"/>
</g>
<!-- Node6 -->
<g id="node7" class="node">
<title>Node6</title>
<polygon fill="none" stroke="#bfbfbf" points="487,-.5 487,-19.5 528,-19.5 528,-.5 487,-.5"/>
<text text-anchor="middle" x="507.5" y="-7.5" font-family="Helvetica,sans-Serif" font-size="10.00" fill="#000000">string</text>
</g>
<!-- Node5&#45;&gt;Node6 -->
<g id="edge6" class="edge">
<title>Node5&#45;&gt;Node6</title>
<path fill="none" stroke="#191970" d="M384.9421,-56.3733C410.5576,-46.6809 450.0713,-31.7298 477.27,-21.4384"/>
<polygon fill="#191970" stroke="#191970" points="478.5706,-24.6885 486.6849,-17.876 476.0934,-18.1415 478.5706,-24.6885"/>
</g>
<!-- Node7 -->
<g id="node8" class="node">
<title>Node7</title>
<polygon fill="none" stroke="#bfbfbf" points="418.5,-.5 418.5,-19.5 468.5,-19.5 468.5,-.5 418.5,-.5"/>
<text text-anchor="middle" x="443.5" y="-7.5" font-family="Helvetica,sans-Serif" font-size="10.00" fill="#000000">fstream</text>
</g>
<!-- Node5&#45;&gt;Node7 -->
<g id="edge7" class="edge">
<title>Node5&#45;&gt;Node7</title>
<path fill="none" stroke="#191970" d="M374.1317,-56.2455C386.8994,-47.7337 405.6438,-35.2375 420.4299,-25.3801"/>
<polygon fill="#191970" stroke="#191970" points="422.6569,-28.1019 429.036,-19.6427 418.774,-22.2775 422.6569,-28.1019"/>
</g>
<!-- Node8 -->
<g id="node9" class="node">
<title>Node8</title>
<polygon fill="none" stroke="#bfbfbf" points="348.5,-.5 348.5,-19.5 400.5,-19.5 400.5,-.5 348.5,-.5"/>
<text text-anchor="middle" x="374.5" y="-7.5" font-family="Helvetica,sans-Serif" font-size="10.00" fill="#000000">sstream</text>
</g>
<!-- Node5&#45;&gt;Node8 -->
<g id="edge8" class="edge">
<title>Node5&#45;&gt;Node8</title>
<path fill="none" stroke="#191970" d="M362.1128,-56.2455C364.0916,-48.8579 366.8744,-38.4689 369.3012,-29.4087"/>
<polygon fill="#191970" stroke="#191970" points="372.7105,-30.2078 371.9171,-19.6427 365.9489,-28.3966 372.7105,-30.2078"/>
</g>
<!-- Node9 -->
<g id="node10" class="node">
<title>Node9</title>
<polygon fill="none" stroke="#bfbfbf" points="149.5,-.5 149.5,-19.5 193.5,-19.5 193.5,-.5 149.5,-.5"/>
<text text-anchor="middle" x="171.5" y="-7.5" font-family="Helvetica,sans-Serif" font-size="10.00" fill="#000000">cmath</text>
</g>
<!-- Node5&#45;&gt;Node9 -->
<g id="edge10" class="edge">
<title>Node5&#45;&gt;Node9</title>
<path fill="none" stroke="#191970" d="M331.3545,-57.6162C297.1391,-47.4244 239.5301,-30.2643 203.6143,-19.5659"/>
<polygon fill="#191970" stroke="#191970" points="204.2388,-16.1001 193.6557,-16.5996 202.2404,-22.8088 204.2388,-16.1001"/>
</g>
<!-- Node11 -->
<g id="node12" class="node">
<title>Node11</title>
<g id="a_node12"><a xlink:href="plant__params_8h.html" target="_top" xlink:title="plant_params.h">
<polygon fill="none" stroke="#000000" points="429,-112.5 429,-131.5 512,-131.5 512,-112.5 429,-112.5"/>
<text text-anchor="middle" x="470.5" y="-119.5" font-family="Helvetica,sans-Serif" font-size="10.00" fill="#000000">plant_params.h</text>
</a>
</g>
</g>
<!-- Node10&#45;&gt;Node11 -->
<g id="edge13" class="edge">
<title>Node10&#45;&gt;Node11</title>
<path fill="none" stroke="#191970" d="M300.8694,-288.7833C352.8565,-285.5378 475.468,-274.7225 500.5,-244 525.1636,-213.7296 500.6639,-166.1371 483.6984,-140.2505"/>
<polygon fill="#191970" stroke="#191970" points="486.4296,-138.044 477.8939,-131.7677 480.6526,-141.9971 486.4296,-138.044"/>
</g>
<!-- Node15 -->
<g id="node16" class="node">
<title>Node15</title>
<g id="a_node16"><a xlink:href="plant__geometry_8h.html" target="_top" xlink:title="plant_geometry.h">
<polygon fill="none" stroke="#000000" points="161.5,-168.5 161.5,-187.5 253.5,-187.5 253.5,-168.5 161.5,-168.5"/>
<text text-anchor="middle" x="207.5" y="-175.5" font-family="Helvetica,sans-Serif" font-size="10.00" fill="#000000">plant_geometry.h</text>
</a>
</g>
</g>
<!-- Node10&#45;&gt;Node15 -->
<g id="edge24" class="edge">
<title>Node10&#45;&gt;Node15</title>
<path fill="none" stroke="#191970" d="M264.3885,-280.3961C253.6465,-271.9083 238.7583,-258.6299 229.5,-244 220.4284,-229.6651 214.6888,-211.193 211.3556,-197.4384"/>
<polygon fill="#191970" stroke="#191970" points="214.7544,-196.5982 209.1807,-187.588 207.9191,-198.1074 214.7544,-196.5982"/>
</g>
<!-- Node16 -->
<g id="node17" class="node">
<title>Node16</title>
<g id="a_node17"><a xlink:href="assimilation_8h.html" target="_top" xlink:title="assimilation.h">
<polygon fill="none" stroke="#000000" points="239,-224.5 239,-243.5 316,-243.5 316,-224.5 239,-224.5"/>
<text text-anchor="middle" x="277.5" y="-231.5" font-family="Helvetica,sans-Serif" font-size="10.00" fill="#000000">assimilation.h</text>
</a>
</g>
</g>
<!-- Node10&#45;&gt;Node16 -->
<g id="edge27" class="edge">
<title>Node10&#45;&gt;Node16</title>
<path fill="none" stroke="#191970" d="M277.5,-280.2455C277.5,-272.9382 277.5,-262.6944 277.5,-253.7046"/>
<polygon fill="#191970" stroke="#191970" points="281.0001,-253.6426 277.5,-243.6427 274.0001,-253.6427 281.0001,-253.6426"/>
</g>
<!-- Node19 -->
<g id="node20" class="node">
<title>Node19</title>
<g id="a_node20"><a xlink:href="rk4_8h.html" target="_top" xlink:title="utils/rk4.h">
<polygon fill="none" stroke="#000000" points="334,-224.5 334,-243.5 393,-243.5 393,-224.5 334,-224.5"/>
<text text-anchor="middle" x="363.5" y="-231.5" font-family="Helvetica,sans-Serif" font-size="10.00" fill="#000000">utils/rk4.h</text>
</a>
</g>
</g>
<!-- Node10&#45;&gt;Node19 -->
<g id="edge32" class="edge">
<title>Node10&#45;&gt;Node19</title>
<path fill="none" stroke="#191970" d="M292.4801,-280.2455C305.6751,-271.6534 325.1051,-259.0014 340.3079,-249.1018"/>
<polygon fill="#191970" stroke="#191970" points="342.2215,-252.0325 348.6916,-243.6427 338.4017,-246.1665 342.2215,-252.0325"/>
</g>
<!-- Node20 -->
<g id="node21" class="node">
<title>Node20</title>
<g id="a_node21"><a xlink:href="moving__average_8h.html" target="_top" xlink:title="utils/moving_average.h">
<polygon fill="none" stroke="#000000" points="0,-56.5 0,-75.5 117,-75.5 117,-56.5 0,-56.5"/>
<text text-anchor="middle" x="58.5" y="-63.5" font-family="Helvetica,sans-Serif" font-size="10.00" fill="#000000">utils/moving_average.h</text>
</a>
</g>
</g>
<!-- Node10&#45;&gt;Node20 -->
<g id="edge33" class="edge">
<title>Node10&#45;&gt;Node20</title>
<path fill="none" stroke="#191970" d="M264.1985,-280.4006C251.6962,-271.2773 232.5571,-257.0506 216.5,-244 187.1697,-220.1614 178.3799,-215.5458 152.5,-188 120.1935,-153.6139 87.763,-108.6675 70.7288,-84.0563"/>
<polygon fill="#191970" stroke="#191970" points="73.529,-81.951 64.9865,-75.6839 67.7563,-85.9103 73.529,-81.951"/>
</g>
<!-- Node23 -->
<g id="node24" class="node">
<title>Node23</title>
<g id="a_node24"><a xlink:href="plant_8tpp.html" target="_top" xlink:title="../src/plant.tpp">
<polygon fill="none" stroke="#000000" points="411.5,-224.5 411.5,-243.5 491.5,-243.5 491.5,-224.5 411.5,-224.5"/>
<text text-anchor="middle" x="451.5" y="-231.5" font-family="Helvetica,sans-Serif" font-size="10.00" fill="#000000">../src/plant.tpp</text>
</a>
</g>
</g>
<!-- Node10&#45;&gt;Node23 -->
<g id="edge38" class="edge">
<title>Node10&#45;&gt;Node23</title>
<path fill="none" stroke="#191970" d="M300.6059,-282.5636C329.0447,-273.4109 377.7839,-257.7247 412.1619,-246.6605"/>
<polygon fill="#191970" stroke="#191970" points="413.4425,-249.9253 421.8893,-243.5299 411.2979,-243.2619 413.4425,-249.9253"/>
</g>
<!-- Node11&#45;&gt;Node6 -->
<g id="edge23" class="edge">
<title>Node11&#45;&gt;Node6</title>
<path fill="none" stroke="#191970" d="M477.9988,-112.3733C484.5287,-103.4584 493.6828,-89.5681 498.5,-76 503.8201,-61.0154 506.0217,-43.0874 506.9199,-29.7008"/>
<polygon fill="#191970" stroke="#191970" points="510.4168,-29.8469 507.4077,-19.6884 503.4251,-29.5062 510.4168,-29.8469"/>
</g>
<!-- Node11&#45;&gt;Node9 -->
<g id="edge22" class="edge">
<title>Node11&#45;&gt;Node9</title>
<path fill="none" stroke="#191970" d="M428.9125,-119.5102C362.7394,-114.7965 237.3818,-102.5633 202.5,-76 187.75,-64.7675 179.7308,-44.7865 175.5686,-29.7428"/>
<polygon fill="#191970" stroke="#191970" points="178.9306,-28.7544 173.1785,-19.857 172.1266,-30.3995 178.9306,-28.7544"/>
</g>
<!-- Node12 -->
<g id="node13" class="node">
<title>Node12</title>
<g id="a_node13"><a xlink:href="initializer_8h.html" target="_top" xlink:title="utils/initializer.h">
<polygon fill="none" stroke="#000000" points="405.5,-56.5 405.5,-75.5 489.5,-75.5 489.5,-56.5 405.5,-56.5"/>
<text text-anchor="middle" x="447.5" y="-63.5" font-family="Helvetica,sans-Serif" font-size="10.00" fill="#000000">utils/initializer.h</text>
</a>
</g>
</g>
<!-- Node11&#45;&gt;Node12 -->
<g id="edge14" class="edge">
<title>Node11&#45;&gt;Node12</title>
<path fill="none" stroke="#191970" d="M466.4937,-112.2455C463.4265,-104.7776 459.0997,-94.2427 455.3503,-85.1137"/>
<polygon fill="#191970" stroke="#191970" points="458.4972,-83.5631 451.4604,-75.6427 452.0221,-86.2226 458.4972,-83.5631"/>
</g>
<!-- Node12&#45;&gt;Node3 -->
<g id="edge15" class="edge">
<title>Node12&#45;&gt;Node3</title>
<path fill="none" stroke="#191970" d="M411.991,-56.4658C379.6018,-47.7527 330.1624,-34.4121 278.325,-20.2146"/>
<polygon fill="#191970" stroke="#191970" points="279.191,-16.823 268.6214,-17.5546 277.3403,-23.5739 279.191,-16.823"/>
</g>
<!-- Node12&#45;&gt;Node4 -->
<g id="edge19" class="edge">
<title>Node12&#45;&gt;Node4</title>
<path fill="none" stroke="#191970" d="M423.605,-56.3733C400.5806,-47.0972 365.6004,-33.0045 340.2454,-22.7895"/>
<polygon fill="#191970" stroke="#191970" points="341.291,-19.4374 330.7075,-18.9469 338.6751,-25.9303 341.291,-19.4374"/>
</g>
<!-- Node12&#45;&gt;Node6 -->
<g id="edge16" class="edge">
<title>Node12&#45;&gt;Node6</title>
<path fill="none" stroke="#191970" d="M457.9512,-56.2455C466.7269,-48.0549 479.4554,-36.1749 489.814,-26.5069"/>
<polygon fill="#191970" stroke="#191970" points="492.2461,-29.0246 497.1686,-19.6427 487.4699,-23.9072 492.2461,-29.0246"/>
</g>
<!-- Node12&#45;&gt;Node7 -->
<g id="edge18" class="edge">
<title>Node12&#45;&gt;Node7</title>
<path fill="none" stroke="#191970" d="M446.8033,-56.2455C446.2813,-48.9382 445.5496,-38.6944 444.9075,-29.7046"/>
<polygon fill="#191970" stroke="#191970" points="448.3924,-29.3679 444.1888,-19.6427 441.4102,-29.8667 448.3924,-29.3679"/>
</g>
<!-- Node12&#45;&gt;Node8 -->
<g id="edge20" class="edge">
<title>Node12&#45;&gt;Node8</title>
<path fill="none" stroke="#191970" d="M434.7844,-56.2455C423.898,-47.8943 408.0117,-35.7076 395.28,-25.9408"/>
<polygon fill="#191970" stroke="#191970" points="397.1346,-22.9523 387.0699,-19.6427 392.8739,-28.5063 397.1346,-22.9523"/>
</g>
<!-- Node13 -->
<g id="node14" class="node">
<title>Node13</title>
<polygon fill="none" stroke="#bfbfbf" points="546,-.5 546,-19.5 581,-19.5 581,-.5 546,-.5"/>
<text text-anchor="middle" x="563.5" y="-7.5" font-family="Helvetica,sans-Serif" font-size="10.00" fill="#000000">map</text>
</g>
<!-- Node12&#45;&gt;Node13 -->
<g id="edge17" class="edge">
<title>Node12&#45;&gt;Node13</title>
<path fill="none" stroke="#191970" d="M467.4411,-56.3733C486.5404,-47.1529 515.4977,-33.1735 536.6254,-22.9739"/>
<polygon fill="#191970" stroke="#191970" points="538.2344,-26.0838 545.7183,-18.5843 535.1911,-19.7799 538.2344,-26.0838"/>
</g>
<!-- Node14 -->
<g id="node15" class="node">
<title>Node14</title>
<polygon fill="none" stroke="#bfbfbf" points="599,-.5 599,-19.5 658,-19.5 658,-.5 599,-.5"/>
<text text-anchor="middle" x="628.5" y="-7.5" font-family="Helvetica,sans-Serif" font-size="10.00" fill="#000000">stdexcept</text>
</g>
<!-- Node12&#45;&gt;Node14 -->
<g id="edge21" class="edge">
<title>Node12&#45;&gt;Node14</title>
<path fill="none" stroke="#191970" d="M478.615,-56.3733C509.2093,-46.9076 556.0147,-32.4264 589.171,-22.1681"/>
<polygon fill="#191970" stroke="#191970" points="590.4709,-25.4297 598.9896,-19.1303 588.4018,-18.7424 590.4709,-25.4297"/>
</g>
<!-- Node15&#45;&gt;Node9 -->
<g id="edge25" class="edge">
<title>Node15&#45;&gt;Node9</title>
<path fill="none" stroke="#191970" d="M204.9155,-168.4917C200.0871,-150.5196 189.5492,-110.2893 182.5,-76 179.352,-60.6871 176.4739,-43.2346 174.4518,-30.1238"/>
<polygon fill="#191970" stroke="#191970" points="177.8598,-29.2502 172.91,-19.8828 170.9378,-30.2924 177.8598,-29.2502"/>
</g>
<!-- Node15&#45;&gt;Node11 -->
<g id="edge26" class="edge">
<title>Node15&#45;&gt;Node11</title>
<path fill="none" stroke="#191970" d="M252.4125,-168.4369C298.5708,-158.6085 370.3516,-143.3244 418.8357,-133.0008"/>
<polygon fill="#191970" stroke="#191970" points="419.7586,-136.3828 428.8104,-130.8769 418.3007,-129.5363 419.7586,-136.3828"/>
</g>
<!-- Node16&#45;&gt;Node11 -->
<g id="edge29" class="edge">
<title>Node16&#45;&gt;Node11</title>
<path fill="none" stroke="#191970" d="M316.3112,-225.5246C369.102,-213.8274 457.5957,-193.5484 462.5,-188 473.4646,-175.5954 474.6537,-156.3715 473.5796,-141.8643"/>
<polygon fill="#191970" stroke="#191970" points="477.0517,-141.4202 472.4415,-131.881 470.0968,-142.2132 477.0517,-141.4202"/>
</g>
<!-- Node16&#45;&gt;Node15 -->
<g id="edge30" class="edge">
<title>Node16&#45;&gt;Node15</title>
<path fill="none" stroke="#191970" d="M265.3069,-224.2455C254.8679,-215.8943 239.6345,-203.7076 227.426,-193.9408"/>
<polygon fill="#191970" stroke="#191970" points="229.5485,-191.1566 219.5533,-187.6427 225.1756,-196.6227 229.5485,-191.1566"/>
</g>
<!-- Node17 -->
<g id="node18" class="node">
<title>Node17</title>
<polygon fill="none" stroke="#bfbfbf" points="271.5,-168.5 271.5,-187.5 325.5,-187.5 325.5,-168.5 271.5,-168.5"/>
<text text-anchor="middle" x="298.5" y="-175.5" font-family="Helvetica,sans-Serif" font-size="10.00" fill="#000000">phydro.h</text>
</g>
<!-- Node16&#45;&gt;Node17 -->
<g id="edge28" class="edge">
<title>Node16&#45;&gt;Node17</title>
<path fill="none" stroke="#191970" d="M281.1579,-224.2455C283.9584,-216.7776 287.909,-206.2427 291.3324,-197.1137"/>
<polygon fill="#191970" stroke="#191970" points="294.6499,-198.2349 294.884,-187.6427 288.0955,-195.777 294.6499,-198.2349"/>
</g>
<!-- Node18 -->
<g id="node19" class="node">
<title>Node18</title>
<g id="a_node19"><a xlink:href="assimilation_8tpp.html" target="_top" xlink:title="../src/assimilation.tpp">
<polygon fill="none" stroke="#000000" points="343.5,-168.5 343.5,-187.5 453.5,-187.5 453.5,-168.5 343.5,-168.5"/>
<text text-anchor="middle" x="398.5" y="-175.5" font-family="Helvetica,sans-Serif" font-size="10.00" fill="#000000">../src/assimilation.tpp</text>
</a>
</g>
</g>
<!-- Node16&#45;&gt;Node18 -->
<g id="edge31" class="edge">
<title>Node16&#45;&gt;Node18</title>
<path fill="none" stroke="#191970" d="M298.3006,-224.3733C317.7243,-215.3838 346.9224,-201.8706 368.7964,-191.7471"/>
<polygon fill="#191970" stroke="#191970" points="370.3656,-194.8776 377.9708,-187.5011 367.4255,-188.5249 370.3656,-194.8776"/>
</g>
<!-- Node20&#45;&gt;Node3 -->
<g id="edge34" class="edge">
<title>Node20&#45;&gt;Node3</title>
<path fill="none" stroke="#191970" d="M89.9588,-56.3733C121.7246,-46.6526 170.776,-31.6423 204.4156,-21.3482"/>
<polygon fill="#191970" stroke="#191970" points="205.7864,-24.589 214.3245,-18.316 203.7381,-17.8954 205.7864,-24.589"/>
</g>
<!-- Node20&#45;&gt;Node9 -->
<g id="edge36" class="edge">
<title>Node20&#45;&gt;Node9</title>
<path fill="none" stroke="#191970" d="M77.9254,-56.3733C95.9021,-47.4644 122.8441,-34.1127 143.209,-24.0203"/>
<polygon fill="#191970" stroke="#191970" points="144.9222,-27.0776 152.3281,-19.5011 141.8139,-20.8055 144.9222,-27.0776"/>
</g>
<!-- Node21 -->
<g id="node22" class="node">
<title>Node21</title>
<polygon fill="none" stroke="#bfbfbf" points="96,-.5 96,-19.5 125,-19.5 125,-.5 96,-.5"/>
<text text-anchor="middle" x="110.5" y="-7.5" font-family="Helvetica,sans-Serif" font-size="10.00" fill="#000000">list</text>
</g>
<!-- Node20&#45;&gt;Node21 -->
<g id="edge35" class="edge">
<title>Node20&#45;&gt;Node21</title>
<path fill="none" stroke="#191970" d="M67.5577,-56.2455C75.0142,-48.2155 85.7634,-36.6394 94.6417,-27.0781"/>
<polygon fill="#191970" stroke="#191970" points="97.3063,-29.3522 101.5461,-19.6427 92.1768,-24.589 97.3063,-29.3522"/>
</g>
<!-- Node22 -->
<g id="node23" class="node">
<title>Node22</title>
<polygon fill="none" stroke="#bfbfbf" points="29,-.5 29,-19.5 78,-19.5 78,-.5 29,-.5"/>
<text text-anchor="middle" x="53.5" y="-7.5" font-family="Helvetica,sans-Serif" font-size="10.00" fill="#000000">cassert</text>
</g>
<!-- Node20&#45;&gt;Node22 -->
<g id="edge37" class="edge">
<title>Node20&#45;&gt;Node22</title>
<path fill="none" stroke="#191970" d="M57.6291,-56.2455C56.9766,-48.9382 56.062,-38.6944 55.2593,-29.7046"/>
<polygon fill="#191970" stroke="#191970" points="58.7365,-29.2918 54.361,-19.6427 51.7642,-29.9143 58.7365,-29.2918"/>
</g>
</g>
</svg>
