<?xml version="1.0" encoding="UTF-8" standalone="no"?>
<!DOCTYPE svg PUBLIC "-//W3C//DTD SVG 1.1//EN"
 "http://www.w3.org/Graphics/SVG/1.1/DTD/svg11.dtd">
<!-- Generated by graphviz version 2.40.1 (20161225.0304)
 -->
<!-- Title: include/utils/rk4.h Pages: 1 -->
<svg width="307pt" height="196pt"
 viewBox="0.00 0.00 307.00 196.00" xmlns="http://www.w3.org/2000/svg" xmlns:xlink="http://www.w3.org/1999/xlink">
<g id="graph0" class="graph" transform="scale(1 1) rotate(0) translate(4 192)">
<title>include/utils/rk4.h</title>
<!-- Node1 -->
<g id="node1" class="node">
<title>Node1</title>
<polygon fill="#bfbfbf" stroke="#000000" points="72,-168.5 72,-187.5 165,-187.5 165,-168.5 72,-168.5"/>
<text text-anchor="middle" x="118.5" y="-175.5" font-family="Helvetica,sans-Serif" font-size="10.00" fill="#000000">include/utils/rk4.h</text>
</g>
<!-- Node2 -->
<g id="node2" class="node">
<title>Node2</title>
<g id="a_node2"><a xlink:href="plant__geometry_8cpp.html" target="_top" xlink:title="src/plant_geometry.cpp">
<polygon fill="none" stroke="#000000" points="0,-112.5 0,-131.5 119,-131.5 119,-112.5 0,-112.5"/>
<text text-anchor="middle" x="59.5" y="-119.5" font-family="Helvetica,sans-Serif" font-size="10.00" fill="#000000">src/plant_geometry.cpp</text>
</a>
</g>
</g>
<!-- Node1&#45;&gt;Node2 -->
<g id="edge1" class="edge">
<title>Node1&#45;&gt;Node2</title>
<path fill="none" stroke="#191970" d="M100.9693,-161.3607C90.7623,-151.6727 78.2531,-139.7995 69.6592,-131.6427"/>
<polygon fill="#191970" stroke="#191970" points="98.5604,-163.8998 108.223,-168.2455 103.3794,-158.8227 98.5604,-163.8998"/>
</g>
<!-- Node3 -->
<g id="node3" class="node">
<title>Node3</title>
<g id="a_node3"><a xlink:href="plant_8h.html" target="_top" xlink:title="include/plant.h">
<polygon fill="none" stroke="#000000" points="137.5,-112.5 137.5,-131.5 217.5,-131.5 217.5,-112.5 137.5,-112.5"/>
<text text-anchor="middle" x="177.5" y="-119.5" font-family="Helvetica,sans-Serif" font-size="10.00" fill="#000000">include/plant.h</text>
</a>
</g>
</g>
<!-- Node1&#45;&gt;Node3 -->
<g id="edge2" class="edge">
<title>Node1&#45;&gt;Node3</title>
<path fill="none" stroke="#191970" d="M136.0307,-161.3607C146.2377,-151.6727 158.7469,-139.7995 167.3408,-131.6427"/>
<polygon fill="#191970" stroke="#191970" points="133.6206,-158.8227 128.777,-168.2455 138.4396,-163.8998 133.6206,-158.8227"/>
</g>
<!-- Node4 -->
<g id="node4" class="node">
<title>Node4</title>
<g id="a_node4"><a xlink:href="plant_8cpp.html" target="_top" xlink:title="src/plant.cpp">
<polygon fill="none" stroke="#000000" points="83,-56.5 83,-75.5 156,-75.5 156,-56.5 83,-56.5"/>
<text text-anchor="middle" x="119.5" y="-63.5" font-family="Helvetica,sans-Serif" font-size="10.00" fill="#000000">src/plant.cpp</text>
</a>
</g>
</g>
<!-- Node3&#45;&gt;Node4 -->
<g id="edge3" class="edge">
<title>Node3&#45;&gt;Node4</title>
<path fill="none" stroke="#191970" d="M159.9707,-105.0751C149.9917,-95.4402 137.8524,-83.7196 129.4871,-75.6427"/>
<polygon fill="#191970" stroke="#191970" points="157.772,-107.8175 167.3972,-112.2455 162.6342,-102.7817 157.772,-107.8175"/>
</g>
<!-- Node5 -->
<g id="node5" class="node">
<title>Node5</title>
<g id="a_node5"><a xlink:href="pspm__interface_8h.html" target="_top" xlink:title="include/pspm_interface.h">
<polygon fill="none" stroke="#000000" points="174,-56.5 174,-75.5 299,-75.5 299,-56.5 174,-56.5"/>
<text text-anchor="middle" x="236.5" y="-63.5" font-family="Helvetica,sans-Serif" font-size="10.00" fill="#000000">include/pspm_interface.h</text>
</a>
</g>
</g>
<!-- Node3&#45;&gt;Node5 -->
<g id="edge4" class="edge">
<title>Node3&#45;&gt;Node5</title>
<path fill="none" stroke="#191970" d="M195.0307,-105.3607C205.2377,-95.6727 217.7469,-83.7995 226.3408,-75.6427"/>
<polygon fill="#191970" stroke="#191970" points="192.6206,-102.8227 187.777,-112.2455 197.4396,-107.8998 192.6206,-102.8227"/>
</g>
<!-- Node6 -->
<g id="node6" class="node">
<title>Node6</title>
<g id="a_node6"><a xlink:href="pspm__interface_8cpp.html" target="_top" xlink:title="src/pspm_interface.cpp">
<polygon fill="none" stroke="#000000" points="177,-.5 177,-19.5 296,-19.5 296,-.5 177,-.5"/>
<text text-anchor="middle" x="236.5" y="-7.5" font-family="Helvetica,sans-Serif" font-size="10.00" fill="#000000">src/pspm_interface.cpp</text>
</a>
</g>
</g>
<!-- Node5&#45;&gt;Node6 -->
<g id="edge5" class="edge">
<title>Node5&#45;&gt;Node6</title>
<path fill="none" stroke="#191970" d="M236.5,-46.1575C236.5,-37.155 236.5,-26.9199 236.5,-19.6427"/>
<polygon fill="#191970" stroke="#191970" points="233.0001,-46.2455 236.5,-56.2455 240.0001,-46.2456 233.0001,-46.2455"/>
</g>
</g>
</svg>
