<?xml version="1.0" encoding="UTF-8" standalone="no"?>
<!DOCTYPE svg PUBLIC "-//W3C//DTD SVG 1.1//EN"
 "http://www.w3.org/Graphics/SVG/1.1/DTD/svg11.dtd">
<!-- Generated by graphviz version 2.40.1 (20161225.0304)
 -->
<!-- Title: RK4 Pages: 1 -->
<svg width="189pt" height="88pt"
 viewBox="0.00 0.00 189.00 88.00" xmlns="http://www.w3.org/2000/svg" xmlns:xlink="http://www.w3.org/1999/xlink">
<g id="graph0" class="graph" transform="scale(1 1) rotate(0) translate(4 84)">
<title>RK4</title>
<!-- Node3 -->
<g id="node1" class="node">
<title>Node3</title>
<polygon fill="#bfbfbf" stroke="#000000" points="0,-30 0,-49 36,-49 36,-30 0,-30"/>
<text text-anchor="middle" x="18" y="-37" font-family="Helvetica,sans-Serif" font-size="10.00" fill="#000000">RK4</text>
</g>
<!-- Node4 -->
<g id="node2" class="node">
<title>Node4</title>
<g id="a_node2"><a xlink:href="classplant_1_1Plant.html#a274f7da212d5f05d4b281e49e11fc44e" target="_top" xlink:title="plant::Plant::grow\l_for_dt">
<polygon fill="none" stroke="#000000" points="80,-49.5 80,-79.5 173,-79.5 173,-49.5 80,-49.5"/>
<text text-anchor="start" x="88" y="-67.5" font-family="Helvetica,sans-Serif" font-size="10.00" fill="#000000">plant::Plant::grow</text>
<text text-anchor="middle" x="126.5" y="-56.5" font-family="Helvetica,sans-Serif" font-size="10.00" fill="#000000">_for_dt</text>
</a>
</g>
</g>
<!-- Node3&#45;&gt;Node4 -->
<g id="edge1" class="edge">
<title>Node3&#45;&gt;Node4</title>
<path fill="none" stroke="#191970" d="M46.4183,-46.048C56.667,-48.4094 68.5202,-51.1406 79.9132,-53.7657"/>
<polygon fill="#191970" stroke="#191970" points="46.9361,-42.5757 36.4055,-43.7409 45.3643,-49.3969 46.9361,-42.5757"/>
</g>
<!-- Node5 -->
<g id="node3" class="node">
<title>Node5</title>
<g id="a_node3"><a xlink:href="classplant_1_1PlantGeometry.html#a9d9d45d824d5a21c867c5c64cd66d1a8" target="_top" xlink:title="plant::PlantGeometry\l::grow_for_dt">
<polygon fill="none" stroke="#000000" points="72,-.5 72,-30.5 181,-30.5 181,-.5 72,-.5"/>
<text text-anchor="start" x="80" y="-18.5" font-family="Helvetica,sans-Serif" font-size="10.00" fill="#000000">plant::PlantGeometry</text>
<text text-anchor="middle" x="126.5" y="-7.5" font-family="Helvetica,sans-Serif" font-size="10.00" fill="#000000">::grow_for_dt</text>
</a>
</g>
</g>
<!-- Node3&#45;&gt;Node5 -->
<g id="edge2" class="edge">
<title>Node3&#45;&gt;Node5</title>
<path fill="none" stroke="#191970" d="M46.193,-33.2638C54.1273,-31.5087 63.0369,-29.5379 71.957,-27.5648"/>
<polygon fill="#191970" stroke="#191970" points="45.4136,-29.8515 36.4055,-35.4287 46.9255,-36.6863 45.4136,-29.8515"/>
</g>
</g>
</svg>
